<svg xmlns="http://www.w3.org/2000/svg" viewBox="0 0 249.27 443.88"><defs><style>.cls-1,.cls-2,.cls-3,.cls-5{fill:blue;}.cls-1,.cls-2,.cls-5{stroke:blue;stroke-miterlimit:10;}.cls-1{stroke-width:4px;}.cls-4{fill:#00ffa3;}.cls-5{stroke-width:3px;}</style></defs><title>chemistry</title><g id="Layer_2" data-name="Layer 2"><g id="Layer_1-2" data-name="Layer 1"><path class="cls-1" d="M141.46,441.88c-27.37,0-53.13-1.46-72.53-4.11-29.22-4-33.16-9-33.16-13.4,0-7.81,16.76-11.16,33.16-13.4,19.41-2.65,45.16-4.11,72.53-4.11S194.59,408.32,214,411c29.22,4,33.16,9,33.16,13.4,0,7.81-16.76,11.16-33.16,13.4C194.59,440.42,168.83,441.88,141.46,441.88Zm-97.3-17.51c5.53,3.82,37.82,10.3,97.3,10.3s91.77-6.49,97.3-10.3c-5.53-3.82-37.82-10.3-97.3-10.3S49.69,420.55,44.16,424.37Z"/><polygon class="cls-1" points="43.17 424.96 35.68 422.75 96.2 250.23 96.2 179.72 104.08 179.72 104.08 251.36 43.17 424.96"/><polygon class="cls-1" points="239.19 424.96 178.28 251.36 178.28 179.72 186.16 179.72 186.16 250.23 246.68 422.75 239.19 424.96"/><path class="cls-2" d="M140.43,196.23c-12.85,0-25-1-34.11-2.88-11-2.23-17.8-5.25-17.8-13.45s6.81-11.22,17.8-13.45c9.14-1.85,21.26-2.88,34.11-2.88s25,1,34.11,2.88c11,2.23,17.8,5.25,17.8,13.45s-6.81,11.22-17.8,13.45C165.39,195.21,153.28,196.23,140.43,196.23ZM107,179.9c7.45,1.56,18.69,2.88,33.44,2.88s26-1.32,33.44-2.88c-7.45-1.56-18.69-2.88-33.44-2.88S114.43,178.34,107,179.9Z"/><path class="cls-3" d="M106,258.26a30.73,30.73,0,0,0,15.47,3.58,1.55,1.55,0,1,0,0-3.09,27.11,27.11,0,0,1-13.77-3.16C105.81,254.59,104.11,257.26,106,258.26Z"/><path class="cls-3" d="M129.93,261.76a65.11,65.11,0,0,0,12.4.4c2.15-.14,2.17-3.23,0-3.09a60.64,60.64,0,0,1-11.5-.29C128.7,258.51,127.78,261.49,129.93,261.76Z"/><path class="cls-3" d="M153.56,262.91l9.52-1.75c2.13-.39,1.23-3.37-.9-3l-9.52,1.75C150.54,260.33,151.44,263.3,153.56,262.91Z"/><path class="cls-3" d="M170,258.6a9.08,9.08,0,0,0,5.16-8.32c-.07-2-3.44-2-3.37,0a6,6,0,0,1-3.49,5.65C166.35,256.9,168.05,259.57,170,258.6Z"/><path class="cls-3" d="M106.43,252.55a12.5,12.5,0,0,1,12-6.64c2.17.11,2.16-3,0-3.09-6.29-.32-12.28,2.93-14.95,8.17C102.61,252.79,105.51,254.36,106.43,252.55Z"/><path class="cls-3" d="M127.83,247.18a44.32,44.32,0,0,1,12.86.21c2.12.34,3-2.63.9-3a50,50,0,0,0-14.65-.21C124.79,244.48,125.7,247.46,127.83,247.18Z"/><path class="cls-3" d="M150.66,246.25a44.26,44.26,0,0,1,16.23,1.27,1.56,1.56,0,1,0,.9-3,46.88,46.88,0,0,0-17.13-1.38C148.53,243.38,148.51,246.47,150.66,246.25Z"/><path class="cls-3" d="M96.31,320.1c3.25,8.79,2.28,18.24,2.11,27.38q-.27,14.22-.55,28.44-.55,28.44-1.09,56.88c0,2,3.33,2,3.37,0q.57-29.45,1.13-58.91.27-14.22.55-28.44c.17-8.79.85-17.71-2.27-26.17C98.87,317.4,95.61,318.21,96.31,320.1Z"/><path class="cls-3" d="M98.36,334.08a50.32,50.32,0,0,1,14.46-2.23,1.55,1.55,0,1,0,0-3.09,53.64,53.64,0,0,0-15.36,2.34A1.56,1.56,0,1,0,98.36,334.08Z"/><path class="cls-3" d="M97.52,341.61l6.62-1.52c2.1-.48,1.21-3.46-.9-3l-6.62,1.52C94.52,339.12,95.41,342.1,97.52,341.61Z"/><path class="cls-3" d="M99.21,348.63l6.59-.95c2.14-.31,1.23-3.29-.9-3l-6.59.95C96.18,346,97.09,348.94,99.21,348.63Z"/><path class="cls-3" d="M97.49,356.73l5.79.8a1.77,1.77,0,0,0,2.07-1.08,1.54,1.54,0,0,0-1.18-1.9l-5.79-.8a1.77,1.77,0,0,0-2.08,1.08A1.55,1.55,0,0,0,97.49,356.73Z"/><path class="cls-3" d="M93.8,370.77,114.47,369c2.14-.19,2.16-3.28,0-3.09L93.8,367.68C91.66,367.87,91.63,371,93.8,370.77Z"/><path class="cls-3" d="M94.6,378.91h7.45a1.55,1.55,0,1,0,0-3.09H94.6A1.55,1.55,0,1,0,94.6,378.91Z"/><path class="cls-3" d="M96.64,387.94a13.52,13.52,0,0,0,7.1-.87,1.49,1.49,0,0,0,.6-2.11,1.82,1.82,0,0,0-2.31-.55,9,9,0,0,1-4.5.56A1.77,1.77,0,0,0,95.47,386,1.54,1.54,0,0,0,96.64,387.94Z"/><path class="cls-3" d="M95.81,394.8l6.61.84a1.77,1.77,0,0,0,2.08-1.08,1.54,1.54,0,0,0-1.18-1.9l-6.61-.84a1.77,1.77,0,0,0-2.07,1.08A1.54,1.54,0,0,0,95.81,394.8Z"/><path class="cls-3" d="M93.78,414.54l20.7-.89a1.55,1.55,0,1,0,0-3.09l-20.7.89A1.55,1.55,0,1,0,93.78,414.54Z"/><path class="cls-3" d="M173.18,266a3,3,0,0,0-1.42,5.22c1.94,1.69,5.14,1.19,6.84-.53a3.86,3.86,0,0,0,0-5.85,4.54,4.54,0,0,0-5.9.1c-1.43,1.48.94,3.68,2.39,2.19a.89.89,0,0,1,1.42,1,1.91,1.91,0,0,1-1.64,1c-.4,0-.51-.18-.81-.27h0s-.61.17,0,.07C176.21,268.65,175.3,265.67,173.18,266Z"/><path class="cls-3" d="M158.49,227c-3.51,3.4.12,7.32,3.95,8.54,5,1.58,9.43-1,10.16-5.8.59-3.87-2.14-8.47-6.66-9a6.37,6.37,0,0,0-7.05,7.51c.42,1.95,3.67,1.12,3.25-.82a3.14,3.14,0,0,1,3.79-3.57c2.13.46,3.37,2.83,3.4,4.67s-1.11,4.09-3.34,4.4c-1.53.21-7.37-1.57-5.1-3.77C162.36,227.73,160,225.54,158.49,227Z"/><path class="cls-3" d="M151.18,210.28a1.55,1.55,0,1,0,0-3.09A1.55,1.55,0,1,0,151.18,210.28Z"/><path class="cls-3" d="M121.13,235a1.55,1.55,0,1,0,0-3.09A1.55,1.55,0,1,0,121.13,235Z"/><path class="cls-3" d="M162.15,319.93l.38.35a1.83,1.83,0,0,0,2.39,0,1.47,1.47,0,0,0,0-2.19l-.38-.35a1.83,1.83,0,0,0-2.38,0A1.47,1.47,0,0,0,162.15,319.93Z"/><path class="cls-3" d="M139,142.37c-2.86,1.86-6.25,4.4-5.37,8,.82,3.37,4.42,4.5,7.47,2.64a37.67,37.67,0,0,0,5.4-4.14c1.2-1.08,2.28-2.53,1.83-4.14-1-3.62-7.67-4-10.85-3.67-1.79.18-1.81,2.79,0,2.6,2.11-.22,5-.28,6.9.85,2.59,1.58-1.94,4.16-3.19,5.11-.83.64-2.23,2.05-3.52,1.75-1.05-.25-1.42-1.57-1.34-2.41.18-2,2.51-3.36,4.1-4.38A1.33,1.33,0,0,0,139,142.37Z"/><path class="cls-3" d="M147.45,110.91c-1.66,1.94-.52,4.72,2,5.46,2.92.84,5.35-1.53,6.28-3.81,1-2.44.27-5.83-3.18-5.86s-4.78,2.91-5,5.53c-.16,1.66,2.67,1.65,2.84,0,.1-1,.37-2.31,1.43-2.78,1.68-.74,1.71,1.07,1.35,2.06a3.54,3.54,0,0,1-2.1,2.35c-.46.12-2.18-.46-1.62-1.12C150.56,111.44,148.57,109.59,147.45,110.91Z"/><path class="cls-3" d="M18.87,131.42a3.66,3.66,0,0,0,1.27,5.78,4,4,0,0,0,5.6-3.53c-.17-4.89-9.07-3.8-8.92.8.05,1.67,2.89,1.68,2.84,0,0-1.14,2.18-2.06,3.05-1.14.55.58-.24,1.7-1,1.61s-1.23-1.16-.79-1.69C22,132,20,130.1,18.87,131.42Z"/><path class="cls-3" d="M41.36,62.39a8.36,8.36,0,0,0,7.2,3.94c2.64,0,5.45-1.44,5.62-4.08.15-2.3-1.7-4.51-4-5.35-3.55-1.3-7.32.59-10.31,2.22-1.57.86-.14,3.1,1.43,2.24,2.6-1.42,8.11-4.23,9.81-.22.82,1.93-1.47,2.72-3.2,2.56a5.41,5.41,0,0,1-4.14-2.63C42.92,59.61,40.47,60.92,41.36,62.39Z"/><path class="cls-3" d="M35.44,22a5.08,5.08,0,0,0,5.31,1,3.72,3.72,0,0,0,2.34-4,3.48,3.48,0,0,0-3.46-2.94,3.69,3.69,0,0,0-3.74,2.51c-.4,1.63,2.33,2.32,2.74.69a.86.86,0,0,1,1.67.22c0,1.52-2,1.45-2.84.62C36.17,19,34.17,20.81,35.44,22Z"/><path class="cls-4" d="M119.15,28.35a1.3,1.3,0,1,0,0-2.6A1.3,1.3,0,1,0,119.15,28.35Z"/><path class="cls-3" d="M138.1,5.6c-3.85,2.6-4.69,7.66-1.46,11.05,3.39,3.55,10,4.13,13.82.81,9.46-8.25-11.64-18.79-15.28-9.17-.6,1.58,2.14,2.26,2.73.69,1.27-3.38,6.68-1.47,9-.21,3.5,1.91,4.25,5.94,0,7.71a7.55,7.55,0,0,1-8.17-1.56,4.62,4.62,0,0,1,.74-7.08A1.33,1.33,0,0,0,138.1,5.6Z"/><path class="cls-3" d="M115.22,104.75c-4.36-4.84-14.18-.49-17.94,3.13-5.54,5.33-2.21,11.75,3.41,15.61,5,3.4,12.41,4.71,16.63-.4a14.89,14.89,0,0,0,3.22-9.26c-.14-3.38-3.29-6.07-5.42-8.57-1.12-1.32-3.11.53-2,1.84,1.28,1.5,3.28,3.16,4,4.93.87,2,.24,4.76-.58,6.8-2.22,5.51-7.81,6.23-12.9,3.41-4.68-2.59-9.11-7.89-4.39-12.52,2.62-2.58,10.84-6.55,13.93-3.12C114.37,107.88,116.37,106,115.22,104.75Z"/><path class="cls-3" d="M165.8,303.76c-5.92-.73-10.82,1.26-15.09,5-3.75,3.29-8.62,8.07-9.11,13.07-1.15,11.84,13.06,16.46,23.37,17.07,5.58.33,11.71.48,16.13-3.17a17.1,17.1,0,0,0,6-13.7c-.42-5.7-5.45-9-9.69-12.65-4.57-3.9-9.16-7.47-15.74-5.82-2.09.52-1.2,3.51.9,3,6.35-1.59,10.82,3.61,14.91,7.13,3,2.56,6.22,5.05,6.31,9.14s-2.61,9.7-6.75,11.82c-3.52,1.8-8.24,1.41-12.11,1.18-8-.47-18.37-2.92-19.83-11.48-1.36-8,11.43-18.63,19.75-17.59C167,307,167.94,304,165.8,303.76Z"/><path class="cls-3" d="M101.08,2.39C90.23-.76,77,5.84,71.9,14.81c-5.26,9.24-.72,20.5,8.46,26,20,11.91,49.65-5.38,41-27.4C117.3,3.18,104.73-2.37,93.5,1a1.31,1.31,0,1,0,.75,2.5c11.14-3.31,23.11,3.16,25.29,13.73C122,29,112.58,39.78,100,41.82s-26.58-5-27.46-17.43C71.68,12.19,87.78,1.25,100.32,4.9A1.31,1.31,0,1,0,101.08,2.39Z"/><path class="cls-3" d="M168.38,51.79c-6.07.05-6,6.91-2,9.53,4.65,3,11.95,2.14,15.54-2,3.22-3.67,2.85-9.87-1.55-12.6-4.07-2.53-10-1.15-12.2,2.89-.82,1.5,1.68,2.71,2.5,1.21a5.85,5.85,0,0,1,6.92-2.47c3.1,1,4.16,4.34,3.38,7.07-.83,2.91-4,4.76-7.1,5a9.91,9.91,0,0,1-4.9-.76c-1.68-.77-5.19-5.28-.51-5.32A1.3,1.3,0,1,0,168.38,51.79Z"/><path class="cls-3" d="M205.76,389.43c-2.73.44-2.52,3.9-.56,5.08,3.12,1.87,5.79-1.88,6.3-4.25.61-2.84-1.06-6.49-4.77-6.23-2.94.2-4.63,3.94-2.15,5.72,1.69,1.21,4.09-1,2.38-2.19-.45-.32,0-.46.41-.36.94.24,1,1.56.87,2.24a4.78,4.78,0,0,1-.76,1.89l-.83,1.09C208.79,392.07,207.89,389.09,205.76,389.43Z"/><path class="cls-3" d="M128.51,344.67v.67a1.69,1.69,0,0,0,3.37,0v-.67a1.69,1.69,0,0,0-3.37,0Z"/><path class="cls-3" d="M100.35,300.91c-1.23,2.9,2,6.15,5.27,5.64,3.85-.61,4.72-5.08,3.19-7.83a5.91,5.91,0,0,0-8.33-2.2c-2.7,1.83-3.41,5.29-1.27,7.7,1.37,1.54,3.74-.65,2.39-2.19-.76-.85-.13-2.23.66-2.87a2.26,2.26,0,0,1,3.24.48c.71.86,1.31,3.15-.16,3.76a1.34,1.34,0,0,1-1.72-1.68C104.38,299.88,101.12,299.08,100.35,300.91Z"/><path class="cls-3" d="M157.91,199.23a1.55,1.55,0,1,0,0-3.09A1.55,1.55,0,1,0,157.91,199.23Z"/><path class="cls-3" d="M116,134a1.3,1.3,0,1,0,0-2.6A1.3,1.3,0,1,0,116,134Z"/><path class="cls-3" d="M176.71,353.35c1.19,5.69,8,9.54,14.06,7.52,5.74-1.91,8.67-8.47,6.4-13.59-2.38-5.36-9.75-8.08-15.57-6a11.71,11.71,0,0,0-7.4,14.12c.56,1.92,3.81,1.11,3.25-.82-2.46-8.49,10-15.44,15.86-7.45a7.17,7.17,0,0,1-2.47,10.25c-4.43,2.54-10-.56-10.88-4.9C179.55,350.58,176.3,351.41,176.71,353.35Z"/><path class="cls-5" d="M228,376.26c-.05-8.41-10-11.36-17.19-12.41A41.11,41.11,0,0,0,181.28,371c-4.23,2.91-8.12,6.45-12.82,8.67-6.91,3.27-13.68,1.67-20.5-.74-8.8-3.12-17.23-7.18-26.73-4.45a2.21,2.21,0,0,0,1.21,4.25c15.89-4.55,29.77,12,46.07,5.73,7.81-3,13.42-9.49,20.84-13.15a35.7,35.7,0,0,1,16.84-3.51c4.94.17,17.24,1.67,17.28,8.43C223.47,379.09,228,379.1,228,376.26Z"/><path class="cls-3" d="M120.13,85.63c-.57,7.28,6.56,13.47,14.05,12.23,8.24-1.37,13.3-10.15,12.09-17.78-1.11-7-7.32-13.89-15.13-13.39S117.58,75,119.93,82.14c.74,2.26,4.43,1.29,3.68-1-1.93-5.88,3.94-12,10.23-10.58,4.72,1,7.89,5.61,8.6,10a12.35,12.35,0,0,1-5.51,12.34c-5.72,3.48-13.52-.5-13-7.29C124.13,83.25,120.31,83.26,120.13,85.63Z"/><path class="cls-3" d="M77,67.28C63.75,65.6,51.34,74.95,47.07,86.79c-2.11,5.86-2.33,13,2,18,3.91,4.55,10.27,6.07,16.06,6.88,13.8,1.92,25.05-3.6,26.42-17.86,1.07-11.1-3.3-28.1-18.21-25.48-2.41.42-1.39,4,1,3.57C87.58,69.57,89.5,89,87,97.52c-3.34,11.62-15.51,12.11-25.76,9.69-6-1.43-11.23-4.53-11.85-11.17-.4-4.34,1.19-9,3.48-12.64C58,75.21,66.93,69.71,77,71,79.39,71.29,79.36,67.58,77,67.28Z"/><path class="cls-3" d="M99,138.66c-3.4,3.15-.58,7.76,3.39,8.61,4.23.91,9.13-1.29,10.82-5.22,1.54-3.57.09-8.29-3.74-9.84a7,7,0,0,0-9.13,4.09c-.77,2.27,2.92,3.24,3.68,1a3.07,3.07,0,0,1,3.7-1.76c1.84.53,2.6,2.73,2.22,4.41a5.32,5.32,0,0,1-4.21,3.68c-1.12.25-6.2-.32-4-2.33C103.52,139.63,100.81,137,99,138.66Z"/><path class="cls-3" d="M3.82,44.6c-2.12,2.85.64,6.81,4,7,4.06.25,6.26-4.08,5.94-7.48-.36-3.78-3.58-7.47-7.69-7.41C2.17,36.79-1,40.8.32,44.42c.84,2.22,4.53,1.26,3.68-1a2.31,2.31,0,0,1,2.36-3c1.64.07,2.9,1.65,3.37,3a4.08,4.08,0,0,1-.43,3.74c-.87,1.07-3.07.47-2.18-.72C8.56,44.53,5.24,42.68,3.82,44.6Z"/></g></g></svg>