<?xml version="1.0" encoding="utf-8"?>
<!-- Generator: Adobe Illustrator 19.0.0, SVG Export Plug-In . SVG Version: 6.00 Build 0)  -->
<svg version="1.1" id="Шар_1" xmlns="http://www.w3.org/2000/svg" xmlns:xlink="http://www.w3.org/1999/xlink" x="0px" y="0px"
	 viewBox="109 325.9 188 191" style="enable-background:new 109 325.9 188 191;" xml:space="preserve">
<style type="text/css">
	.st0{filter:url(#Adobe_OpacityMaskFilter);}
	.st1{fill:#FFFFFF;}
	.st2{mask:url(#mask-2);fill:#0000FF;}
</style>
<title>gender</title>
<desc>Created with Sketch.</desc>
<g id="Social-issues">
	<g id="gender">
		<g id="Page-1" transform="translate(156.000000, 155.000000)">
			<g id="Clip-2">
			</g>
			<defs>
				<filter id="Adobe_OpacityMaskFilter" filterUnits="userSpaceOnUse" x="-47" y="170.9" width="188" height="191">
					<feColorMatrix  type="matrix" values="1 0 0 0 0  0 1 0 0 0  0 0 1 0 0  0 0 0 1 0"/>
				</filter>
			</defs>
			<mask maskUnits="userSpaceOnUse" x="-47" y="170.9" width="188" height="191" id="mask-2">
				<g class="st0">
					<polygon id="path-1" class="st1" points="141,361.9 -47,361.9 -47,170.9 141,170.9 					"/>
				</g>
			</mask>
			<path id="Fill-1" class="st2" d="M47,174.6c-49.8,0-90.3,41.2-90.3,91.8s40.5,91.8,90.3,91.8s90.3-41.2,90.3-91.8
				S96.8,174.6,47,174.6 M47,361.9c-51.8,0-94-42.8-94-95.5c0-52.6,42.2-95.5,94-95.5s94,42.8,94,95.5C141,319,98.8,361.9,47,361.9"
				/>
		</g>
	</g>
</g>
</svg>
