<svg xmlns="http://www.w3.org/2000/svg" viewBox="0 0 464.84 423.22"><defs><style>.cls-1{font-size:57.66px;}.cls-1,.cls-2,.cls-3{fill:blue;}.cls-1,.cls-2{font-family:Poppins-ExtraBold, Poppins;font-weight:700;}.cls-2{font-size:32.68px;}</style></defs><title>co2</title><g id="Layer_2" data-name="Layer 2"><g id="Layer_1-2" data-name="Layer 1"><text class="cls-1" transform="translate(204.65 387.64)">CO</text><text class="cls-2" transform="translate(293.68 387.64)">2</text><path class="cls-3" d="M197.19,186.33a34.62,34.62,0,0,0,63.57,19l1.05-1.61L254,198.61l-1.06,1.6a25.31,25.31,0,1,1-3.27-31.77l1.36,1.36,6.58-6.58-1.36-1.36a34.62,34.62,0,0,0-59.1,24.48Z"/><path class="cls-3" d="M179.69,144c5,1.79,10.61-.11,15.3-2,6.75-2.77,13.46-5.74,20.1-8.78,3.52-1.61,7.55-4,7.31-8.48-.17-3.12-2.4-5.68-5.64-5.2s-5.46,2.51-8.83,2.55a13.87,13.87,0,0,1-8.6-2.88l.72-.26c1.68-.53,1-3.19-.73-2.65a48.14,48.14,0,0,0-14.6,7.47c-3.59,2.73-9.9,7.66-10.79,12.47C173.22,139.89,176.52,142.85,179.69,144Zm-1.88-9.44c1.3-3.69,7.31-7.82,10.32-9.89a42.87,42.87,0,0,1,8.23-4.38,16.83,16.83,0,0,0,15.06,4.11c1.39-.32,3-1.5,4.36-1.65q1.76-1.43,2.43,1.36,2.41,1.43.63,3a6.52,6.52,0,0,1-2.94,2.64c-4,2.28-8.47,3.83-12.65,5.66s-8.6,4.05-13.1,5.46a20.4,20.4,0,0,1-6.32,1.1,10,10,0,0,1-4.27-1C177.39,139.8,177,136.79,177.81,134.53Z"/><path class="cls-3" d="M232.37,115.62c5-1.38,8.74-2.61,13.53.38a1.39,1.39,0,0,0,1.67-.22,4,4,0,0,0-.62-6.08c-1.44-1.13-3.33-1.17-5-1.6a11.81,11.81,0,0,1-6.09-3.73l.49-.36c1.41-1,0-3.43-1.39-2.38-.3.22-.69.49-1.13.79a1.48,1.48,0,0,0-1.61,1.08C228,106.38,221.79,111.11,226,115,227.71,116.67,230.27,116.2,232.37,115.62Zm-.45-8.34,1.71-1.27a13.89,13.89,0,0,0,6.49,4.45c.54.17,5.21.93,5.76,2.38a14.66,14.66,0,0,0-10.72-1.06c-1,.29-2,.74-3,1-2,.57-2.93,1.5-3.38-1S229.86,108.82,231.92,107.27Z"/><path class="cls-3" d="M262.35,116.12l3.25,2.49a1.38,1.38,0,0,0,1.88-.49,1.41,1.41,0,0,0-.49-1.88l-3.26-2.49a1.38,1.38,0,0,0-1.88.49A1.41,1.41,0,0,0,262.35,116.12Z"/><path class="cls-3" d="M251.28,244.69c-11.35,2.65-21.54,7.38-33.5,4.36-7.84-2-14.44-10.35-22.92-9.53-4.89.48-9.65,4.14-8.74,9.53,1.09,6.44,9,8.77,14.37,9.8,5.12,1,9.78,1.48,14.61,3.58a19.74,19.74,0,0,0,11.79,1.13l.1,0a1.68,1.68,0,0,0,1.71.22A42.72,42.72,0,0,1,246.8,261c3.62.25,7.41,1.11,11,.12,4.83-1.33,9.28-6,7.28-11.31C263,244.2,256.26,243.52,251.28,244.69Zm5.43,12.43a20,20,0,0,1-5.7.16c-2.6-.12-5.15-.55-7.77-.53a45.51,45.51,0,0,0-15.62,3.06,2.24,2.24,0,0,0-.27.13,2.07,2.07,0,0,0-1.55-.32c-6.41,1.1-10.65-2.65-16.57-3.74-3.74-.69-7.59-.63-11.27-1.77a16.92,16.92,0,0,1-4.62-1.92q.33-4.19.65-8.38c3.62-3.17,13.63,5.61,17,7.19a35,35,0,0,0,12.78,3.08,53.41,53.41,0,0,0,14.05-1.21c5.28-1.09,11.82-4.94,17.18-4.33Q262.16,246.93,256.71,257.12Z"/><path class="cls-3" d="M273.51,249.29c.81,1.66,2.64,1.85,4.26,1.41a49.62,49.62,0,0,0,6.81-2.63,8.88,8.88,0,0,0,4.55-3.83c1.44-2.83.47-8.11-3.22-8.74-2.06-.35-3.7,1.58-5.12,2.77q-3.5,2.92-6.86,6a1.76,1.76,0,0,0-.35,2.34A3,3,0,0,0,273.51,249.29Zm8.78-7c.41-.35,2.32-2.4,2.8-2.34s.67.78.63,1.47c-.14,2-2.43,2.74-4,3.36-1,.42-2.1.8-3.16,1.2l-.86.33C279.22,245,280.74,243.66,282.29,242.34Z"/><path class="cls-3" d="M464.79,67.94a69.85,69.85,0,1,0-127.93,40.68L312,126.69A99.37,99.37,0,0,0,147.12,237.4L116,260a69.6,69.6,0,0,0-46-17.4h-.14a69.85,69.85,0,0,0-.29,139.7h.37a69.82,69.82,0,0,0,69.81-67.94h0v-3.84h0a69.61,69.61,0,0,0-15.31-41.75l29.7-21.58a99.33,99.33,0,0,0,177.08-59.92h0v-3.84h0a98.89,98.89,0,0,0-12.64-46.65L344.4,118c.39.41.78.84,1.18,1.24a69.83,69.83,0,0,0,119.2-47.48h0V67.94Zm-354,285.45a57.81,57.81,0,1,1,16.93-40.88A57.61,57.61,0,0,1,110.74,353.38ZM293.57,123.66a87.33,87.33,0,1,1-61.75-25.58A87,87,0,0,1,293.57,123.66Zm142.29-12.92a57.82,57.82,0,1,1,16.93-40.88A57.6,57.6,0,0,1,435.86,110.74Z"/><path class="cls-3" d="M421.18,71.16h-.1a26.2,26.2,0,1,0,0,3.84h.1V71.16ZM406.92,85a16.89,16.89,0,1,1,4.95-11.94A16.81,16.81,0,0,1,406.92,85Z"/><path class="cls-3" d="M427.3,41.2c7.22,2.26,21.61,8.74,14.58,18.65-1,1.45,1.36,2.82,2.37,1.39,3-4.28,2.28-9.89-.75-14-3.64-4.94-9.86-6.94-15.47-8.69C426.34,38,425.61,40.67,427.3,41.2Z"/><path class="cls-3" d="M423.22,47a1.38,1.38,0,0,0,0,2.75,8.12,8.12,0,0,1,6.7,3.56c1,1.46,3.37.08,2.37-1.39A11,11,0,0,0,423.22,47Z"/><path class="cls-3" d="M396.82,25.18l.19,0a1.39,1.39,0,0,0,.18.38,22.28,22.28,0,0,0,13.49,9.58c3.27.75,8.45.83,10.07-2.86,1.87-4.26-4.1-7.21-7.13-8.54a26.39,26.39,0,0,0-17.53-1.17A1.38,1.38,0,0,0,396.82,25.18Zm11.06-.43c2.4.49,8.38,2.06,9.71,4.57,2.64,5-7,3-8.71,2.37a19.44,19.44,0,0,1-9-7.13A22.78,22.78,0,0,1,407.88,24.74Z"/><path class="cls-3" d="M347.76,77.69a1.63,1.63,0,0,0-2.44.35,1.76,1.76,0,0,0-1.11.4c-7.13,5.48,3,14.38,6.55,18.78a2.06,2.06,0,0,0,2.9,0C360.16,90.25,353.64,82.17,347.76,77.69ZM352,92.42c-2.83-3.18-7.72-8.89-5.71-10.44a2.22,2.22,0,0,0,.17-.16C349.55,84.33,353.52,88.51,352,92.42Z"/><path class="cls-3" d="M344.6,72.85a16.63,16.63,0,0,1-2.4-8.48c0-2.64-4.13-2.64-4.1,0a20.88,20.88,0,0,0,3,10.55C342.41,77.18,346,75.12,344.6,72.85Z"/><path class="cls-3" d="M96.05,310.58H96a26.2,26.2,0,1,0,0,3.84h.1v-3.84ZM81.8,324.44a16.89,16.89,0,1,1,4.95-11.94A16.82,16.82,0,0,1,81.8,324.44Z"/><path class="cls-3" d="M52.81,269.81c.57-1.52.91-3,.08-4.56-4.3-8-13.94,2.77-19.82,10.39-7.52,6.94-14.54,15.64-14.18,26.16.13,4,1.78,8.19,6.16,8.83,5.43.79,9-3.83,11.3-8.06,3.92-7.25,7.43-14.75,11.13-22.12C49.25,277,51.45,273.46,52.81,269.81Zm-17,27.68c-2.13,4.23-5.59,12.76-11.45,9.41-4.59-2.63-2.7-9.86-1-14.05a35,35,0,0,1,5.57-9,1.08,1.08,0,0,0,1.55-.23q3-3.82,6.17-7.55c1-.85,2-1.69,2.93-2.51a1.11,1.11,0,0,0,.35-1.38,41.65,41.65,0,0,1,3.67-4.1c.85-.78,3.3-2.93,4.39-2.64l1.91,4-.81,1.6c-1.33,4.35-4.4,8.74-6.44,12.81Z"/><path class="cls-3" d="M23.38,323.9c.43-1.72-2.22-2.45-2.65-.73a8.78,8.78,0,0,0,1,6.8c.92,1.51,3.3.13,2.38-1.39A6,6,0,0,1,23.38,323.9Z"/><path class="cls-3" d="M30.34,339.9a1.38,1.38,0,0,0-1.95,1.94l2.46,2.46a1.38,1.38,0,0,0,1.94-1.94Z"/><path class="cls-3" d="M119.36,337.17A17,17,0,0,0,124,324.75c-.11-2.63-4.21-2.64-4.1,0a12.81,12.81,0,0,1-3.44,9.51C114.67,336.2,117.56,339.1,119.36,337.17Z"/></g></g></svg>