<svg xmlns="http://www.w3.org/2000/svg" viewBox="0 0 296.39 337.72"><defs><style>.cls-1{fill:blue;}</style></defs><title>cotton</title><g id="Layer_2" data-name="Layer 2"><g id="Layer_1-2" data-name="Layer 1"><path class="cls-1" d="M83.49,225.07a62.41,62.41,0,0,1-29.18-14.13c-30.31-25.81-40-77.29-42.53-96.07,39.4,15.75,67,35,81.19,56.34,2.34-1.92,4.19-4.47,6.39-6.3-16.2-23.67-46.76-44.09-91.23-60.86l-6.45-2.43.54,6.88c.24,3,6.31,75,46.39,109.1a70.86,70.86,0,0,0,34.2,16.28C82.69,231.89,83.25,228,83.49,225.07Z"/><path class="cls-1" d="M84.43,235.69l-1.87-.33a72.52,72.52,0,0,1-34.91-16.62C7.1,184.2,1,111.68.73,108.61L0,99.38l8.66,3.27c44.64,16.83,75.57,37.49,91.94,61.41l.77,1.13-1,.87a33.3,33.3,0,0,0-2.91,2.88,36.46,36.46,0,0,1-3.49,3.42l-1.28,1.05L91.72,172c-13.63-20.57-40.6-39.49-78.09-54.8,8.64,58.84,31.93,84.29,41.65,92.57a61.08,61.08,0,0,0,28.48,13.8l1.33.25L85,225.19c-.08.91-.18,1.92-.29,2.93a44.08,44.08,0,0,0-.39,5.66ZM3.36,103.86l.35,4.52c.24,3,6.27,74.33,45.87,108.08a69.69,69.69,0,0,0,31.75,15.62c.07-1.29.23-2.79.38-4.26.05-.52.11-1,.16-1.54a64.12,64.12,0,0,1-28.53-14.19c-13.26-11.29-24.06-28.55-32.11-51.32a240.53,240.53,0,0,1-10.94-45.7l-.35-2.55,2.39,1c39,15.58,66.21,34.24,80.91,55.47.68-.66,1.33-1.36,2-2s1.41-1.51,2.15-2.22C81.17,141.73,51,121.81,7.61,105.46Z"/><path class="cls-1" d="M99.34,235.42c-15.54,0-25.85-5.82-26.46-6.17l-2-1.15-.19-2.29c-1.65-20.31,4-38.21,16.74-53.19,14.08-16.53,36.35-29.19,66.18-37.62a229.86,229.86,0,0,1,40.45-7.72l6.88-.54-2.43,6.45c-20.46,54.25-46.47,87.34-77.31,98.36A64.75,64.75,0,0,1,99.34,235.42ZM79.28,222.66c5.26,2.33,20.23,7.42,39.2.57,26.57-9.6,50.42-39.4,69.22-86.38-18.47,2.55-68.49,12-93.59,41.48C83.43,190.87,78.45,205.77,79.28,222.66Z"/><path class="cls-1" d="M99.34,236.92c-16,0-26.76-6.11-27.21-6.37L69.46,229l-.25-3.07c-1.69-20.72,4.07-39,17.1-54.28,14.28-16.76,36.79-29.58,66.91-38.09A230.24,230.24,0,0,1,194,125.79l9.23-.73-3.27,8.66C179.3,188.41,153,221.8,121.71,233A66.43,66.43,0,0,1,99.34,236.92Zm-27-9.72,1.31.76c.42.24,10.48,6,25.71,6a63.42,63.42,0,0,0,21.37-3.78c30.41-10.86,56.12-43.66,76.41-97.48l1.6-4.24-4.52.35A227,227,0,0,0,154,136.45c-29.54,8.35-51.55,20.85-65.44,37.15-12.5,14.67-18,32.19-16.39,52.09Zm26.93,1A51.54,51.54,0,0,1,78.67,224l-.85-.37,0-.92C76.93,205.45,82,190.19,93,177.36s27.79-23.43,49.92-31.28a234.71,234.71,0,0,1,44.61-10.71L190,135l-1,2.4c-18.95,47.34-43.19,77.51-70.11,87.23A57.84,57.84,0,0,1,99.25,228.18Zm-18.51-6.53c5.92,2.44,19.8,6.46,37.23.17,25.64-9.26,48.9-38,67.37-83.11-57.26,8.47-82,31.14-90.08,40.6C85,191.3,80.15,205.55,80.74,221.65Z"/><path class="cls-1" d="M243.08,250.14a246.23,246.23,0,0,0-34.83-27.31C190,211,172.65,203,156.32,199.06c.32,3.33.58,6.55-.11,6.77a8.5,8.5,0,0,1-1.27.28v2.12c33.43,8.44,64.21,32.95,76.36,43.55-51.13,18.58-92.05,20.64-118.65,5.89a58.25,58.25,0,0,1-25.94-28.43c-3.34-.23-6.69-.63-10-1,2.4,7.52,10.11,25.46,31.38,37.35q19.92,11.14,47.78,11.13c24.23,0,52.88-6.34,85.7-19l6.67-2.57Z"/><path class="cls-1" d="M155.85,278.25c-18.75,0-35.07-3.81-48.51-11.32a68.48,68.48,0,0,1-32.07-38.2l-.7-2.19L79,227c2.55.28,5.18.56,7.76.74l.93.06.36.86a57.09,57.09,0,0,0,25.29,27.69c25.73,14.26,65.46,12.48,115-5.13-12.9-11-42.22-33.58-73.8-41.56l-1.13-.29v-4.57l1.27-.19.42-.07a46.63,46.63,0,0,0-.3-5.35l-.2-2.1,2,.5c16.51,4,34.14,12.07,52.4,24a248.5,248.5,0,0,1,35.06,27.49l6.8,6.66-8.85,3.41C209.23,271.82,180.22,278.25,155.85,278.25ZM78.88,230A65.83,65.83,0,0,0,108.8,264.3c13,7.26,28.82,10.94,47,10.94,24,0,52.65-6.36,85.16-18.9l4.5-1.74-3.47-3.4a245.17,245.17,0,0,0-34.6-27.12c-17.22-11.23-33.84-19-49.43-23.06.32,3.94.18,5.58-1.12,6.15,33.3,8.92,63.74,33.29,75.41,43.47l1.92,1.67-2.39.87c-51.51,18.72-93,20.72-119.89,5.79a60.24,60.24,0,0,1-26.24-28.31C83.4,230.5,81.11,230.25,78.88,230Z"/><path class="cls-1" d="M247.33,127.89C264.71,89.36,251,43.9,214.84,24s-82-7-105.13,28.42C77.47,37.66,38,51.17,20,84.08a73.34,73.34,0,0,0-8.51,26.09,67.13,67.13,0,0,1,11.39,5.27,60.47,60.47,0,0,1,7.41-25.7c14.8-27,46.91-38.19,73.44-26.54A84,84,0,0,0,96,92.32l11.83.55a71.77,71.77,0,0,1,8.74-29.08c18.55-33.77,60-46.78,92.36-29s43.64,59.73,25.09,93.5a71.65,71.65,0,0,1-20.71,23.62l6.66,9.8a83.87,83.87,0,0,0,21.54-23c25.56,15.63,34.11,49.79,18.92,77.44A60,60,0,0,1,227.84,244c3.93,2.62,7.94,5.11,11.67,8a72.75,72.75,0,0,0,31.23-30.17C289.2,188.17,278.63,146.62,247.33,127.89Z"/><path class="cls-1" d="M29.94,337.72c-8.3-22.6-3.52-49.89,13.82-78.93A200.82,200.82,0,0,1,72,222.12l9.36,9.51a190.77,190.77,0,0,0-26.29,34.24c-10.52,17.69-21.25,43.71-12.6,67.24ZM81.37,231.63l-4.68-4.76,4.68,4.75Z"/><path class="cls-1" d="M118,86.22c1.47-4.46,3-9,5.43-13.06,3-4.91,7.1-7.07,11.77-10.06,4.08-2.61,7.42-6.12,11.9-8.11a27,27,0,0,1,18-1.24,1.5,1.5,0,0,0,.8-2.89,30.38,30.38,0,0,0-16.76.15c-6.13,1.88-10.21,6.12-15.45,9.51-4.71,3-8.85,5.14-12.08,9.93-3.05,4.53-4.81,9.84-6.5,15-.6,1.84,2.29,2.63,2.89.8Z"/><path class="cls-1" d="M89.76,79.62a22.1,22.1,0,0,0-5.52,24c.68,1.79,3.58,1,2.89-.8a19.14,19.14,0,0,1,4.74-21.05c1.4-1.33-.72-3.45-2.12-2.12Z"/><path class="cls-1" d="M122.22,128a52.58,52.58,0,0,1,30.27-9.14c9.5.16,22.42,2.94,25.34,13.48a1.5,1.5,0,0,0,2.89-.8c-2.85-10.27-13.78-14.33-23.43-15.38a55.14,55.14,0,0,0-36.59,9.24c-1.59,1.07-.09,3.67,1.51,2.59Z"/><path class="cls-1" d="M234.47,225.93c6.82-5,12.55-11.75,17.31-18.73s2.31-14.24-1-21.34c-.82-1.75-3.41-.23-2.59,1.51,1.52,3.23,3.37,6.93,3.45,10.59.1,4.43-2.28,7.61-4.84,10.92-4.11,5.31-8.38,10.44-13.82,14.45-1.54,1.13,0,3.74,1.51,2.59Z"/><path class="cls-1" d="M35.24,106.94c1.31-7.4,3-16,10.27-19.82,1.71-.9.19-3.49-1.51-2.59-8,4.21-10.2,13.4-11.65,21.61-.33,1.89,2.56,2.7,2.89.8Z"/><path class="cls-1" d="M225.84,92.82a32.11,32.11,0,0,1,6.08,21.68c-.15,1.93,2.85,1.92,3,0a34.73,34.73,0,0,0-6.49-23.2c-1.12-1.55-3.72-.06-2.59,1.51Z"/><path class="cls-1" d="M175.81,43a33.79,33.79,0,0,1,39,3.88c1.44,1.27,3.57-.84,2.12-2.12a36.88,36.88,0,0,0-42.65-4.35A1.5,1.5,0,0,0,175.81,43Z"/><path class="cls-1" d="M99.25,213.68a68.72,68.72,0,0,0,48.26-34.77c.92-1.7-1.67-3.21-2.59-1.51a65.88,65.88,0,0,1-46.46,33.39c-1.9.33-1.09,3.23.8,2.89Z"/><path class="cls-1" d="M25,143.26c7.85,8.79,9.61,21.36,16.15,31.09s15.25,17.59,23.89,25.35c1.43,1.29,3.56-.83,2.12-2.12C57.93,189.27,48.43,180.78,42,170c-5.61-9.34-7.43-20.6-14.83-28.88-1.29-1.44-3.4.68-2.12,2.12Z"/><path class="cls-1" d="M119.81,251.28c8.74,4.7,18.49,5.78,28.29,5.64a184.05,184.05,0,0,0,33.57-3.7c1.89-.38,1.09-3.27-.8-2.89a181.5,181.5,0,0,1-31.1,3.56c-9.81.24-19.66-.47-28.45-5.2-1.7-.91-3.22,1.67-1.51,2.59Z"/><path class="cls-1" d="M69.22,254.15a26.8,26.8,0,0,0-6.68,14c-.29,1.89,2.6,2.7,2.89.8a24,24,0,0,1,5.91-12.63c1.29-1.43-.83-3.56-2.12-2.12Z"/><path class="cls-1" d="M107.57,28.06a59.59,59.59,0,0,1,37-25.12c1.89-.41,1.09-3.31-.8-2.89A62.65,62.65,0,0,0,105,26.54c-1.08,1.61,1.52,3.11,2.59,1.51Z"/><path class="cls-1" d="M275,134.65c6.71,7.77,10.54,17.22,13.37,27s7.31,21.77,3.55,31.71c-.68,1.81,2.22,2.59,2.89.8,4-10.58-.56-23-3.55-33.31s-7.07-20.13-14.14-28.31c-1.26-1.46-3.38.67-2.12,2.12Z"/></g></g></svg>