<svg xmlns="http://www.w3.org/2000/svg" viewBox="0 0 215.38 391.77"><defs><style>.cls-1{fill:blue;}</style></defs><title>drop</title><g id="Layer_2" data-name="Layer 2"><g id="Layer_1-2" data-name="Layer 1"><path class="cls-1" d="M205,241.78h0L111.4,0,68.48,109.33,43.74,45.45,4.31,145.88h0A43.09,43.09,0,0,0,0,164.74a43.54,43.54,0,0,0,30.44,41.47l-14,35.53,0,0a104.61,104.61,0,1,0,198.85,45.39A103.83,103.83,0,0,0,205,241.78Zm-199.39-77a37.66,37.66,0,0,1,3.63-16.17c-.05-.29,34.48-87.73,34.48-87.73L65.46,117l-33,84A37.94,37.94,0,0,1,5.59,164.74Zm67-29.41L77,146.8c0,.13,4.35,11.61,4.35,17.94a37.92,37.92,0,0,1-35.24,37.77C53.87,182.74,63.3,158.8,72.55,135.33Zm38.2,243A91.15,91.15,0,0,1,28.32,248.23c0-.19,6.34-16.53,15.56-40a43.42,43.42,0,0,0,38.74-62.3h0l-7.06-18.23c18.66-47.35,35.75-90.6,35.75-90.6L191.44,244c0,.3,10.48,27.93,10.48,43.17A91.27,91.27,0,0,1,110.75,378.31Z"/><path class="cls-1" d="M172.09,250.92c-7.15-4.12-16,4.59-20.56,9.52-10.58,11.45-5.73,25.1-9.08,38.83-2.28,9.34-9.32,16-17,21.21-5.43,3.65-15.06,10.08-22.51,8.63a2.71,2.71,0,0,0-.78-1.16l-4.39-4a2.85,2.85,0,0,0-2.79-.74c-21.57,8.6-6.31,33.59,7.46,41.48,22.72,13,45.05-6,59-22.95a156.11,156.11,0,0,0,20.51-32.12c4.66-9.79,11-22.15,8.93-33.27C189.1,267,180.3,255.64,172.09,250.92Zm6.17,53a150.29,150.29,0,0,1-21.92,35C147,350,134.25,363.18,118.67,363.42c-7.88.12-14.94-3.77-20.57-9-3.29-3.07-6.54-7-7.75-11.48-1-3.61.25-11.37,3.71-12.37,12.85,12,35.24-3.62,44.9-13.82,7.41-7.82,9.85-16.7,10.23-27.26.32-8.8-.15-16.78,5.71-24,2.48-3.07,7.13-8.28,11-9.09s5.88,1.75,8.32,4.16c5.33,5.27,10.86,11.54,11.25,19.42S181.36,297,178.26,303.93Z"/><path class="cls-1" d="M135.12,130.24c2.44,2.78,6.49-1.29,4.06-4.06a45,45,0,0,1-8-13c-1.36-3.38-6.91-1.91-5.53,1.53A53.15,53.15,0,0,0,135.12,130.24Z"/><path class="cls-1" d="M143.36,158.17a2.87,2.87,0,0,0,5-2.9l-2.19-4.38a2.87,2.87,0,1,0-5,2.9Z"/><path class="cls-1" d="M167,208.85a54.88,54.88,0,0,1-8.43-29.17c0-3.69-5.76-3.7-5.74,0a60.75,60.75,0,0,0,9.21,32.07C164,214.88,169,212,167,208.85Z"/><path class="cls-1" d="M34.22,112.93c-.93,4.7-5.37,7.33-7.61,11.36-2,3.53-2.5,7.39-.4,11,1.87,3.18,6.83.3,5-2.9-2.19-3.74,2.19-7.57,4.39-10.15a17,17,0,0,0,4.2-7.75C40.47,110.85,34.94,109.31,34.22,112.93Z"/><path class="cls-1" d="M55.44,321.57a23.41,23.41,0,0,1-12.33-11.91c-1.55-3.35-6.5-.44-5,2.9a28.1,28.1,0,0,0,14.38,14C55.9,328,58.83,323,55.44,321.57Z"/><path class="cls-1" d="M76.56,350a25.17,25.17,0,0,1-10.71-8.14c-2.28-2.9-6.31,1.18-4.06,4.06A30.55,30.55,0,0,0,75,355.49C78.48,356.82,80,351.28,76.56,350Z"/></g></g></svg>