<?xml version="1.0" encoding="utf-8"?>
<!-- Generator: Adobe Illustrator 21.0.2, SVG Export Plug-In . SVG Version: 6.00 Build 0)  -->
<svg version="1.1" id="Layer_1" xmlns="http://www.w3.org/2000/svg" xmlns:xlink="http://www.w3.org/1999/xlink" x="0px" y="0px"
	 viewBox="0 0 152.7 37.3" style="enable-background:new 0 0 152.7 37.3;" xml:space="preserve">
<style type="text/css">
	.st0{fill:#FFFFFF;}
</style>
<g>
	<g id="XMLID_93_">
		<g id="XMLID_155_">
			<path id="XMLID_174_" class="st0" d="M61.8,11.9l-3.2,0c-0.5,0-1,0.4-1.2,0.9L53.5,24l-4.2-11.2c-0.2-0.5-0.7-0.9-1.2-0.9l-3.2,0
				c-0.5,0-0.7,0.4-0.6,0.9l6.6,17c0.1,0.2,0.1,0.3,0.2,0.4c0.1,0.1,0.1,0.2,0.2,0.3c0,0,0.1,0,0.1,0.1c0.1,0.1,0.3,0.2,0.6,0.2
				l0.2,0l2.6,0c0.5,0,1-0.4,1.2-0.9l6.3-17.2C62.5,12.3,62.3,11.9,61.8,11.9 M34.8,11.7c-4.9,0-7.9,3.6-7.9,8.4l0,1.9l0,2.2l0,0.1
				c0,0.1,0,0.3,0,0.4c0,1.4-0.6,1.6-1.3,1.8c-0.7,0.2-8.5,0.2-10.8,0.1v0c-2.6,0-4.7-2.4-4.7-5.4c0-3.1,2.1-5.4,4.7-5.4
				c2.1,0,4,1.4,4.7,3.5l-4.9,0c-0.5,0-0.9,0.4-0.9,0.9l0,2.1c0,0.5,0.4,0.9,0.9,0.9l8.3,0c0,0,1.1,0,1.1-1
				c0.2-6.7-4.1-10.7-9.1-10.7c-5.1,0-9.2,4.4-9.2,9.7c0,5.3,4.2,9.6,9.2,9.6c0.5,0,11.9,0.5,13.5-0.8c0.7-0.4,1.5-1,2-2
				c0.6-0.9,0.8-2.1,0.8-3.3l0,0.2c0-0.2,0-0.6,0-0.8v-1.8c0-0.1,0-0.1,0-0.2l0-2.1c0-2.1,1.5-3.6,3.5-3.6c3.1,0,3.3,2.6,3.3,2.6
				c0.1,0.5,0.1,1.3,0.1,1.8l0,9.1c0,0.5,0.4,0.9,0.9,0.9l2.9,0c0.5,0,0.9-0.4,0.9-0.9l0-9.9C42.9,15.1,39.9,11.7,34.8,11.7
				 M88.7,11.8l-2.9,0c-0.5,0-0.9,0.4-0.9,0.9l0,9.8c0,2.1-1.4,3.4-3.4,3.4c-3.1,0-3.5-2.6-3.5-2.6c-0.1-0.5-0.2-1.3-0.2-1.8
				l-0.1-2.8c0-0.1,0-0.1,0-0.2c0-0.1,0-0.2,0-0.2l0.1,0.9c0-1-0.1-3.4-0.9-5c-0.5-0.8-1.3-1.5-2.3-2c-1-0.5-2.1-0.8-3.4-0.8
				c-0.1,0-0.2,0-0.3,0c-0.7,0-2.3,0.1-3.9,1.1c-0.8,0.5-1.6,1.3-2.2,2.4c-0.6,1.1-0.8,2.4-0.8,3.9c0,0.1,0,0.2,0,1l0,9.9
				c0,0.5,0.4,0.9,0.9,0.9l2.9,0c0.5,0,0.9-0.4,0.9-0.9l0-9.3l0-1.4c0-0.1,0-0.1,0-0.2c0-0.8,0.2-1.3,0.3-1.6l-0.2,0.4
				c0.7-2.8,4.2-2,4.4-0.4c0,0,0.2,0.2,0.3,1.7l0.2,4.4c0.1,4.1,2.7,7.3,7.8,7.3c4.9,0,8.2-3.6,8.2-8.4l0-9.7
				C89.6,12.2,89.2,11.8,88.7,11.8 M66.1,9.1c1.5,0,2.7-1.3,2.7-2.8c0-1.5-1.2-2.8-2.7-2.8c-1.5,0-2.7,1.3-2.7,2.8
				C63.4,7.8,64.6,9.1,66.1,9.1"/>
		</g>
	</g>
	<g>
		<path class="st0" d="M99.4,15.6h-1l-0.7-2.5L97,15.6h-1l-1.2-3.8h1l0.7,2.7l0.7-2.7h1l0.7,2.7l0.7-2.7h1L99.4,15.6z"/>
		<path class="st0" d="M101.7,14.1c0.1,0.5,0.5,0.8,1,0.8c0.3,0,0.6-0.1,0.8-0.4h1c-0.2,0.8-0.9,1.3-1.9,1.3c-1.1,0-2-0.9-2-2
			c0-1.1,0.9-2,2-2c1.1,0,2.1,0.9,1.9,2.4H101.7z M103.6,13.3c-0.1-0.4-0.5-0.7-1-0.7c-0.4,0-0.8,0.3-0.9,0.7H103.6z"/>
		<path class="st0" d="M109.3,15.7c-0.5,0-0.9-0.2-1.2-0.5v0.4h-0.9v-5.5h1v2.1c0.3-0.3,0.7-0.4,1.1-0.4c1,0,1.8,0.9,1.8,2
			C111.2,14.8,110.3,15.7,109.3,15.7z M109.2,12.6c-0.5,0-1,0.5-1,1.1c0,0.6,0.4,1.1,1,1.1c0.5,0,1-0.5,1-1.1
			C110.2,13.1,109.7,12.6,109.2,12.6z"/>
		<path class="st0" d="M115.1,15.6h-0.9v-0.4c-0.2,0.3-0.6,0.4-1,0.4c-0.9,0-1.5-0.7-1.5-1.7v-2.2h1V14c0,0.2,0.1,0.8,0.7,0.8
			c0.4,0,0.7-0.3,0.7-0.8v-2.2h1V15.6z"/>
		<path class="st0" d="M116.9,11.4h-1v-0.9h1V11.4z M116.9,15.6h-1v-3.8h1V15.6z"/>
		<path class="st0" d="M118.7,15.6h-1v-5.5h1V15.6z"/>
		<path class="st0" d="M123.2,15.6h-0.9v-0.4c-0.3,0.3-0.7,0.5-1.2,0.5c-1,0-1.8-0.9-1.8-2c0-1.1,0.8-2,1.8-2c0.4,0,0.8,0.2,1.1,0.4
			v-2.1h1V15.6z M121.3,12.6c-0.5,0-1,0.5-1,1.1c0,0.6,0.4,1.1,1,1.1c0.5,0,1-0.5,1-1.1C122.2,13.1,121.8,12.6,121.3,12.6z"/>
		<path class="st0" d="M99.4,23.1h-1l-0.7-2.5L97,23.1h-1l-1.2-3.8h1l0.7,2.7l0.7-2.7h1l0.7,2.7l0.7-2.7h1L99.4,23.1z"/>
		<path class="st0" d="M104.5,21.2c0,1.1-0.9,2-1.9,2c-1.1,0-1.9-0.9-1.9-2c0-1.1,0.9-2,1.9-2C103.7,19.2,104.5,20.1,104.5,21.2z
			 M103.5,21.2c0-0.7-0.4-1.1-0.9-1.1c-0.5,0-0.9,0.5-0.9,1.1c0,0.6,0.4,1.1,0.9,1.1C103.1,22.3,103.5,21.9,103.5,21.2z"/>
		<path class="st0" d="M107.3,20.2c-0.4,0-0.7,0-0.9,0.2c-0.2,0.2-0.2,0.5-0.2,0.8v1.9h-1v-3.8h0.9v0.4c0.3-0.4,0.8-0.5,1.2-0.5
			V20.2z"/>
		<path class="st0" d="M108.8,23.1h-1v-5.5h1V23.1z"/>
		<path class="st0" d="M113.4,23.1h-0.9v-0.4c-0.3,0.3-0.7,0.5-1.2,0.5c-1,0-1.8-0.9-1.8-2c0-1.1,0.8-2,1.8-2c0.4,0,0.8,0.2,1.1,0.4
			v-2.1h1V23.1z M111.4,20.1c-0.5,0-1,0.5-1,1.1c0,0.6,0.4,1.1,1,1.1c0.5,0,1-0.5,1-1.1C112.4,20.6,111.9,20.1,111.4,20.1z"/>
		<path class="st0" d="M118,23.2c-1.2,0-2-0.9-2-2c0-1.1,0.8-2,2-2c0.9,0,1.6,0.5,1.8,1.4h-1c-0.1-0.3-0.4-0.5-0.8-0.5
			c-0.5,0-1,0.5-1,1.1c0,0.6,0.4,1.1,1,1.1c0.4,0,0.7-0.2,0.8-0.5h1C119.6,22.7,118.9,23.2,118,23.2z"/>
		<path class="st0" d="M123.8,23.1h-1v-2.2c0-0.2-0.1-0.7-0.7-0.7c-0.4,0-0.7,0.3-0.7,0.7v2.2h-1v-5.5h1v1.9
			c0.2-0.2,0.5-0.3,0.9-0.3c0.9,0,1.6,0.7,1.6,1.7V23.1z"/>
		<path class="st0" d="M127.1,22.8c-0.3,0.3-0.6,0.4-1.2,0.4c-0.8,0-1.6-0.4-1.6-1.2c0-0.9,0.7-1.1,1.6-1.2c0.6-0.1,1.1-0.1,1.1-0.4
			c0-0.2-0.3-0.4-0.7-0.4c-0.4,0-0.8,0.2-0.8,0.5h-1c0.1-0.7,0.8-1.3,1.8-1.3c1.6,0,1.7,1,1.7,1.3v2c0,0.2,0.1,0.5,0.1,0.6h-0.9
			C127.2,23,127.2,22.9,127.1,22.8z M127.1,21.3c-0.2,0.1-0.5,0.2-0.9,0.2c-0.5,0.1-0.8,0.2-0.8,0.4c0,0.2,0.3,0.4,0.6,0.4
			c0.6,0,1.1-0.2,1.1-0.7V21.3z"/>
		<path class="st0" d="M132.3,23.1h-1v-2.2c0-0.2-0.1-0.8-0.7-0.8c-0.4,0-0.7,0.3-0.7,0.8v2.2h-1v-3.8h0.9v0.4
			c0.2-0.3,0.6-0.5,1-0.5c0.9,0,1.5,0.7,1.5,1.7V23.1z"/>
		<path class="st0" d="M136.8,22.9c0,1.3-0.8,2.1-2,2.1c-0.9,0-1.7-0.5-1.9-1.3h1.1c0.1,0.3,0.5,0.4,0.8,0.4c0.7,0,1-0.5,1-1.1v-0.2
			c-0.3,0.3-0.7,0.4-1.1,0.4c-1,0-1.8-0.9-1.8-2c0-1.1,0.8-2,1.8-2c0.5,0,0.9,0.2,1.2,0.5v-0.4h0.9V22.9z M134.8,20.1
			c-0.5,0-1,0.5-1,1.1c0,0.6,0.4,1.1,1,1.1c0.5,0,1-0.5,1-1.1C135.8,20.6,135.4,20.1,134.8,20.1z"/>
		<path class="st0" d="M138.6,18.9h-1v-0.9h1V18.9z M138.6,23.1h-1v-3.8h1V23.1z"/>
		<path class="st0" d="M142.8,23.1h-1v-2.2c0-0.2-0.1-0.8-0.7-0.8c-0.4,0-0.7,0.3-0.7,0.8v2.2h-1v-3.8h0.9v0.4
			c0.2-0.3,0.6-0.5,1-0.5c0.9,0,1.5,0.7,1.5,1.7V23.1z"/>
		<path class="st0" d="M147.3,22.9c0,1.3-0.8,2.1-2,2.1c-0.9,0-1.7-0.5-1.9-1.3h1.1c0.1,0.3,0.5,0.4,0.8,0.4c0.7,0,1-0.5,1-1.1v-0.2
			c-0.3,0.3-0.7,0.4-1.1,0.4c-1,0-1.8-0.9-1.8-2c0-1.1,0.8-2,1.8-2c0.5,0,0.9,0.2,1.2,0.5v-0.4h0.9V22.9z M145.4,20.1
			c-0.5,0-1,0.5-1,1.1c0,0.6,0.4,1.1,1,1.1c0.5,0,1-0.5,1-1.1C146.3,20.6,145.9,20.1,145.4,20.1z"/>
		<path class="st0" d="M96.9,30.7c-1.2,0-2-0.9-2-2c0-1.1,0.8-2,2-2c0.9,0,1.6,0.5,1.8,1.4h-1c-0.1-0.3-0.4-0.5-0.8-0.5
			c-0.5,0-1,0.5-1,1.1c0,0.6,0.4,1.1,1,1.1c0.4,0,0.7-0.2,0.8-0.5h1C98.6,30.2,97.9,30.7,96.9,30.7z"/>
		<path class="st0" d="M103,28.7c0,1.1-0.9,2-1.9,2c-1.1,0-1.9-0.9-1.9-2c0-1.1,0.9-2,1.9-2C102.1,26.7,103,27.6,103,28.7z
			 M102,28.7c0-0.7-0.4-1.1-0.9-1.1c-0.5,0-0.9,0.5-0.9,1.1c0,0.6,0.4,1.1,0.9,1.1C101.6,29.8,102,29.4,102,28.7z"/>
		<path class="st0" d="M109.4,30.6h-1v-2.2c0-0.2-0.1-0.8-0.7-0.8c-0.4,0-0.7,0.3-0.7,0.8v2.2h-1v-2.2c0-0.2-0.1-0.8-0.7-0.8
			c-0.4,0-0.7,0.3-0.7,0.8v2.2h-1v-3.8h0.9v0.4c0.2-0.3,0.6-0.5,1-0.5c0.5,0,0.9,0.2,1.1,0.5c0.3-0.3,0.7-0.5,1.2-0.5
			c1,0,1.6,0.7,1.6,1.7V30.6z"/>
		<path class="st0" d="M112.3,30.7c-0.4,0-0.8-0.2-1.1-0.5v2.1h-1v-5.5h0.9v0.4c0.3-0.3,0.7-0.5,1.2-0.5c1,0,1.8,0.9,1.8,2
			C114.1,29.8,113.3,30.7,112.3,30.7z M112.2,27.6c-0.5,0-1,0.5-1,1.1c0,0.6,0.4,1.1,1,1.1s1-0.5,1-1.1
			C113.2,28.1,112.7,27.6,112.2,27.6z"/>
		<path class="st0" d="M117.2,30.3c-0.3,0.3-0.6,0.4-1.2,0.4c-0.8,0-1.6-0.4-1.6-1.2c0-0.9,0.7-1.1,1.6-1.2c0.6-0.1,1.1-0.1,1.1-0.4
			c0-0.2-0.3-0.4-0.7-0.4c-0.4,0-0.8,0.2-0.8,0.5h-1c0.1-0.7,0.8-1.3,1.8-1.3c1.6,0,1.7,1,1.7,1.3v2c0,0.2,0.1,0.5,0.1,0.6h-0.9
			C117.3,30.5,117.2,30.4,117.2,30.3z M117.2,28.8c-0.2,0.1-0.5,0.2-0.9,0.2c-0.5,0.1-0.8,0.2-0.8,0.4c0,0.2,0.3,0.4,0.6,0.4
			c0.6,0,1.1-0.2,1.1-0.7V28.8z"/>
		<path class="st0" d="M122.3,30.6h-1v-2.2c0-0.2-0.1-0.8-0.7-0.8c-0.4,0-0.7,0.3-0.7,0.8v2.2h-1v-3.8h0.9v0.4
			c0.2-0.3,0.6-0.5,1-0.5c0.9,0,1.5,0.7,1.5,1.7V30.6z"/>
		<path class="st0" d="M124.1,26.4h-1v-0.9h1V26.4z M124.1,30.6h-1v-3.8h1V30.6z"/>
		<path class="st0" d="M125.7,29.1c0.1,0.5,0.5,0.8,1,0.8c0.3,0,0.6-0.1,0.8-0.4h1c-0.2,0.8-0.9,1.3-1.9,1.3c-1.1,0-2-0.9-2-2
			c0-1.1,0.9-2,2-2c1.1,0,2.1,0.9,1.9,2.4H125.7z M127.6,28.3c-0.1-0.4-0.5-0.7-1-0.7c-0.4,0-0.8,0.3-0.9,0.7H127.6z"/>
		<path class="st0" d="M130.7,30.7c-1,0-1.7-0.5-1.8-1.3h1c0.1,0.3,0.5,0.4,0.8,0.4c0.4,0,0.7-0.1,0.7-0.3c0-0.2-0.1-0.3-0.8-0.4
			c-0.7-0.1-1.6-0.3-1.6-1.1c0-0.6,0.5-1.2,1.6-1.2c0.9,0,1.5,0.5,1.7,1.2h-1c-0.1-0.2-0.3-0.3-0.6-0.3c-0.5,0-0.6,0.2-0.6,0.3
			c0,0.2,0.3,0.3,0.8,0.3c1,0.2,1.6,0.4,1.6,1.2C132.4,30.2,131.7,30.7,130.7,30.7z"/>
	</g>
</g>
</svg>
