<svg xmlns="http://www.w3.org/2000/svg" viewBox="0 0 445.9 436.1"><defs><style>.cls-1{fill:blue;}</style></defs><title>europe</title><g id="Layer_2" data-name="Layer 2"><g id="Layer_1-2" data-name="Layer 1"><path class="cls-1" d="M39.23,139.59a31,31,0,0,1-4.51-.32c-10.45-1.53-17.38-8.65-19.51-20l-.1-.53,0-.22c-.06-.53-.56-3.62-4.68-7.17a38.77,38.77,0,0,0-3.65-2.69c-2.93-2-6-4-6.67-7.94-.55-3.06.52-6.27,3.47-10.41,3.37-4.73,7.48-5.85,10.34-6h.5c8.68,0,16.68,8.46,19.76,12.15a3.76,3.76,0,0,0,.44.45A20.24,20.24,0,0,0,38,94.55c3.73-2.94,8.83-7,16.22-6,9.15,1.19,19.88,9,24.45,17.66,2.68,5.12,3,10,.83,14.17C75.82,127.52,56,139.59,39.23,139.59ZM23.49,118c1.52,7.76,5.59,12,12.44,13,14.35,2.11,33.88-10.08,36.13-14.44,1.05-2,.14-4.63-.8-6.44C68,103.88,59.54,97.69,53.15,96.85c-3.89-.5-6.83,1.82-9.95,4.27-3.37,2.66-9.65,7.62-15.43.68-4.65-5.58-9.85-9.14-13.32-9.14h-.19c-.92,0-2.32.33-3.83,2.45-2.17,3-2,4.05-2,4.06.2.51,2,1.7,3.12,2.49A45.89,45.89,0,0,1,15.93,105C22.4,110.55,23.36,116.14,23.49,118Zm-8.35.61Z"/><path class="cls-1" d="M151,302.35a20.9,20.9,0,0,1-10.83-2.65c-4-2.41-8.23-7.31-7.87-17.22a12.7,12.7,0,0,1-2.66,3.47c-3.17,2.89-9.37,5.45-20.94,1.21-6.77-2.48-10.76-7.5-11.26-14.13-.86-11.49,9.43-26.38,18.85-31.53,4.78-2.61,5.75-4,5.9-4.55.41-1.59-2.55-6.27-5.16-10.4-2.74-4.33-3.54-8.14-2.46-11.62,1.88-6.05,8.62-8.94,17.15-12.6,2-.85,4-1.72,6.13-2.69,12.43-5.7,14.72-16.75,14.81-17.22l.39-2,1.79-1c4-2.1,6.64-1.11,8.12.09,4.48,3.63,2.57,11.39-1.84,27.21-1.86,6.69-5.3,19-4.34,22,4.08,3.86,7.54,10.71,11.19,17.95,2.83,5.61,5.76,11.41,8.57,14.73A23,23,0,0,1,182,278.74a23.85,23.85,0,0,1-9.06,16.35C168,299,159.17,302.35,151,302.35ZM144.15,253a4.23,4.23,0,0,1,2.25,6.73c-.38.51-2.39,3.79-5.14,18.16-1.45,7.55-.36,12.48,3.23,14.64,5.92,3.57,18.14.05,23.18-4a15.54,15.54,0,0,0,6-10.62,14.73,14.73,0,0,0-3.47-11c-3.45-4.07-6.6-10.32-9.65-16.37-3.22-6.39-6.56-13-9.61-15.76-4.75-4.32-2.4-13.82,2.17-30.23.69-2.48,1.56-5.61,2.33-8.65a35.27,35.27,0,0,1-14,11.36c-2.2,1-4.3,1.91-6.32,2.77-5.76,2.47-11.71,5-12.45,7.38-.3,1,.25,2.62,1.54,4.66,4.36,6.9,7.51,11.88,6.18,17-1.09,4.2-4.78,7-10,9.8-8.27,4.52-15,16.94-14.51,23.55.25,3.34,2.09,5.53,5.79,6.89,5.94,2.18,10.35,2.35,12.4.47,1.81-1.66,2.27-5.41,1.15-9.57-2-7.61,1.3-16.78,7.28-20a8.62,8.62,0,0,1,10.91,2A6.5,6.5,0,0,0,144.15,253Zm-7.51,4.42a4.44,4.44,0,0,0-1.79,1.7,11.42,11.42,0,0,0-1.62,8.92,26.64,26.64,0,0,1,.73,3.72,82.62,82.62,0,0,1,3.74-13.32c-.19-.2-.39-.4-.6-.63A1.57,1.57,0,0,0,136.64,257.41Z"/><path class="cls-1" d="M266.69,436.1h-.34c-5.11-.19-8.73-4.67-12.93-10.5-.9-1.26-3.65-5.07-2.22-9.27,1.57-4.58,6.62-6.08,12-7.67,3.64-1.08,7.76-2.3,9.59-4.3,1-1.06.88-1.57.86-1.74-.61-3.65-12-9.88-18.19-13.23-4.51-2.46-7.08-3.94-9-5-3.47-2-3.88-2.24-9.85-4.57-.49,3.28,1.28,12.34,4.4,19.62,2.59,6,.08,9.91-2.86,11.38-6.25,3.13-14.43-2.67-18.73-10.09-6-10.32-1-19.62,2.56-26.4.76-1.43,1.5-2.82,2.1-4.12-2,.76-4.42,1.85-6.16,2.63a79.26,79.26,0,0,1-8.37,3.41,12.28,12.28,0,0,1-8.59-.67,14,14,0,0,1-1.88,5.31c-3.53,5.93-11.31,10-20.83,10.87a4.07,4.07,0,0,0-2.86,1.1c-1.43,1.81-.73,6.91-.17,11s1.12,8.11.37,11.59c-1.66,7.74-6.32,10.1-10.83,12.38a38.49,38.49,0,0,0-6.09,3.59c-9.7,7.28-36.6,3.33-50.49-7.4-6.15-4.75-9.25-13.6-8.74-24.92.6-13,6.42-29.58,16.41-35.93,14.64-9.32,32.44-.79,44.22,4.85l1.81.87c.23-1.45.34-4.71-.9-11.51-1.16-6.36-3-13.24-4.13-17.36l-.46-1.7c-1.3-4.86-12.87-10.94-20.67-13.7l-.45-.16-.4-.26c-5.6-3.57-5.75-6.76-4.9-8.81,2-4.71,8.91-3.54,17.77-1.52,8.63,2,15.42,1.18,19.12-2.23a9.24,9.24,0,0,0,2.88-8c-1-7.11,6.74-10.19,14.23-13.17,5.87-2.33,13.18-5.24,14.55-9.34,4.54-13.61,16.57-27.48,32.28-25.72h.08a62.47,62.47,0,0,1-6-11.05c-5.74-14.15,7.92-24.52,15.94-28l.29-.13.31-.08a6,6,0,0,1,5.29.93c3,2.27,3,6.5,3.07,11.39,0,2.24.07,6.84.86,8,7,2.74,11.17,8.17,12.75,16.61.35,1.86,1,2.41,11.57,1.56,2.87-.23,6.65-1.62,10.66-3.1,7.92-2.91,17.78-6.54,28-4a7,7,0,0,0,1.58.23c.46-2.24-1.44-8.91-2.49-12.59-1.34-4.69-2.6-9.13-2.74-12.78,0-1.26-.19-5.11,2.65-7.56,3-2.6,6.94-1.89,11.1-1.13,3.37.61,7.19,1.31,10.65.32l.12,0c-1-1.5-3.87-4.27-11-9.34l-1-.73a5.17,5.17,0,0,1-2.28-5.34c.75-3.5,4.59-4.66,7.41-5.23a47.74,47.74,0,0,1,17.25.15c7.84,1.5,13.73,4.81,17,9.57,5.57,8,1.31,14.53-1.24,18.43-.62,1-2.08,3.19-1.94,3.69,0,0,.45,1.36,5.28,3.54,18.38,8.29,18,19,17.7,26.13a30.75,30.75,0,0,0,0,4c.46,4.57,1.82,6.52,2.22,7,12.31,7.65,19.09,14.16,25.65,20.45a155.25,155.25,0,0,0,16,13.87c7.91,5.86,10.75,6.26,11.68,6.39,4.39.62,4.54,4.07,4.61,5.73,0,.49,0,1.12.11,2a5,5,0,0,0,1.71,3.54,6.15,6.15,0,0,1,2.11,5.19c-.4,2.83-2.9,4.5-5.89,6.25-1.74,1-3.23,2-4.67,3-5.38,3.61-10,6.73-21,6.18-3.09-.15-3.56.41-5,6-1.13,4.31-2.68,10.22-8.34,14.11-2.84,2-5.55,2.59-8.05,1.9-4.12-1.14-5.93-5.14-7.86-9.37-1.74-3.83-3.54-7.78-6.81-9.73.11,1.09.28,2.33.42,3.38.66,4.83,1.49,10.84,0,16.34-2.11,8-8.08,8.49-11.29,8.73a7,7,0,0,0-2.49.43s-1,1.05-.81,6c.57,16.94-10.87,17.5-18.45,17.87-3,.15-5.91.29-8.2,1.15a16.13,16.13,0,0,1-8,1.14c-.18.77-.35,1.54-.45,2-1.84,8.27-4.94,13.46-9.5,15.87-3.64,1.92-7.92,1.92-12.72,0-5-2-7.51-4.91-8.8-8.75-2.68,4.48-6.84,9.08-11.15,13.83-2,2.18-4,4.43-5.84,6.61C275.58,432.32,271.46,436.1,266.69,436.1ZM259.25,419a7.36,7.36,0,0,0,1,1.67c3.33,4.62,5.5,7,6.44,7,.53,0,2.39-.64,7.95-7.27,1.93-2.29,4-4.61,6-6.85,5.48-6.05,12.31-13.59,11.93-17.5,0-.33-.11-1.11-1.46-2.13a45.58,45.58,0,0,0-11.83-6c-5-1.93-10.22-3.92-14.59-8.93l-.37-.43c-7.72-8.87-18.3-21-11.52-30.34.72-1,2.65-3.64,5.81-3.68h.07c3.14,0,4.94,2.37,6.85,4.87a34.38,34.38,0,0,0,12.78,11,37,37,0,0,0,12.14,3.62c8.13,1.23,12.11,3.3,13.47,16.9.45,4.47.64,8.19.81,11.46.55,10.58.91,12.21,5.16,13.91,3.64,1.45,5.18.64,5.69.37,1.52-.81,3.67-3.24,5.23-10.27,1.06-4.78,1.6-7.18,3.93-8.52a5.65,5.65,0,0,1,4.76-.23c.94.3,2.1.67,5-.41,3.51-1.32,7.35-1.5,10.73-1.67,7.84-.38,10.78-.53,10.49-9.22-.42-12.45,5.06-14.59,11-15,2.86-.22,3.22-.25,3.82-2.51,1-3.88.32-9-.24-13.07-.75-5.48-1.4-10.22,2.11-12.74,3.33-2.39,7.42-.35,9,.42,6.28,3.14,9.15,9.45,11.24,14.05a25.77,25.77,0,0,0,2.46,4.65,5.84,5.84,0,0,0,1.08-.61c3.09-2.13,4-5.63,5-9.33,1.34-5.09,3.36-12.78,13.55-12.27,8.18.41,10.92-1.43,15.89-4.77,1.47-1,3.14-2.1,5.1-3.25l.4-.24a12.94,12.94,0,0,1-2.46-6.88q0-.31,0-.59c-2.44-.74-6.45-2.56-13-7.41a162.25,162.25,0,0,1-16.8-14.56C397.23,286,391,280,379.19,272.68l-.31-.21c-.75-.56-4.55-3.84-5.45-12.84a37.16,37.16,0,0,1,0-5.12c.25-6.55.46-12.21-12.77-18.18-5.81-2.62-8.85-5.34-9.87-8.82-1.23-4.2,1.09-7.76,3-10.62,2.76-4.23,3.53-6,1.38-9.07-4.13-5.93-15.22-7.21-22.2-6.78,6.43,4.88,11.3,9.74,10.43,14.81-.35,2.07-1.77,4.83-6.53,6.19-5.33,1.52-10.38.6-14.45-.13a34.64,34.64,0,0,0-3.88-.57c0,.19,0,.42,0,.71.1,2.64,1.28,6.79,2.42,10.8,2.42,8.49,4.71,16.51.48,20.9-2.19,2.27-5.42,2.91-9.6,1.89-7.79-1.9-16,1.11-23.17,3.77-4.56,1.68-8.88,3.27-12.89,3.59-9.57.77-18.62,1.49-20.47-8.36-1.06-5.63-3.35-8.74-7.68-10.4-6-2.28-6-9.71-6.08-15.68,0-.9,0-2-.06-3-4.33,2.55-11.73,8.21-8.69,15.71a58.45,58.45,0,0,0,5.82,10.55c2.28,3.45,4.24,6.42,2.33,9.55-2.08,3.4-6.8,2.88-11,2.42-11.84-1.31-20.48,11.27-23.41,20-2.6,7.8-11.53,11.35-19.4,14.48-3,1.2-8,3.17-9,4.47a17.48,17.48,0,0,1-5.54,15.06c-3.46,3.19-9.68,6.39-20.34,5.29,5.54,3.32,10.88,7.77,12.29,13.06l.45,1.67c6.54,24.19,7.13,34.2,2.26,38.27-1.3,1.09-4.15,2.61-8.55.52l-2.2-1.05c-10.71-5.13-25.38-12.16-36.1-5.34-6.47,4.12-12,17-12.54,29.25-.38,8.39,1.62,14.91,5.49,17.9,5.63,4.35,14,7.57,23,8.83,8.86,1.24,15.18.09,17.31-1.5a46.58,46.58,0,0,1,7.34-4.37c4-2,5.6-2.83,6.42-6.66.44-2,0-5.42-.48-8.69-.82-6-1.76-12.76,1.9-17.36,2-2.46,4.86-3.89,8.65-4.24,6.65-.62,12.31-3.29,14.4-6.81a5.37,5.37,0,0,0,.31-5.16c-1-2.39-2.43-5.67.46-7.86s5.42,0,7,1.23c1.8,1.45,5.14,4.14,7.45,3.43a74.55,74.55,0,0,0,7.4-3c7.5-3.38,13.43-6,17.16-2.81,1.34,1.16,2.69,3.37,1.56,7.33-.22.76-.48,1.51-.78,2.26,1.54-.82,3.83-1.28,7-.05,6.54,2.55,7.29,2.94,11.23,5.22,1.84,1.06,4.35,2.52,8.77,4.93,12.39,6.76,21.25,12.09,22.44,19.22.36,2.15.13,5.41-2.95,8.77-3.4,3.71-8.7,5.28-13.38,6.67C263.54,417.28,260.31,418.24,259.25,419Zm-31-38.58c-3.18,6.26-4.6,10.78-1.55,16,2.45,4.23,5.22,6,6.78,6.54l-.14-.34C233.25,402.53,227.83,389.72,228.24,380.45Zm30.82-25.67c-.27,4.72,7.58,13.73,11.58,18.33l.37.43c3,3.44,6.65,4.84,11.27,6.61a53.34,53.34,0,0,1,13.77,7.05c-.12-1.67-.26-3.45-.45-5.37-.56-5.6-1.42-7.58-2-8.25s-1.94-.83-4.34-1.2A44.85,44.85,0,0,1,274.58,368,42.17,42.17,0,0,1,259.06,354.78Zm125-88.86h0Zm-48.58-52.34Z"/><path class="cls-1" d="M263.55,240.07a10.21,10.21,0,0,1-2.92-.42c-5.12-1.52-7.25-6.53-9.14-10.94-.3-.7-.6-1.41-.91-2.11C249,223.1,249,219.67,249,216.36c0-5.33.07-11.37-6.78-20.65-.63-.86-1.17-1.54-1.62-2.08-.17.67-.34,1.36-.49,2-1.3,5.35-3.07,12.67-8.2,18.35-5.32,5.89-10.7,5.17-13.44,4.22-6.15-2.14-10.27-9-12.64-14.31a72.77,72.77,0,0,1-5.62-24.1c-1.64-25,14.71-44.54,30.55-54.54C243.87,117,265.11,82,265.47,63.85,265.72,51.1,281,37.1,293.81,27.6c14.47-10.74,32.44-20.7,45.78-25.38,8.22-2.88,15.17-3,20.63-.26,7.73,3.83,10.41,12.1,12,17a25.15,25.15,0,0,0,1,2.89c1.31,2.43,1.91,6.54-2.52,20-2,6.13-4.26,11.69-4.81,13L364.8,59.5c2.33.58,8.49,2.33,7.4,10.33-1.18,8.63-1.66,20.83.85,26.8,2.28,5.42,2.16,7.61,1.37,11a23.44,23.44,0,0,0-.67,4.52c-.16,3,.78,5.42,2.2,9a79.25,79.25,0,0,1,4.19,13.32c2.51,11.6,2.72,19.75-3.58,27.11-1.44,1.69-2.37,2.67-3,3.32-1.12,1.19-1.12,1.19-3,4.69-.45.85-.85,1.65-1.23,2.43-2.16,4.4-4.38,8.94-12.77,8.94-3.67,0-4.23.61-7.36,4-.86.93-1.83,2-3,3.18-3.73,3.73-10.13,4.9-16.72,3.06a24.25,24.25,0,0,1-17-18c-4.44-18.22,4.17-32.07,17.83-51.11,4.1-5.72,5.44-10.35,3.68-12.72-2.13-2.86-9.07-3.75-14.54-1.86-3.8,1.31-4.21,5.5-3.7,14.41.23,4,.45,7.79-.56,10.8-2,5.86-8.13,8.63-14.11,11.31-3.19,1.43-6.49,2.91-8.46,4.63-4.28,3.74-5.78,14.93,1.62,23.94,10,12.15,1.12,26.84-4.17,35.62l-1.18,2a18.88,18.88,0,0,0-2.15,7.12c-.84,5.17-1.89,11.61-11.75,18.25C270.54,238.61,266.82,240.07,263.55,240.07Zm-24-56.66c3.69,0,6.67,3.59,9.43,7.33,8.5,11.52,8.46,19.7,8.42,25.67,0,2.74,0,4.91.8,6.75.34.75.66,1.51,1,2.26,1.16,2.72,2.47,5.8,3.8,6.19.48.14,2.41.34,7.31-3,6.86-4.62,7.41-8,8.16-12.65a26.56,26.56,0,0,1,3.21-10l1.22-2c5.85-9.69,10.62-19,4.87-26-10.18-12.39-8.52-28.69-.67-35.56,2.92-2.55,6.8-4.29,10.55-6,4.12-1.85,8.8-3.94,9.59-6.31.5-1.49.32-4.63.14-7.67-.44-7.65-1.1-19.21,9.33-22.8s20.24-.26,24,4.77c2.93,3.94,4.7,11.06-3.59,22.61-14.36,20-19.82,30.6-16.5,44.24a15.75,15.75,0,0,0,11.13,11.92c3.91,1.1,7.25.37,8.53-.92,1.08-1.08,2-2.07,2.81-2.94,3.59-3.87,6.18-6.67,13.51-6.67,3.16,0,3.32-.32,5.24-4.25.39-.8.84-1.71,1.36-2.68,2.15-4,2.45-4.55,4.27-6.49.59-.63,1.41-1.5,2.73-3,3.21-3.74,4.36-7.84,1.76-19.89a71,71,0,0,0-3.8-12c-1.63-4.13-3-7.69-2.77-12.55a31.46,31.46,0,0,1,.87-6c.43-1.86.55-2.36-.93-5.88-4-9.46-2.11-26.26-1.43-31.18a4.53,4.53,0,0,0,0-.74c-.35-.13-.93-.27-1.35-.38-1.67-.41-4.2-1-5.63-3.41a7,7,0,0,1-.61-5.46l1.6-6.41.12-.29c4.8-11.56,8.3-23.52,7.72-26.33a28.89,28.89,0,0,1-1.54-4.11c-1.35-4.16-3.19-9.85-7.76-12.12-3.37-1.67-8.13-1.45-14.14.66C316.77,19.1,274.16,48,273.84,64c-.41,21.06-23.34,58.68-38.57,68.3-13.8,8.72-28.06,25.62-26.66,46.91,1.07,16.31,7.41,29.22,12.65,31,.62.22,2.08.72,4.47-1.92,3.71-4.1,5.13-10,6.27-14.71,1.2-5,2.24-9.27,6.4-10.11A5.81,5.81,0,0,1,239.57,183.41ZM364.46,60.91Zm1.32-35.29h0Z"/></g></g></svg>