<svg xmlns="http://www.w3.org/2000/svg" viewBox="0 0 477.6 466.92"><defs><style>.cls-1{fill:#ededed;}</style></defs><title>europe_grey</title><g id="Layer_2" data-name="Layer 2"><g id="Layer_1-2" data-name="Layer 1"><path class="cls-1" d="M54,96.63c-12.73-1.66-18.09,15.06-24.79,7s-18.76-17.42-26.16-7,0,11,6.74,16.85,6.7,11.27,6.7,11.27c6.7,35.84,56.27,10.38,61.63,0S66.76,98.29,54,96.63Z"/><path class="cls-1" d="M115.66,304.62c20.1,7.37,23.48-5.36,20.78-15.41s6-22.11,12-15.41,2.68-7.37-3.35,24.12S171.26,322,181.31,314s10.72-21.44,3.35-30.15S170.6,255,163.23,248.35s18.76-61,3.35-52.92c0,0-2.68,14.74-18.76,22.11s-28.81,10-20.77,22.78,9.78,16.08-2.48,22.78S95.57,297.25,115.66,304.62Z"/><path class="cls-1" d="M473.38,338.78c-.67-8.71,2,1.34-16.08-12.06s-22.78-23.45-45.55-37.51c0,0-3.31-2.48-4.14-10.81s4.58-19.57-16.65-29.14,5.41-15.82-4.16-29.56-42.47-9.58-36.64-5.41,23.32,15.82,11.66,19.15-23.73-6.66-23.32,4.58,13.74,35.81-1.67,32.06S306.44,277.15,296,278s-16.24,1.25-17.49-5.41-4.16-12.07-11.24-14.78-.42-23.76-7.08-22c0,0-21.23,9.28-15,24.68s16.65,20,1.67,18.32-26.23,12.49-30.39,25S184,317.54,185.28,326.28s-5.83,21.65-29.56,16.24-10.58,3-10.58,3,22.78,8,25.46,18.09,12.73,44.88,0,38.85-31.48-16.08-46.22-6.7-22.78,47.56-8,59,41.53,14.07,49.57,8,14.74-5.36,16.75-14.74-7.53-28.14,7-29.48,23.86-10,19.84-19.43,4.69,5.36,13.4,2.68,25.46-13.4,22.78-4-14.07,20.1-6.7,32.82,19.43,12.06,15.41,2.68-9.79-31.7.8-27.57,6.57,2.79,21.31,10.83,27.47,15.41,20.1,23.45-29.47,5.32-20.77,17.42,11.68,13.4,22.92,0,28-27.47,17.27-35.5-20.77-7.18-28.14-15.65-18.09-20.53-12.73-27.89,4.69,6,22.11,14.74,23.45-1.34,25.46,18.76S322,439.26,332,443.28s15.41-2,18.09-14.07,1.34-2.68,12.06-6.7,26.8,3.54,26.13-16.32,12.73-5.12,16.08-17.85-6.7-30.81,5.36-24.79,10,26.8,20.77,19.43,4-23.45,17.42-22.78,16.31-4,25.46-9.38S474.05,347.49,473.38,338.78Z"/><path class="cls-1" d="M245.23,225.94c11.66-12.91,5.41-37.06,18.32-19.57s5.83,26.23,9.58,34.56,5.72,17.49,19.93,7.91,8.38-17.07,13.79-26.23,15.82-24.15,6.25-35.81-7.91-26.65-1.25-32.48,20.82-7.91,23.32-15.4-4.58-26.23,7.49-30.39,32.89.83,17.07,22.9-22.9,35-18.74,52,22.9,20.4,29.14,14.16,7.08-9.16,14.57-9.16,7.91-3.75,11.24-10,2.08-3.75,7.08-9.58,5.83-12.16,2.91-25.65-7.49-17.74-7.08-25.61,2.91-7-.42-14.94S396,80.22,397.2,71.06s-10-3.75-8.33-10.41L390.54,54s11.24-27.06,8.33-32.48S394.29-7.15,367.64,2.19,290.2,44,289.78,65.23,265.63,126,249.81,136s-32.89,30-31.23,55.37S233.57,238.84,245.23,225.94Z"/></g></g></svg>