<svg xmlns="http://www.w3.org/2000/svg" viewBox="0 0 379.11 338.87"><defs><style>.cls-1{fill:blue;}</style></defs><title>farmer</title><g id="Layer_2" data-name="Layer 2"><g id="Layer_1-2" data-name="Layer 1"><path class="cls-1" d="M366.09,168.18c-23-.19-41.34,2-54.85,6.54q2-2.42,4-4.69c.46,0,.93.06,1.46.06a23.68,23.68,0,0,0,11.39-3.1c15.23-8.31,27.18-31.75,35.5-69.64l2.79-12.72-11.6,5.91A121.56,121.56,0,0,0,328,110.11c-16.16,15.78-23.42,33.25-21.16,50.75q-1.85,2.07-3.7,4.28c-.86-14.07-5.48-31.62-13.85-52.51l-.55-1.37c1.89-.41,3.7-.82,5.39-1.25,11.23-2.83,22.71-6.91,22.71-15.73,0-7.7-8.68-11.47-16.25-13.9-8-2.57-19.34-4.85-33.69-6.8-3.25-.44-6.63-.85-10.1-1.25a101.56,101.56,0,0,0-194.46-.26c-4.31.47-8.47,1-12.44,1.51-14.34,1.94-25.67,4.23-33.69,6.8C8.68,82.81,0,86.58,0,94.29c0,8.95,11.9,13.07,23.54,15.93,10.58,2.6,25.13,4.87,42.43,6.65a138.85,138.85,0,0,0-1.11,17.52c0,63.28,42.81,114.76,95.44,114.76s95.44-51.48,95.44-114.76a138.72,138.72,0,0,0-1.16-17.91c8.37-.92,16-2,22.87-3.08a123.58,123.58,0,0,0-10.34,29.76c-4.68,23.09-.3,42.23,12.62,55.52q-16.58,27.61-33.17,66.17l-.7,1.64-41.81-13.4L201.39,256c-10.23,11.32-21.6,17.23-33.8,17.56-22.42.61-41.08-17.62-41.25-17.79l-2.73-2.73L17.48,289.93l4,11.64,99-34.39c6.88,5.88,25.09,19.28,47.27,18.74,14.6-.37,28-6.66,39.94-18.7l33.32,10.68c-13.07,32-21,57-21.08,57.28l11.75,3.7c.17-.56,8.07-25.4,21.14-57.2l62.2,19.94,3.76-11.73-61.18-19.61c8.67-20.2,19.13-42.23,30.83-62.18a48.88,48.88,0,0,0,20,4.26c11.9,0,24.49-4.15,37.22-12.37a121.55,121.55,0,0,0,25-21.71l8.34-10ZM159.56,12.32A89.25,89.25,0,0,1,243.4,71c-25-2.26-54.3-3.48-85-3.48-29.74,0-58.18,1.15-82.66,3.28A88.9,88.9,0,0,1,159.56,12.32Zm83.87,122.07c0,2.41-.07,4.8-.21,7.16C197.74,148.92,152.56,92.64,143,79.92q7.65-.11,15.43-.11c26,0,51.2.9,73.48,2.58A120.22,120.22,0,0,1,243.42,134.39Zm-166.25,0A120.23,120.23,0,0,1,88.84,82.11c12.93-.91,26.78-1.56,41.14-1.93l0,.25c-3.13,39.14-38,43.28-39.46,43.44l-4.82.48-.67,4.8c-.94,6.71-3.59,15.49-6.92,20.3A126.3,126.3,0,0,1,77.18,134.39ZM14.41,94.26C18.7,92.17,29.8,88.41,57.47,85c5.49-.67,11.3-1.27,17.38-1.82a129,129,0,0,0-6.77,21.49C32.74,101.15,19.27,96.62,14.41,94.26ZM160.3,236.83c-37.64,0-69.52-31-79.71-73.38,9.86-5.2,14.2-20.34,15.82-28.16a63.53,63.53,0,0,0,19.06-7.72,54.71,54.71,0,0,0,24.2-31.95,239.3,239.3,0,0,0,27.41,28.23c25.91,22.42,51.56,32.76,74.78,30.3C234.37,201.21,200.65,236.83,160.3,236.83ZM245.9,83.59c4.67.45,9.19.93,13.49,1.45,27.89,3.39,38.94,7.19,43.16,9.27-5.52,2.7-20.15,6.79-50.12,10A129,129,0,0,0,245.9,83.59Zm37.27,47.89c10.71,31.66,8.15,46.23,5.34,52.36a14.46,14.46,0,0,1-2.31,3.63C272.73,170.66,277.87,146.46,283.17,131.48Zm53.25-12.36a104.72,104.72,0,0,1,11.46-9.67c-9,32.23-19.27,42.85-25,46.34a14.47,14.47,0,0,1-4,1.71C317.83,144.49,323.72,131.61,336.43,119.12Zm-38.89,79.26a14.48,14.48,0,0,1,2.54-3.48c4.69-4.85,17.33-12.56,50.75-14.13C338.83,191.19,318.17,204.83,297.54,198.38Z"/><path class="cls-1" d="M116.14,281.71c4.53,9.55,17.12,15.28,26.71,18.19a63.12,63.12,0,0,0,33.94.66c1.87-.48,1.08-3.37-.8-2.89a60,60,0,0,1-30.81-.22c-9.25-2.54-22.09-8.07-26.45-17.25-.83-1.74-3.41-.22-2.59,1.51Z"/><path class="cls-1" d="M190,295.06l13.56-9c1.6-1.06.1-3.66-1.51-2.59l-13.56,9c-1.6,1.06-.1,3.66,1.51,2.59Z"/><path class="cls-1" d="M273.43,198.69a42.75,42.75,0,0,1-7.27-32.52c.34-1.89-2.55-2.7-2.89-.8a45.74,45.74,0,0,0,7.57,34.83c1.1,1.57,3.7.07,2.59-1.51Z"/><path class="cls-1" d="M349.3,162.94c4.22-4.34,9-7.86,11.94-13.27,2.6-4.78,4-10.11,5.28-15.35a98.7,98.7,0,0,1,6.25-18.38c2.42-5.17,4.37-10.08,3.39-15.86-.32-1.9-3.21-1.09-2.89.8,1.16,6.83-2.94,12.65-5.45,18.68a97.65,97.65,0,0,0-4.19,14c-1.25,5-2.5,10.09-5,14.64-2.83,5.19-7.43,8.52-11.47,12.66-1.35,1.38.77,3.51,2.12,2.12Z"/><path class="cls-1" d="M295.93,225.05a110,110,0,0,0,54-19.75c1.56-1.11.07-3.71-1.51-2.59a107.05,107.05,0,0,1-52.45,19.34c-1.91.17-1.93,3.17,0,3Z"/><path class="cls-1" d="M98.28,57.82c5.83-8.85,12-18,22-22.63,9.75-4.49,20.87-4.75,30.87-8.57,1.79-.68,1-3.58-.8-2.89-10.74,4.1-22.74,4.26-33,9.57-9.61,5-15.83,14.22-21.62,23-1.07,1.62,1.53,3.12,2.59,1.51Z"/><path class="cls-1" d="M219.13,177.85c.78,11.36-8.06,20.09-17.23,25.35a52.75,52.75,0,0,1-30,6.69c-1.93-.13-1.92,2.87,0,3,19.73,1.33,51.87-10.62,50.19-35-.13-1.92-3.13-1.93-3,0Z"/><path class="cls-1" d="M261.51,101.4A12.46,12.46,0,0,1,267,98.18a1.5,1.5,0,0,0-.8-2.89,15.6,15.6,0,0,0-6.79,4,1.5,1.5,0,0,0,2.12,2.12Z"/><path class="cls-1" d="M63.16,86.65a15.44,15.44,0,0,0-8.5,1.25c-1.9.76-4.21,1.53-5.29,3.41a4.52,4.52,0,0,0,.75,5.2c1.7,1.91,4.28,2.19,6.69,2.34,1.93.12,1.92-2.88,0-3A8,8,0,0,1,53,95a2,2,0,0,1-.69-2.64c.29-.43,1.16-.71,1.6-.92,2.59-1.24,5.56-2.4,8.47-1.93,1.89.3,2.7-2.59.8-2.89Z"/><path class="cls-1" d="M216.18,66.35c3.64-.18,9.06-1.09,10.9-4.77a4.64,4.64,0,0,0-.35-4.55c-1.43-2.5-3.39-4.82-5.06-7.17-1.11-1.56-3.71-.07-2.59,1.51l2.61,3.69c.68,1,2.13,2.35,2.44,3.48,1.09,4-5.45,4.68-8,4.81-1.92.1-1.93,3.1,0,3Z"/><path class="cls-1" d="M245.37,331.62a260.77,260.77,0,0,1,6.41-34.21c.48-1.87-2.41-2.67-2.89-.8a266.77,266.77,0,0,0-6.52,35c-.23,1.91,2.78,1.9,3,0Z"/><path class="cls-1" d="M267,265.65l1.76-7.64c.43-1.88-2.46-2.68-2.89-.8l-1.76,7.64c-.43,1.88,2.46,2.68,2.89.8Z"/><path class="cls-1" d="M148.17,252.3a29.45,29.45,0,0,1-2.29,12.1c-.74,1.76,1.84,3.29,2.59,1.51a33,33,0,0,0,2.7-13.62c0-1.93-3-1.93-3,0Z"/></g></g></svg>