<svg xmlns="http://www.w3.org/2000/svg" viewBox="0 0 313.39 334.87"><defs><style>.cls-1{fill:blue;}</style></defs><title>grow</title><g id="Layer_2" data-name="Layer 2"><g id="Layer_1-2" data-name="Layer 1"><path class="cls-1" d="M304.87,185.52c-6.82-6-16-8-22.73-4.94-2.88,1.29-10.48,4.84-20.1,9.32-20.26,9.44-50.87,23.71-57.74,26.39-3.71,1.4-21.76,1.08-43-.15,2.94-1,6-2,9.09-3.14,5.42-1.95,18-7.94,17.61-21.5-.26-9-6.9-18-15.1-20.44-5.82-1.72-20.87-.23-77.84,12.45l1.34,6-1.34-6-8.74,2c-5.57,1.25-10.33,2.31-13.82,3.06C50.77,193.18,7.61,229,2.76,233.06l7.91,9.44C23.2,232,59.19,204,75.08,200.57c3.51-.75,8.31-1.83,13.93-3.08l8.72-1.95h0c53.17-11.83,68.36-13.4,71.69-12.66,2.8.82,6.14,4.92,6.26,9,.15,5-5.06,8-9.45,9.55a426.84,426.84,0,0,1-41,12.34l-37,8.71,37.86,3.41c16.66,1.5,71.86,6.08,82.63,1.89,7.25-2.82,36.86-16.63,58.48-26.71,9.57-4.46,17.13-8,19.94-9.24,2-.89,6.19,0,9.57,3a12.35,12.35,0,0,1,3.69,13.51c-1.27,4.23-13.11,15.91-42.3,34.89-22.39,14.56-43.92,26.15-48.91,27.74-10.88,3.46-100.58.9-110.95-.25-3.83-.43-15.47-1.72-51.56,25L3.3,324.62l6.83,10.25,43.53-29,.25-.18c30-22.23,40.48-23,43-22.78,9.28,1,101.92,4.24,116-.25,7.49-2.38,31.26-15.73,51.89-29.15,43.33-28.17,46.38-38.34,47.38-41.68A24.7,24.7,0,0,0,304.87,185.52Z"/><path class="cls-1" d="M263,203c-19.52-31-51.09-49.55-84.45-49.55-28.78,0-56.54,13.84-76.15,38l-9-9.6c21.94-27,53-42.46,85.17-42.46,37.31,0,72.62,20.71,94.45,55.41Z"/><path class="cls-1" d="M211.62,93.17c8.6-9.91,10.31-27.63,5.06-52.67a224.15,224.15,0,0,0-10.13-34l-1.6-4-3.3,2.72c-35,28.84-50.41,53.43-45.92,73.08,3.33,14.6,17,21.13,19,21.61a75.59,75.59,0,0,0,7.45,1.46c.77,7.52,1,15-1.52,19.72-4.28,7.95-4.17,19-3.65,25.26,2.07-.32,4.14-.7,6.2-1.1-.42-5.64-.43-14.88,3-21.19,3.21-6,3.16-13.9,2.36-22.14l1.23,0C199.2,102,206.53,99,211.62,93.17Zm-23.81,2.48-.16-1.32c-.67-5.47-1.31-10.64-1.12-14.82.51-11.65,13.12-33.08,13.25-33.3L194.38,43c-.55.93-13.54,23-14.12,36.22-.2,4.66.45,10,1.15,15.71q-2.43-.41-5-1c-1.05-.45-12.71-5.78-14.8-18.25-3.38-20.14,19.48-44.73,40.69-62.75a223.78,223.78,0,0,1,8.3,29c4.73,22.66,3.46,39-3.68,47.2C202.73,93.84,196.33,96,187.81,95.65Z"/><path class="cls-1" d="M175.59,148.16l-.14-1.65c-.51-6.16-.68-17.74,3.83-26.11,2.29-4.26,2-11.5,1.46-17.65-2.08-.33-4.23-.77-6.4-1.31-2.46-.61-16.61-7.38-20.11-22.76-4.62-20.27,11-45.38,46.45-74.61L205.59,0,208,5.92a227.1,227.1,0,0,1,10.21,34.25c5.35,25.54,3.53,43.71-5.41,54-5.3,6.1-12.89,9.24-22.58,9.34.61,7.24.6,15.19-2.7,21.31s-3.15,15.36-2.78,20.34l.1,1.36-1.34.26c-2.44.48-4.43.83-6.26,1.11ZM204.31,5.05l-1.68,1.39C168.16,34.87,152.88,58.95,157.23,78c3.11,13.63,16.11,20,17.85,20.46,2.49.61,4.95,1.09,7.3,1.43l1.19.17.12,1.2c.74,7.25,1.13,15.36-1.7,20.61-3.77,7-3.95,16.68-3.59,22.74,1-.16,2-.35,3.16-.57-.36-6.36,0-14.66,3.23-20.66s2.88-14.05,2.19-21.27l-.17-1.73,2,0,1,0c9,0,15.94-2.79,20.71-8.28h0c8.27-9.53,9.86-26.8,4.72-51.35A223.67,223.67,0,0,0,205.12,7.07ZM189.68,97.23q-1,0-1.94,0l-1.3-.06-.33-2.71c-.67-5.5-1.31-10.69-1.12-15,.45-10.4,9.88-27.72,12.7-32.68l-2.74-1.62c-2.87,5.06-12.65,23-13.13,34.17-.2,4.56.45,9.85,1.14,15.46l.25,2.05-2-.35c-1.68-.29-3.41-.64-5.14-1.07l-.24-.08c-1.37-.59-13.49-6.17-15.71-19.41-3.54-21.1,20.46-46.54,41.21-64.17L203,10.3l.75,2.09a226,226,0,0,1,8.36,29.16c4.83,23.14,3.44,39.92-4,48.52C203.91,94.83,197.74,97.23,189.68,97.23Zm-.51-3.08c7.35.06,12.94-2,16.55-6.1,6.81-7.85,8-23.71,3.34-45.88a220.85,220.85,0,0,0-7.49-26.64c-19.73,17-41.67,40.74-38.47,59.86,1.9,11.35,12.49,16.46,13.78,17q1.38.33,2.75.61a88.1,88.1,0,0,1-.9-13.88c.58-13.33,12.93-34.56,14.33-36.93l.78-1.33,8,4.76L201.1,47c-.13.21-12.55,21.36-13,32.58-.18,4,.45,9.1,1.1,14.47Z"/><path class="cls-1" d="M182.83,81.06c-3.65-4.07-6.83-8-7.09-13.69-.14-3.14-.15-5.84-2.47-8.2-1.53-1.55-3.91.84-2.38,2.39,2.57,2.61,1.3,8.79,2.72,12.25,1.51,3.68,4.22,6.72,6.84,9.64C181.9,85.07,184.28,82.68,182.83,81.06Z"/><path class="cls-1" d="M181.57,85.52a3,3,0,0,1-2.27-1c-2.57-2.87-5.49-6.11-7.12-10.08a18.94,18.94,0,0,1-1-5.72c-.16-2.42-.33-4.91-1.44-6a3.07,3.07,0,0,1-.82-3,3.44,3.44,0,0,1,2.41-2.38,3.05,3.05,0,0,1,3,.86c2.63,2.67,2.76,5.63,2.89,8.77l0,.44c.24,5.14,3.17,8.81,6.7,12.73h0a3.27,3.27,0,0,1-.3,4.65A3.14,3.14,0,0,1,181.57,85.52Zm-7.25-16.7a15.59,15.59,0,0,0,.71,4.41c1.43,3.48,4.16,6.52,6.56,9.19a.41.41,0,0,0,.14-.2s0-.06-.05-.13h0C178.19,78.2,175,74.25,174.32,68.82Zm-2.18-8.57a.26.26,0,0,0-.21.19c1.6,1.62,2,4,2.24,6.4-.12-2.77-.24-4.79-2-6.59Z"/><path class="cls-1" d="M176,68.32c.68-3.24,2.75-5.68,4.26-8.54A26,26,0,0,0,183,51.08c.29-2.12-3-3-3.25-.9a24.6,24.6,0,0,1-3.47,9.76c-1.47,2.41-2.93,4.68-3.51,7.47C172.31,69.54,175.56,70.44,176,68.32Z"/><path class="cls-1" d="M174.55,71.07a3.5,3.5,0,0,1-2.31-.88,3.17,3.17,0,0,1-1-3.08,23.69,23.69,0,0,1,3.46-7.56l.25-.4A23.24,23.24,0,0,0,178.21,50a2.86,2.86,0,0,1,3.32-2.52,3.45,3.45,0,0,1,3,3.84,27.75,27.75,0,0,1-2.89,9.2c-.48.92-1,1.79-1.54,2.63a17.54,17.54,0,0,0-2.58,5.51,3,3,0,0,1-2,2.28A3.15,3.15,0,0,1,174.55,71.07Zm6.7-20.52a26.33,26.33,0,0,1-3.67,10.2l-.25.41a21,21,0,0,0-3.07,6.58c0,.1,0,.12,0,.15a.42.42,0,0,0,.21.1,20.22,20.22,0,0,1,3-6.48c.49-.8,1-1.62,1.43-2.45a24.34,24.34,0,0,0,2.56-8.18.23.23,0,0,0-.07-.23A.49.49,0,0,0,181.24,50.55Z"/><path class="cls-1" d="M194.57,265.4a38.91,38.91,0,0,0,27.91-13c1.32-1.47-.85-3.66-2.18-2.18a35.78,35.78,0,0,1-25.73,12.12c-2,.07-2,3.15,0,3.08Z"/><path class="cls-1" d="M235.9,247.44c4.26-4.31,10.39-6.14,14.85-10.46a182,182,0,0,1,17.59-15.31c5-3.74,11.27-6.59,15.78-10.91,3.1-3,4.4-7.1,2-10.89-1-1.68-3.71-.13-2.66,1.55,4,6.48-9.05,12.13-13.12,15s-8.29,6.12-12.21,9.47c-4.12,3.53-7.77,7.59-11.89,11.1-3.88,3.31-8.94,4.62-12.55,8.28-1.39,1.41.78,3.59,2.18,2.18Z"/><path class="cls-1" d="M77.09,270.76A26.16,26.16,0,0,1,84,266.68c3.32-1.11,6.07-.17,9.34.27,5.13.7,9.28-2.41,14.28-2.74,2-.13,2-3.21,0-3.08a28,28,0,0,0-7.44,1.81c-4.26,1.46-7.42.27-11.68,0-5-.36-9.09,2.41-12.94,5.21-1.58,1.16-.05,3.83,1.55,2.66Z"/><path class="cls-1" d="M1.49,308.8c15.36.39,23.8-14.34,36.4-20.44,1.78-.86.22-3.52-1.55-2.66-12,5.79-20.38,20.38-34.85,20-2,0-2,3,0,3.08Z"/><path class="cls-1" d="M202.37,174.68a41.7,41.7,0,0,1,26,5.93c1.7,1,3.25-1.63,1.55-2.66a44.52,44.52,0,0,0-27.57-6.35c-2,.18-2,3.26,0,3.08Z"/><path class="cls-1" d="M235.57,190.65a1.54,1.54,0,0,0,0-3.08,1.54,1.54,0,0,0,0,3.08Z"/><path class="cls-1" d="M186.37,88.12a8.36,8.36,0,0,1,2.2-7.52c2.07-2.09,5-2.34,7.7-3,3.3-.75,6.42-2.09,7.91-5.32.82-1.79-1.83-3.35-2.66-1.55-2.43,5.28-10.29,3.53-14.41,7a11.54,11.54,0,0,0-3.72,11.17c.37,1.94,3.34,1.12,3-.82Z"/><path class="cls-1" d="M186.6,124.49a13.77,13.77,0,0,1,16.1-8.44c5.24,1.15,8.66,5.52,13.71,6.86,8.91,2.35,15.84-5.17,20.79-11.39,1.22-1.54-.94-3.73-2.18-2.18-3.92,4.92-8.95,11.36-16,10.9-5.94-.38-10.31-6.23-16.31-7.29a16.8,16.8,0,0,0-19.1,10.72c-.69,1.86,2.28,2.66,3,.82Z"/><path class="cls-1" d="M180.54,130.86c-7.32-4.25-15-8.55-23.45-9.86-4.18-.65-8.86.59-12.87-.66-5.32-1.66-9.43-6.61-12-11.31-.94-1.74-3.6-.19-2.66,1.55,3.68,6.8,10.25,13.36,18.45,13.26,5.51-.06,10.42.16,15.69,2A93.88,93.88,0,0,1,179,133.52a1.54,1.54,0,0,0,1.55-2.66Z"/><path class="cls-1" d="M223.94,122.22c4.36-5,8.1-10.41,8-17.27-.17-7.55-4.92-15.39-1.54-22.73.82-1.79-1.83-3.35-2.66-1.55-2.38,5.17-1.56,10.19-.36,15.58.74,3.34,1.69,6.76,1.47,10.21-.34,5.37-3.62,9.7-7,13.59-1.3,1.48.87,3.67,2.18,2.18Z"/><path class="cls-1" d="M23,243.78a244.22,244.22,0,0,0,31.74-20.27c5-3.78,9.58-7.89,15.41-10.36,6.41-2.71,12.93-5.2,19.4-7.79,1.82-.73,1-3.71-.82-3-6.53,2.61-13.09,5.15-19.59,7.85-5.33,2.21-9.41,5.55-13.92,9.05a242.68,242.68,0,0,1-33.77,21.83c-1.75.94-.19,3.6,1.55,2.66Z"/></g></g></svg>