<svg xmlns="http://www.w3.org/2000/svg" viewBox="0 0 300.99 486.94"><defs><style>.cls-1{fill:#ededed;}</style></defs><title>house</title><g id="Layer_2" data-name="Layer 2"><g id="Layer_1-2" data-name="Layer 1"><path class="cls-1" d="M0,0V486.94H109.54V411.42h89.22v75.52H301V0ZM27.33,40.94H66.65v60.5H27.33ZM68.22,273.72H28.89v-60.5H68.22Zm0-83.58H28.89V129.63H68.22Zm20.1-149.2h39.33v60.5H88.31ZM129.2,273.72H89.88v-60.5H129.2Zm0-83.58H89.88V129.63H129.2Zm48.34-149.2h39.33v60.5H177.54Zm40.89,232.78H179.1v-60.5h39.33Zm0-83.58H179.1V129.63h39.33Zm12.79-149.2h39.33v60.5H231.21ZM272.1,273.72H232.78v-60.5H272.1Zm0-83.58H232.78V129.63H272.1Z"/></g></g></svg>