<svg xmlns="http://www.w3.org/2000/svg" viewBox="0 0 459.09 452.9"><defs><style>.cls-1{fill:#ededed;}</style></defs><title>india_grey</title><g id="Layer_2" data-name="Layer 2"><g id="Layer_1-2" data-name="Layer 1"><path class="cls-1" d="M21.58,135.64s-1,8.83,6.75,20.77S46.51,185.5,32,186-4.73,185.5.89,203.16s28,46.22,69.51,38.43c0,0-6.75,60.25,39,142.3,0,0,18.18,34.8,18.7,43.63s6.23,34.8,23.89,21.81,42.07-45.18,37.39-82.58,18.18-46.22,25.45-47.78,55.05-43.63,67-57.65S302,239.51,313.46,236.4s23.89-4.15,17.14-24.93-14-28-4.15-43.11,7.79-2.08,14,0,20.77,7.27,27.53,6.23,16.62,4.67,4.67,11.95-20.77,16.1-3.64,22.85,15.58,12.46,17.66,15.06,26-51.94,42.59-70.63,34.8-19.74,28.56-29.6-2.6-31.68-34.28-22.85-51.94,37.39-64.4,41-15.06,5.71-35.32-15.06-7.27,14.54-14,18.18-50.9-1.56-84.66-19.22-33.76-9.31-26-27-17.66-28.58-22.85-31.7-5.19-1.56-2.08-38.43S136.36-.95,129.09,3.73s-35.84-10.39-39,3.64S100,32.81,93.25,59.82,72,119.54,51.7,124.22,21.12,129.72,21.58,135.64Z"/></g></g></svg>