<svg xmlns="http://www.w3.org/2000/svg" viewBox="0 0 417.11 411.66"><defs><style>.cls-1{fill:blue;}</style></defs><title>india</title><g id="Layer_2" data-name="Layer 2"><g id="Layer_1-2" data-name="Layer 1"><path class="cls-1" d="M131.83,411.66a13,13,0,0,1-5.54-1.24c-11.44-5.37-12.74-25.23-12.79-26.08-.25-4.21-8.31-21.86-16-36.53-33.12-59.49-35.76-106-35.45-122.6-18.79,1.86-32.15-4.43-40.32-10.38-9.61-7-17.36-17.5-20.72-28.07C-.7,181.29-.26,176.66,2.36,173c5.28-7.42,17.16-7.73,27.64-8l3.27-.09a5.88,5.88,0,0,0,1.55-.22c.2-1.51-.87-5.83-8.88-18.11-6.94-10.65-7-19-6.83-21.29-.08-3,1.22-6.89,7.41-9.36,3.34-1.33,7.88-2.31,14.16-3.66,2.7-.58,5.77-1.24,9.1-2,9.63-2.22,24.06-17.52,33-53.33,3.19-12.78.91-21.17-1.1-28.58C80.1,22.47,78.6,16.92,80,10.56c.73-3.28,3.3-8.86,12.29-9.4,4.49-.26,9.54.72,14.42,1.68,3.45.68,8.63,1.69,10.17,1.23,6-3.76,24-7,36.18.32C159.1,8,166,15.66,164.67,31.44l-.19,2.26c-1.24,14.71-2,23.89-1.55,26.32l.56.33.55.33c.4.24,1.09.61,1.9,1,7,3.77,28.46,15.23,20.4,33.51-.59,1.35-1.14,2.53-1.62,3.57s-.92,2-1.26,2.81c1.11.54,2.78,1.25,4.41,1.94,4.17,1.77,10.48,4.45,19.17,9,27,14.1,61.46,18.56,69.35,17.25a50.49,50.49,0,0,0,0-6.78c-.26-6.42-.52-13.06,4.76-15.33,5-2.14,10,2,14.62,6.75,7.91,8.11,12.65,12.11,15.86,13.38,2.32.92,4.08.48,8.83-.93l1.51-.44c3.17-.93,8.44-5.42,14-10.17,10.42-8.89,24.7-21.07,43.12-26.21,26.33-7.34,30.95,7.47,33.7,16.32a28.48,28.48,0,0,0,2.38,6.13c3.54,5.61,1.33,9.92-.3,12-1.92,2.43-4.84,4.3-8.54,6.66-4.93,3.15-11.07,7.07-17,13.72-8.18,9.21-18.8,29.36-26.55,44.08-9.3,17.66-10.5,19.93-14.35,20.3a5.3,5.3,0,0,1-4.66-2,11.63,11.63,0,0,1-1.67-3.1c-.77-1.9-1.92-4.77-11.86-8.69C323,192.6,319,188.64,318.62,183.7c-.65-7.59,7.2-13.39,14.12-17.6a15.31,15.31,0,0,0,1.48-1,5.68,5.68,0,0,0-2.18-.14c-6.22,1-16.35-2.21-25.36-5.24l-1.44-.48a10.59,10.59,0,0,1-5.21-4c-.38.53-.82,1.17-1.32,1.93-5.37,8.19-3.82,12.19.3,22.87,1.22,3.15,2.6,6.73,4,10.94,2.56,7.87,2.58,13.93,0,18.52-3.4,6.17-10.2,7.9-16.19,9.43-.85.22-1.71.44-2.57.67-8.91,2.43-15.58,8.8-25.53,20.47-5.94,7-20.24,20.21-31.78,30.23-24.49,21.27-29,22.23-30.42,22.54-3.76.81-22.34,6.36-18.55,36.71,4.72,37.72-21,67.48-35.19,77.94C138.57,410.62,134.87,411.66,131.83,411.66ZM73.38,213l-.77,6.88c-.06.51-5.21,52.83,33.91,123.06l.06.12c2.77,5.31,16.64,32.24,17.14,40.73.36,6.08,3.16,15.64,6.92,17.41,1.43.67,3.48,0,6.11-1.9,14.6-10.73,34.92-37.81,31.09-68.43-2-15.68.9-28.14,8.49-37a33.56,33.56,0,0,1,17.92-10.91c6.53-2.5,46.08-37,56.7-49.44,11.05-13,19.21-20.6,30.63-23.71.91-.25,1.82-.48,2.73-.71,4.37-1.11,8.5-2.17,9.76-4.45,1.06-1.92.77-5.52-.82-10.41-1.28-3.95-2.61-7.38-3.78-10.42-4.39-11.37-7.56-19.58.69-32.17,3.65-5.57,6.51-8.78,10.58-8.67,3.88.1,5.75,3.29,6.75,5a10.19,10.19,0,0,0,1.11,1.66L310,150c4.44,1.5,16.25,5.49,20.53,4.83,5.45-.84,12.55,1.57,14.5,6.92,1,2.72,1.41,8-6.92,13.1-8.1,4.93-9.11,7.51-9.23,8,.18.28,1.16,1.57,5.22,3.16,7.53,3,11.67,5.9,14.16,8.68,1.67-3,3.69-6.88,5.58-10.46,8-15.18,18.94-36,28-46.11,6.85-7.71,13.94-12.23,19.11-15.54,2.26-1.44,5-3.21,5.9-4.22,0-.09-.11-.21-.2-.34a35.74,35.74,0,0,1-3.5-8.55c-1.22-3.91-2.37-7.61-4.87-9.48-2.95-2.21-8.44-2.22-16.31,0-16.24,4.53-29,15.4-39.23,24.14-7,6-12.51,10.67-17.79,12.21l-1.46.43c-12.69,3.77-17.44,2.83-34.93-15.12-.72-.74-1.36-1.36-1.91-1.87,0,1,.06,2.07.09,2.9.26,6.54.53,13.29-4.52,16-6.54,3.52-26.09.19-31.92-.92-10-1.9-29.63-6.53-47.91-16.09-8.33-4.36-14.17-6.84-18.43-8.65-5.93-2.52-9.19-3.9-10.57-7.49s0-6.44,2.13-11c.46-1,1-2.12,1.55-3.41,2.09-4.75,1.84-10.87-15.86-20.35-1-.51-1.72-.92-2.34-1.29l-.47-.28c-2.94-1.73-5.4-3.66-5.7-9.86-.21-4.28.38-11.24,1.67-26.48l.19-2.26C155.2,22,153,16.3,147.79,13.16c-8.55-5.15-22.6-2.26-25.49-.4-4.26,2.74-10.42,1.53-17.55.13-4.25-.83-8.64-1.7-11.83-1.51-2.63.16-2.77.79-2.91,1.4-.86,3.89.21,7.85,1.58,12.87,2.23,8.19,5,18.39,1.15,33.75-3.2,12.81-15.6,55-40.64,60.82-3.41.79-6.51,1.45-9.25,2-5.7,1.22-11.58,2.49-13.5,3.58v.05c0,.46-.37,6.56,5.18,15.07,6.82,10.46,13.17,21.29,9.37,28.62-1.25,2.4-4,5.31-10.25,5.53l-3.37.1c-6.45.17-17.25.44-19.56,3.7-.81,1.13-.39,3.19.09,4.72a48.17,48.17,0,0,0,17,22.91c10.82,7.89,23.86,10.47,38.78,7.68Zm121,69.88h0Z"/></g></g></svg>