<?xml version="1.0" encoding="UTF-8"?>
<svg width="960px" height="188px" viewBox="0 0 960 188" version="1.1" xmlns="http://www.w3.org/2000/svg" xmlns:xlink="http://www.w3.org/1999/xlink">
    <!-- Generator: Sketch 47.1 (45422) - http://www.bohemiancoding.com/sketch -->
    <title>Page 1</title>
    <desc>Created with Sketch.</desc>
    <defs></defs>
    <g id="Page-1" stroke="none" stroke-width="1" fill="none" fill-rule="evenodd">
        <g id="Who-we-are" transform="translate(0.000000, -1390.000000)" stroke="#00FFA3">
            <g id="Page-1" transform="translate(0.000000, 1391.000000)">
                <path d="M959,0 C959,0 775.441931,0.890909625 568.938242,1.8943552 C565.660788,1.90959445 562.376451,1.92600594 559.087526,1.94241743 C538.001463,1.780647 520.514061,3.71368644 499.736586,3.55074375 C478.957964,3.38780107 460.362399,2.02564715 439.58263,2.52268094 C436.262731,2.53909243 432.946273,2.55550392 429.63211,2.57074317 C341.475826,2.99978649 255.592079,3.41710731 184.074294,3.76409316 C181.425487,3.8098109 178.796182,3.83325589 176.187526,3.86138987 C158.557876,4.01964356 146.536721,5.66196512 131.232376,6.66072169 C127.952628,6.80842513 124.674027,7.08859276 121.391984,6.97254006 C103.891963,6.13320942 89.6671017,4.08997853 69.0903809,4.34318442 C65.4882789,4.35021792 62.0054822,4.36194041 58.650021,4.37249066 C21.73077,4.55184483 0,4.65851954 0,4.65851954" id="Stroke-1"></path>
                <path d="M959,8 C959,8 945.969339,8.06452335 922.945712,8.17803665 C920.081238,8.19357005 917.061897,8.20790858 913.893424,8.22344198 C898.045322,8.32142188 879.812262,8.21985735 858.277657,8.24853439 C856.122132,8.2533139 853.941369,8.27123705 851.733074,8.28796533 C836.5618,8.43971469 820.812355,8.67749519 803.160908,8.77189046 C800.512101,8.78503411 797.83691,8.79817775 795.138775,8.8113214 C730.218343,9.13274328 651.408023,9.52346802 568.938242,9.93211591 C565.660788,9.94764931 562.376451,9.98349561 559.087526,9.97991098 C539.942468,9.96318271 524.290532,11.5045739 506.154981,11.7531083 C504.040754,11.7817853 501.907025,11.7877597 499.743469,11.7698365 C490.141688,11.68739 481.121519,11.2811319 472.063495,10.9585151 C467.768504,10.8091555 463.534314,10.6693549 459.172788,10.5821289 C455.873538,10.5128261 452.553639,10.4698105 449.194736,10.465031 C446.03544,10.4638361 442.842877,10.4960978 439.59869,10.571375 C436.278791,10.5881033 432.962334,10.6048316 429.649318,10.6215599 C341.49074,11.0576899 255.602403,11.0576899 184.085766,11.8367496 C181.436959,11.8654267 178.807654,11.9060525 176.197851,11.9335347 C158.655385,12.0912584 146.48854,13.6888088 131.236965,14.6614386 C127.954922,14.8060187 124.675174,15.0975686 121.39772,14.9673271 C103.801337,14.2611548 89.4193138,12.280049 69.0880866,12.4258239 C65.4859846,12.4521112 62.0043351,12.4461369 58.6477267,12.4580856 C21.7296228,12.6409018 0,12.7484407 0,12.7484407" id="Stroke-3"></path>
                <path d="M959,16.0012658 C959,16.0012658 945.968192,16.0671296 922.942271,16.1830012 C920.077797,16.1988573 917.057308,16.2134937 913.887688,16.2293498 C897.484358,16.3513198 879.778994,16.0488341 858.282246,16.0000461 C856.125573,15.9988264 853.943663,16.0220007 851.737663,16.0463947 C836.394314,16.2805772 821.161094,16.6855177 803.178116,16.7891922 C800.528162,16.8026089 797.85297,16.8160257 795.153688,16.8294424 C730.230962,17.1575418 651.414906,17.5563838 568.938242,17.9723016 C565.660788,17.9893774 562.376451,18.023529 559.087526,18.0223093 C539.680914,18.0162108 524.375422,19.6872003 506.161864,19.9823678 C504.040754,20.01408 501.907025,20.0213982 499.751499,20.001883 C490.096948,19.9116252 481.14561,19.4249647 472.079555,19.061494 C467.781123,18.8980542 463.593967,18.7431522 459.191143,18.650455 C455.889598,18.5748336 452.569699,18.5309244 449.211943,18.5199471 C446.050353,18.5199471 442.856642,18.5516593 439.614751,18.626061 C436.295999,18.6431368 432.978394,18.6602126 429.665378,18.6760687 C341.5068,19.1224791 255.616169,19.1444337 184.09609,19.9177237 C181.447284,19.9457768 178.817979,19.9860269 176.208175,20.01408 C158.751747,20.1702017 146.440359,21.7228802 131.241553,22.6705874 C127.958363,22.810853 124.678615,23.0950431 121.403456,22.9681943 C103.715299,22.2876015 89.1715259,20.3714522 69.0869394,20.5178163 C65.4848374,20.5446497 62.0020407,20.5397709 58.6454323,20.5519679 C21.7296228,20.738582 0,20.8483551 0,20.8483551" id="Stroke-5"></path>
                <path d="M959,25.2536092 C959,25.2536092 945.967044,25.3184543 922.939977,25.4325335 C920.073208,25.4481444 917.051572,25.4625544 913.881952,25.4781652 C896.924541,25.6210645 879.746873,25.1263208 858.286835,25.001434 C856.129015,24.9930282 853.947105,25.023049 851.741104,25.0530699 C836.227975,25.3628851 821.508685,25.9188714 803.195323,26.0293482 C800.544222,26.0425574 797.86903,26.0557665 795.169748,26.0689757 C730.243581,26.3920002 651.420642,26.7834721 568.938242,27.1941575 C565.660788,27.2109692 562.376451,27.2433917 559.087526,27.2433917 C539.420508,27.2469942 524.46146,28.9906056 506.169894,29.3196342 C504.040754,29.3544584 501.908172,29.3628643 499.759529,29.3424501 C490.052209,29.2475842 481.168553,28.6964012 472.096763,28.3061301 C467.793742,28.1332099 463.654766,27.9686956 459.20835,27.8750305 C455.906806,27.7969763 452.585759,27.7525454 449.230298,27.7357338 C446.066414,27.7369346 442.870408,27.7681563 439.629664,27.8378047 C436.310912,27.8546164 432.995602,27.871428 429.682585,27.8870389 C341.521713,28.3265442 255.629935,28.3697743 184.107562,29.1094882 C181.458755,29.1371074 178.828303,29.1743333 176.2185,29.2019525 C158.849256,29.3508559 146.392178,30.8038655 131.247289,31.6900812 C127.960658,31.8233738 124.682057,32.0875573 121.410339,31.9710764 C103.629262,31.3394376 88.923738,29.5586003 69.0857922,29.7002987 C65.4825431,29.7255162 62.0008936,29.7219137 58.6442852,29.7339221 C21.7284757,29.9176497 0,30.0257248 0,30.0257248" id="Stroke-7"></path>
                <path d="M959,33.4990036 C959,33.4990036 945.965897,33.5628503 922.936535,33.6751732 C920.069767,33.6905437 917.046984,33.6976378 913.876216,33.7201023 C896.363576,33.8442487 879.713606,33.203417 858.29257,33.0036005 C856.132456,32.98823 853.950546,33.0248827 851.745693,33.0603531 C836.061636,33.442251 821.857424,34.145747 803.212531,34.2616169 C800.560282,34.2758051 797.885091,34.2876285 795.184661,34.3018167 C730.2562,34.6198678 651.427525,35.0053127 568.938242,35.4096751 C565.660788,35.426228 562.376451,35.4557866 559.087526,35.4581513 C539.160101,35.4723395 524.545203,37.2836939 506.177924,37.6478565 C504.040754,37.6856916 501.908172,37.6939681 499.766412,37.6726858 C490.008616,37.5745511 481.192644,36.959731 472.11397,36.5447275 C467.806361,36.3626462 463.715566,36.1876589 459.226705,36.0930712 C455.922866,36.0114893 452.60182,35.9665602 449.247506,35.945278 C446.081327,35.9476427 442.884174,35.9772013 439.645724,36.0434127 C436.326972,36.0599655 433.011662,36.0765184 429.698646,36.0918889 C341.537773,36.5246276 255.642554,36.587292 184.119034,37.2955174 C181.46908,37.321529 178.838628,37.3569994 176.229972,37.383011 C158.945618,37.5260749 146.34285,38.882226 131.250731,39.7098684 C127.962952,39.8340147 124.685498,40.0811251 121.414927,39.9735316 C103.543224,39.3894526 88.6759501,37.7400796 69.0834979,37.8760494 C65.4813959,37.9008786 61.9985992,37.8973316 58.6419908,37.9103374 C21.7284757,38.0912364 0,38.1976475 0,38.1976475" id="Stroke-9"></path>
                <path d="M959,42.7368857 C959,42.7368857 945.96475,42.799769 922.934241,42.9103972 C920.066325,42.9255358 917.042395,42.9313583 913.87048,42.9546484 C895.802612,43.0885667 879.681485,42.2769055 858.297159,42.0055754 C856.135898,41.9846142 853.952841,42.0265365 851.749134,42.0684587 C835.895297,42.5191229 822.206162,43.3657194 803.228591,43.4879926 C800.57749,43.5019667 797.901151,43.5136117 795.200722,43.5275858 C730.268818,43.8408382 651.434408,44.2204674 568.938242,44.6187287 C565.660788,44.6350318 562.376451,44.66298 559.087526,44.6664735 C538.898547,44.6897636 524.630093,46.5692777 506.185955,46.96521 C504.040754,47.0059678 501.908172,47.0152838 499.774442,46.9931582 C489.96273,46.8906816 481.216734,46.1966355 472.130031,45.775084 C467.820127,45.5759533 463.775219,45.4094289 459.243912,45.3046233 C455.938926,45.2277658 452.61788,45.1741985 449.26586,45.1497438 C446.09624,45.1520729 442.899088,45.180021 439.661785,45.2429044 C436.343033,45.2592075 433.027722,45.2755106 429.715853,45.2906492 C341.552687,45.7168587 255.65632,45.7995387 184.130505,46.4761171 C181.479404,46.5005718 178.850099,46.5343425 176.240296,46.5599616 C159.04198,46.6962089 146.294669,47.9573698 131.256466,48.7294379 C127.966394,48.8447241 124.687793,49.0741319 121.42181,48.9763133 C103.457187,48.4383112 88.4281622,46.9163007 69.0823507,47.0467255 C65.4791016,47.0711801 61.9974521,47.0688511 58.6408437,47.0816607 C21.7273285,47.2598302 0,47.3646359 0,47.3646359" id="Stroke-11"></path>
                <path d="M959,50.9681095 C959,50.9681095 945.963603,51.0300489 922.930799,51.1390163 C920.061736,51.1539277 917.037806,51.1585158 913.864744,51.1826033 C895.241648,51.3259815 879.648217,50.3487155 858.301748,50.0080488 C856.138192,49.9805202 853.956282,50.0286953 851.753723,50.0757233 C835.728958,50.594179 822.554901,51.5794743 803.245799,51.7079412 C800.59355,51.7205584 797.917211,51.7331757 795.216782,51.74694 C730.281437,52.05549 651.440143,52.4294204 568.938242,52.8217033 C565.660788,52.8377616 562.376451,52.8629962 559.087526,52.8687313 C538.636993,52.9019951 524.716131,54.8450569 506.193985,55.2728975 C504.041901,55.3176316 501.909319,55.3268078 499.782473,55.3050143 C489.919137,55.1983409 481.240825,54.4413038 472.147238,53.9996988 C467.832746,53.7886461 463.836019,53.6177392 459.26112,53.5099188 C455.954987,53.431921 452.63394,53.3768638 449.283068,53.3470411 C446.111153,53.3504822 442.912854,53.3780108 439.677845,53.4365091 C436.359093,53.4525675 433.043783,53.4674788 429.731914,53.4835372 C341.5676,53.9033487 255.670086,54.0042869 184.14083,54.6512095 C181.490876,54.67415 178.860424,54.7062668 176.250621,54.7303543 C159.138342,54.8622623 146.246488,56.0310816 131.261055,56.7479728 C127.968688,56.8557932 124.691234,57.067993 121.427546,56.978525 C103.37115,56.4864509 88.1803742,55.0870794 69.0800564,55.2121052 C65.4779544,55.2361927 61.9951577,55.2350457 58.6385493,55.247663 C21.7261813,55.4231579 0,55.5263903 0,55.5263903" id="Stroke-13"></path>
                <path d="M959,59.1947055 C959,59.1947055 945.962456,59.2557105 922.928505,59.3630341 C920.058295,59.3777205 917.033218,59.3811097 913.857861,59.4059636 C894.680683,59.5596058 879.617244,58.3756567 858.306336,58.0118861 C856.141634,57.9746053 853.958576,58.0322211 851.757164,58.0853181 C835.562619,58.6705143 822.902492,59.7889395 803.261859,59.9233764 C800.609611,59.9358034 797.933272,59.9482303 795.231695,59.961787 C730.294056,60.2656823 651.447026,60.6339718 568.938242,61.0203369 C565.660788,61.036153 562.376451,61.0598772 559.087526,61.0666555 C538.376586,61.1084553 524.801021,63.1148423 506.202015,63.5735096 C504.041901,63.6198282 501.909319,63.6299957 499.789356,63.6074012 C489.874398,63.4966884 481.264915,62.6798991 472.163298,62.2178427 C467.845365,61.9975468 463.895671,61.8213101 459.279474,61.7105973 C455.971047,61.6315167 452.650001,61.5739009 449.300275,61.5411389 C446.126066,61.5456578 442.92662,61.5705117 439.692758,61.6258681 C436.375153,61.6416842 433.059843,61.6563706 429.749121,61.6721867 C341.58366,62.0845354 255.683852,62.2065454 184.152302,62.8211144 C181.5012,62.8448386 178.870748,62.8742114 176.260945,62.8968058 C159.235851,63.0233348 146.198307,64.1022197 131.265644,64.7653667 C127.972129,64.865912 124.694676,65.061354 121.433282,64.9811437 C103.285112,64.5337736 87.9325863,63.2537981 69.0789092,63.3735487 C65.4756601,63.3961431 61.9928634,63.3972729 58.636255,63.4096998 C21.7261813,63.5825473 0,63.6842224 0,63.6842224" id="Stroke-15"></path>
                <path d="M959,68.4122372 C959,68.4122372 945.961309,68.4723564 922.925063,68.5781216 C920.053706,68.5914814 917.027482,68.5948213 913.852126,68.6204276 C894.119719,68.782972 879.583976,67.4369711 858.310925,67.0139105 C856.145075,66.9716044 853.962018,67.0339502 851.761753,67.0918427 C835.39628,67.7409068 823.251231,68.9911623 803.279066,69.1292137 C800.626818,69.1425735 797.949332,69.15482 795.247756,69.1681798 C730.306675,69.4676622 651.453909,69.8306037 568.938242,70.2113583 C565.660788,70.2269448 562.376451,70.2492111 559.087526,70.2570044 C538.11618,70.308217 524.885911,72.3745342 506.208898,72.864394 C504.041901,72.9122666 501.910466,72.9233998 499.797386,72.9000201 C489.829658,72.7853484 481.289006,71.9113942 472.180506,71.4282144 C467.857983,71.198871 463.956471,71.0174002 459.296682,70.9038418 C455.987107,70.823683 452.666061,70.7635638 449.31863,70.7268243 C446.140979,70.7312776 442.940386,70.7557706 439.708818,70.8080965 C436.391214,70.823683 433.07705,70.8381561 429.765181,70.8537425 C341.598573,71.2601034 255.697618,71.3992681 184.163773,71.9859864 C181.512672,72.0082528 178.88222,72.037199 176.27127,72.0583521 C159.332213,72.1785904 146.148978,73.1705563 131.270232,73.7828809 C127.974424,73.8752862 124.69697,74.0556437 121.439018,73.983278 C103.199075,73.5791438 87.6847984,72.4146137 69.0777621,72.5292854 C65.4745129,72.5515517 61.9917162,72.552665 58.6351078,72.5649115 C21.7250342,72.7363624 0,72.836561 0,72.836561" id="Stroke-17"></path>
                <path d="M959,75.6242364 C959,75.6242364 945.960161,75.6834865 922.921622,75.7877228 C920.050265,75.8008895 917.022893,75.8030839 913.84639,75.8294173 C893.558755,76.0016815 879.551855,74.4973873 858.316661,74.0168031 C856.148517,73.9674281 853.964312,74.0365532 851.765195,74.0990949 C835.228793,74.8100961 823.598822,76.1871123 803.296274,76.3308487 C800.642878,76.3440154 797.965392,76.3560848 795.262669,76.3681543 C730.319294,76.6644048 651.460792,77.0220998 568.938242,77.3973505 C565.660788,77.4127116 562.376451,77.4280727 559.087526,77.4423367 C537.854626,77.4653784 524.971949,79.667507 506.216928,80.1458967 C504.041901,80.2018552 501.910466,80.2084385 499.805416,80.1842996 C489.784919,80.0657994 481.313096,79.1353534 472.197713,78.6328248 C467.870602,78.3947271 464.016124,78.208199 459.315036,78.0918933 C456.003168,78.0096015 452.680974,77.9492542 449.335837,77.9086569 C446.155893,77.9130458 442.954152,77.9371847 439.724879,77.9843653 C436.407274,78.0008237 433.093111,78.0150876 429.782389,78.0304487 C341.613486,78.4309355 255.711384,78.5878386 184.174098,79.1463256 C181.522997,79.1671729 178.892544,79.1946035 176.281594,79.2143535 C159.428575,79.329562 146.100798,80.2380636 131.274821,80.7998423 C127.976718,80.8854257 124.700411,81.0500094 121.444754,80.9852731 C103.113037,80.6231892 87.4370105,79.5709513 69.0754677,79.6806737 C65.4722186,79.7026182 61.9894219,79.7048127 58.6328135,79.7168821 C21.723887,79.8858546 0,79.9846048 0,79.9846048" id="Stroke-19"></path>
                <path d="M959,84.8299798 C959,84.8299798 945.959014,84.8883927 922.919328,84.9911562 C920.046823,85.0041369 917.018304,85.0052186 913.840654,85.0322617 C892.997791,85.2129091 879.519734,83.5557121 858.32125,83.0191783 C856.151958,82.9640105 853.967754,83.0386493 851.769783,83.1067977 C835.062454,83.8769833 823.947561,85.3773307 803.313481,85.5266083 C800.658939,85.5395889 797.980306,85.5514879 795.278729,85.5633868 C730.331913,85.8543698 651.466528,86.2080927 568.938242,86.5780414 C565.660788,86.5931855 562.376451,86.6083296 559.087526,86.622392 C537.594219,86.6624157 525.056839,88.9167228 506.224958,89.420805 C504.043048,89.4792179 501.911613,89.4857082 499.812299,89.4608287 C489.740179,89.3385941 481.337187,88.353146 472.213774,87.8328381 C467.884368,87.5851239 464.076924,87.3936593 459.332244,87.2746699 C456.020375,87.1913774 452.698182,87.1286375 449.354192,87.084287 C446.170806,87.0907773 442.969065,87.1124117 439.739792,87.1567623 C436.423334,87.1719064 433.109171,87.1870505 429.798449,87.2021946 C341.629547,87.5970229 255.72515,87.7700983 184.185569,88.3023051 C181.534468,88.3228578 178.902869,88.3477374 176.291919,88.3672084 C159.526084,88.477544 146.052617,89.3028973 131.27941,89.8156332 C127.98016,89.8945989 124.703853,90.0438764 121.450489,89.9876269 C103.027,89.6663557 87.1892226,88.7230947 69.0743206,88.8280217 C65.4710714,88.8496561 61.9882747,88.8529013 58.6305192,88.8648002 C21.723887,89.0313853 0,89.1287402 0,89.1287402" id="Stroke-21"></path>
                <path d="M959,94.319887 C959,94.319887 945.957867,94.3857107 922.915886,94.5015117 C920.042235,94.5161392 917.013716,94.5161392 913.834918,94.5478321 C892.436826,94.7635876 879.487614,92.6986732 858.325838,92.0245896 C856.154253,91.955109 853.971195,92.0465308 851.773225,92.1294199 C834.896115,93.0765501 824.296299,94.9281469 803.329542,95.1048958 C800.676146,95.1195233 797.997513,95.1329318 795.293642,95.1463404 C730.343384,95.47424 651.473411,95.8728392 568.938242,96.2897227 C565.660788,96.3067881 562.376451,96.3238536 559.087526,96.3397 C537.332665,96.4043048 525.141729,99.0384725 506.232988,99.6418565 C504.043048,99.7125561 501.911613,99.7198698 499.820329,99.6918338 C489.69544,99.5479968 481.36013,98.359513 472.230981,97.7439393 C467.896987,97.4513895 464.136576,97.2271012 459.350599,97.0881401 C456.036435,96.9918424 452.714242,96.917486 449.3714,96.8626329 C446.185719,96.8711656 442.982831,96.8955447 439.755852,96.9418651 C436.439395,96.9589305 433.126378,96.9759959 429.815657,96.9918424 C341.64446,97.4379809 255.737769,97.6549554 184.197041,98.2327414 C181.544793,98.2546826 178.914341,98.2814997 176.302243,98.3034409 C159.622446,98.4228988 146.004436,99.2761692 131.283998,99.8076348 C127.982454,99.889305 124.706147,100.044113 121.456225,99.9880405 C102.940962,99.6662357 86.9414347,98.7093539 69.0731734,98.8251548 C65.4687771,98.848315 61.9859804,98.8531909 58.629372,98.8665994 C21.7227398,99.0530999 0,99.1640251 0,99.1640251" id="Stroke-23"></path>
                <path d="M960,102.541092 C960,102.541092 946.95672,102.605952 923.913592,102.720058 C921.038793,102.734471 918.009127,102.73327 914.829182,102.7657 C892.875862,102.99151 880.455493,100.76224 859.330427,100.027158 C857.157694,99.9514878 854.97349,100.048778 852.777813,100.137661 C835.729776,101.150201 825.64389,103.13204 804.346749,103.313409 C801.692207,103.329023 799.013573,103.342235 796.309703,103.355448 C731.356003,103.678548 652.480294,104.071312 569.938242,104.482094 C566.660788,104.498909 563.376451,104.514524 560.087526,104.531339 C538.071111,104.614216 526.22662,107.302312 507.241019,107.932897 C505.043048,108.004964 502.91276,108.013372 500.828359,107.984545 C490.6507,107.836808 482.384221,106.59005 473.248189,105.954661 C468.909606,105.653181 465.197376,105.423768 460.367806,105.282036 C457.052496,105.184746 453.729155,105.109076 450.389754,105.050221 C447.200632,105.058629 443.996597,105.08145 440.771912,105.12469 C437.455455,105.141506 434.142439,105.158321 430.831717,105.173936 C342.66052,105.613544 256.751535,105.848962 185.208513,106.396671 C182.556264,106.41709 179.924665,106.442313 177.312568,106.462732 C160.719955,106.576838 146.956255,107.340747 132.288587,107.819992 C128.985895,107.894461 125.709589,108.026584 122.461961,107.984545 C103.854925,107.671054 87.6936468,106.868709 70.0708791,106.979212 C66.4676299,107.000832 62.9848332,107.008038 59.6270777,107.021251 C22.7215927,107.205021 1,107.314323 1,107.314323" id="Stroke-25"></path>
                <path d="M960,110.660464 C960,110.660464 946.955573,110.7222 923.91015,110.830811 C921.035352,110.84453 918.003391,110.842243 914.823446,110.874255 C892.314898,111.100621 880.423373,108.79351 859.336163,108.028665 C857.161136,107.949779 854.976931,108.049244 852.781255,108.139562 C835.563437,109.177647 825.992629,111.214948 804.363957,111.395584 C801.708267,111.410447 799.028487,111.423022 796.324616,111.435598 C731.368622,111.743137 652.487177,112.116985 569.938242,112.507982 C566.660788,112.523988 563.376451,112.53885 560.087526,112.554856 C537.810704,112.652034 526.312657,115.299838 507.249049,115.932065 C505.043048,116.005234 502.91276,116.013237 500.835242,115.984655 C490.605961,115.838317 482.408311,114.579581 473.264249,113.947354 C468.922225,113.647819 465.257029,113.422595 460.386161,113.281973 C457.068556,113.185939 453.745215,113.111627 450.406962,113.051034 C447.215545,113.06018 444.01151,113.081902 440.787973,113.11963 C437.471515,113.135635 434.158499,113.151641 430.847777,113.166504 C342.675433,113.584939 256.765301,113.828455 185.218837,114.330349 C182.567736,114.349784 179.93499,114.37265 177.322892,114.389799 C160.816317,114.494979 146.906926,115.150071 132.293176,115.56279 C128.98819,115.626813 125.71303,115.739996 122.467697,115.706841 C103.768887,115.451893 87.4458589,114.781939 70.0697319,114.88369 C66.4653356,114.904268 62.9825389,114.911128 59.6247833,114.924847 C22.7215927,115.099767 1,115.203804 1,115.203804" id="Stroke-27"></path>
                <path d="M960,118.768855 C960,118.768855 946.954426,118.827754 923.907856,118.931373 C921.030763,118.944462 917.998803,118.94119 914.817711,118.972821 C891.753933,119.199692 880.391252,116.821908 859.340751,116.03004 C857.164577,115.948236 854.979225,116.049673 852.785844,116.141294 C835.397098,117.202572 826.341367,119.291313 804.380017,119.470192 C801.725474,119.484372 799.044547,119.49637 796.340676,119.508368 C731.381241,119.801773 652.492913,120.158441 569.938242,120.53147 C566.660788,120.545649 563.376451,120.560919 560.087526,120.576189 C537.549151,120.686353 526.397548,123.296462 507.255932,123.932356 C505.043048,124.005434 502.91276,124.013069 500.843272,123.98471 C490.561221,123.840734 482.432402,122.570038 473.281456,121.941779 C468.935991,121.64292 465.317828,121.420412 460.403368,121.28189 C457.084616,121.188087 453.761276,121.113918 450.425316,121.052837 C447.230458,121.061563 444.025276,121.081196 440.802886,121.115008 C437.487576,121.130279 434.174559,121.145549 430.864985,121.159728 C342.690346,121.558934 256.779067,121.947233 185.230309,122.270088 C182.578061,122.291902 179.945314,122.308263 177.333217,122.324624 C160.912679,122.420608 146.858745,122.975788 132.297764,123.328093 C128.990484,123.38372 125.715325,123.480795 122.473433,123.454617 C103.68285,123.252833 87.198071,122.672566 70.0674376,122.796909 C66.4641884,122.809998 62.9802446,122.824177 59.6236362,122.837266 C22.7204455,123.004147 1,123.103403 1,123.103403" id="Stroke-29"></path>
                <path d="M960,128.226089 C960,128.226089 946.953278,128.289437 923.904414,128.400883 C921.027321,128.41496 917.994214,128.411441 914.810828,128.445461 C891.194116,128.702374 880.359131,125.953762 859.34534,125.035212 C857.168019,124.94019 854.982667,125.056328 852.789285,125.160735 C835.230759,126.37843 826.690106,128.7798 804.397225,128.980402 C801.741535,128.99448 799.060607,129.008557 796.355589,129.021462 C731.39386,129.33703 652.499796,129.720639 569.938242,130.121845 C566.660788,130.137095 563.376451,130.153519 560.087526,130.169942 C537.288744,130.307197 526.482438,133.205968 507.263962,133.922742 C505.044195,134.006033 502.913908,134.014245 500.851303,133.983744 C490.516482,133.821854 482.456492,132.381267 473.297517,131.677397 C468.94861,131.343059 465.377481,131.095531 460.421723,130.941853 C457.100677,130.838619 453.777336,130.756501 450.442524,130.684941 C447.245372,130.695499 444.039042,130.716615 440.818946,130.749462 C437.503636,130.765886 434.19062,130.782309 430.881045,130.79756 C342.706407,131.22692 256.792833,131.64455 185.241781,131.991792 C182.589532,132.014081 179.956786,132.030505 177.344688,132.046929 C161.010188,132.147817 146.810564,132.669854 132.302353,133.004192 C128.993926,133.058155 125.718766,133.149658 122.479169,133.127369 C103.595665,132.954921 86.9502831,132.431711 70.0662904,132.557234 C66.4618941,132.572485 62.9790974,132.587735 59.6213418,132.601813 C22.7192984,132.7813 1,132.888053 1,132.888053" id="Stroke-31"></path>
                <path d="M960,136.327762 C960,136.327762 946.952131,136.388441 923.900973,136.496315 C921.022733,136.509799 917.989625,136.504181 914.805092,136.537891 C890.632005,136.796338 880.327011,133.981511 859.349929,133.036493 C857.17146,132.938733 854.984961,133.056719 852.793874,133.163469 C835.06442,134.402892 827.037697,136.850275 804.414432,137.050291 C801.757595,137.064899 799.076668,137.077259 796.37165,137.08962 C731.406478,137.391891 652.506679,137.759335 569.938242,138.143635 C566.660788,138.159366 563.376451,138.175098 560.087526,138.189706 C537.02719,138.340279 526.568475,141.202301 507.271992,141.922583 C505.044195,142.005735 502.913908,142.014725 500.858186,141.983261 C490.47289,141.823698 482.48173,140.373023 473.314724,139.671844 C468.961228,139.339234 465.438281,139.094271 460.43893,138.942574 C457.117884,138.841442 453.793396,138.759413 450.459731,138.686374 C447.260285,138.697611 444.052808,138.71559 440.835007,138.744806 C437.519696,138.760537 434.207827,138.776269 430.898253,138.790877 C342.72132,139.202145 256.806599,139.602176 185.253252,139.934786 C182.599857,139.955013 179.96711,139.969621 177.355013,139.985352 C161.10655,140.077494 146.761236,140.505618 132.308089,140.784291 C128.99622,140.829238 125.722208,140.905649 122.484904,140.891041 C103.509628,140.767436 86.7024952,140.364033 70.0639961,140.476402 C66.4607469,140.49101 62.9768031,140.505618 59.6190475,140.520226 C22.7192984,140.692149 1,140.793281 1,140.793281" id="Stroke-33"></path>
                <path d="M960,144.42141 C960,144.42141 946.950984,144.479638 923.898679,144.583155 C921.019291,144.596095 917.983889,144.590704 914.799356,144.623053 C890.071041,144.881845 880.296037,142.006012 859.354517,141.037696 C857.173754,140.937414 854.988403,141.057105 852.797315,141.164935 C834.89808,142.424393 827.386436,144.915273 804.430492,145.114759 C801.774803,145.128777 799.092728,145.140638 796.386563,145.152499 C731.419097,145.442563 652.513562,145.795168 569.938242,146.163947 C566.660788,146.179044 563.376451,146.19414 560.087526,146.208158 C536.766783,146.369903 526.653366,149.200448 507.280022,149.922911 C505.044195,150.00594 502.915055,150.014567 500.866216,149.983296 C490.42815,149.824786 482.50582,148.364763 473.331932,147.666023 C468.974994,147.334984 465.497934,147.092366 460.457285,146.941404 C457.133945,146.843278 453.809457,146.761327 450.478086,146.688003 C447.275198,146.698786 444.066574,146.716038 440.851067,146.740839 C437.535757,146.755936 434.223888,146.771032 430.914313,146.78505 C342.73738,147.179709 256.820365,147.563584 185.263577,147.882762 C182.611328,147.901093 179.977435,147.914033 177.365337,147.929129 C161.202912,148.014315 146.713055,148.356137 132.312678,148.582581 C128.998514,148.620321 125.724502,148.680706 122.49064,148.67208 C103.42359,148.59552 86.4547073,148.301144 70.0628489,148.401426 C66.4584526,148.415444 62.9756559,148.43054 59.6179003,148.444558 C22.7181512,148.609538 1,148.706585 1,148.706585" id="Stroke-35"></path>
                <path d="M960,153.897717 C960,153.897717 946.950984,153.959899 923.895237,154.070444 C921.01585,154.084262 917.979301,154.077353 914.79362,154.113049 C889.510076,154.400927 880.263916,151.142153 859.360253,150.043612 C857.177196,149.928461 854.990697,150.064339 852.801904,150.185248 C834.730594,151.606212 827.734027,154.4182 804.4477,154.636987 C801.790863,154.653108 799.108788,154.665774 796.402623,154.678441 C731.431716,154.988197 652.519298,155.364741 569.938242,155.758558 C566.660788,155.774679 563.376451,155.7908 560.087526,155.80577 C536.505229,155.99692 526.738256,159.10715 507.288052,159.914358 C505.044195,160.006479 502.915055,160.015691 500.874246,159.982297 C490.383411,159.806116 482.529911,158.174426 473.347992,157.400611 C468.987613,157.034431 465.558733,156.768432 460.474493,156.602615 C457.150005,156.493221 453.825517,156.403403 450.495294,156.320495 C447.290111,156.333161 444.081487,156.350434 440.86598,156.374616 C437.551817,156.390737 434.239948,156.406858 430.931521,156.421828 C342.752293,156.84328 256.832984,157.253218 185.275048,157.594065 C182.621653,157.611338 179.987759,157.625156 177.375662,157.640125 C161.299274,157.72764 146.664874,158.020124 132.317266,158.217032 C129.001956,158.251577 125.727943,158.304547 122.496376,158.301092 C103.336406,158.263093 86.2069194,158.04776 70.0617018,158.14679 C66.4573054,158.162911 62.9733616,158.179032 59.615606,158.194002 C22.717004,158.370183 1,158.473819 1,158.473819" id="Stroke-37"></path>
                <path d="M960,161.987168 C960,161.987168 946.949837,162.04702 923.892943,162.153424 C921.011261,162.166724 917.974712,162.158965 914.787884,162.194433 C888.949112,162.48261 880.231796,159.166365 859.364842,158.044694 C857.180637,157.927206 854.994139,158.064644 852.805345,158.188782 C834.564255,159.627447 828.082766,162.480393 804.464907,162.698742 C801.806923,162.714259 799.124849,162.726451 796.418683,162.738643 C731.444335,163.036795 652.526181,163.399232 569.938242,163.778295 C566.660788,163.793812 563.376451,163.809329 560.087526,163.823738 C536.244823,164.025462 526.824293,167.105624 507.296083,167.913626 C505.044195,168.006729 502.916202,168.015596 500.881129,167.982345 C490.338671,167.808331 482.554001,166.166834 473.3652,165.396516 C469.000232,165.029645 465.618386,164.766962 460.4917,164.601814 C457.166065,164.495411 453.841577,164.406741 450.513648,164.321397 C447.305024,164.334697 444.095253,164.351323 440.88204,164.371273 C437.567877,164.386791 434.256008,164.402308 430.947581,164.416717 C342.767207,164.82238 256.84675,165.21696 185.28652,165.545038 C182.633125,165.560555 179.999231,165.573855 177.385986,165.587156 C161.396783,165.666959 146.616693,165.877549 132.321855,166.026071 C129.00425,166.052672 125.731385,166.092573 122.502112,166.09479 C103.250368,166.100332 85.9591315,165.989494 70.0594074,166.075947 C66.4550111,166.092573 62.9722144,166.106982 59.6144588,166.122499 C22.717004,166.29208 1,166.391833 1,166.391833" id="Stroke-39"></path>
                <path d="M960,170.069551 C960,170.069551 946.94869,170.127247 923.889501,170.229819 C921.00782,170.242641 917.970123,170.235161 914.782148,170.269352 C888.389295,170.558904 880.199675,167.187924 859.369431,166.045745 C857.184079,165.926078 854.99758,166.064977 852.809934,166.189986 C834.397916,167.646292 828.431504,170.537535 804.482115,170.7555 C801.824131,170.769389 799.140909,170.782211 796.433597,170.793964 C731.456954,171.081379 652.533064,171.430764 569.938242,171.796176 C566.660788,171.811134 563.376451,171.818613 560.087526,171.839983 C535.983269,171.999183 526.909184,175.103048 507.302966,175.912938 C505.045342,176.006962 502.916202,176.015509 500.889159,175.982387 C490.293932,175.809297 482.578092,174.160669 473.382407,173.391381 C469.012851,173.025969 465.679186,172.765266 460.510055,172.60286 C457.182125,172.497083 453.857638,172.408401 450.530856,172.321856 C447.319937,172.335746 444.109019,172.350705 440.898101,172.3678 C437.583938,172.382758 434.273216,172.396648 430.964788,172.411607 C342.783267,172.802662 256.860516,173.183032 185.296845,173.499295 C182.643449,173.512117 180.009555,173.524938 177.396311,173.536691 C161.493145,173.610415 146.567365,173.74504 132.326444,173.84868 C129.007692,173.868981 125.733679,173.894624 122.508995,173.903172 C103.164331,173.949115 85.7113435,173.934157 70.0582603,174.010017 C66.4538639,174.026044 62.9699201,174.041002 59.6121645,174.055961 C22.7158569,174.219435 1,174.315596 1,174.315596" id="Stroke-41"></path>
                <path d="M960,179.557682 C960,179.557682 946.947543,179.618992 923.887207,179.727987 C921.004378,179.741612 917.965535,179.755236 914.775265,179.769996 C887.830625,180.280912 880.158377,176.481967 859.374019,175.04459 C857.186373,174.926511 854.999874,175.065026 852.813376,175.203541 C834.231577,176.824848 828.779096,180.047026 804.498175,180.286589 C801.840191,180.301348 799.156969,180.314973 796.449657,180.327462 C731.469573,180.632876 652.539947,181.004142 569.938242,181.392438 C566.660788,181.408333 563.376451,181.424228 560.087526,181.438988 C535.722862,181.681957 526.989485,184.918894 507.310996,185.906666 C493.098753,186.485704 484.338992,184.225184 473.398467,183.126147 C469.023175,182.762829 465.739986,182.394969 460.527262,182.262131 C457.199333,182.117939 453.873698,182.049817 450.54921,181.954446 C221.187087,183.034182 1,184.069638 1,184.069638" id="Stroke-43"></path>
            </g>
        </g>
    </g>
</svg>