<?xml version="1.0" encoding="UTF-8"?>
<svg width="568px" height="88px" viewBox="0 0 568 88" version="1.1" xmlns="http://www.w3.org/2000/svg" xmlns:xlink="http://www.w3.org/1999/xlink">
    <!-- Generator: Sketch 47.1 (45422) - http://www.bohemiancoding.com/sketch -->
    <title>Page 1</title>
    <desc>Created with Sketch.</desc>
    <defs></defs>
    <g id="Wide-screen" stroke="none" stroke-width="1" fill="none" fill-rule="evenodd">
        <g id="Who-we-are-Desktop" transform="translate(0.000000, -759.000000)" stroke="#00FFA3">
            <g id="Page-1" transform="translate(-40.000000, 760.000000)">
                <path d="M607,0 C607,0 490.816738,0.636364018 360.110024,1.35311086 C358.035556,1.36399603 355.956732,1.37571853 353.875003,1.38744102 C340.528559,1.27189071 329.45989,2.65263317 316.308767,2.53624554 C303.156918,2.41985791 291.386837,1.44689082 278.234261,1.80191496 C276.132928,1.81363745 274.033773,1.82535995 271.93607,1.83624512 C216.137463,2.14270463 161.77726,2.44079094 116.510007,2.68863797 C114.833442,2.7212935 113.169221,2.73803992 111.518069,2.75813562 C100.359364,2.87117397 92.7505625,4.0442608 83.0636623,4.75765835 C80.9877424,4.86316081 78.9125486,5.06328055 76.8351765,4.98038576 C65.7585209,4.38086387 56.7548808,2.92141323 43.730825,3.10227459 C41.450871,3.10729851 39.2464314,3.11567172 37.1225889,3.12320761 C13.7545124,3.25131774 0,3.32751396 0,3.32751396" id="Stroke-1"></path>
                <path d="M607,5 C607,5 598.75223,5.04608811 584.179403,5.12716904 C582.366331,5.13826432 580.455236,5.14850613 578.449748,5.15960141 C568.418676,5.22958706 556.878043,5.15704096 543.247693,5.17752456 C541.883351,5.1809385 540.503035,5.19374075 539.105293,5.20568952 C529.50262,5.31408192 519.533993,5.48392513 508.361493,5.55135033 C506.684928,5.56073865 504.991662,5.57012697 503.283875,5.57951528 C462.192424,5.80910234 412.309353,6.08819144 360.110024,6.38008279 C358.035556,6.39117808 355.956732,6.41678258 353.875003,6.41422213 C341.75712,6.40227336 331.850212,7.50326705 320.371297,7.68079162 C319.033094,7.70127522 317.682548,7.70554264 316.313124,7.69274039 C310.235667,7.63385003 304.526342,7.34366564 298.793057,7.1132251 C296.074538,7.00653967 293.394503,6.9066821 290.633871,6.84437781 C288.545607,6.79487576 286.444274,6.76415036 284.318253,6.76073642 C282.318574,6.75988294 280.297837,6.78292699 278.244427,6.83669645 C276.143093,6.84864522 274.043938,6.86059399 271.946961,6.87254276 C216.146902,7.18406423 161.783794,7.18406423 116.517268,7.74053546 C114.840703,7.76101907 113.176482,7.7900375 111.524604,7.80966762 C100.421083,7.92232744 92.7200663,9.06343486 83.0665667,9.75817041 C80.9891946,9.86144192 78.9132747,10.0696919 76.838807,9.97666219 C65.701159,9.47225345 56.5980432,8.05717783 43.7293728,8.16130282 C41.4494188,8.18007946 39.2457053,8.17581204 37.1211367,8.18434687 C13.7537863,8.31492985 0,8.39174336 0,8.39174336" id="Stroke-3"></path>
                <path d="M607,11.0009041 C607,11.0009041 598.751504,11.0479497 584.177225,11.1307151 C582.364153,11.1420409 580.452332,11.1524955 578.446117,11.1638213 C568.063613,11.2509427 556.856986,11.0348815 543.250598,11.0000329 C541.88553,10.9991617 540.504488,11.0157148 539.108197,11.0331391 C529.39661,11.2004123 519.754728,11.4896555 508.372384,11.5637087 C506.695093,11.5732921 505.001828,11.5828755 503.293314,11.5924588 C462.200411,11.8268155 412.31371,12.1117027 360.110024,12.4087869 C358.035556,12.4209839 355.956732,12.4453779 353.875003,12.4445067 C341.591569,12.4401506 331.903943,13.6337145 320.375653,13.8445484 C319.033094,13.8672 317.682548,13.8724273 316.318206,13.8584879 C310.207349,13.794018 304.54159,13.4464034 298.803222,13.1867815 C296.082525,13.0700387 293.43226,12.9593945 290.645489,12.8931821 C288.555773,12.8391668 286.454439,12.8078031 284.329145,12.7999622 C282.328013,12.7999622 280.306551,12.8226138 278.254592,12.8757579 C276.153985,12.8879549 274.054103,12.9001519 271.957127,12.9114777 C216.157067,13.2303422 161.792508,13.246024 116.523803,13.7983741 C114.847238,13.818412 113.183017,13.8471621 111.531139,13.8672 C100.482075,13.9787155 92.6895701,15.0877716 83.0694711,15.7647053 C80.9913729,15.864895 78.915453,16.067888 76.8424375,15.9772817 C65.6467015,15.4911439 56.4412056,14.1224659 43.7286467,14.2270116 C41.4486927,14.2461783 39.2442531,14.2426935 37.1196845,14.2514056 C13.7537863,14.3847015 0,14.4631108 0,14.4631108" id="Stroke-5"></path>
                <path d="M607,18.1811494 C607,18.1811494 598.750778,18.2274673 584.175772,18.3089525 C582.361249,18.3201031 580.448701,18.330396 578.442487,18.3415466 C567.709276,18.4436175 556.836655,18.0902291 543.253502,18.0010243 C541.887708,17.9950201 540.506666,18.0164636 539.110376,18.0379071 C529.291325,18.2592037 519.974736,18.6563367 508.383276,18.7352487 C506.705258,18.7446838 505.011993,18.754119 503.30348,18.7635541 C462.208398,18.9942858 412.31734,19.2739087 360.110024,19.5672553 C358.035556,19.5792637 355.956732,19.6024226 353.875003,19.6024226 C341.426745,19.6049958 331.958401,20.8504326 320.380736,21.085453 C319.033094,21.1103274 317.683274,21.1163316 316.323289,21.1017501 C310.179031,21.0339887 304.556112,20.6402866 298.814114,20.3615215 C296.090512,20.2380071 293.470744,20.1204969 290.65638,20.0535932 C288.566664,19.9978402 286.464605,19.9661039 284.340762,19.9540955 C282.338178,19.9549533 280.315264,19.9772545 278.264031,20.0270033 C276.163424,20.0390117 274.064995,20.05102 271.968018,20.0621706 C216.166507,20.376103 161.801221,20.4069816 116.531064,20.9353487 C114.854499,20.9550767 113.189552,20.9816666 111.537674,21.0013946 C100.543794,21.1077542 92.6590739,22.1456182 83.0731016,22.7786294 C80.9928251,22.8738384 78.9176313,23.062541 76.8467941,22.9793403 C65.592244,22.5281697 56.284368,21.256143 43.7279206,21.3573562 C41.4472405,21.3753687 39.243527,21.3727955 37.1189584,21.3813729 C13.7530602,21.5126069 0,21.5898034 0,21.5898034" id="Stroke-7"></path>
                <path d="M607,23.3564311 C607,23.3564311 598.750052,23.4020359 584.173594,23.4822666 C582.35907,23.4932455 580.445797,23.4983127 578.438856,23.5143588 C567.354214,23.6030348 556.815598,23.1452979 543.257133,23.0025718 C541.889886,22.9915929 540.508844,23.0177734 539.11328,23.0431094 C529.186041,23.3158935 520.19547,23.8183907 508.394167,23.9011549 C506.715424,23.9112893 505.022159,23.9197347 503.312919,23.9298691 C462.216385,24.1570484 412.321697,24.4323662 360.110024,24.7211965 C358.035556,24.73302 355.956732,24.7541333 353.875003,24.7558224 C341.26192,24.7659568 332.011406,26.0597814 320.385819,26.3198975 C319.033094,26.3469226 317.683274,26.3528343 316.327646,26.3376327 C310.151439,26.2675365 304.571361,25.8283793 298.825005,25.5319482 C296.0985,25.4018901 293.509227,25.2768992 290.667998,25.2093366 C288.57683,25.1510638 286.47477,25.1189716 284.351654,25.10377 C282.347618,25.105459 280.323977,25.1265724 278.274197,25.1738662 C276.173589,25.1856897 274.07516,25.1975131 271.978184,25.2084921 C216.176672,25.5175912 161.809208,25.5623514 116.538325,26.0682267 C114.861034,26.0868064 113.196086,26.1121424 111.544935,26.1307221 C100.604786,26.2329106 92.6278516,27.20159 83.0752799,27.7927631 C80.9942773,27.8814391 78.9198096,28.0579465 76.8496985,27.981094 C65.5377865,27.5638947 56.1275304,26.3857711 43.7264684,26.4828924 C41.4465144,26.5006276 39.2420748,26.498094 37.1175062,26.5073839 C13.7530602,26.6365974 0,26.7126054 0,26.7126054" id="Stroke-9"></path>
                <path d="M607,28.5263469 C607,28.5263469 598.749326,28.5712636 584.172142,28.6502837 C582.356892,28.661097 580.442892,28.6652559 578.435226,28.6818917 C566.999151,28.7775477 556.795267,28.1977896 543.260037,28.0039824 C541.892065,27.9890102 540.510296,28.0189546 539.115458,28.0488991 C529.080756,28.3708021 520.416205,28.9755138 508.404332,29.0628518 C506.726315,29.0728333 505.032324,29.0811512 503.323085,29.0911327 C462.224372,29.3148844 412.326054,29.5860481 360.110024,29.8705205 C358.035556,29.8821656 355.956732,29.9021286 353.875003,29.9046239 C341.096369,29.9212597 332.065137,31.2637698 320.390901,31.5465786 C319.033094,31.5756913 317.683274,31.5823456 316.332728,31.5665416 C310.122395,31.493344 304.586609,30.9975968 298.835171,30.6964886 C296.107213,30.5542524 293.546984,30.4353063 290.678889,30.3604452 C288.586995,30.305547 286.484936,30.2672846 284.363271,30.249817 C282.357057,30.2514806 280.333416,30.2714436 278.284362,30.3163603 C276.183755,30.3280053 274.085326,30.3396504 271.989075,30.3504637 C216.186111,30.6548991 161.817921,30.7139562 116.545586,31.1972265 C114.867569,31.2146941 113.203347,31.2388161 111.55147,31.2571155 C100.665779,31.354435 92.5973554,32.2552642 83.0789104,32.8067413 C80.9964556,32.8890886 78.9212618,33.0529514 76.8540551,32.9830809 C65.483329,32.5987937 55.9706928,31.5116434 43.7257423,31.6048039 C41.4450622,31.6222715 39.2413487,31.6206079 37.1167801,31.6297576 C13.7523341,31.7570216 0,31.8318828 0,31.8318828" id="Stroke-11"></path>
                <path d="M607,35.6915068 C607,35.6915068 598.7486,35.7357492 584.169964,35.8135831 C582.353988,35.824234 580.439988,35.8275113 578.431595,35.8447166 C566.644088,35.9471297 556.77421,35.2490825 543.262942,35.0057492 C541.893517,34.9860859 540.512475,35.0204966 539.118363,35.0540881 C528.975472,35.4244136 520.636939,36.1281959 508.415224,36.219958 C506.736481,36.2289703 505.042489,36.2379827 503.33325,36.2478143 C462.232359,36.4682071 412.329684,36.7353003 360.110024,37.0155023 C358.035556,37.0269726 355.956732,37.0449973 353.875003,37.0490938 C340.930818,37.0728536 332.119595,38.4607549 320.395984,38.7663554 C319.03382,38.7983083 317.684001,38.8048627 316.337811,38.7892959 C310.094803,38.7131006 304.601857,38.1723599 298.846062,37.8569277 C296.1152,37.7061758 293.585467,37.5840994 290.689781,37.5070848 C288.59716,37.4513722 286.495101,37.4120456 284.374163,37.3907437 C282.366496,37.3932016 280.342129,37.4128649 278.294527,37.4546494 C276.19392,37.4661196 274.095491,37.4767706 271.99924,37.4882409 C216.195551,37.7881062 161.826634,37.860205 116.552121,38.3222925 C114.87483,38.3386786 113.209882,38.3616191 111.558005,38.3788245 C100.726771,38.4730445 92.5668592,39.3079155 83.0818148,39.8199806 C80.9979078,39.8969952 78.9234401,40.0485664 76.8576856,39.9846607 C65.4288715,39.6331792 55.8138552,38.6336281 43.7242901,38.7229323 C41.4443361,38.7401377 39.2398965,38.7393184 37.1153279,38.7483307 C13.751608,38.8736842 0,38.9474216 0,38.9474216" id="Stroke-13"></path>
                <path d="M607,41.8533611 C607,41.8533611 598.747873,41.8969361 584.168511,41.9735958 C582.351809,41.9840861 580.437083,41.9865069 578.427239,42.0042597 C566.289025,42.1140042 556.754606,41.2683262 543.265846,41.0084901 C541.895695,40.9818609 540.513927,41.0230151 539.120541,41.0609415 C528.870187,41.4789388 520.856948,42.2778139 508.425389,42.3738403 C506.746646,42.3827167 505.052655,42.3915931 503.342689,42.4012764 C462.240346,42.6183445 412.334041,42.8814085 360.110024,43.1573835 C358.035556,43.1686807 355.956732,43.1856266 353.875003,43.1904682 C340.765994,43.2203252 332.173326,44.6534588 320.401067,44.9810783 C319.03382,45.014163 317.684001,45.0214255 316.342168,45.0052866 C310.066485,44.926206 304.617105,44.3427851 298.856227,44.0127448 C296.123187,43.8553906 293.623225,43.7295072 290.701398,43.6504266 C288.607326,43.5939405 286.505266,43.5527863 284.385054,43.529385 C282.375936,43.5326127 280.350843,43.5503655 278.303967,43.5899058 C276.204086,43.601203 274.105657,43.6116933 272.010132,43.6229905 C216.205716,43.9175253 161.835348,44.0046753 116.559382,44.4436532 C114.881365,44.460599 113.216417,44.4815796 111.56454,44.4977185 C100.78849,44.5880963 92.536363,45.3587283 83.0847192,45.8324048 C81.0000861,45.9042229 78.9256184,46.0438243 76.8613161,45.9865312 C65.374414,45.6669812 55.6570176,44.7527129 43.723564,44.8382491 C41.4428839,44.854388 39.2384443,44.8551949 37.1138757,44.8640713 C13.751608,44.9875338 0,45.0601588 0,45.0601588" id="Stroke-15"></path>
                <path d="M607,48.0087409 C607,48.0087409 598.747147,48.0516831 584.166333,48.1272297 C582.348905,48.1367724 580.433453,48.1391581 578.423608,48.1574483 C565.933962,48.2735514 556.733549,47.3121222 543.26875,47.009936 C541.897873,46.9797174 540.516105,47.0242501 539.123445,47.0656019 C528.764903,47.5292191 521.077682,48.4222588 508.436281,48.5208669 C506.757538,48.5304097 505.06282,48.5391572 503.352855,48.5486999 C462.248333,48.7626159 412.338397,49.0218598 360.110024,49.2938274 C358.035556,49.3049606 355.956732,49.3208651 353.875003,49.3264317 C340.601169,49.3630121 332.227058,50.838953 320.405423,51.1888528 C319.03382,51.2230476 317.684727,51.2309998 316.34725,51.2143001 C310.038168,51.1323917 304.632353,50.5081387 298.867119,50.1630103 C296.131174,49.9991935 293.661708,49.8695716 290.71229,49.7884584 C288.617491,49.7312021 286.515432,49.6882599 284.396672,49.6620174 C282.385375,49.6651983 280.359556,49.6826933 278.314132,49.7200689 C276.214251,49.7312021 274.116548,49.7415401 272.020297,49.7526732 C216.215155,50.042931 161.844061,50.1423344 116.566643,50.5614189 C114.888626,50.5773234 113.223678,50.5979993 111.571075,50.6131086 C100.849482,50.6989931 92.5051407,51.4075402 83.0876236,51.8449149 C81.0015383,51.9109187 78.9270706,52.0397455 76.8649466,51.9880557 C65.3199565,51.6993884 55.50018,50.8675812 43.7228379,50.9494896 C41.4421578,50.9653941 39.2377182,50.9661893 37.1131496,50.9749368 C13.7508819,51.0974017 0,51.1689722 0,51.1689722" id="Stroke-17"></path>
                <path d="M607,52.1601688 C607,52.1601688 598.746421,52.2024903 584.164155,52.2769448 C582.346727,52.2863496 580.430549,52.2879171 578.419978,52.3067266 C565.578899,52.4297725 556.713218,51.3552766 543.272381,51.0120022 C541.900052,50.9767343 540.517557,51.0261094 539.125624,51.0707821 C528.658892,51.5786401 521.29769,52.5622231 508.447172,52.6648919 C506.767703,52.6742967 505.072986,52.6829177 503.362294,52.6915388 C462.25632,52.9031463 412.342754,53.1586427 360.110024,53.4266789 C358.035556,53.4376511 355.956732,53.4486234 353.875003,53.4588119 C340.435618,53.4752703 332.281515,55.0482193 320.410506,55.3899262 C319.03382,55.4298965 317.684727,55.4345989 316.352333,55.4173568 C310.00985,55.3327138 304.647601,54.6681096 298.87801,54.3091605 C296.139161,54.1390908 293.699465,54.0058565 290.723907,53.9227809 C288.627657,53.8640011 286.524871,53.8208958 284.407563,53.7918978 C282.394814,53.7950327 280.368269,53.8122748 278.324298,53.8459752 C276.224416,53.8577312 274.126713,53.8679197 272.031189,53.878892 C216.224595,54.164954 161.852774,54.2770276 116.573178,54.6759469 C114.89516,54.6908378 113.230213,54.7104311 111.57761,54.7245382 C100.910474,54.80683 92.4746445,55.4557597 83.090528,55.8570302 C81.0029905,55.9181612 78.9292489,56.035721 76.8685771,55.9894808 C65.265499,55.7308494 55.3433424,54.9792509 43.7213857,55.0576241 C41.4407056,55.0732987 39.236266,55.0748662 37.1116974,55.0834872 C13.7501558,55.2041819 0,55.2747177 0,55.2747177" id="Stroke-19"></path>
                <path d="M607,59.3071284 C607,59.3071284 598.745695,59.3488519 584.162703,59.4222545 C582.344548,59.4315264 580.427644,59.432299 578.416347,59.4516155 C565.223836,59.5806494 556.692887,58.3969372 543.275285,58.0136988 C541.90223,57.9742932 540.519736,58.0276066 539.128528,58.0762841 C528.553608,58.6264166 521.518425,59.6980934 508.458064,59.8047202 C506.777868,59.8139921 505.082425,59.8224913 503.372459,59.8309906 C462.264308,60.0388356 412.346384,60.2914948 360.110024,60.5557439 C358.035556,60.5665611 355.956732,60.5773783 353.875003,60.5874228 C340.270793,60.6160112 332.335246,62.2262306 320.415589,62.5862893 C319.034547,62.6280128 317.685453,62.6326487 316.35669,62.6148776 C309.981532,62.5275672 304.662849,61.8236757 298.888176,61.4520272 C296.147874,61.2750885 293.737948,61.138328 290.734799,61.0533356 C288.638548,60.993841 286.535763,60.9490268 284.419181,60.9173478 C282.404253,60.9219838 280.377708,60.9374369 278.333737,60.9691159 C276.234582,60.9799331 274.136879,60.9907503 272.041354,61.0015676 C216.23476,61.2835878 161.861487,61.407213 116.580439,61.7873608 C114.902421,61.8020413 113.236748,61.8198125 111.584144,61.8337203 C100.972193,61.9125314 92.4441483,62.5020695 83.0934324,62.8683095 C81.0051688,62.9247135 78.9314272,63.0313403 76.8722076,62.9911621 C65.2110415,62.7616826 55.1865048,62.0879248 43.7206596,62.1628726 C41.4399795,62.1783258 39.2355399,62.1806438 37.1102452,62.189143 C13.7501558,62.3081324 0,62.3776716 0,62.3776716" id="Stroke-21"></path>
                <path d="M607,65.4499294 C607,65.4499294 598.744969,65.4910692 584.160524,65.5634448 C582.341644,65.572587 580.42474,65.572587 578.412717,65.5923951 C564.868773,65.7272423 556.672556,64.4366708 543.27819,64.0153685 C541.903682,63.9719431 540.521914,64.0290818 539.130706,64.0808875 C528.448323,64.6728438 521.739159,65.8300918 508.468229,65.9405599 C506.78876,65.9497021 505.093316,65.9580824 503.381899,65.9664627 C462.271569,66.1714 412.350741,66.4205245 360.110024,66.6810767 C358.035556,66.6917426 355.956732,66.7024085 353.875003,66.7123125 C340.105243,66.7526905 332.388978,68.3990453 320.420671,68.7761603 C319.034547,68.8203476 317.685453,68.8249186 316.361772,68.8073961 C309.953214,68.717498 304.677371,67.9746956 298.899067,67.5899621 C296.155861,67.4071184 293.775706,67.2669383 290.746416,67.1800875 C288.648714,67.1199015 286.545928,67.0734287 284.430073,67.0391455 C282.413693,67.0444785 280.386422,67.0597155 278.343902,67.0886657 C276.244747,67.0993316 274.14777,67.1099975 272.052246,67.1199015 C216.244199,67.3987381 161.869474,67.5343471 116.5877,67.8954634 C114.908956,67.9091766 113.244009,67.9259373 111.590679,67.9396506 C101.033185,68.0143117 92.4136521,68.5476058 83.0963368,68.8797717 C81.006621,68.9308156 78.9328794,69.0275704 76.8758381,68.9925253 C65.156584,68.7913973 55.0296672,68.1933462 43.7199335,68.2657218 C41.4385273,68.2801969 39.2340877,68.2832443 37.1095191,68.2916246 C13.7494297,68.4081875 0,68.4775157 0,68.4775157" id="Stroke-23"></path>
                <path d="M608,71.5881824 C608,71.5881824 599.744243,71.62872 585.159072,71.7000362 C583.339466,71.7090446 581.421835,71.7082939 579.409086,71.7285627 C565.51371,71.8696937 557.652226,70.4764003 544.281094,70.0169738 C542.905861,69.9696799 541.523366,70.0304863 540.133611,70.0860379 C529.343039,70.7188754 522.959167,71.9575252 509.479121,72.0708804 C507.798925,72.0806395 506.103482,72.0888972 504.392064,72.0971548 C463.279556,72.2990923 413.355098,72.5445702 361.110024,72.8013085 C359.035556,72.8118183 356.956732,72.8215773 354.875003,72.8320871 C340.939692,72.8838852 333.442709,74.5639448 321.425754,74.9580606 C320.034547,75.0031024 318.686179,75.0083573 317.366855,74.9903406 C310.924896,74.8980049 305.692619,74.1187815 299.909959,73.7216629 C297.163849,73.5332379 294.814189,73.3898548 291.757308,73.3012726 C289.658879,73.2404662 287.555367,73.1931723 285.44169,73.1563881 C283.423132,73.161643 281.395135,73.1759062 279.354068,73.2029313 C277.254913,73.2134411 275.157936,73.2239508 273.062411,73.2337099 C217.254365,73.508465 162.878187,73.6556015 117.594961,73.9979193 C115.916217,74.0106812 114.250544,74.0264458 112.597214,74.0392076 C102.094904,74.1105238 93.3831559,74.5879671 84.0992412,74.8874951 C82.0087993,74.9340383 79.9350577,75.016615 77.8794686,74.9903406 C66.1021265,74.7944087 55.8728296,74.2929432 44.7184813,74.3620073 C42.4378012,74.3755198 40.2333616,74.380024 38.1080669,74.3882817 C14.7487036,74.5031383 1,74.5714517 1,74.5714517" id="Stroke-25"></path>
                <path d="M608,77.6627899 C608,77.6627899 599.743517,77.7013751 585.156894,77.7692566 C583.337287,77.7778311 581.418205,77.776402 579.405456,77.7964091 C565.158647,77.9378883 557.631895,76.4959437 544.284725,76.0179155 C542.908039,75.9686121 541.525544,76.0307772 540.135789,76.087226 C529.237754,76.7360296 523.179902,78.0093425 509.490012,78.12224 C507.809091,78.1315291 506.112921,78.139389 504.401503,78.147249 C463.287543,78.3394606 413.359454,78.5731157 361.110024,78.8174889 C359.035556,78.8274924 356.956732,78.8367815 354.875003,78.8467851 C340.774867,78.9075211 333.497167,80.5623991 321.430837,80.9575405 C320.034547,81.0032711 318.686179,81.0082729 317.371212,80.9904094 C310.896578,80.8989481 305.707867,80.1122379 299.920124,79.7170965 C297.171836,79.5298867 294.851946,79.389122 291.768926,79.3012334 C289.669044,79.2412119 287.565533,79.1947667 285.452582,79.156896 C283.432571,79.1626124 281.404574,79.1761887 279.364233,79.1997685 C277.265078,79.2097721 275.168101,79.2197757 273.072577,79.2290647 C217.263804,79.4905869 162.886901,79.6427842 117.601496,79.9564679 C115.923478,79.9686151 114.257079,79.9829059 112.603749,79.9936241 C102.155896,80.0593619 93.3519336,80.4687941 84.1021456,80.7267436 C82.0102515,80.7667579 79.937236,80.8374975 77.8830991,80.8167758 C66.047669,80.6574331 55.715992,80.2387118 44.7177552,80.302306 C42.436349,80.3151677 40.2319094,80.319455 38.1066147,80.3280295 C14.7487036,80.4373543 1,80.5023776 1,80.5023776" id="Stroke-27"></path>
                <path d="M608,82.7305344 C608,82.7305344 599.742791,82.7673465 585.155442,82.8321084 C583.334383,82.8402888 581.4153,82.8382437 579.401825,82.8580131 C564.803585,82.9998076 557.611564,81.5136924 544.287629,81.0187752 C542.910217,80.9676473 541.526997,81.0310458 540.138693,81.088309 C529.13247,81.7516072 523.400636,83.0570708 509.500178,83.1688703 C507.819982,83.1777324 506.123087,83.1852312 504.411669,83.1927299 C463.29553,83.3761083 413.363085,83.5990256 361.110024,83.8321685 C359.035556,83.8410306 356.956732,83.8505745 354.875003,83.8601183 C340.609316,83.9289705 333.550898,85.5602886 321.435193,85.9577222 C320.034547,86.0033964 318.686179,86.0081683 317.376294,85.990444 C310.86826,85.900459 305.723115,85.1062736 299.931016,84.713612 C297.180549,84.5268251 294.890429,84.3877574 291.779817,84.301181 C289.67921,84.2425544 287.575698,84.1961985 285.464199,84.1580231 C283.442011,84.1634767 281.413287,84.1757474 279.373672,84.1968802 C277.275243,84.2064241 275.178267,84.2159679 273.083468,84.2248301 C217.273243,84.4743338 162.895614,84.7170205 117.608757,84.918805 C115.930013,84.9324391 114.263614,84.9426646 112.610284,84.9528902 C102.216889,85.0128802 93.3214374,85.3598676 84.10505,85.5800581 C82.0117037,85.614825 79.9386882,85.6754967 77.8867296,85.6591358 C65.9932115,85.5330205 55.5591544,85.1703538 44.716303,85.2480681 C42.4356229,85.2562486 40.2304572,85.2651107 38.1058886,85.2732912 C14.7479775,85.3775919 1,85.439627 1,85.439627" id="Stroke-29"></path>
            </g>
        </g>
    </g>
</svg>