<?xml version="1.0" encoding="UTF-8"?>
<svg width="837px" height="143px" viewBox="0 0 837 143" version="1.1" xmlns="http://www.w3.org/2000/svg" xmlns:xlink="http://www.w3.org/1999/xlink">
    <!-- Generator: Sketch 47.1 (45422) - http://www.bohemiancoding.com/sketch -->
    <title>Page 1</title>
    <desc>Created with Sketch.</desc>
    <defs></defs>
    <g id="Page-1" stroke="none" stroke-width="1" fill="none" fill-rule="evenodd">
        <g id="What-we-are-doing" transform="translate(-1081.000000, -1278.000000)" stroke="#00FFA3">
            <g id="Page-1" transform="translate(1081.000000, 1278.000000)">
                <path d="M835.9733,0.5006 C835.9733,0.5006 675.9633,1.2606 495.9523,2.1166 C493.0943,2.1296 490.2323,2.1436 487.3653,2.1576 C468.9823,1.6576 453.7503,5.8406 435.6363,5.3396 C417.5223,4.8386 401.3023,1.6856 383.1913,2.6526 C380.2983,2.6666 377.4063,2.6806 374.5173,2.6936 C297.6703,3.0596 222.8043,3.4156 160.4623,3.7106 C158.1533,3.7946 155.8613,3.8306 153.5873,3.8776 C138.2203,4.1106 127.7513,7.6836 114.4163,9.8026 C111.5583,10.1096 108.7013,10.7106 105.8403,10.4306 C90.5793,8.4476 78.1643,3.8086 60.2293,4.2326 C57.0883,4.2256 54.0533,4.2286 51.1283,4.2306 C18.9453,4.3836 0.0023,4.4736 0.0023,4.4736" id="Stroke-1"></path>
                <path d="M836.0299,12.3839 C836.0299,12.3839 824.7269,12.4379 804.7489,12.5319 C802.2639,12.5439 799.6449,12.5569 796.8969,12.5699 C783.0099,12.6599 766.5089,12.4939 747.2079,12.4879 C745.3299,12.4879 743.4279,12.5059 741.5039,12.5229 C727.9699,12.6849 713.6379,12.9569 697.9179,13.0399 C695.6189,13.0509 693.2979,13.0619 690.9569,13.0729 C634.7949,13.3409 566.9549,13.6629 496.0079,13.9999 C493.1509,14.0139 490.2889,14.0709 487.4219,14.0409 C468.9539,13.8469 453.9399,17.8379 435.8529,17.4099 C425.3819,17.1639 415.6519,15.8849 405.7789,15.0799 C402.0469,14.7799 398.3279,14.5349 394.5109,14.4299 C390.8949,14.3289 387.2319,14.3459 383.4889,14.5349 C380.5939,14.5489 377.6999,14.5619 374.8099,14.5759 C297.9279,14.9419 223.0069,14.3509 160.6359,15.5939 C158.3249,15.6399 156.0329,15.7169 153.7579,15.7569 C138.4239,16.0239 127.8699,19.4609 114.5509,21.5229 C111.6899,21.8219 108.8269,22.4489 105.9699,22.1339 C90.6209,20.4409 78.1439,15.9279 60.3189,16.1149 C57.1759,16.1479 54.1389,16.1119 51.2119,16.1139 C19.0129,16.2669 0.0589,16.3579 0.0589,16.3579" id="Stroke-3"></path>
                <path d="M836.0861,24.2672 C836.0861,24.2672 824.7811,24.3212 804.8001,24.4152 C802.3141,24.4282 799.6941,24.4402 796.9451,24.4532 C782.7841,24.5692 766.5631,24.1572 747.2941,24.0532 C745.4161,24.0452 743.5141,24.0712 741.5901,24.0962 C727.9821,24.3572 713.9231,24.8312 698.0481,24.9232 C695.7471,24.9342 693.4261,24.9452 691.0851,24.9562 C634.9091,25.2232 567.0421,25.5462 496.0651,25.8832 C493.2081,25.8972 490.3451,25.9522 487.4781,25.9242 C468.9321,25.7432 454.1291,29.8342 436.0691,29.4802 C425.5441,29.2762 415.8731,27.8842 406.0091,27.0282 C402.2741,26.7112 398.5801,26.4492 394.7421,26.3372 C391.1471,26.2282 387.5051,26.2402 383.7871,26.4172 C380.8901,26.4312 377.9941,26.4442 375.1021,26.4582 C298.1861,26.8242 223.2221,26.2602 160.8101,27.4762 C158.4981,27.5222 156.2051,27.5972 153.9281,27.6362 C138.6271,27.8972 127.9871,31.2382 114.6851,33.2422 C111.8211,33.5332 108.9571,34.1432 106.0991,33.8382 C90.6921,32.1922 78.1181,27.8132 60.4081,27.9972 C57.2641,28.0292 54.2251,27.9942 51.2961,27.9972 C19.0801,28.1502 0.1151,28.2412 0.1151,28.2412" id="Stroke-5"></path>
                <path d="M836.1427,36.1505 C836.1427,36.1505 824.8347,36.2045 804.8507,36.2995 C802.3637,36.3115 799.7437,36.3165 796.9927,36.3365 C782.5577,36.4425 766.6167,35.8205 747.3817,35.6185 C745.5017,35.6025 743.6007,35.6365 741.6777,35.6695 C727.9927,36.0285 714.2077,36.7055 698.1777,36.8055 C695.8767,36.8175 693.5547,36.8285 691.2127,36.8395 C635.0237,37.1065 567.1287,37.4295 496.1217,37.7665 C493.2637,37.7805 490.4017,37.8335 487.5347,37.8075 C468.9097,37.6395 454.3187,41.8315 436.2847,41.5505 C425.7047,41.3885 416.0937,39.8835 406.2397,38.9755 C402.5017,38.6425 398.8317,38.3635 394.9747,38.2445 C391.3987,38.1295 387.7787,38.1355 384.0847,38.2995 C381.1857,38.3135 378.2887,38.3265 375.3937,38.3405 C298.4447,38.7065 223.4377,38.1705 160.9847,39.3595 C158.6707,39.4035 156.3767,39.4765 154.0987,39.5145 C138.8297,39.7705 128.1057,43.0155 114.8197,44.9625 C111.9527,45.2455 109.0877,45.8365 106.2287,45.5415 C90.7627,43.9445 78.0927,39.6975 60.4977,39.8795 C57.3517,39.9115 54.3107,39.8775 51.3807,39.8805 C19.1477,40.0335 0.1717,40.1245 0.1717,40.1245" id="Stroke-7"></path>
                <path d="M836.1993,48.0338 C836.1993,48.0338 824.8893,48.0878 804.9013,48.1828 C802.4143,48.1948 799.7923,48.1978 797.0413,48.2198 C782.3313,48.3388 766.6703,47.4838 747.4693,47.1828 C745.5883,47.1598 743.6863,47.2008 741.7633,47.2428 C728.0033,47.6998 714.4933,48.5798 698.3073,48.6888 C696.0053,48.7008 693.6833,48.7118 691.3403,48.7218 C635.1373,48.9898 567.2153,49.3128 496.1773,49.6498 C493.3203,49.6638 490.4583,49.7148 487.5913,49.6908 C468.8873,49.5348 454.5083,53.8278 436.5013,53.6198 C425.8663,53.5008 416.3173,51.8628 406.4693,50.9238 C402.7303,50.5668 399.0843,50.2778 395.2053,50.1518 C391.6503,50.0288 388.0523,50.0298 384.3823,50.1808 C381.4813,50.1958 378.5823,50.2088 375.6863,50.2228 C298.7023,50.5888 223.6523,50.0798 161.1583,51.2428 C158.8443,51.2858 156.5483,51.3568 154.2693,51.3938 C139.0323,51.6438 128.2233,54.7918 114.9543,56.6818 C112.0843,56.9568 109.2173,57.5308 106.3583,57.2448 C90.8333,55.6968 78.0683,51.5828 60.5863,51.7608 C57.4393,51.7928 54.3973,51.7598 51.4643,51.7638 C19.2143,51.9168 0.2283,52.0078 0.2283,52.0078" id="Stroke-9"></path>
                <path d="M836.2555,59.9171 C836.2555,59.9171 824.9435,59.9711 804.9525,60.0661 C802.4635,60.0781 799.8415,60.0791 797.0895,60.1041 C782.1055,60.2361 766.7235,59.1461 747.5565,58.7491 C745.6745,58.7161 743.7725,58.7661 741.8505,58.8161 C728.0135,59.3721 714.7785,60.4541 698.4365,60.5711 C696.1345,60.5831 693.8115,60.5941 691.4685,60.6051 C635.2525,60.8731 567.3025,61.1961 496.2345,61.5331 C493.3775,61.5471 490.5145,61.5961 487.6475,61.5741 C468.8645,61.4311 454.6975,65.8251 436.7175,65.6901 C426.0285,65.6141 416.5385,63.8561 406.7005,62.8721 C402.9585,62.4971 399.3365,62.1911 395.4375,62.0591 C391.9025,61.9291 388.3265,61.9241 384.6805,62.0631 C381.7775,62.0781 378.8765,62.0911 375.9785,62.1051 C298.9605,62.4711 223.8675,61.9891 161.3325,63.1251 C159.0165,63.1671 156.7195,63.2361 154.4395,63.2731 C139.2355,63.5171 128.3415,66.5691 115.0885,68.4021 C112.2165,68.6681 109.3475,69.2241 106.4875,68.9491 C90.9045,67.4491 78.0425,63.4681 60.6765,63.6431 C57.5275,63.6741 54.4835,63.6431 51.5485,63.6471 C19.2825,63.8001 0.2845,63.8911 0.2845,63.8911" id="Stroke-11"></path>
                <path d="M836.3121,71.8009 C836.3121,71.8009 824.9981,71.8549 805.0031,71.9489 C802.5141,71.9619 799.8901,71.9609 797.1381,71.9869 C781.8791,72.1329 766.7781,70.7649 747.6431,70.3139 C745.7611,70.2689 743.8591,70.3319 741.9371,70.3899 C728.0241,71.0429 715.0631,72.3279 698.5661,72.4539 C696.2641,72.4669 693.9401,72.4769 691.5961,72.4879 C635.3661,72.7559 567.3891,73.0789 496.2911,73.4169 C493.4331,73.4299 490.5711,73.4779 487.7041,73.4579 C468.8421,73.3269 454.8861,77.8219 436.9341,77.7609 C426.1901,77.7259 416.7601,75.8499 406.9301,74.8199 C403.1871,74.4269 399.5891,74.1049 395.6681,73.9669 C392.1541,73.8289 388.6001,73.8189 384.9781,73.9459 C382.0731,73.9599 379.1701,73.9739 376.2701,73.9879 C299.2181,74.3539 224.0821,73.8989 161.5071,75.0089 C159.1901,75.0499 156.8921,75.1159 154.6101,75.1519 C139.4381,75.3899 128.4591,78.3459 115.2231,80.1219 C112.3481,80.3809 109.4781,80.9179 106.6171,80.6529 C90.9751,79.2009 78.0171,75.3529 60.7661,75.5249 C57.6151,75.5559 54.5691,75.5259 51.6331,75.5299 C19.3491,75.6839 0.3411,75.7739 0.3411,75.7739" id="Stroke-13"></path>
                <path d="M836.3688,83.6842 C836.3688,83.6842 825.0528,83.7382 805.0538,83.8332 C802.5638,83.8452 799.9398,83.8422 797.1858,83.8702 C781.6528,84.0302 766.8318,82.4202 747.7298,81.8782 C745.8478,81.8252 743.9448,81.8962 742.0238,81.9632 C728.0358,82.7142 715.3488,84.2022 698.6958,84.3372 C696.3928,84.3492 694.0688,84.3602 691.7248,84.3712 C635.4808,84.6392 567.4758,84.9622 496.3468,85.3002 C493.4898,85.3132 490.6278,85.3592 487.7608,85.3412 C468.8198,85.2232 455.0758,89.8192 437.1498,89.8312 C426.3508,89.8382 416.9818,87.8442 407.1608,86.7672 C403.4148,86.3562 399.8408,86.0282 395.8998,85.8742 C392.4058,85.7372 388.8738,85.7132 385.2758,85.8282 C382.3688,85.8422 379.4638,85.8562 376.5628,85.8702 C299.4768,86.2362 224.2978,85.8082 161.6808,86.8912 C159.3628,86.9312 157.0638,86.9962 154.7808,87.0312 C139.6418,87.2632 128.5768,90.1232 115.3578,91.8422 C112.4798,92.0922 109.6078,92.6112 106.7468,92.3552 C91.0458,90.9532 77.9928,87.2382 60.8558,87.4072 C57.7028,87.4372 54.6548,87.4092 51.7178,87.4132 C19.4168,87.5672 0.3978,87.6582 0.3978,87.6582" id="Stroke-15"></path>
                <path d="M836.4249,95.5675 C836.4249,95.5675 825.1069,95.6215 805.1049,95.7165 C802.6139,95.7285 799.9879,95.7235 797.2339,95.7535 C781.4259,95.9265 766.8859,94.0745 747.8179,93.4435 C745.9339,93.3815 744.0309,93.4625 742.1109,93.5365 C728.0469,94.3855 715.6339,96.0765 698.8259,96.2195 C696.5219,96.2325 694.1979,96.2435 691.8529,96.2545 C635.5949,96.5225 567.5619,96.8455 496.4039,97.1835 C493.5469,97.1975 490.6839,97.2405 487.8169,97.2245 C468.7969,97.1195 455.2659,101.8165 437.3659,101.9015 C426.5129,101.9515 417.2029,99.8375 407.3909,98.7145 C403.6429,98.2865 400.0929,97.9435 396.1319,97.7815 C392.6579,97.6385 389.1479,97.6085 385.5739,97.7105 C382.6649,97.7245 379.7579,97.7375 376.8539,97.7525 C299.7349,98.1185 224.5119,97.7175 161.8549,98.7745 C159.5359,98.8135 157.2349,98.8715 154.9509,98.9105 C139.8439,99.1075 128.6949,101.9005 115.4929,103.5615 C112.6119,103.8035 109.7379,104.3055 106.8769,104.0595 C91.1159,102.7065 77.9669,99.1235 60.9449,99.2885 C57.7899,99.3195 54.7409,99.2915 51.8019,99.2965 C19.4839,99.4505 0.4539,99.5415 0.4539,99.5415" id="Stroke-17"></path>
                <path d="M836.4816,107.4508 C836.4816,107.4508 825.1616,107.5048 805.1546,107.5998 C802.6636,107.6118 800.0376,107.6048 797.2826,107.6378 C781.2006,107.8238 766.9406,105.7298 747.9046,105.0088 C746.0196,104.9378 744.1176,105.0268 742.1976,105.1098 C728.0576,106.0578 715.9196,107.9508 698.9546,108.1028 C696.6516,108.1158 694.3266,108.1268 691.9806,108.1378 C635.7096,108.4048 567.6486,108.7288 496.4606,109.0668 C493.6026,109.0808 490.7406,109.1218 487.8736,109.1078 C468.7746,109.0148 455.4546,113.8128 437.5826,113.9718 C426.6746,114.0638 417.4256,111.8308 407.6216,110.6628 C403.8716,110.2158 400.3456,109.8598 396.3636,109.6888 C392.9096,109.5398 389.4216,109.5028 385.8716,109.5928 C382.9606,109.6068 380.0526,109.6198 377.1466,109.6338 C299.9926,110.0008 224.7276,109.6278 162.0296,110.6568 C159.7086,110.6948 157.4066,110.7518 155.1216,110.7898 C140.0476,110.9818 128.8136,113.6778 115.6276,115.2818 C112.7426,115.5158 109.8686,115.9988 107.0066,115.7628 C91.1866,114.4588 77.9416,111.0088 61.0346,111.1708 C57.8776,111.2008 54.8266,111.1748 51.8856,111.1798 C19.5516,111.3338 0.5106,111.4248 0.5106,111.4248" id="Stroke-19"></path>
                <path d="M836.5382,119.3341 C836.5382,119.3341 825.2152,119.3881 805.2052,119.4831 C802.7142,119.4951 800.0862,119.4871 797.3302,119.5211 C780.9742,119.7211 766.9952,117.3841 747.9912,116.5741 C746.1062,116.4941 744.2032,116.5921 742.2842,116.6831 C728.0682,117.7291 716.2052,119.8251 699.0842,119.9851 C696.7802,119.9991 694.4552,120.0091 692.1092,120.0211 C635.8232,120.2881 567.7352,120.6121 496.5162,120.9501 C493.6592,120.9641 490.7972,121.0031 487.9302,120.9911 C468.7522,120.9111 455.6442,125.8101 437.7982,126.0421 C426.8362,126.1761 417.6472,123.8251 407.8512,122.6101 C404.0992,122.1461 400.5972,121.7751 396.5942,121.5961 C393.1612,121.4421 389.6952,121.3971 386.1692,121.4751 C383.2562,121.4891 380.3462,121.5021 377.4382,121.5161 C300.2512,121.8831 224.9422,121.5371 162.2032,122.5401 C159.8822,122.5771 157.5782,122.6321 155.2922,122.6681 C140.2502,122.8561 128.9312,125.4541 115.7612,127.0011 C112.8742,127.2271 109.9982,127.6931 107.1352,127.4661 C91.2572,126.2111 77.9162,122.8941 61.1232,123.0531 C57.9652,123.0831 54.9132,123.0581 51.9702,123.0631 C19.6192,123.2171 0.5672,123.3081 0.5672,123.3081" id="Stroke-21"></path>
                <path d="M836.5944,131.2174 C836.5944,131.2174 825.2694,131.2714 805.2564,131.3664 C802.7634,131.3784 800.1364,131.3684 797.3784,131.4044 C780.7474,131.6174 767.0494,129.0384 748.0784,128.1394 C746.1924,128.0504 744.2894,128.1574 742.3704,128.2564 C728.0794,129.4004 716.4904,131.7334 699.2144,131.8684 C696.9094,131.8864 694.5834,131.8924 692.2364,131.9044 C635.9374,132.1714 567.8224,132.4954 496.5734,132.8334 C493.7164,132.8474 490.8534,132.8844 487.9864,132.8744 C468.7294,132.8074 455.8334,137.8064 438.0154,138.1124 C426.9974,138.2884 417.8684,135.8184 408.0824,134.5584 C404.3284,134.0754 400.8494,133.6914 396.8264,133.5034 C393.4134,133.3434 389.9684,133.2914 386.4674,133.3574 C383.5524,133.3714 380.6404,133.3844 377.7304,133.3984 C300.5094,133.7654 225.1574,133.4464 162.3774,134.4224 C160.0544,134.4584 157.7504,134.5124 155.4624,134.5484 C140.4534,134.7304 129.0494,137.2314 115.8964,138.7214 C113.0064,138.9394 110.1284,139.3864 107.2654,139.1704 C91.3274,137.9654 77.8914,134.7794 61.2134,134.9344 C58.0534,134.9644 54.9984,134.9404 52.0544,134.9464 C19.6864,135.1004 0.6234,135.1914 0.6234,135.1914" id="Stroke-23"></path>
                <path d="M836.651,143.1007 C836.651,143.1007 825.324,143.1547 805.307,143.2497 C802.814,143.2617 800.185,143.2497 797.427,143.2877 C780.521,143.5147 767.104,140.6927 748.166,139.7047 C746.279,139.6057 744.376,139.7227 742.458,139.8297 C728.09,141.0727 716.775,143.6107 699.344,143.7507 C697.038,143.7697 694.712,143.7757 692.365,143.7867 C636.052,144.0547 567.909,144.3787 496.63,144.7167 C493.772,144.7307 490.91,144.7667 488.043,144.7577 C468.707,144.7037 456.023,149.8037 438.231,150.1827 C427.159,150.4007 418.091,147.8117 408.312,146.5067 C404.556,146.0047 401.102,145.6067 397.057,145.4107 C393.665,145.2457 390.242,145.1857 386.765,145.2397 C383.848,145.2527 380.934,145.2677 378.023,145.2807 C300.767,145.6477 225.372,145.3567 162.552,146.3057 C160.228,146.3407 157.922,146.3927 155.633,146.4267 C140.656,146.6047 129.167,149.0087 116.031,150.4407 C113.138,150.6507 110.259,151.0807 107.395,150.8737 C91.397,149.7177 77.866,146.6647 61.303,146.8167 C58.141,146.8457 55.085,146.8237 52.139,146.8297 C19.754,146.9837 0.68,147.0747 0.68,147.0747" id="Stroke-25"></path>
            </g>
        </g>
    </g>
</svg>