<?xml version="1.0" encoding="UTF-8"?>
<svg width="843px" height="875px" viewBox="0 0 843 875" version="1.1" xmlns="http://www.w3.org/2000/svg" xmlns:xlink="http://www.w3.org/1999/xlink">
    <!-- Generator: Sketch 47.1 (45422) - http://www.bohemiancoding.com/sketch -->
    <title>Page 1</title>
    <desc>Created with Sketch.</desc>
    <defs></defs>
    <g id="Page-1" stroke="none" stroke-width="1" fill="none" fill-rule="evenodd">
        <g id="Our-dream" transform="translate(-1077.000000, -263.000000)" stroke="#00FFA3">
            <g id="Page-1" transform="translate(1078.000000, 262.000000)">
                <path d="M0,6 C0,6 0.659248565,172.52325 1.40047623,359.861907 C1.41186221,362.835537 1.4232482,365.814638 1.43577278,368.797842 C-0.913156044,387.94041 16.121417,403.716787 13.7713496,422.578954 C11.4212821,441.44112 -1.84680686,458.380139 1.86388584,477.212214 C1.87641042,480.224142 1.88779641,483.233335 1.90032099,486.239792 C2.21685139,566.214558 2.5254116,644.128027 2.78159628,709.008957 C3.08901789,711.41084 3.20401634,713.794941 3.36114294,716.159893 C4.08529163,732.151016 18.6752936,742.980006 27.2159213,756.819557 C28.4410534,759.789083 30.8765157,762.750402 29.6764328,765.734974 C21.2530807,781.654971 1.90829118,794.661522 3.38163772,813.321253 C3.30079722,816.588962 3.26663926,819.748614 3.23134271,822.79337 C3.36455874,856.287052 3.44198344,876 3.44198344,876" id="Stroke-1"></path>
                <path d="M15,6 C15,6 15.0435451,16.8631855 15.120322,36.1657886 C15.1294894,38.5580968 15.1398027,41.0803473 15.150116,43.7284369 C15.2578328,62.5399944 15.0275022,87.4219143 15.0137511,117.005014 C15.0103133,119.01023 15.029794,121.035964 15.0481288,123.082215 C15.2624165,143.572081 15.6256742,166.012452 15.733391,190.158487 C15.7425584,192.371612 15.7505799,194.598414 15.7597473,196.838895 C15.9568461,246.278563 16.1780093,301.948627 16.40834,359.600655 C16.4197992,362.575652 16.6191899,365.564327 16.4438636,368.543428 C16.0840436,374.658928 16.8999411,380.343567 18.8090496,385.944769 C19.6650545,388.456077 20.6631538,390.941396 21.694485,393.418509 C25.6272943,402.855064 30.0906663,412.141158 28.9000518,422.319069 C27.6315145,433.149427 22.7590479,443.343751 19.5401488,453.650236 C17.1680872,461.245711 15.6359875,468.874015 17.1337095,476.837433 C17.1245421,479.835683 17.1153747,482.831197 17.1050614,485.826712 C17.0901644,489.886386 17.0764133,493.94059 17.0683919,497.989322 C17.0557867,502.873788 17.0420356,507.737738 17.0477653,512.605791 C17.0466193,515.640972 17.051203,518.670682 17.0534949,521.694921 C17.321641,588.927124 14.1989995,653.661697 17.7983451,708.665635 C17.9564826,711.089403 18.2441094,713.452987 18.3758906,715.822043 C19.2662731,731.830948 33.6521964,742.740639 42.1709916,756.611649 C43.3914001,759.585279 45.9617064,762.639609 44.6244137,765.540744 C37.0005848,782.077626 17.8946027,794.54389 18.4011009,813.272011 C18.489337,816.543824 18.2635901,819.706212 18.2521308,822.752336 C18.129517,856.270639 18.4641267,876 18.4641267,876" id="Stroke-3"></path>
                <path d="M31.417019,6 C31.417019,6 31.4603145,16.8727602 31.5366514,36.1876736 C31.5457663,38.5827174 31.551463,41.1090714 31.5662747,43.757161 C31.6745135,62.6220633 31.1492703,87.342581 31.0034327,116.828566 C30.9897604,118.832414 31.0193837,120.858148 31.049007,122.904399 C31.3930925,143.361438 32.0265746,165.640406 32.1439283,189.765924 C32.1530431,191.981784 32.162158,194.211323 32.1712728,196.451803 C32.3661027,245.909253 32.5871378,301.62719 32.8161484,359.339402 C32.827542,362.317135 33.0235112,365.307178 32.8514684,368.287647 C32.4971287,374.40725 33.3015141,380.098728 35.1825912,385.708137 C36.0257148,388.22218 37.0089792,390.712971 38.0252849,393.194187 C41.9070714,402.643052 46.3733477,411.912733 45.2784264,422.060552 C44.1094469,432.856714 39.4004878,443.016843 36.269537,453.312385 C33.9577833,460.906493 32.3911685,468.521119 33.7948554,476.461284 C33.7652321,479.448591 33.7333301,482.430428 33.7025675,485.412264 C33.6569933,489.455525 33.6136977,493.494682 33.5817958,497.529736 C33.5350822,502.404628 33.4974834,507.253532 33.4815324,512.120217 C33.4712782,515.15403 33.4633027,518.18374 33.4564666,521.207979 C33.7230759,588.475745 30.6479536,653.258192 34.1970481,708.322314 C34.3542793,710.747449 34.6368396,713.113769 34.7667262,715.48556 C35.6451698,731.523189 49.8187608,742.501271 58.2123979,756.402373 C59.415558,759.382842 61.9472074,762.43854 60.6301117,765.346515 C53.1160576,781.942212 34.2973115,794.50012 34.7963495,813.224138 C34.8840799,816.498686 34.6607661,819.661074 34.6505119,822.712669 C34.5308795,856.254225 34.8612928,876 34.8612928,876" id="Stroke-5"></path>
                <path d="M47.8432502,6 C47.8432502,6 47.8862775,16.8823349 47.9621415,36.2122943 C47.9711999,38.6100737 47.9745968,41.1350599 47.9915812,43.7886207 C48.1150018,62.7027644 47.2827625,87.2618799 47.007614,116.65075 C46.9827034,118.655966 47.0234662,120.680332 47.0642289,122.725215 C47.535265,143.149427 48.4377068,165.266993 48.5633919,189.373362 C48.5735826,191.591957 48.582641,193.821495 48.5905671,196.06608 C48.7853224,245.539943 49.0049882,301.305754 49.2325802,359.078149 C49.2439032,362.058618 49.4375262,365.050029 49.2676815,368.033233 C48.9189336,374.154205 49.7115424,379.852521 51.5639825,385.470137 C52.3939571,387.99102 53.3632045,390.484546 54.3630239,392.971233 C58.1913246,402.432409 62.6582415,411.684308 61.658422,421.800667 C60.5895324,432.562634 56.0444869,442.689935 53.000869,452.974535 C50.7509923,460.568643 49.1510547,468.165487 50.4611239,476.085135 C50.4113028,479.060132 50.3569524,482.029658 50.3048667,484.997816 C50.2290027,489.027399 50.1565356,493.050142 50.101053,497.07015 C50.0229244,501.936835 49.9561188,506.766589 49.9232822,511.633275 C49.9017685,514.668456 49.884784,517.698166 49.8689319,520.722404 C50.1327574,588.024366 47.106124,652.854686 50.6049258,707.978992 C50.7589184,710.405496 51.038596,712.774551 51.1665458,715.14771 C52.032754,731.215431 65.9894631,742.261904 74.2552409,756.194466 C75.439625,759.180405 77.9318136,762.238839 76.6364643,765.155021 C69.2346301,781.806799 50.7079649,794.45635 51.2005147,813.176264 C51.2865694,816.453549 51.0669035,819.618672 51.0567128,822.670267 C50.9400861,856.239179 51.266188,876 51.266188,876" id="Stroke-7"></path>
                <path d="M63.3048238,6 C63.3048238,6 63.3490148,16.8905418 63.4269307,36.2355471 C63.4362341,38.6346944 63.437397,41.163784 63.4571667,43.8173448 C63.6013691,62.7848333 62.486126,87.1839145 62.0104906,116.475669 C61.9779287,118.47815 62.0267715,120.503884 62.080266,122.5474 C62.697778,142.936048 63.9025661,164.894947 64.0432798,188.982167 C64.0537461,191.200762 64.0618866,193.434404 64.07119,195.680356 C64.2712127,245.169265 64.4968198,300.982949 64.7305673,358.815529 C64.7421965,361.798733 64.9398934,364.794248 64.7666179,367.77882 C64.4119264,373.902527 65.2189949,379.60905 67.1040929,385.233505 C67.9483749,387.758491 68.9345336,390.256121 69.953254,392.746912 C73.8536975,402.220397 78.4716643,411.455883 77.5355114,421.54215 C76.5319089,432.27129 72.0023242,442.36166 68.9461628,452.636685 C66.6842777,460.230793 64.9968766,467.811223 66.2551592,475.708986 C66.183058,478.670305 66.1051421,481.628888 66.0295521,484.586104 C65.9202374,488.596537 65.8144114,492.604235 65.7330068,496.609196 C65.6190404,501.467675 65.5213548,506.282383 65.4701862,511.1477 C65.4364615,514.181514 65.4097142,517.211224 65.382967,520.235462 C65.655091,587.572987 62.5756711,652.449813 66.1400298,707.635671 C66.2970244,710.063542 66.5807776,712.435333 66.711025,714.80986 C67.5936835,730.90904 81.795298,742.022536 90.2067194,755.986558 C91.4126704,758.976601 93.9478424,762.039138 92.6302507,764.960791 C85.0956732,781.671385 66.2481817,794.411212 66.7505643,813.128391 C66.8389465,816.405675 66.6156653,819.57627 66.605199,822.6306 C66.4877438,856.222765 66.8203397,876 66.8203397,876" id="Stroke-9"></path>
                <path d="M78.7333506,5 C78.7333506,5 78.777274,15.9001165 78.8547178,35.2588 C78.8651207,37.6606829 78.862809,40.1925081 78.8859265,42.8488046 C79.0454377,61.8641666 77.6341107,86.1045812 77.0145601,115.297853 C76.9717926,117.30307 77.0307424,119.326068 77.0943157,121.368216 C77.8410129,141.724036 79.3147572,163.522901 79.4650214,187.590971 C79.4754243,189.810935 79.4846713,192.045944 79.4939183,194.294632 C79.6927293,243.801323 79.9169696,299.661513 80.1493011,357.555644 C80.1620158,360.540216 80.3562033,363.535731 80.1851333,366.524406 C79.8372141,372.649481 80.6313022,378.362844 82.4876422,383.995505 C83.3198743,386.524595 84.2908118,389.027696 85.292958,391.523958 C89.1397198,401.009754 93.758608,410.227458 92.9182848,420.282265 C92.0167,430.977209 87.650949,441.034752 84.6838103,451.298835 C82.4841746,458.891575 80.7619164,466.456959 81.9258855,474.334204 C81.8334153,477.283213 81.7328539,480.229486 81.6357601,483.171656 C81.4970548,487.168411 81.3699082,491.159695 81.2566322,495.149611 C81.1190827,500.00125 80.983845,504.796809 80.9144923,509.660758 C80.8705689,512.695939 80.8335809,515.724282 80.7965928,518.749888 C81.0682241,586.121608 78.0363562,651.046308 81.5502252,706.292349 C81.7051128,708.721588 81.9848353,711.094747 82.1131377,713.472009 C82.9835138,729.601282 96.9673252,740.783168 105.250347,754.777282 C106.437433,757.774164 108.932974,760.839437 107.636079,763.766561 C100.215342,780.535971 81.6611895,793.367442 82.1570611,812.080517 C82.2437519,815.360537 82.0241351,818.5325 82.0137322,821.589566 C81.8993003,855.206351 82.2275697,875 82.2275697,875" id="Stroke-11"></path>
                <path d="M95.1573346,5 C95.1573346,5 95.2009916,15.9083234 95.2779659,35.2834207 C95.2883057,37.6853035 95.2837103,40.2198644 95.3089854,42.8775287 C95.4836136,61.9462354 93.7786907,86.0238802 93.0181389,115.121405 C92.9664397,117.125254 93.0342231,119.148252 93.1088996,121.1904 C93.9831896,141.513393 95.7225786,163.150856 95.8834203,187.198409 C95.8937602,189.421108 95.9029511,191.658853 95.9109932,193.90754 C96.1097477,243.432013 96.3326285,299.338709 96.5635513,357.294391 C96.5761889,360.280331 96.7669013,363.278581 96.5991663,366.268625 C96.256803,372.397803 97.0380346,378.118005 98.8670354,383.758873 C99.6861796,386.292066 100.637444,388.802006 101.630067,391.299636 C105.405254,400.808685 110.043241,409.999033 109.297625,420.02238 C108.494565,430.684497 104.291999,440.709212 101.411782,450.960984 C99.2737353,458.553724 97.5182622,466.102695 98.5890089,473.958055 C98.4752708,476.894754 98.3546394,479.828717 98.2363058,482.758576 C98.0662731,486.737549 97.9111757,490.715155 97.7733113,494.688657 C97.6055763,499.532089 97.4412879,504.312602 97.3539738,509.173816 C97.298828,512.20763 97.2517244,515.237339 97.2069184,518.261578 C97.475754,585.668861 94.4932878,650.642802 97.9559816,705.949028 C98.1076324,708.379635 98.38451,710.755529 98.5097369,713.134159 C99.3679427,729.292156 113.135999,740.543801 121.291826,754.569374 C122.461376,757.571728 124.91766,760.638369 123.642414,763.575067 C116.332155,780.401925 98.0685708,793.323672 98.5579894,812.032644 C98.6441546,815.315399 98.4270182,818.48873 98.4178273,821.548531 C98.3063869,855.189938 98.6303682,875 98.6303682,875" id="Stroke-13"></path>
                <path d="M111.576618,5 C111.576618,5 111.620013,15.9165303 111.696525,35.3066735 C111.706803,37.711292 111.701093,40.2472207 111.727358,42.9089884 C111.918068,62.0269365 109.921895,85.9459147 109.022019,114.943589 C108.960352,116.947438 109.039148,118.970436 109.123655,121.012584 C110.124025,141.300014 112.125908,162.77881 112.296062,186.807214 C112.307482,189.031281 112.315476,191.270393 112.324612,193.521817 C112.521031,243.062703 112.743716,299.017272 112.973253,357.031771 C112.985815,360.021814 113.174241,363.021432 113.009797,366.014211 C112.671772,372.144757 113.442605,377.871798 115.242358,383.520873 C116.048593,386.059538 116.985013,388.574949 117.962544,391.076683 C121.683099,400.599409 126.324087,409.770608 125.673161,419.762495 C124.96742,430.390417 120.92597,440.382304 118.132698,450.623134 C116.054303,458.214506 114.26597,465.749798 115.244642,473.581906 C115.111031,476.506294 114.968284,479.426579 114.830105,482.344128 C114.63026,486.308055 114.447544,490.267879 114.285383,494.229071 C114.086679,499.064297 113.892544,503.827028 113.787482,508.686874 C113.722389,511.722055 113.666433,514.751765 113.611618,517.776004 C113.87884,585.217483 110.943963,650.237929 114.357328,705.605706 C114.506926,708.037681 114.778716,710.416311 114.903192,712.796309 C115.749396,728.985765 129.304643,740.304433 137.333871,754.361466 C138.484982,757.369291 140.902544,760.440035 139.648655,763.380837 C132.449643,780.266512 114.472667,793.279902 114.954581,811.983402 C115.039087,815.270261 114.826679,818.446327 114.816402,821.507497 C114.709056,855.174892 115.028809,875 115.028809,875" id="Stroke-15"></path>
                <path d="M126.99058,5 C126.99058,5 127.033716,15.926105 127.109772,35.3299264 C127.119988,37.7372805 127.112042,40.274577 127.140421,42.9377125 C127.347019,62.1090054 125.063089,85.8665815 124.026694,114.767141 C123.954044,116.77099 124.042586,118.79262 124.137939,120.834768 C125.262876,141.088002 127.524103,162.405397 127.703457,186.416019 C127.714808,188.641453 127.72389,190.880566 127.732971,193.136093 C127.928217,242.693393 128.149572,298.695836 128.377738,356.771886 C128.390225,359.760562 128.575255,362.764283 128.414063,365.75843 C128.081463,371.890344 128.839746,377.628327 130.612856,383.285609 C131.407464,385.825641 132.328073,388.346524 133.290684,390.852361 C136.956095,400.388766 141.60228,409.540815 141.042649,419.503978 C140.434206,430.097704 136.551981,440.054029 133.843504,450.285284 C131.8252,457.876656 130.004414,465.394167 130.892104,473.207125 C130.738858,476.119203 130.575396,479.025809 130.415339,481.931048 C130.186038,485.878562 129.976035,489.82334 129.78987,493.769485 C129.561704,498.596504 129.338078,503.342822 129.216617,508.2013 C129.141697,511.235113 129.075858,514.264823 129.011154,517.289062 C129.277915,584.766104 126.388949,649.835791 129.752409,705.262385 C129.899979,707.695727 130.169011,710.077093 130.290472,712.458459 C131.12481,728.678007 144.469678,740.065066 152.376024,754.152191 C153.508907,757.165487 155.88819,760.238967 154.654278,763.187975 C147.564107,780.131098 129.871601,793.234764 130.34723,811.935529 C130.430096,815.223756 130.221228,818.402557 130.211012,821.466463 C130.106577,855.15711 130.42215,875 130.42215,875" id="Stroke-17"></path>
                <path d="M142.399585,5 C142.399585,5 142.442464,15.9343119 142.518066,35.3531792 C142.528222,37.763269 142.518066,40.3033012 142.548533,42.9678045 C142.769698,62.1924421 140.201479,85.7872482 139.030209,114.589325 C138.948965,116.593174 139.046006,118.614804 139.150947,120.656952 C140.400076,140.877359 142.917517,162.033351 143.107087,186.024823 C143.118371,188.252994 143.127398,190.493475 143.135297,192.749001 C143.330508,242.324083 143.550545,298.373031 143.777351,356.509266 C143.789764,359.502045 143.972563,362.507134 143.81346,365.504016 C143.486226,371.638666 144.233221,377.38212 145.978843,383.047609 C146.760818,385.593113 147.665788,388.118099 148.615893,390.628039 C152.226746,400.17949 156.875718,409.31239 156.407435,419.245461 C155.895146,429.804992 152.170326,439.727121 149.545688,449.946066 C147.5868,457.538806 145.733982,465.039902 146.531754,472.830976 C146.357982,475.729375 146.179696,478.62504 145.99464,481.517968 C145.743009,485.450436 145.499276,489.3788 145.288267,493.308532 C145.030994,498.127344 144.778234,502.857247 144.640571,507.714358 C144.554813,510.749539 144.479211,513.777881 144.406994,516.80212 C144.671037,584.314725 141.828619,649.432286 145.143833,704.919063 C145.289396,707.353774 145.553439,709.736507 145.674177,712.121976 C146.495646,728.371616 159.632378,739.827066 167.416021,753.944283 C168.532,756.96305 170.873412,760.040634 169.660392,762.993746 C162.676778,779.99842 145.264571,793.190994 145.733982,811.886287 C145.816354,815.17725 145.609859,818.360155 145.600832,821.426796 C145.499276,855.140696 145.810712,875 145.810712,875" id="Stroke-19"></path>
                <path d="M159.926943,5 C159.926943,5 159.970943,15.9452372 160.048522,35.3791199 C160.058943,37.7905737 160.046207,40.3319697 160.079786,42.9992045 C160.324102,62.274421 157.381885,85.7105237 156.035251,114.412705 C155.941461,116.417919 156.051462,118.439546 156.170725,120.478955 C157.585675,140.666502 160.445681,161.661059 160.650629,185.633344 C160.662208,187.862879 160.671471,190.106092 160.680734,192.362983 C160.879893,241.955768 161.105682,298.052502 161.339578,356.248829 C161.352315,359.242971 161.538736,362.250791 161.37663,365.249036 C161.045472,371.386412 161.803894,377.136696 163.577793,382.811751 C164.37211,385.359986 165.291481,387.89044 166.257167,390.405847 C169.928859,399.970961 174.731816,409.084697 174.342762,418.986294 C173.910867,429.511612 170.226438,439.400898 167.603801,449.608884 C165.641166,457.200245 163.695898,464.686284 164.427689,472.45546 C164.228531,475.341544 164.022425,478.224894 163.81053,481.104139 C163.522214,485.020187 163.242003,488.933499 163.00116,492.849547 C162.70358,497.661512 162.415264,502.373627 162.255474,507.229362 C162.155895,510.264538 162.069053,513.291508 161.984526,516.315741 C162.255474,583.863804 159.369995,649.029136 162.741791,704.57601 C162.890002,707.012084 163.157476,709.396181 163.280213,711.784382 C164.117373,728.064089 177.465611,739.586543 185.375206,753.735198 C186.508788,756.759432 188.887108,759.839746 187.655106,762.80106 C180.557196,779.864524 162.86916,793.147353 163.346213,811.838513 C163.43074,815.132206 163.221161,818.316474 163.211897,821.384478 C163.110002,855.124314 163.427266,875 163.427266,875" id="Stroke-21"></path>
                <path d="M175.339239,5 C175.339239,5 175.382982,15.9548119 175.461259,35.4023728 C175.470467,37.8151944 175.455503,40.3606938 175.491188,43.0292963 C175.751342,62.3564897 172.520139,85.6311905 171.039795,114.236257 C170.935043,116.240103 171.055911,118.26173 171.184837,120.301139 C172.722737,140.453123 175.884872,161.289014 176.05754,185.240782 C176.072505,187.473053 176.07826,189.719001 176.087469,191.97726 C176.285463,241.586458 176.509932,297.731066 176.74361,355.986209 C176.755121,358.984454 176.938149,361.992274 176.779294,364.994623 C176.453527,371.134734 177.200605,376.893226 178.946859,382.573752 C179.728471,385.127458 180.633254,387.663383 181.584082,390.181526 C185.202061,399.758951 190.009151,408.856273 189.71101,418.727777 C189.376033,429.220268 185.850143,439.075359 183.311917,449.271034 C181.409111,456.862395 179.430331,464.33202 180.072657,472.079311 C179.853944,474.954453 179.627173,477.824124 179.394646,480.69106 C179.076936,484.592062 178.768435,488.48896 178.503677,492.388594 C178.176758,497.19372 177.859048,501.888053 177.682926,506.74242 C177.572418,509.777597 177.476875,512.805934 177.382483,515.830168 C177.652997,583.412425 174.813176,648.625631 178.136468,704.232689 C178.28151,706.670131 178.546268,709.056964 178.667136,711.446533 C179.49134,727.754963 192.630258,739.347176 200.416454,753.52729 C201.533043,756.556995 203.872125,759.641413 202.661143,762.608199 C195.671525,779.730478 178.265394,793.103583 178.737355,811.79064 C178.820235,815.087068 178.613033,818.272704 178.604975,821.344811 C178.504828,855.109268 178.819084,875 178.819084,875" id="Stroke-23"></path>
                <path d="M190.746797,5 C190.746797,5 190.790284,15.9630187 190.868104,35.4256256 C190.877259,37.8411828 190.860093,40.3866822 190.897858,43.0593882 C191.172516,62.4371907 187.656899,85.5532252 186.043285,114.058442 C185.929989,116.063655 186.059307,118.083915 186.198925,120.121955 C187.859459,140.24248 191.281234,160.915601 191.458617,184.849588 C191.474639,187.083226 191.479217,189.330542 191.488372,191.591537 C191.686354,241.217149 191.909514,297.408262 192.141828,355.726324 C192.153272,358.72457 192.334088,361.736493 192.177305,364.74021 C191.856871,370.881689 192.592724,376.647019 194.311623,382.33712 C195.081809,384.89493 195.971013,387.434958 196.908282,389.957205 C200.470819,399.549675 205.281905,408.627848 205.075911,418.467893 C204.835586,428.926188 201.466453,438.747084 199.011701,448.933185 C197.169206,456.52181 195.15734,463.977757 195.710088,471.70453 C195.470907,474.565995 195.224859,477.423355 194.970801,480.27798 C194.62519,484.161201 194.288735,488.043053 194.000344,491.929009 C193.64329,496.72456 193.297679,501.403847 193.105418,506.255479 C192.984111,509.292023 192.878826,512.317625 192.775829,515.341859 C193.044765,582.961047 190.252413,648.220759 193.525416,703.889368 C193.669611,706.329545 193.929391,708.717746 194.04841,711.107315 C194.860938,727.448573 207.793877,739.107809 215.457968,753.319383 C216.556598,756.354559 218.858,759.440345 217.666673,762.413969 C210.785356,779.5978 193.658167,793.059813 194.122796,811.742766 C194.204049,815.041931 194.001489,818.230302 193.993478,821.303777 C193.896203,855.092854 194.206338,875 194.206338,875" id="Stroke-25"></path>
                <path d="M207.149945,5 C207.149945,5 207.193179,15.9712256 207.270544,35.4502462 C207.279646,37.8658034 207.260305,40.4154063 207.300125,43.0894801 C207.590247,62.5192594 203.791366,85.4752599 202.047226,113.883362 C201.924352,115.88584 202.063155,117.906099 202.213335,119.94414 C203.99502,140.030469 207.672163,160.543556 207.855338,184.457026 C207.872404,186.693399 207.876955,188.942083 207.886056,191.205813 C208.082884,240.849207 208.304741,297.086826 208.5357,355.465072 C208.547077,358.466053 208.725701,361.477977 208.57097,364.484429 C208.255819,370.630011 208.980553,376.402181 210.671219,382.099121 C211.430085,384.661034 212.303862,387.206533 213.227698,389.732883 C216.737595,399.3404 221.552468,408.399423 221.435282,418.209376 C221.289652,428.633477 218.075565,438.420176 215.704536,448.595335 C213.919438,456.18396 211.876075,463.623493 212.340269,471.328382 C212.082004,474.177536 211.815775,477.022586 211.541583,479.863533 C211.167269,483.733075 210.804334,487.598514 210.491458,491.468056 C210.105767,496.256768 209.732592,500.918274 209.52325,505.768538 C209.391273,508.805082 209.2775,511.832051 209.166003,514.856285 C209.433369,582.509669 206.685751,647.817254 209.911216,703.546047 C210.053432,705.987592 210.309421,708.377161 210.426607,710.769465 C211.227569,727.140816 223.954216,738.868442 231.497365,753.110107 C232.579346,756.152123 234.843429,759.242012 233.672705,762.222476 C226.896385,779.463755 210.046605,793.014675 210.503973,811.694893 C210.585889,814.995425 210.385649,818.1879 210.376547,821.26411 C210.283253,855.07644 210.589303,875 210.589303,875" id="Stroke-27"></path>
                <path d="M223.548538,5 C223.548538,5 223.591522,15.9808003 223.66844,35.4721312 C223.677489,37.8917919 223.655997,40.4427625 223.69785,43.119572 C224.003262,62.6013282 219.924318,85.3959267 218.051126,113.705546 C217.918781,115.709392 218.066962,117.728283 218.227586,119.766324 C220.129057,139.81709 224.05982,160.171511 224.248723,184.065831 C224.26569,186.303573 224.270215,188.553625 224.279264,190.82009 C224.473822,240.47853 224.695529,296.76539 224.925153,355.202452 C224.936465,358.207536 225.111794,361.222196 224.960219,364.230016 C224.650282,370.376966 225.36291,376.157342 227.02797,381.862489 C227.774532,384.428506 228.63421,386.978109 229.543658,389.508562 C233.000467,399.129757 237.819186,408.170999 237.792038,417.949492 C237.738874,428.339397 234.677969,438.093269 232.388512,448.256117 C230.661239,455.84611 228.586701,463.26923 228.963376,470.952233 C228.686243,473.789077 228.40006,476.621817 228.104829,479.450454 C227.703269,483.303582 227.313021,487.152607 226.978199,491.008471 C226.563065,495.788976 226.161505,500.434068 225.935274,505.282964 C225.795011,508.319508 225.670584,511.346478 225.550682,514.369344 C225.816503,582.058291 223.114174,647.413749 226.292719,703.202726 C226.431851,705.645639 226.684099,708.037943 226.799477,710.431616 C227.589023,726.834425 240.114299,738.630442 247.538068,752.9022 C248.601353,755.949687 250.829728,759.040943 249.678212,762.028246 C243.007793,779.329709 226.429589,792.970905 226.882051,811.645652 C226.961232,814.948919 226.765542,818.142762 226.756493,821.221708 C226.666,855.061394 226.968019,875 226.968019,875" id="Stroke-29"></path>
                <path d="M238.942033,5 C238.942033,5 238.98477,15.9890072 239.061248,35.4967518 C239.070246,37.9164125 239.047752,40.4714866 239.091614,43.1496639 C239.409897,62.683397 235.054037,85.3179614 233.055493,113.529098 C232.912659,115.532944 233.071238,117.550468 233.241064,119.587141 C235.260977,139.606447 239.441388,159.799466 239.635956,183.674637 C239.653951,185.913746 239.657325,188.166534 239.666322,190.432999 C239.860891,240.110588 240.081327,296.442586 240.309636,354.942568 C240.320882,357.947652 240.494082,360.963679 240.3445,363.974235 C240.039714,370.123921 240.742635,375.912504 242.380159,381.625858 C243.114571,384.195978 243.960325,386.751052 244.85669,389.285609 C248.261076,398.920481 253.08255,407.941206 253.143283,417.690975 C253.182646,428.046685 250.271992,437.766362 248.064258,447.918268 C246.394118,455.506893 244.28873,462.914966 244.577771,470.577453 C244.283106,473.400618 243.977195,476.221048 243.662287,479.036006 C243.232661,482.874089 242.815408,486.708068 242.457762,490.547518 C242.013516,495.321184 241.585015,499.948495 241.34321,504.796023 C241.192504,507.833935 241.059793,510.859537 240.930455,513.883771 C241.195878,581.606913 238.538275,647.010244 241.669366,702.859405 C241.806576,705.303686 242.055129,707.698726 242.167596,710.095134 C242.946994,726.5253 255.271165,738.391075 262.577043,752.694292 C263.624113,755.745882 265.816102,758.84261 264.683556,761.834017 C258.116588,779.198399 241.808825,792.927135 242.254196,811.597778 C242.332923,814.903781 242.139479,818.10036 242.131606,821.180674 C242.045006,855.044981 242.34192,875 242.34192,875" id="Stroke-31"></path>
                <path d="M254.528876,5 C254.528876,5 254.572698,15.9985819 254.651114,35.5186368 C254.661493,37.9437687 254.63497,40.4988429 254.68225,43.1783879 C255.025899,62.7640979 250.251711,85.2399961 248.060658,113.351283 C247.904978,115.356496 248.076803,117.372652 248.262466,119.410693 C250.466204,139.394436 255.032819,159.426053 255.239239,183.283442 C255.25769,185.522552 255.261149,187.778075 255.270375,190.047276 C255.469876,239.739911 255.6959,296.12115 255.929997,354.679948 C255.942682,357.689135 256.117966,360.707898 255.966899,363.719822 C255.657845,369.872243 256.370514,375.666298 258.032254,381.389226 C258.778365,383.96345 259.635182,386.522627 260.545046,389.061287 C264.00345,398.711206 268.979445,407.712781 269.131666,417.431091 C269.266589,427.752605 266.419373,437.439455 264.224861,447.580418 C262.559661,455.169043 260.357077,462.56207 260.56811,470.199936 C260.244064,473.012159 259.908487,475.820279 259.562532,478.624295 C259.093185,482.445964 258.634217,486.263529 258.242134,490.089301 C257.75549,494.853392 257.286143,499.464289 257.019757,504.310449 C256.853699,507.348361 256.708397,510.372595 256.566555,513.396829 C256.837554,581.155534 254.143712,646.60674 257.324198,702.516084 C257.463734,704.961733 257.715128,707.359508 257.830447,709.757284 C258.621532,726.217542 271.12783,738.151708 278.541661,752.485017 C279.603745,755.543446 281.827086,758.641542 280.679667,761.642523 C274.013101,779.065721 257.470653,792.883365 257.923855,811.549905 C258.003425,814.858644 257.807383,818.05659 257.799311,821.141007 C257.712822,855.028567 258.014957,875 258.014957,875" id="Stroke-33"></path>
                <path d="M270.925841,4 C270.925841,4 270.969413,15.0067888 271.047384,34.5432575 C271.057704,36.9697572 271.029038,39.5261991 271.078343,42.2098476 C271.437241,61.8475345 266.381716,84.160663 264.064362,112.174835 C263.899246,114.17868 264.081561,116.194836 264.276489,118.231509 C266.599577,138.182425 271.417748,158.054008 271.629876,181.89088 C271.649369,184.132725 271.652809,186.390984 271.661982,188.661553 C271.859204,238.37197 272.083945,294.799714 272.317859,353.418695 C272.330472,356.429251 272.502467,359.449381 272.354551,362.464041 C272.050692,368.619198 272.752434,374.421459 274.387539,380.151227 C275.121387,382.730921 275.964166,385.294202 276.860837,387.838334 C280.26635,397.500563 285.246197,406.484357 285.485844,416.172574 C285.714025,426.459893 283.019427,436.112547 280.906174,446.242568 C279.298588,453.829825 277.064938,461.206439 277.188775,468.825156 C276.844784,471.625068 276.489326,474.41951 276.124695,477.209848 C275.627055,481.015103 275.14088,484.817622 274.726944,488.628348 C274.209811,493.385601 273.713317,497.980083 273.431244,502.823508 C273.254662,505.86142 273.101012,508.885654 272.949656,511.909888 C273.220262,579.704156 270.570383,645.203235 273.704143,701.172763 C273.840593,703.61978 274.089414,706.020291 274.202931,708.419434 C274.982644,724.911152 287.286065,736.910973 294.580973,751.277109 C295.626707,754.339642 297.813345,757.443209 296.685053,760.448294 C290.122847,777.933043 273.85206,791.838227 274.299248,810.502031 C274.378366,813.813506 274.185731,817.014188 274.177705,820.099973 C274.094,854.012153 274.392126,874 274.392126,874" id="Stroke-35"></path>
                <path d="M287.318148,4 C287.318148,4 287.361475,15.0163634 287.439006,34.5678781 C287.449268,36.9943778 287.418483,39.5535554 287.469791,42.2385717 C287.842627,61.9296032 282.510046,84.0840655 280.06894,111.997019 C279.893354,114.002233 280.084902,116.018388 280.288993,118.053694 C282.73124,137.970414 287.7993,157.680595 288.015933,181.499686 C288.036456,183.742898 288.039877,186.002525 288.047858,188.27583 C288.245107,238.001292 288.469721,294.476911 288.701176,353.158811 C288.713718,356.169367 288.883603,359.192233 288.737661,362.210995 C288.438936,368.36752 289.12874,374.176621 290.738662,379.913227 C291.46039,382.497025 292.288154,385.065778 293.171787,387.614013 C296.52503,397.28992 301.508718,406.255932 301.837088,415.91269 C302.156336,426.167181 299.629716,435.791111 297.580829,445.904718 C296.042738,453.496079 293.764676,460.852176 293.802302,468.450375 C293.439727,471.23661 293.064611,474.018741 292.680373,476.7954 C292.154754,480.586977 291.641677,484.373083 291.204992,488.168763 C290.65885,492.917809 290.135511,497.495878 289.837926,502.337935 C289.650938,505.375847 289.487894,508.40008 289.32827,511.424314 C289.59735,579.25141 286.993199,644.79973 290.078503,700.829442 C290.214183,703.277826 290.45818,705.679705 290.569916,708.081585 C291.338392,724.603394 303.443589,736.671605 310.619826,751.069202 C311.649401,754.137206 313.799763,757.243508 312.690377,760.255432 C306.232447,777.801733 290.230145,791.794457 290.670251,810.45279 C290.748923,813.767 290.558515,816.970418 290.551674,820.058939 C290.470721,853.997107 290.764886,874 290.764886,874" id="Stroke-37"></path>
                <path d="M302.706331,4 C302.706331,4 302.749414,15.0259381 302.82651,34.5897631 C302.836714,37.0203663 302.803835,39.5822794 302.857121,42.2700314 C303.244866,62.011672 297.637302,84.0047323 295.072743,111.820571 C294.88794,113.824417 295.088615,115.840573 295.302896,117.87451 C297.860652,137.758403 303.175707,157.30855 303.399057,181.107123 C303.419465,183.353072 303.421732,185.614066 303.430802,187.888739 C303.626943,237.633351 303.849159,294.155475 304.080445,352.896191 C304.092917,355.909482 304.260713,358.935084 304.116726,361.955214 C303.823083,368.114475 304.502203,373.931782 306.086062,379.676596 C306.795794,382.264497 307.609832,384.837353 308.479424,387.391059 C311.78206,397.080644 316.769458,406.027507 317.184414,415.652805 C317.5937,425.874469 315.217345,435.462836 313.246874,445.566869 C311.766187,453.156861 309.456723,460.497912 309.407972,468.074227 C309.027029,470.848151 308.633615,473.617971 308.228864,476.382321 C307.676724,480.156116 307.137055,483.927176 306.677884,487.70781 C306.103069,492.450017 305.553196,497.010304 305.240279,501.850993 C305.044139,504.888905 304.871808,507.913139 304.704012,510.936005 C304.971579,578.800032 302.410421,644.396225 305.450024,700.486121 C305.582674,702.935873 305.824164,705.340488 305.933005,707.743735 C306.690355,724.295636 318.598209,736.433606 325.65925,750.859927 C326.671696,753.933402 328.78502,757.043808 327.696612,760.06257 C321.339635,777.669055 305.603082,791.750687 306.037311,810.404917 C306.11554,813.720495 305.92847,816.926648 305.921668,820.017904 C305.843438,853.980693 306.13368,874 306.13368,874" id="Stroke-39"></path>
                <path d="M319.090108,4 C319.090108,4 319.13295,15.0327772 319.209613,34.6143837 C319.21976,37.0449869 319.185938,39.6096357 319.240053,42.2987554 C319.642538,62.0937408 313.760858,83.9281348 311.076503,111.642756 C310.882589,113.647969 311.092287,115.662757 311.316641,117.696695 C313.989722,137.546392 319.548963,156.936505 319.776699,180.715929 C319.79812,182.963245 319.800374,185.225607 319.809394,187.503015 C320.004435,237.264041 320.225407,293.834039 320.455398,352.634939 C320.467799,355.650966 320.6324,358.677935 320.491475,361.700801 C320.202859,367.862797 320.871411,373.685576 322.429486,379.438596 C323.128478,382.030601 323.927809,384.610296 324.784638,387.166738 C328.034951,396.871369 333.02598,405.799082 333.526548,415.394289 C334.025989,425.58039 331.798234,435.137297 329.905319,445.229019 C328.481404,452.819012 326.140908,460.143649 326.007874,467.698078 C325.608772,470.459692 325.196142,473.217202 324.772237,475.969242 C324.19275,479.727991 323.625665,483.482637 323.146517,487.248225 C322.542227,491.982225 321.966122,496.526098 321.638047,501.364052 C321.431732,504.403332 321.251347,507.426198 321.074344,510.450432 C321.340412,578.348654 318.82404,643.994089 321.817305,700.1428 C321.948084,702.595288 322.184839,705.00127 322.29307,707.405885 C323.038286,723.987878 334.752039,736.194239 341.696863,750.652019 C342.69349,753.730965 344.772427,756.844107 343.701391,759.868341 C337.44654,777.536378 321.972887,791.706917 322.401301,810.355675 C322.476837,813.675357 322.294197,816.884245 322.286306,819.978238 C322.211897,853.96428 322.498258,874 322.498258,874" id="Stroke-41"></path>
                <path d="M334.469513,4 C334.469513,4 334.512118,15.0423519 334.588357,34.6376365 C334.598448,37.0709753 334.56257,39.6383598 334.618629,42.3288473 C335.034583,62.1758095 328.883848,83.8488017 326.080925,111.466308 C325.876872,113.470153 326.0955,115.484941 326.329825,117.518879 C329.117051,137.334381 334.91686,156.563092 335.150063,180.323367 C335.172486,182.573419 335.173607,184.838516 335.182577,187.117292 C335.376539,236.894732 335.597409,293.511235 335.827249,352.373686 C335.838461,355.391081 336.00103,358.420786 335.862005,361.44502 C335.579471,367.609752 336.236476,373.442105 337.769114,379.203332 C338.456391,381.798073 339.241209,384.381871 340.08545,386.942417 C343.286388,396.659358 348.280075,405.570658 348.865326,415.134404 C349.45394,425.287678 347.374171,434.81039 345.557877,444.889801 C344.188929,452.481162 341.817656,459.790753 341.601271,467.32193 C341.184196,470.071233 340.752545,472.816433 340.308562,475.556162 C339.703131,479.298498 339.110033,483.038098 338.60887,486.787272 C337.97653,491.514433 337.375584,496.041893 337.031385,500.878478 C336.814999,503.917758 336.625522,506.939257 336.440529,509.96349 C336.705125,577.897276 334.232947,643.590584 337.1805,699.799479 C337.309435,702.253335 337.541517,704.662053 337.648028,707.068035 C338.383515,723.68012 349.903528,735.954872 356.735934,750.444111 C357.715835,753.529897 359.758606,756.645774 358.706949,759.675479 C352.55173,777.406435 337.338585,791.661779 337.760145,810.307802 C337.835263,813.630219 337.654755,816.841843 337.648028,819.935835 C337.576273,853.949234 337.858808,874 337.858808,874" id="Stroke-43"></path>
                <path d="M351.38088,4 C351.38088,4 351.425817,15.0519266 351.506231,34.6608894 C351.516874,37.0969638 351.476667,39.6643482 351.53816,42.3589392 C351.994627,62.2578783 345.186648,83.7708363 342.089531,111.288492 C341.863663,113.293706 342.106087,115.307126 342.363884,117.339695 C345.439715,137.12237 351.844442,156.192415 352.09751,179.932172 C352.121161,182.18496 352.122343,184.450058 352.131804,186.731569 C352.336386,236.525422 352.56935,293.189799 352.811774,352.112434 C352.8236,355.132565 352.993888,358.163638 352.848433,361.190607 C352.553977,367.356707 353.23986,373.195899 354.838676,378.965333 C355.555306,381.565545 356.373635,384.153447 357.25464,386.719463 C360.596546,396.450083 365.914504,405.339497 366.607482,414.875888 C367.34185,424.99223 365.273558,434.483482 363.426404,444.551952 C362.034535,452.143312 359.486125,459.435122 359.1692,466.947149 C358.708002,469.682774 358.229067,472.415664 357.738306,475.141715 C357.068979,478.869004 356.41266,482.592191 355.85804,486.327687 C355.157967,491.046641 354.49337,495.557687 354.112586,500.391537 C353.872527,503.432185 353.663215,506.453683 353.458633,509.477917 C353.737716,577.445898 351.159742,643.187079 354.23912,699.456158 C354.372749,701.911381 354.616356,704.321467 354.727516,706.731553 C355.494995,723.37373 367.512138,735.715504 374.638225,750.234836 C375.659955,753.326093 377.790922,756.446074 376.694692,759.482618 C370.272226,777.275125 354.408226,791.618009 354.849319,810.259928 C354.928551,813.585081 354.740524,816.796705 354.733429,819.894801 C354.658928,853.93282 354.95575,874 354.95575,874" id="Stroke-45"></path>
                <path d="M367.774515,4 C367.774515,4 367.819205,15.0601334 367.900351,34.68551 C367.90976,37.1229522 367.867422,39.6930723 367.930928,42.3876633 C368.402519,62.339947 361.313374,83.692871 358.093387,111.113412 C357.85818,113.11589 358.109852,115.12931 358.377988,117.16188 C361.572102,136.91036 368.226113,155.819002 368.484841,179.540978 C368.509538,181.793765 368.510714,184.062967 368.520122,186.345846 C368.723576,236.156113 368.955255,292.866995 369.196343,351.851182 C369.208103,354.87268 369.3751,357.905121 369.2328,360.934826 C368.943495,367.105029 369.61854,372.951061 371.1909,378.728701 C371.896521,381.331649 372.699754,383.925022 373.567669,386.495142 C376.857041,396.240807 382.178604,405.111073 382.958316,414.616003 C383.786245,424.69815 381.869306,434.156575 380.101724,444.214102 C378.7681,451.805462 376.186701,459.080858 375.784496,466.571 C375.303498,469.295683 374.806034,472.014895 374.295635,474.727268 C373.598245,478.439511 372.914969,482.146284 372.338711,485.868102 C371.608393,490.577481 370.916883,495.073481 370.519383,499.905964 C370.270064,502.945243 370.052497,505.965374 369.838458,508.989608 C370.116003,576.994519 367.583998,642.783574 370.615818,699.112837 C370.747534,701.569428 370.98627,703.98225 371.095641,706.393704 C371.851832,723.065973 383.668641,735.476137 390.67664,750.026929 C391.68215,753.123657 393.77667,756.247741 392.700598,759.288388 C386.381756,777.142447 370.78752,791.574239 371.222653,810.212055 C371.300271,813.538575 371.115634,816.754303 371.108577,819.855134 C371.036839,853.916406 371.329672,874 371.329672,874" id="Stroke-47"></path>
                <path d="M383.164008,4 C383.164008,4 383.208453,15.0697081 383.289156,34.7087628 C383.298513,37.1475728 383.254068,39.7204285 383.320735,42.419123 C383.804952,62.4233836 376.4376,83.6149057 373.097203,110.935596 C372.852756,112.94081 373.113578,114.951495 373.391944,116.984064 C376.703101,136.699716 383.60495,155.446957 383.869281,179.149783 C383.893842,181.403939 383.893842,183.67314 383.903199,185.958755 C384.105541,235.786804 384.337123,292.545559 384.576893,351.588562 C384.588589,354.614164 384.753503,357.64934 384.61432,360.680413 C384.328936,366.851984 384.993273,372.706222 386.539493,378.490702 C387.233069,381.099121 388.022554,383.696597 388.876367,386.272188 C392.113838,396.028796 397.440227,404.882648 398.306905,414.357486 C399.226216,424.405439 397.46011,433.829668 395.771198,443.876252 C394.495157,451.466245 391.881086,458.726595 391.39336,466.194852 C390.893938,468.907225 390.376972,471.614126 389.84714,474.315556 C389.121984,478.011386 388.410863,481.701745 387.813194,485.407149 C387.05412,490.111057 386.335981,494.587908 385.92311,499.419022 C385.663457,502.45967 385.436554,505.4798 385.214328,508.504034 C385.491525,576.543141 383.003772,642.38007 385.987438,698.769516 C386.117265,701.227475 386.353525,703.643032 386.461129,706.055854 C387.206168,722.756847 398.825041,735.23677 405.716363,749.819021 C406.704681,752.919852 408.763189,756.046672 407.705864,759.095527 C401.489405,777.012505 386.162879,791.530469 386.590955,810.164182 C386.668149,813.49207 386.485691,816.711901 386.479843,819.8141 C386.410836,853.899992 386.699729,874 386.699729,874" id="Stroke-49"></path>
                <path d="M398.548827,4 C398.548827,4 398.593031,15.077915 398.673297,34.7320156 C398.682603,37.1735613 398.637235,39.7491526 398.704705,42.447847 C399.203747,62.5054524 391.558746,83.5355726 388.101512,110.757781 C387.846756,112.762994 388.117798,114.773679 388.405125,116.806249 C391.830951,136.486338 398.978073,155.073544 399.247951,178.757221 C399.273543,181.014112 399.273543,183.286049 399.282849,185.573032 C399.484095,235.416126 399.713259,292.224123 399.952892,351.328678 C399.964525,354.355647 400.126219,357.390823 399.990117,360.426 C399.709769,366.600306 400.363526,372.461384 401.883918,378.25407 C402.565593,380.866593 403.34033,383.46954 404.181373,386.046499 C407.368729,395.819521 412.698825,404.652855 413.650379,414.097602 C414.660096,424.112727 413.043153,433.502761 411.432026,443.538403 C410.21292,451.128395 407.567648,458.372331 406.99532,465.820071 C406.477665,468.517398 405.940235,471.213357 405.391172,473.901109 C404.639701,477.580525 403.902189,481.257205 403.282166,484.947564 C402.494634,489.643265 401.750142,494.103702 401.322059,498.932081 C401.052181,501.974096 400.8172,504.992859 400.58571,508.017093 C400.861405,576.091763 398.417377,641.976565 401.355794,698.426195 C401.483753,700.885522 401.715244,703.303815 401.821101,705.716636 C402.555124,722.450457 413.97842,734.997403 420.75446,749.609746 C421.726952,752.717416 423.749876,755.848339 422.711077,758.902665 C416.596938,776.882563 401.532611,791.486699 401.954877,810.116308 C402.03049,813.446932 401.852509,816.668131 401.846693,819.773066 C401.780387,853.884947 402.065388,874 402.065388,874" id="Stroke-51"></path>
                <path d="M414.929756,4 C414.929756,4 414.973721,15.0861219 415.053551,34.7552684 C415.062806,37.1981819 415.015371,39.7765088 415.084788,42.4793067 C415.598477,62.5875211 407.679108,83.4589751 404.105268,110.581333 C403.841482,112.586546 404.121465,114.597231 404.417646,116.627065 C407.959091,136.274327 415.348575,154.701499 415.622773,178.366027 C415.649383,180.624285 415.649383,182.89759 415.657482,185.187309 C415.858793,235.048185 416.086713,291.901319 416.325046,351.066057 C416.337773,354.095763 416.496276,357.135042 416.362069,360.171587 C416.086713,366.347261 416.728824,372.215177 418.224769,378.016071 C418.894647,380.632697 419.655925,383.241116 420.484306,385.822178 C423.619659,395.608878 428.954387,404.424431 429.991021,413.839085 C431.09013,423.818647 429.620794,433.177221 428.085513,443.200553 C426.923928,450.790545 424.24673,458.019436 423.590735,465.442555 C423.053907,468.130307 422.498568,470.812588 421.930502,473.486661 C421.15187,477.152399 420.387122,480.812666 419.747325,484.486611 C418.930513,489.174105 418.15998,493.619497 417.716865,498.44514 C417.436882,501.488523 417.193921,504.507286 416.954431,507.530152 C417.227472,575.640385 414.827944,641.57306 417.720336,698.082874 C417.846444,700.543569 418.074365,702.964597 418.178491,705.378787 C418.900432,722.142699 430.129855,734.758036 436.79277,749.401838 C437.748416,752.513612 439.736068,755.648639 438.716789,758.709804 C432.702927,776.751253 417.899664,791.441561 418.316169,810.068435 C418.390214,813.401794 418.214357,816.624361 418.208572,819.732031 C418.146096,853.868533 418.427237,874 418.427237,874" id="Stroke-53"></path>
                <path d="M431.307093,4 C431.307093,4 431.35082,15.0956966 431.43022,34.7798891 C431.439426,37.2241704 431.389945,39.8038651 431.461289,42.5080308 C431.988318,62.6709577 423.79866,83.3796419 420.10946,110.403517 C419.835589,112.408731 420.12557,114.420783 420.431661,116.449249 C424.08634,136.063683 431.714447,154.328086 431.995222,177.973464 C432.021689,180.234459 432.020538,182.510499 432.029744,184.801585 C432.229969,234.678875 432.45666,291.579883 432.693708,350.804805 C432.706366,353.837246 432.862863,356.876526 432.730531,359.915806 C432.460112,366.095583 433.091856,371.970339 434.562473,377.780807 C435.221835,380.401536 435.96865,383.012691 436.783359,385.599225 C439.869583,395.398235 445.207763,404.194638 446.327411,413.579201 C447.514951,423.524567 446.192777,432.848946 444.733667,442.862703 C443.626677,450.44996 440.919038,457.663804 440.180277,465.067774 C439.625631,467.741848 439.051423,470.411819 438.463406,473.073582 C437.659055,476.722906 436.868512,480.368127 436.206849,484.027026 C435.361072,488.706313 434.565926,493.135291 434.10794,497.959566 C433.81911,501.001582 433.565952,504.020344 433.318548,507.04321 C433.591268,575.189007 431.234598,641.169555 434.081473,697.739553 C434.2046,700.201616 434.42899,702.624012 434.531404,705.040937 C435.242548,721.836309 446.281382,734.518668 452.830116,749.193931 C453.770253,752.311176 455.723021,755.450306 454.721896,758.515574 C448.808358,776.619943 434.263287,791.397791 434.672942,810.019193 C434.746588,813.356656 434.573981,816.581959 434.568227,819.692365 C434.50839,853.852119 434.785713,874 434.785713,874" id="Stroke-55"></path>
                <path d="M447.013338,4 C447.013338,4 447.059252,15.1039035 447.139308,34.8031419 C447.149903,37.2515266 447.096925,39.8312213 447.171094,42.5394905 C447.72795,62.7530265 439.026643,83.3030444 435.116883,110.227069 C434.824917,112.232283 435.133365,114.242968 435.457118,116.271434 C439.33156,135.851673 447.421856,153.956041 447.714999,177.580902 C447.743254,179.844632 447.742077,182.12204 447.751495,184.414494 C447.955165,234.309566 448.188268,291.258447 448.430788,350.543553 C448.443738,353.575994 448.602672,356.620745 448.468461,359.660025 C448.196509,365.842538 448.834597,371.7255 450.321506,377.542808 C450.987849,380.16764 451.742488,382.784266 452.566587,385.374903 C455.691099,395.188959 461.185483,403.966213 462.422809,413.320684 C463.734303,423.231855 462.522878,432.522039 461.098364,442.524853 C460.017617,450.11211 457.200377,457.309541 456.356264,464.692994 C455.767622,467.353389 455.156612,470.011049 454.533828,472.660503 C453.67912,476.293413 452.838539,479.920852 452.136878,483.566073 C451.23861,488.238521 450.395675,492.651085 449.90828,497.472625 C449.601008,500.517376 449.332588,503.533403 449.068876,506.557637 C449.347892,574.737628 446.968601,640.766051 449.850593,697.396232 C449.975385,699.86103 450.202601,702.284794 450.306202,704.704455 C451.026699,721.527183 462.186175,734.279301 468.80722,748.984655 C469.757288,752.107372 471.730416,755.250605 470.719129,758.322713 C464.738526,776.491369 450.040135,791.352654 450.455717,809.969952 C450.529886,813.310151 450.355647,816.538189 450.349761,819.649963 C450.290897,853.837073 450.572268,874 450.572268,874" id="Stroke-57"></path>
                <path d="M462.392704,2 C462.392704,2 462.438373,13.1134781 462.518001,32.8263947 C462.52854,35.2761472 462.473503,37.8599454 462.549618,40.5682145 C463.121068,60.8364631 454.14533,81.2237113 450.120593,108.049254 C449.819645,110.054467 450.136987,112.065152 450.470723,114.09225 C454.459159,133.638294 462.789674,151.582628 463.089451,175.189708 C463.117555,177.453438 463.116384,179.733582 463.125752,182.028771 C463.328335,231.940256 463.560194,288.935644 463.801421,348.282301 C463.814302,351.317477 463.970045,354.362228 463.838893,357.405611 C463.571904,363.589493 464.199562,369.480662 465.660973,375.306176 C466.315564,377.935112 467.055638,380.555841 467.868314,383.15195 C470.941025,392.978316 476.440055,401.737789 477.762118,411.0608 C479.162637,420.937776 478.098195,430.1965 476.7492,440.185636 C475.725743,447.774261 472.876693,454.955277 471.949259,462.316845 C471.342679,464.966298 470.71268,467.61028 470.069799,470.247423 C469.188034,473.865288 468.321492,477.476313 467.600154,481.106488 C466.671549,485.772097 465.803836,490.166879 465.301475,494.987051 C464.984133,498.031802 464.707777,501.047829 464.436104,504.072063 C464.713632,572.28625 462.377481,638.363914 465.212479,695.052911 C465.336605,697.519077 465.559096,699.945577 465.660973,702.366605 C466.370601,719.219425 477.337043,732.041302 483.844307,746.776748 C484.777596,749.906303 486.716777,753.052272 485.724937,756.129851 C479.844161,774.361426 465.404524,789.308884 465.814375,807.922079 C465.888148,811.263645 465.717181,814.495787 465.711326,817.608928 C465.655118,851.819292 465.932646,872 465.932646,872" id="Stroke-59"></path>
                <path d="M479.768221,2 C479.768221,2 479.813649,13.1230528 479.892855,32.8510153 C479.903339,35.3021357 479.846263,37.8873017 479.924305,40.5983064 C480.510202,60.9185318 471.262817,81.1443781 467.124266,107.872806 C466.814428,109.878019 467.140573,111.887336 467.484191,113.914435 C471.585468,133.427651 480.154936,151.210583 480.45895,174.798513 C480.488071,177.063611 480.485741,179.345123 480.495059,181.643048 C480.697735,231.570947 480.928367,288.614208 481.168316,348.021049 C481.181129,351.057593 481.334884,354.105079 481.20559,357.149831 C480.943509,363.337815 481.560856,369.234456 482.99706,375.068177 C483.640032,377.702584 484.36687,380.327417 485.165926,382.927629 C488.189759,392.766305 493.691132,401.507996 495.097051,410.802283 C496.585672,420.643696 495.667806,429.868225 494.394674,439.847786 C493.426721,447.435043 490.546159,454.602382 489.536274,461.940697 C488.910773,464.576472 488.263142,467.209511 487.601533,469.832976 C486.692985,473.435795 485.79958,477.031774 485.057599,480.646903 C484.101295,485.302937 483.20789,489.682674 482.690716,494.50011 C482.363406,497.546229 482.079194,500.560888 481.798476,503.583754 C482.074535,571.834872 479.782199,637.960409 482.571906,694.710958 C482.693046,697.177124 482.913194,699.606359 483.013367,702.028756 C483.711085,718.913035 494.486694,731.801934 500.881472,746.56884 C501.799338,749.703867 503.703793,752.852572 502.730017,755.935622 C496.949091,774.231484 482.766429,789.263746 483.169451,807.874205 C483.242834,811.218507 483.073937,814.452017 483.069278,817.569262 C483.015697,851.802878 483.289426,872 483.289426,872" id="Stroke-61"></path>
                <path d="M494.139831,2 C494.139831,2 494.185019,13.1312597 494.263808,32.8729003 C494.274237,35.3267563 494.215144,37.9160257 494.295093,40.6283983 C494.894124,61.0019684 485.376818,81.0664128 481.129137,107.69499 C480.808186,109.700204 481.1442,111.709521 481.497594,113.735251 C485.710514,133.21564 494.51524,150.837171 494.824604,174.407319 C494.85473,176.673785 494.852412,178.958032 494.861682,181.257325 C495.062131,231.201638 495.292707,288.292772 495.531392,347.759796 C495.544138,350.799076 495.695923,353.847931 495.56847,356.895417 C495.311245,363.08477 495.918388,368.990985 497.329647,374.831545 C497.96228,377.468688 498.674861,380.098992 499.460439,382.704675 C502.435901,392.55703 507.940737,401.279571 509.429627,410.542399 C511.004258,420.350984 510.231426,429.541317 509.032203,439.509936 C508.119172,447.097193 505.208596,454.248118 504.117129,461.564548 C503.474068,464.188013 502.806675,466.808742 502.127695,469.419896 C501.192649,473.006301 500.273824,476.585867 499.510262,480.187318 C498.525393,484.835146 497.607727,489.198468 497.075898,494.013169 C496.738725,497.060655 496.445582,500.073947 496.157074,503.098181 C496.432837,571.382126 494.182702,637.556904 496.927588,694.367637 C497.046931,696.835171 497.262444,699.265774 497.360931,701.690906 C498.04918,718.605278 508.635938,731.561199 514.9194,746.359565 C515.820845,749.500063 517.690936,752.654239 516.735034,755.744128 C511.052922,774.101542 497.123404,789.219976 497.521986,807.826332 C497.592664,811.173369 497.428133,814.408246 497.423499,817.528227 C497.372517,851.786464 497.642487,872 497.642487,872" id="Stroke-63"></path>
                <path d="M510.506987,2 C510.506987,2 510.551937,13.1408344 510.630312,32.897521 C510.640685,35.3527447 510.580751,37.943382 510.661432,40.6584902 C511.274601,61.0840372 501.490405,80.9870797 497.132525,107.51991 C496.802889,109.523756 497.148661,111.531705 497.510569,113.558803 C501.833872,133.002261 510.872353,150.465125 511.187005,174.014757 C511.216972,176.283958 511.214667,178.569573 511.223887,180.870234 C511.423283,230.832328 511.652645,287.969968 511.891227,347.498544 C511.902753,350.539192 512.051435,353.590782 511.926957,356.641004 C511.674544,362.833092 512.271577,368.744779 513.658122,374.593546 C514.279359,377.23616 514.977819,379.870567 515.752348,382.480354 C518.677579,392.346387 524.18688,401.049779 525.756685,410.282515 C527.418696,420.056904 526.788238,429.21441 525.663327,439.170719 C524.80466,446.759344 521.863292,453.892487 520.691125,461.189768 C520.030701,463.800922 519.344919,466.407973 518.64646,469.006817 C517.686366,472.576808 516.741256,476.141328 515.957506,479.726365 C514.944394,484.365986 514.002742,488.714262 513.456422,493.527595 C513.109497,496.575082 512.808676,499.587005 512.512464,502.611239 C512.785624,570.930748 510.578446,637.153399 513.278926,694.024316 C513.396488,696.493218 513.607409,698.926556 513.705378,701.353056 C514.381938,718.29752 524.781608,731.321832 530.954791,746.151657 C531.84112,749.297627 533.678322,752.454538 532.740127,755.549898 C527.154757,773.972968 513.477168,789.176206 513.869043,807.778458 C513.93935,811.128232 513.77799,814.365844 513.77338,817.487193 C513.724972,851.771418 513.991216,872 513.991216,872" id="Stroke-65"></path>
                <path d="M526.870816,2 C526.870816,2 526.915532,13.1476735 526.993499,32.9207738 C527.003818,35.3773654 526.941903,37.9707382 527.025603,40.6885821 C527.651629,61.1674737 517.601961,80.9077465 513.136079,107.342095 C512.797841,109.34594 513.152131,111.353889 513.523619,113.380988 C517.956251,132.791618 527.226252,150.09308 527.544998,173.623562 C527.575955,175.894131 527.572516,178.182482 527.581688,180.484511 C527.781191,230.463019 528.009358,287.648532 528.246698,347.235924 C528.258163,350.280675 528.404924,353.333633 528.282241,356.386591 C528.035729,362.581415 528.621625,368.49994 529.983748,374.356914 C530.593722,377.002264 531.27937,379.64351 532.040691,382.256033 C534.918577,392.137111 540.431275,400.821354 542.082333,410.023998 C543.828556,419.764192 543.341265,428.887503 542.287569,438.832869 C541.483825,446.420126 538.51192,453.538223 537.259868,460.813619 C536.5811,463.412463 535.878254,466.007204 535.160502,468.59237 C534.175601,472.148683 533.204457,475.695421 532.40186,479.26678 C531.360776,483.898194 530.394219,488.230057 529.832401,493.040654 C529.476965,496.089508 529.167392,499.101432 528.863551,502.124298 C529.135288,570.47937 526.969421,636.749895 529.627166,693.680995 C529.741822,696.151264 529.950498,698.587339 530.045663,701.015206 C530.711819,717.989762 540.927739,731.082465 546.991937,745.94375 C547.862182,749.093823 549.665733,752.256205 548.745039,755.355669 C543.256419,773.844393 529.827815,789.132436 530.213062,807.729217 C530.283002,811.081726 530.123629,814.322074 530.119043,817.446158 C530.074327,851.755004 530.336891,872 530.336891,872" id="Stroke-67"></path>
                <path d="M542.626505,2 C542.626505,2 542.672224,13.1572481 542.75194,32.9440266 C542.762491,35.4047216 542.696843,37.9980945 542.784765,40.7186739 C543.441248,61.2495425 532.842556,80.8297812 528.14401,107.165647 C527.786461,109.169492 528.160422,111.176074 528.550795,113.201804 C533.21769,132.579607 542.980537,149.721035 543.313468,173.232368 C543.346292,175.504305 543.342775,177.792655 543.352154,180.098788 C543.55496,230.095077 543.788246,287.327096 544.032083,346.97604 C544.043806,350.022159 544.191515,353.076484 544.068424,356.13081 C543.819898,362.329737 544.411906,368.255102 545.787004,374.120283 C546.402458,376.769736 547.09411,379.415086 547.863133,382.033079 C550.77159,391.9251 556.440794,400.591562 558.220333,409.764114 C560.103034,419.470113 559.745485,428.559228 558.736141,438.495019 C557.965946,446.082276 554.879301,453.18396 553.512408,460.437471 C552.79731,463.024004 552.055249,465.606435 551.300293,468.17929 C550.26047,471.717822 549.23706,475.249514 548.391837,478.805827 C547.293399,483.43177 546.27585,487.745851 545.683843,492.55508 C545.308709,495.603935 544.982812,498.613123 544.661604,501.637357 C544.940609,570.027991 542.75663,636.349126 545.44235,693.337674 C545.55958,695.810679 545.76942,698.246753 545.865548,700.677357 C546.539616,717.682004 556.851096,730.844466 562.972805,745.734475 C563.852024,748.891386 565.671421,752.056505 564.742965,755.162807 C559.200369,773.714451 545.652191,789.087298 546.042564,807.681344 C546.112901,811.03522 545.952297,814.279672 545.947608,817.406492 C545.904233,851.738591 546.170344,872 546.170344,872" id="Stroke-69"></path>
                <path d="M558.992366,2 C558.992366,2 559.037851,13.1668228 559.118323,32.9686472 C559.127653,35.4293423 559.061176,38.0268186 559.149812,40.7487658 C559.820416,61.3329791 548.953142,80.7490803 544.148123,106.987831 C543.780749,108.993045 544.164451,110.998258 544.563314,113.023989 C549.340343,132.367596 559.336415,149.34899 559.674632,172.839806 C559.707288,175.114478 559.702623,177.405564 559.711953,179.713064 C559.914883,229.7244 560.14697,287.002924 560.389554,346.714787 C560.401216,349.762274 560.547,352.819336 560.426874,355.876397 C560.181958,362.076692 560.763925,368.010263 562.114462,373.882283 C562.719755,376.537208 563.397356,379.186661 564.154263,381.808758 C567.013949,391.715825 572.68667,400.363137 574.546865,409.505597 C576.515524,419.176033 576.30093,428.233688 575.365585,438.15717 C574.649497,445.743059 571.532066,452.831064 570.083563,460.06269 C569.352313,462.636913 568.591908,465.205666 567.818673,467.766211 C566.752705,471.289696 565.703065,474.804975 564.837695,478.346242 C563.711081,482.96261 562.669605,487.261645 562.063146,492.068139 C561.678278,495.118361 561.344726,498.127549 561.014673,501.151783 C561.292244,569.576613 559.150978,635.945621 561.792573,692.992985 C561.906867,695.468726 562.114462,697.906168 562.20893,700.340875 C562.871369,717.375614 572.998063,730.605098 579.010168,745.526567 C579.873205,748.687582 581.65876,751.858172 580.747905,754.969946 C575.302606,773.587244 562.003667,789.04216 562.388535,807.63347 C562.458511,810.990083 562.299899,814.235902 562.2964,817.36409 C562.25558,851.723545 562.51799,872 562.51799,872" id="Stroke-71"></path>
                <path d="M574.354944,2 C574.354944,2 574.400194,13.1750297 574.480251,32.9919 C574.489534,35.4553307 574.421079,38.0541748 574.511578,40.7788577 C575.196127,61.4150478 564.063509,80.6711149 559.152162,106.811383 C558.77508,108.815229 559.168405,110.82181 559.576814,112.844805 C564.462635,132.155585 574.687937,148.975577 575.031371,172.447243 C575.065019,174.724651 575.060378,177.017106 575.06966,179.327341 C575.271543,229.356458 575.502434,286.681488 575.743766,346.452167 C575.756529,349.503758 575.89924,352.562187 575.780894,355.620616 C575.540722,361.823646 576.111566,367.764057 577.437734,373.645652 C578.032943,376.303312 578.696607,378.958236 579.441489,381.585804 C582.25394,391.505182 587.929893,400.133344 589.870995,409.245713 C591.923481,418.881953 591.851545,427.906781 590.987157,437.81932 C590.325814,445.405209 587.17805,452.475433 585.649998,459.685174 C584.901635,462.247087 584.121946,464.804896 583.330654,467.351764 C582.240017,470.860203 581.164464,474.360436 580.280351,477.885289 C579.12474,482.494818 578.059629,486.778807 577.438894,491.582566 C577.044409,494.632788 576.702134,497.640608 576.365661,500.664842 C576.641801,569.125235 574.541745,635.542116 577.139549,692.649664 C577.252094,695.126773 577.455138,697.566951 577.547958,700.003025 C578.20002,717.066488 588.142219,730.365731 594.045582,745.318659 C594.892566,748.486514 596.645707,751.658471 595.753473,754.777084 C590.403551,773.45867 577.353036,788.99839 577.731278,807.585597 C577.799733,810.944945 577.645419,814.192132 577.641938,817.323055 C577.60365,851.707131 577.862386,872 577.862386,872" id="Stroke-73"></path>
                <path d="M589.713724,2 C589.713724,2 589.758743,13.1846044 589.838391,33.0151528 C589.847626,35.4813191 589.777212,38.0828989 589.869558,40.8075818 C590.566774,61.4984844 579.171224,80.590414 574.155659,106.633568 C573.770112,108.638781 574.171819,110.643995 574.589687,112.666989 C579.58332,131.943574 590.036936,148.603532 590.385544,172.056049 C590.41902,174.334825 590.414402,176.630015 590.423637,178.94025 C590.62449,228.985781 590.854202,286.360052 591.094303,346.192283 C591.107,349.243873 591.246674,352.305038 591.131241,355.366203 C590.895758,361.571969 591.456763,367.519219 592.758847,373.407652 C593.342938,376.070784 593.993981,378.729811 594.725826,381.361483 C597.490447,391.293171 603.169753,399.90492 605.190986,408.987196 C607.328805,418.587873 607.395757,427.579874 606.602732,437.48147 C605.995554,445.065991 602.817682,452.121169 601.210854,459.310393 C600.444379,461.858628 599.647891,464.405495 598.838705,466.938684 C597.722468,470.43071 596.621237,473.914529 595.717396,477.425704 C594.534207,482.025658 593.445674,486.293234 592.810792,491.094256 C592.406776,494.147214 592.057014,497.155034 591.71187,500.177901 C591.9866,568.673857 589.929583,635.138611 592.482962,692.306343 C592.593778,694.784819 592.793477,697.227733 592.884669,699.665175 C593.525323,716.760098 603.28634,730.124996 609.081079,745.109384 C609.913351,748.284077 611.633303,751.461506 610.758321,754.582855 C605.504963,773.330096 592.698822,788.95462 593.071671,807.537723 C593.138622,810.899807 592.987405,814.14973 592.983942,817.283389 C592.948157,851.690717 593.203264,872 593.203264,872" id="Stroke-75"></path>
                <path d="M607.06914,2 C607.06914,2 607.113929,13.1941791 607.193173,33.0384057 C607.20236,35.5059398 607.130008,38.1088873 607.224181,40.8390415 C607.935073,61.581921 596.278275,80.5110809 591.15962,106.45712 C590.764552,108.460965 591.175698,110.466179 591.602923,112.487806 C596.703203,131.731563 607.381519,148.23012 607.735242,171.664854 C607.769696,173.944998 607.763954,176.241556 607.773141,178.554527 C607.972972,228.617839 608.202663,286.037249 608.441541,345.929663 C608.454174,348.983989 608.591988,352.047889 608.478292,355.110422 C608.247453,361.318924 608.79871,367.27438 610.076938,373.171021 C610.650016,375.838255 611.288556,378.501387 612.008636,381.137162 C614.725876,391.082528 620.408422,399.676495 622.508942,408.727312 C624.728902,418.296529 624.935624,427.251599 624.213247,437.14362 C623.658544,444.728142 620.450914,451.766906 618.766134,458.934244 C617.982889,461.471537 617.167487,464.004726 616.340601,466.524237 C615.199039,470.001217 614.073555,473.468622 613.150198,476.966119 C611.938581,481.559234 610.826878,485.810396 610.179151,490.608683 C609.765707,493.661641 609.408539,496.666725 609.054815,499.690959 C609.329295,568.222479 607.311463,634.736474 609.821982,691.963022 C609.931085,694.442866 610.12747,696.888515 610.217049,699.327325 C610.848699,716.45234 620.427945,729.885629 626.117382,744.901477 C626.933932,748.080273 628.621009,751.261806 627.763115,754.389993 C622.604264,773.201521 610.040188,788.91085 610.407693,807.488482 C610.474303,810.853301 610.325004,814.107328 610.322707,817.242354 C610.289402,851.674303 610.540913,872 610.540913,872" id="Stroke-77"></path>
                <path d="M622.419877,2 C622.419877,2 622.46444,13.2010182 622.543282,33.0616585 C622.553565,35.5319282 622.479294,38.1376114 622.574133,40.8677655 C623.298565,61.6653575 611.381995,80.4317477 606.163568,106.279304 C605.759074,108.284518 606.179565,110.288363 606.61491,112.30999 C611.820768,131.519552 622.722676,147.858074 623.081464,171.27366 C623.115743,173.555172 623.11003,175.854465 623.119171,178.167436 C623.31799,228.247162 623.546518,285.715813 623.784186,345.668411 C623.796755,348.724104 623.932729,351.789373 623.820751,354.857376 C623.595651,361.067246 624.136119,367.029542 625.391878,372.933021 C625.954056,375.605727 626.579078,378.272962 627.286371,380.91284 C629.957859,390.873253 635.643625,399.446702 637.822635,408.468795 C640.12505,418.002449 640.468984,426.924692 639.815395,436.805771 C639.31492,444.388924 636.076684,451.412642 634.314737,458.559464 C633.51489,461.083078 632.681907,463.603957 631.837498,466.112525 C630.670865,469.573092 629.520228,473.022715 628.578695,476.505166 C627.338933,481.090074 626.205436,485.32619 625.542706,490.121742 C625.121073,493.176067 624.755428,496.181152 624.394355,499.205386 C624.666303,567.7711 622.690682,634.33297 625.157637,691.619701 C625.265045,694.100913 625.458151,696.54793 625.546134,698.988108 C626.166586,716.144583 635.56821,729.647629 641.152282,744.693569 C641.953271,747.877837 643.608953,751.063473 642.767972,754.197132 C637.702658,773.074315 625.378166,788.864344 625.740382,807.440609 C625.805513,810.806796 625.659255,814.06219 625.65697,817.20132 C625.626118,851.659257 625.874071,872 625.874071,872" id="Stroke-79"></path>
                <path d="M639.221349,2 C639.221349,2 639.266885,13.2105928 639.34745,33.0862791 C639.357959,35.5579166 639.279729,38.1649676 639.378976,40.8978574 C640.136751,61.7487941 627.634033,80.3510468 622.171975,106.102856 C621.746967,108.106702 622.188322,110.110548 622.644856,112.133543 C628.09874,131.307541 639.522591,147.484662 639.895057,170.881098 C639.931253,173.165345 639.925415,175.464638 639.934756,177.781713 C640.137919,227.879221 640.37144,285.393009 640.614302,345.405791 C640.627146,348.465588 640.763755,351.533592 640.651665,354.601595 C640.42515,360.814201 640.970422,366.783335 642.236106,372.697757 C642.802394,375.373199 643.430566,378.044537 644.146308,380.688519 C646.841141,390.661242 652.685006,399.218278 655.001535,408.210278 C657.450004,417.70837 657.942733,426.596417 657.343751,436.467921 C656.882547,444.051074 653.52685,451.059747 651.638832,458.183315 C650.800491,460.694619 649.927122,463.203188 649.04091,465.698078 C647.818427,469.143598 646.609955,472.578176 645.624497,476.045581 C644.323784,480.620915 643.13633,484.843352 642.441604,489.636168 C641.997914,492.690494 641.61494,495.694211 641.236636,498.717077 C641.515693,567.319722 639.527261,633.930833 642.017764,691.27638 C642.126351,693.760328 642.320173,696.208712 642.408911,698.650258 C643.035915,715.836825 652.509865,729.408262 658.137723,744.484294 C658.945706,747.674033 660.613046,750.863772 659.766533,754.002902 C654.659427,772.94574 642.246614,788.820574 642.612075,807.391367 C642.678628,810.761658 642.53151,814.019788 642.529175,817.160286 C642.499985,851.642844 642.75102,872 642.75102,872" id="Stroke-81"></path>
                <path d="M653.575453,2 C653.575453,2 653.620761,13.2201675 653.700922,33.1095319 C653.711378,35.5839051 653.632379,38.1936917 653.732289,40.9279493 C654.50253,61.8308629 641.739543,80.2703458 636.175922,105.925041 C635.741428,107.928886 636.192187,109.932732 636.658049,111.954359 C642.218184,131.09553 653.865891,147.112617 654.243459,170.489903 C654.280635,172.775518 654.274827,175.077547 654.284121,177.394622 C654.486265,227.508543 654.718615,285.071573 654.960259,345.145906 C654.973038,348.205703 655.107801,351.276443 654.997435,354.347182 C654.775541,360.562523 655.311108,366.539865 656.553018,372.459758 C657.109497,375.139303 657.724063,377.816113 658.426921,380.465566 C661.075711,390.450598 666.921638,398.988485 669.318328,407.950394 C671.84862,417.41429 672.480612,426.269509 671.950854,436.130071 C671.54308,443.711857 668.15774,450.704115 666.192059,457.807167 C665.335849,460.306161 664.444787,462.802419 663.542107,465.283631 C662.294387,468.714105 661.060609,472.132269 660.055695,475.584628 C658.727815,480.153123 657.516109,484.357779 656.807442,489.149227 C656.356683,492.206288 655.965173,495.208637 655.57831,498.231503 C655.855968,566.868344 653.908875,633.527328 656.356683,690.933059 C656.462402,693.418375 656.654091,695.869495 656.741222,698.313776 C657.356949,715.529067 666.652112,729.168895 672.172748,744.276386 C672.966223,747.471597 674.600806,750.665439 673.771316,753.811409 C668.759526,772.818534 656.587871,788.776804 656.946852,807.343494 C657.01191,810.71652 656.867853,813.977385 656.866691,817.120619 C656.839971,851.62643 657.087423,872 657.087423,872" id="Stroke-83"></path>
                <path d="M670.925137,1 C670.925137,1 670.97022,12.2283744 671.049981,32.1327847 C671.060385,34.6085257 670.979467,37.221048 671.081193,39.9580412 C671.864939,60.9156673 658.841795,79.1896449 653.179859,104.748593 C652.735967,106.752438 653.196043,108.754916 653.66999,110.776543 C659.334237,129.884887 671.206037,145.739204 671.588663,169.098709 C671.625654,171.384324 671.618718,173.689088 671.627966,176.008899 C671.829104,226.140602 672.061454,283.750137 672.303052,343.884654 C672.314611,346.947187 672.447548,350.019294 672.340043,353.091401 C672.121565,359.310846 672.64753,365.293658 673.864766,371.223126 C674.411539,373.906775 675.013799,376.587688 675.703912,379.241244 C678.305998,389.239955 684.156356,397.76006 686.630129,406.691877 C689.242619,416.12021 690.012494,424.941234 689.551263,434.792221 C689.197536,442.372639 685.781648,449.349852 683.739051,456.432386 C682.866295,458.917702 681.956547,461.40165 681.036396,463.870551 C679.763674,467.284612 678.50598,470.68773 677.482948,474.125043 C676.126997,478.683963 674.892422,482.874941 674.169941,487.663653 C673.70871,490.719347 673.311056,493.721696 672.916871,496.74593 C673.191992,565.416966 671.285799,632.123823 673.69137,689.589738 C673.795407,692.076421 673.982674,694.530277 674.068216,696.975926 C674.673944,714.222677 683.79107,727.929528 689.20794,743.067111 C689.985907,746.267793 691.58808,749.467106 690.77659,752.617179 C685.857942,771.689959 673.92372,787.733034 674.278602,806.29562 C674.342181,809.671382 674.201152,812.933615 674.198841,816.078217 C674.175721,850.611384 674.419631,871 674.419631,871" id="Stroke-85"></path>
                <path d="M687.272027,1 C687.272027,1 687.316885,12.2379491 687.39625,32.1560376 C687.406602,34.6345142 687.323786,37.249772 687.427306,39.988133 C688.224406,60.997736 674.942859,79.1075761 669.183726,104.572145 C668.730541,106.575991 669.199829,108.577101 669.68292,110.59736 C675.451254,129.671508 687.542327,145.367159 687.92995,168.706147 C687.967907,170.994497 687.961006,173.301997 687.970208,175.623175 C688.170345,225.771292 688.400389,283.427333 688.641934,343.622034 C688.653436,346.687302 688.783411,349.762145 688.678741,352.836988 C688.464801,359.0578 688.981248,365.04882 690.175172,370.985127 C690.711173,373.674247 691.300084,376.359263 691.979862,379.018291 C694.535642,389.03068 700.387942,397.530268 702.940272,406.431993 C705.632928,415.827498 706.538148,424.614327 706.147075,434.454372 C705.844568,442.033422 702.39967,448.995588 700.280972,456.05487 C699.391855,458.529243 698.464781,461.00088 697.527354,463.457472 C696.229911,466.856487 694.946269,470.241823 693.905324,473.66409 C692.521613,478.216171 691.265577,482.390735 690.529439,487.175344 C690.059001,490.235141 689.652974,493.234754 689.251549,496.25762 C689.52645,564.965588 687.659649,631.721686 690.023344,689.246417 C690.124563,691.734468 690.308597,694.19106 690.393713,696.638077 C690.988375,713.914919 699.930156,727.690161 705.241855,742.859203 C706.005598,746.065356 707.576794,749.268774 706.780844,752.42295 C701.954537,771.562753 690.257988,787.689264 690.606503,806.247747 C690.669765,809.624877 690.531739,812.889845 690.529439,816.037182 C690.508735,850.59497 690.74913,871 690.74913,871" id="Stroke-87"></path>
                <path d="M701.615753,1 C701.615753,1 701.66039,12.246156 701.739362,32.1806582 C701.749663,34.6591348 701.666112,37.2757605 701.770265,40.0168571 C702.579452,61.0811726 689.043028,79.028243 683.187584,104.394329 C682.725192,106.398175 683.203608,108.400653 683.694613,110.419544 C689.567226,129.459497 701.876707,144.993746 702.268138,168.313584 C702.307052,170.604671 702.29904,172.913539 702.308197,175.237452 C702.50849,225.401983 702.737398,283.105897 702.97775,343.36215 C702.989195,346.428786 703.117383,349.504996 703.014375,352.581207 C702.80607,358.806123 703.311954,364.803981 704.482814,370.748495 C705.008156,373.440351 705.585002,376.130838 706.252267,378.79397 C708.763378,388.818669 714.618822,397.301843 717.246676,406.172109 C720.021031,415.533419 721.060269,424.28742 720.736365,434.113786 C720.485712,441.694204 717.012046,448.642693 714.817971,455.680089 C713.911499,458.142152 712.967257,460.601479 712.012715,463.044393 C710.690776,466.426993 709.383716,469.795916 708.323876,473.205873 C706.912664,477.748379 705.635362,481.907897 704.885691,486.689771 C704.406131,489.749568 703.992953,492.749181 703.583209,495.772047 C703.856753,564.512842 702.031219,631.318182 704.351193,688.903096 C704.451912,691.392515 704.632749,693.850474 704.715155,696.300227 C705.300013,713.605793 714.067156,727.450793 719.277082,742.651296 C720.024464,745.86292 721.565009,749.069073 720.78558,752.231456 C716.051781,771.436914 704.589256,787.642759 704.931472,806.199874 C704.994422,809.578371 704.858222,812.847443 704.857078,815.997516 C704.838765,850.578556 705.075684,871 705.075684,871" id="Stroke-89"></path>
                <path d="M718.769066,1 C718.769066,1 718.81539,12.2557484 718.897348,32.2025922 C718.908038,34.6851762 718.818953,37.3045416 718.930606,40.0483782 C719.787006,61.1647038 705.405182,78.9462968 699.200139,104.218044 C698.707204,106.221893 699.216769,108.223006 699.737023,110.240533 C705.968197,129.249056 719.030381,144.621927 719.444921,167.922652 C719.485306,170.21511 719.476992,172.525349 719.486494,174.852002 C719.694358,225.033026 719.931917,282.784904 720.181354,343.100067 C720.193232,346.170812 720.32389,349.248395 720.219364,352.327346 C720.006749,358.55364 720.524627,364.559715 721.721925,370.511077 C722.258808,373.208408 722.847955,375.903003 723.530937,378.570242 C726.102514,388.608635 732.212532,397.072673 735.033546,405.912861 C738.008973,415.241358 739.232402,423.95981 738.96396,433.776617 C738.757284,441.355679 735.102438,448.289132 732.737538,455.306023 C731.775424,457.754411 730.772925,460.201432 729.759735,462.630671 C728.355761,465.998231 726.966041,469.350745 725.843574,472.745662 C724.343389,477.279968 722.988115,481.424447 722.192292,486.203592 C721.682728,489.264762 721.243243,492.263012 720.809698,495.285883 C721.093581,564.062349 719.22993,630.917035 721.606709,688.560856 C721.710047,691.053015 721.894155,693.512346 721.979676,695.96347 C722.579513,713.300523 731.541428,727.212568 736.86869,742.443186 C737.63363,745.661654 739.207458,748.873284 738.411636,752.038407 C733.570182,771.310918 721.857333,787.600225 722.208921,806.153266 C722.271874,809.534504 722.13409,812.80495 722.132902,815.957763 C722.116273,850.563478 722.359771,871 722.359771,871" id="Stroke-91"></path>
                <path d="M734.829452,1 C734.829452,1 734.874884,12.2639552 734.955263,32.2272129 C734.965747,34.7111647 734.876048,37.3318979 734.987881,40.0771023 C735.84526,61.2481405 721.413101,78.8642279 715.200598,104.040228 C714.706673,106.044077 715.216907,108.04519 715.73879,110.062717 C721.983911,129.035676 735.077579,144.249881 735.48996,167.531457 C735.530732,169.825283 735.522577,172.13689 735.531897,174.464911 C735.734592,224.663716 735.968741,282.4621 736.213373,342.838815 C736.225023,345.910927 736.351998,348.991246 736.250651,352.072933 C736.045625,358.301962 736.545375,364.313508 737.703302,370.275813 C738.222855,372.974511 738.79017,375.674578 739.451843,378.347288 C741.940106,388.397992 747.965057,396.844248 750.821434,405.654344 C753.835075,414.947278 755.177059,423.631534 754.981353,433.438767 C754.828749,441.016461 751.198867,447.933501 748.790984,454.928506 C747.826432,457.365952 746.819944,459.800662 745.804136,462.216223 C744.395751,465.570105 743.00251,468.904838 741.8772,472.286076 C740.370963,476.810808 739.012669,480.941608 738.215866,485.718018 C737.704467,488.779188 737.264129,491.77607 736.82845,494.800308 C737.106865,563.61097 735.310563,630.51353 737.611274,688.217534 C737.710292,690.711061 737.889689,693.173128 737.971233,695.62562 C738.552527,712.992765 747.210191,726.9732 752.35563,742.235278 C753.095353,745.459218 754.614404,748.673583 753.847889,751.844178 C749.168417,771.183712 737.859401,787.556455 738.200722,806.104025 C738.262463,809.489366 738.129662,812.762547 738.128497,815.916728 C738.114518,850.548432 738.350996,871 738.350996,871" id="Stroke-93"></path>
                <path d="M750.382673,1 C750.382673,1 750.428355,12.2721621 750.510348,32.2518336 C750.519718,34.7371532 750.428355,37.360622 750.541974,40.108562 C751.420469,61.3315772 736.579746,78.782159 730.206552,103.86378 C729.698196,105.866261 730.22295,107.867374 730.759418,109.884901 C737.173609,128.823665 750.623967,143.876467 751.044473,167.138895 C751.086641,169.435456 751.07727,171.749798 751.086641,174.079187 C751.291623,224.294406 751.52706,282.140663 751.773039,342.57893 C751.785924,345.651042 751.911256,348.734097 751.810522,351.817151 C751.607882,358.048916 752.103354,364.068669 753.250083,370.037813 C753.764296,372.741983 754.324191,375.446153 754.981306,378.122967 C757.450465,388.18598 763.540198,396.615823 766.504829,405.394459 C769.629931,414.653198 771.122203,423.303259 770.992186,433.100916 C770.891451,440.678611 767.192398,447.579237 764.684585,454.553724 C763.693642,456.977492 762.65936,459.399892 761.615707,461.804511 C760.167945,465.139244 758.73424,468.460298 757.579311,471.825123 C756.029644,476.343015 754.635764,480.457402 753.817006,485.232444 C753.29108,488.294981 752.838947,491.289128 752.390329,494.311999 C752.670276,563.159591 750.895715,630.111392 753.178632,687.874213 C753.277024,690.369107 753.453894,692.83391 753.534716,695.287769 C754.112181,712.686374 762.683958,726.733833 767.780405,742.02737 C768.512485,745.255413 770.01647,748.47525 769.257449,751.652684 C764.622505,771.056505 753.431639,787.511317 753.770153,806.054783 C753.832233,809.444229 753.701045,812.718777 753.699873,815.875694 C753.68816,850.532019 753.923597,871 753.923597,871" id="Stroke-95"></path>
                <path d="M766.435621,1 C766.435621,1 766.480445,12.2817368 766.560898,32.2737186 C766.570093,34.7631416 766.478146,37.3893461 766.59193,40.1372862 C767.471167,61.4150139 752.585058,78.7000901 746.207431,103.685964 C745.697129,105.688445 746.223522,107.690926 746.761408,109.707085 C753.186157,128.613022 766.663188,143.504422 767.083843,166.747699 C767.125219,169.044261 767.116024,171.361339 767.125219,173.693463 C767.326351,223.925096 767.557366,281.819227 767.798725,342.31631 C767.811368,345.391157 767.932048,348.47558 767.835504,351.562738 C767.640118,357.798606 768.119388,363.82383 769.227341,369.799813 C769.723851,372.509454 770.264036,375.217728 770.899615,377.900013 C773.28907,387.975337 779.297762,396.38603 782.295212,405.135942 C785.455866,414.360485 787.06033,422.976351 786.998266,432.763066 C786.949994,440.339393 783.27444,447.224973 780.727527,454.177575 C779.733357,456.589033 778.696663,458.999123 777.651923,461.390063 C776.20032,464.711118 774.76136,468.01439 773.606285,471.365537 C772.050093,475.873854 770.654808,479.974563 769.834187,484.745502 C769.306645,487.809407 768.853809,490.803553 768.403272,493.826424 C768.679111,562.708212 766.96891,629.709254 769.176771,687.530891 C769.273314,690.027153 769.443415,692.493324 769.522719,694.951287 C770.081293,712.377248 778.362208,726.494465 783.284784,741.818095 C783.992771,745.052977 785.444373,748.276916 784.71225,751.458454 C780.233315,770.932034 769.429623,787.46618 769.758331,806.00691 C769.818096,809.397723 769.690521,812.675007 769.689371,815.836027 C769.681326,850.514237 769.910043,871 769.910043,871" id="Stroke-97"></path>
                <path d="M781.48369,1 C781.48369,1 781.527682,12.2913115 781.606643,32.2983393 C781.615667,34.7877623 781.52317,37.4167024 781.6371,40.1687459 C782.51695,61.4984506 767.587692,78.6180212 761.208775,103.509516 C760.695529,105.511997 761.224568,107.51311 761.76263,109.529269 C768.197947,128.40101 781.69914,143.131008 782.117633,166.356504 C782.15937,168.654433 782.150346,170.974247 782.15937,173.307739 C782.355644,223.555786 782.583503,281.496422 782.820386,342.055057 C782.832794,345.13264 782.950107,348.219798 782.856482,351.306957 C782.668104,357.54556 783.131717,363.577623 784.202202,369.563181 C784.681608,372.275558 785.20275,374.989303 785.818646,377.675691 C788.131073,387.764693 794.058784,396.157605 797.088628,404.876057 C800.283162,414.066405 801.995487,422.648075 801.999999,432.425216 C802.002255,440.000175 798.348619,446.872076 795.76434,453.801426 C794.768305,456.200574 793.728276,458.598353 792.68148,460.976983 C791.226342,464.281624 789.784741,467.567115 788.627399,470.904583 C787.067356,475.404694 785.66862,479.488989 784.846298,484.258559 C784.318388,487.323833 783.863798,490.315244 783.413721,493.339482 C783.683316,562.256833 782.035288,629.307117 784.172874,687.18757 C784.265371,689.6852 784.431189,692.154106 784.506766,694.613437 C785.048212,712.06949 793.046956,726.255097 797.803789,741.610187 C798.486237,744.849172 799.888358,748.078583 799.183349,751.265592 C794.855162,770.804827 784.423293,787.42241 784.742521,805.959036 C784.800049,809.351217 784.678224,812.632605 784.677096,815.793625 C784.671456,850.497823 784.893674,871 784.893674,871" id="Stroke-99"></path>
                <path d="M798.030473,1 C798.030473,1 798.074716,12.2995184 798.154127,32.3215921 C798.164337,34.8137508 798.069044,37.4454265 798.184757,40.19747 C799.086635,61.5818873 783.751296,78.5345845 777.214662,103.3317 C776.687148,105.334181 777.230544,107.335294 777.783016,109.350085 C784.385447,128.187631 798.23921,142.758963 798.666893,165.963942 C798.708867,168.265974 798.698657,170.58442 798.707733,172.920648 C798.90626,223.186476 799.135416,281.174986 799.373648,341.793804 C799.386127,344.872755 799.502974,347.961281 799.411085,351.052543 C799.225037,357.292514 799.68335,363.332785 800.742915,369.325181 C801.218245,372.044397 801.732146,374.760878 802.342474,377.451369 C804.636308,387.552682 810.629546,395.927812 813.765134,404.61754 C817.069754,413.772325 818.931367,422.3198 818.999433,432.087366 C819.052752,439.660956 815.331794,446.517812 812.647712,453.426645 C811.625583,455.813482 810.558077,458.197583 809.483764,460.562535 C807.989708,463.85213 806.508132,467.121207 805.321509,470.444997 C803.718547,474.935533 802.284617,479.00615 801.441729,483.771617 C800.898333,486.838258 800.432079,489.829669 799.969228,492.85254 C800.241494,561.805454 798.613574,628.903612 800.73384,686.844248 C800.825729,689.344614 800.990223,691.814887 801.065096,694.275586 C801.601685,711.763099 809.517797,726.017098 814.224582,741.402279 C814.901842,744.646736 816.288125,747.88025 815.590446,751.07273 C811.305672,770.678988 800.989089,787.378639 801.305597,805.911163 C801.363453,809.306079 801.243203,812.588835 801.242068,815.752591 C801.238665,850.482777 801.45988,871 801.45988,871" id="Stroke-101"></path>
                <path d="M813.577286,1 C813.577286,1 813.621769,12.3090931 813.701612,32.344845 C813.711877,34.8383715 813.613785,37.471415 813.732408,40.2275619 C814.655158,61.6666918 798.914796,78.4511478 792.220579,103.15662 C791.678791,105.156365 792.236547,107.157478 792.802288,109.172269 C799.572925,127.976988 813.778032,142.385549 814.214884,165.571379 C814.258227,167.876147 814.247962,170.197329 814.257087,172.534924 C814.456693,222.817166 814.685955,280.853549 814.926623,341.532552 C814.939169,344.614238 815.05437,347.7055 814.963122,350.796762 C814.780625,357.040836 815.234586,363.087946 816.282803,369.08855 C816.752733,371.810501 817.259162,374.532453 817.864824,377.228416 C820.138051,387.342039 826.19581,395.699387 829.437412,404.359023 C832.853527,413.479612 834.864415,421.991524 834.997866,431.749515 C835.102802,439.321738 831.31485,446.16218 828.52949,453.050496 C827.481273,455.425023 826.386291,457.796813 825.284466,460.149455 C823.751491,463.422636 822.231063,466.6753 821.015177,469.984044 C819.369283,474.466373 817.900182,478.521944 817.034462,483.286043 C816.476706,486.354052 815.999933,489.342727 815.525441,492.365598 C815.798046,561.354075 814.193213,628.501474 816.294209,686.500927 C816.384317,689.00266 816.547424,691.475669 816.621563,693.937736 C817.154226,711.455341 824.983346,725.776362 829.64044,741.193003 C830.308835,744.442931 831.679844,747.681917 830.990918,750.8785 C826.751285,770.551781 816.554267,787.333502 816.869075,805.863289 C816.926105,809.260941 816.806341,812.545065 816.806341,815.712924 C816.805201,850.466364 817.025338,871 817.025338,871" id="Stroke-103"></path>
                <path d="M829.620477,1 C829.620477,1 829.665296,12.3159322 829.742608,32.3694657 C829.752692,34.8657277 829.655211,37.5001391 829.773981,40.2576539 C830.696123,61.7501285 814.915497,78.3677111 808.221841,102.978804 C807.677295,104.979917 808.237527,106.979662 808.803362,108.993085 C815.583294,127.764976 829.809836,142.013504 830.245696,165.180184 C830.288274,167.486319 830.277069,169.808869 830.287154,172.1492 C830.483235,222.447856 830.708448,280.530745 830.945987,341.271299 C830.957192,344.354354 831.069238,347.446983 830.981842,350.542348 C830.804808,356.787791 831.244031,362.843107 832.256931,368.851918 C832.710719,371.577973 833.199242,374.304028 833.786365,377.004094 C835.988078,387.131395 841.969119,395.47233 845.240876,404.099138 C848.688547,413.1869 850.799502,421.664617 850.995584,431.411665 C851.146846,438.98252 847.380964,445.807916 844.560754,452.675715 C843.510879,455.035195 842.413944,457.396044 841.310286,459.736375 C839.774129,462.99451 838.250297,466.229392 837.033472,469.524458 C835.381907,473.99858 833.911857,478.039105 833.044617,482.799101 C832.486626,485.868478 832.007067,488.857153 831.53199,491.880024 C831.800902,560.902696 830.25354,628.097969 832.288304,686.157605 C832.3757,688.660706 832.532565,691.135084 832.605395,693.598518 C833.120809,711.147583 840.685067,725.536995 845.183733,740.985096 C845.830241,744.241863 847.15463,747.482216 846.490195,750.685638 C842.392655,770.425942 832.547131,787.289731 832.851897,805.815416 C832.907921,809.215803 832.792513,812.502663 832.792513,815.67189 C832.793633,850.44995 833.007642,871 833.007642,871" id="Stroke-105"></path>
                <path d="M845.670112,1 C845.670112,1 845.715048,12.3255069 845.795704,32.3927185 C845.806074,34.8903484 845.703526,37.5274954 845.826814,40.2877458 C846.793528,61.8335652 830.238407,78.2842744 823.2329,102.802355 C822.661398,104.802101 823.249031,106.803214 823.842425,108.81527 C830.947023,127.551597 845.855619,141.64009 846.310747,164.788989 C846.355683,167.096492 846.344161,169.421777 846.353379,171.763477 C846.555018,222.078546 846.787767,280.209309 847.030885,341.008679 C847.04356,344.095837 847.156477,347.191202 847.067756,350.287934 C846.890314,356.53748 847.335072,362.5969 848.358245,368.615286 C848.817981,371.345444 849.311132,374.075602 849.905678,376.779772 C852.136379,386.920752 858.319201,395.242537 861.774713,403.840621 C865.412277,412.89282 867.724786,421.336341 867.992101,431.073815 C868.199501,438.643302 864.279643,445.453652 861.294237,452.298198 C860.192713,454.648104 859.041644,456.995274 857.884813,459.321927 C856.274007,462.563648 854.671267,465.782117 853.401519,469.063504 C851.662816,473.525316 850.128057,477.554899 849.220106,482.313527 C848.633626,485.384271 848.132409,488.368843 847.633497,491.393082 C847.91003,560.451318 846.349922,627.695831 848.411247,685.814284 C848.50112,688.318753 848.660127,690.795865 848.732717,693.260668 C849.255825,710.839824 856.90312,725.297627 861.452091,740.777188 C862.106553,744.038058 863.444282,747.285251 862.773689,750.492777 C858.629148,770.301471 848.680867,787.244594 848.990814,805.766174 C849.048425,809.169298 848.930899,812.458892 848.932051,815.630855 C848.934355,850.434904 849.153278,871 849.153278,871" id="Stroke-107"></path>
                <path d="M862.216948,0 C862.216948,0 862.263256,11.3350816 862.343137,31.4159714 C862.353557,33.9163369 862.248206,36.5562195 862.375553,39.3178377 C863.363076,60.9170019 846.400371,77.1994699 839.238802,101.62454 C838.653003,103.624285 839.25501,105.625398 839.862806,107.637454 C847.134356,126.340954 862.395234,140.268045 862.858317,163.397794 C862.904625,165.705297 862.893048,168.033318 862.902309,170.377753 C863.104908,220.709236 863.338764,278.887872 863.584198,339.748794 C863.595775,342.83732 863.708073,345.932685 863.621245,349.033521 C863.446431,355.284435 863.885202,361.353429 864.897036,367.377286 C865.350857,370.111548 865.834778,372.847177 866.42405,375.555451 C868.632953,385.70874 874.876461,394.014112 878.438722,402.580736 C882.188531,411.59874 884.654444,420.006698 884.987863,429.735965 C885.248347,437.304084 881.262366,444.100756 878.175922,450.923417 C877.048317,453.259644 875.868615,455.594504 874.685439,457.908847 C873.035708,461.135522 871.394082,464.336209 870.095136,467.603919 C868.313426,472.056156 866.74242,476.073428 865.812782,480.826585 C865.211932,483.898697 864.699069,486.883269 864.188521,489.90614 C864.465212,558.999939 862.930094,626.293693 864.969972,684.470962 C865.059115,686.976799 865.215406,689.456647 865.288341,691.924185 C865.805836,709.532066 873.358708,724.058259 877.851765,739.567912 C878.497765,742.835622 879.818707,746.08555 879.156499,749.299915 C875.062851,769.175632 865.244348,786.199456 865.552298,804.718301 C865.609026,808.122792 865.493255,811.41649 865.494413,814.589821 C865.500201,849.41849 865.716692,870 865.716692,870" id="Stroke-109"></path>
            </g>
        </g>
    </g>
</svg>