<?xml version="1.0" encoding="UTF-8"?>
<svg width="310px" height="37px" viewBox="0 0 310 37" version="1.1" xmlns="http://www.w3.org/2000/svg" xmlns:xlink="http://www.w3.org/1999/xlink">
    <!-- Generator: Sketch 47.1 (45422) - http://www.bohemiancoding.com/sketch -->
    <title>Page 1</title>
    <desc>Created with Sketch.</desc>
    <defs>
        <polygon id="path-1" points="0.000492460317 0.0385208333 33.8399034 0.0385208333 33.8399034 43 0.000492460317 43"></polygon>
        <polygon id="path-3" points="0.0877215634 43 26.9597233 43 26.9597233 0.0385208333 0.0877215634 0.0385208333 0.0877215634 43"></polygon>
        <polygon id="path-5" points="0.214687799 0.0385208333 62.8442953 0.0385208333 62.8442953 43 0.214687799 43 0.214687799 0.0385208333"></polygon>
        <polygon id="path-7" points="0.0352435345 43 26.8721573 43 26.8721573 0.0385208333 0.0352435345 0.0385208333 0.0352435345 43"></polygon>
        <polygon id="path-9" points="42.9120023 0.0385208333 0.137870391 0.0385208333 0.137870391 42.9997585 42.9120023 42.9997585 42.9120023 0.0385208333"></polygon>
        <polygon id="path-11" points="0.251090399 0.0385208333 42.5578452 0.0385208333 42.5578452 43 0.251090399 43"></polygon>
        <polygon id="path-13" points="0.209529379 43 27.9081695 43 27.9081695 0.0385208333 0.209529379 0.0385208333"></polygon>
    </defs>
    <g id="mobile-small" stroke="none" stroke-width="1" fill="none" fill-rule="evenodd">
        <g id="OUR-DREAM" transform="translate(-24.000000, -603.000000)">
            <g id="Page-1" transform="translate(24.000000, 603.000000)">
                <g id="Group-3">
                    <mask id="mask-2" fill="white">
                        <use xlink:href="#path-1"></use>
                    </mask>
                    <g id="Clip-2"></g>
                    <path d="M19.4083536,29.6196503 C19.4083536,29.6196503 19.7850857,29.991538 20.4277464,30.6109483 C20.7490768,30.9200497 21.134427,31.2919374 21.5690232,31.7097073 C25.4766958,35.473259 33.2908099,43.0003622 33.2908099,43.0003622 L21.8398764,43.0003622 C21.8398764,43.0003622 12.9312692,33.965182 9.96173353,30.9526503 C9.3670877,30.3501439 9.01128512,29.9891231 9.01128512,29.9891231 C9.01128512,29.9891231 9.01128512,30.1931784 9.01128512,30.548162 L9.01128512,43.0003622 L0.000492460317,43.0003622 L0.000492460317,30.6507934 C0.00541706349,30.2414755 0.0164974206,29.8261204 0.0669746032,29.4059356 C4.71456885,24.1862264 2.87399841,20.2753686 0.0115728175,14.9035235 C0.0041859127,14.4748867 0.0029547619,14.0510796 0.000492460317,13.6308948 L0.000492460317,0.0376756341 L15.0820897,0.0376756341 C25.1713704,0.0376756341 31.5241085,5.86472092 32.278804,13.5210189 C32.32805,14.0305534 32.3539042,14.5497472 32.3539042,15.0749782 C37.5395113,23.5849274 28.0288714,27.1951358 21.0950302,29.1970506 C20.5397812,29.3564311 19.9783764,29.4964927 19.4083536,29.6196503 M12.3255431,23.1152381 C16.0657792,22.6829791 20.9731462,24.1862264 23.4280609,20.8778749 C24.9620748,19.3734202 23.4280609,17.2676666 23.2199964,15.2597146 C23.2175341,14.6149483 23.1645946,14.0100271 23.0624091,13.4425361 C22.3483417,9.4725144 19.2187563,7.40419103 14.8937236,7.40419103 L9.01128512,7.40419103 L9.01128512,14.086095 C9.02482778,14.4748867 9.03960159,14.8673006 9.0666869,15.2597146 C9.00882282,17.8689655 11.157181,19.3734202 12.047303,21.4815887 C12.398181,22.4873758 12.3255431,23.1152381 12.3255431,23.1152381" id="Fill-1" fill="#FFFFFF" mask="url(#mask-2)"></path>
                </g>
                <g id="Group-6" transform="translate(44.000000, 0.000000)">
                    <mask id="mask-4" fill="white">
                        <use xlink:href="#path-3"></use>
                    </mask>
                    <g id="Clip-5"></g>
                    <path d="M0.0959741379,0.0380378623 L26.3809009,0.0380378623 L26.3809009,7.52650344 L8.89770259,7.52650344 L8.89770259,14.3726176 C8.89770259,14.7276013 8.89890517,15.0765478 8.91814655,15.4146275 C10.1279483,22.3814844 20.0168147,17.2668214 25.1109698,19.372575 C27.8083707,20.5763803 27.5077241,25.3903938 24.5120819,26.2935496 C19.7173707,27.4961475 14.9226595,25.9916928 9.82850431,26.8948486 C9.22961638,27.195498 8.92896983,28.6999527 8.9049181,29.9218694 C8.89770259,30.2853051 8.89770259,30.6584002 8.89770259,31.0314953 L8.89770259,35.5110514 L26.9304828,35.5110514 L26.9304828,43.0007245 L0.0959741379,43.0007245 L0.0959741379,30.6511556 C0.0959741379,30.2406303 0.0971767241,29.8264826 0.122431034,29.4062978 C0.538525862,25.9916928 5.63268103,24.4884455 3.53537069,20.8770297 C2.03815086,19.0719255 -0.060362069,17.5674708 0.0959741379,14.9038857 L0.0959741379,13.6312571 L0.0959741379,0.0380378623 Z" id="Fill-4" fill="#FFFFFF" mask="url(#mask-4)"></path>
                </g>
                <g id="Group-9" transform="translate(79.000000, 0.000000)">
                    <mask id="mask-6" fill="white">
                        <use xlink:href="#path-5"></use>
                    </mask>
                    <g id="Clip-8"></g>
                    <path d="M45.0383029,28.6377702 C49.4855482,25.0891407 50.6969972,20.8776334 48.8889369,15.5287294 C48.9824991,15.1326932 49.1027935,14.7354495 49.2243029,14.3382059 C51.4005369,7.18782002 53.5779859,0.0374341486 53.5779859,0.0374341486 L62.8442953,0.0374341486 C62.8442953,0.0374341486 60.7154501,6.3933327 58.0944916,14.2150483 C57.9632614,14.6062548 57.8320312,15.0010836 57.7044463,15.3995347 C60.083601,21.7795818 56.4492538,25.0891407 52.8124765,29.9840519 C52.6848916,30.3680139 52.5573067,30.7459387 52.4321519,31.1202412 C50.1769369,37.8528572 48.452718,43.0001207 48.452718,43.0001207 L41.2873067,43.0001207 C41.2873067,43.0001207 39.360167,37.2527657 37.2179557,30.8678889 C37.0842953,30.4694378 36.950635,30.0673644 36.8364161,29.665291 C38.2835935,24.1871923 36.7695859,19.6738282 32.3393519,16.0624124 C32.1121293,15.6144568 31.9723935,15.2256651 31.8654652,14.9056968 C31.6503935,14.2669677 31.5300991,13.9083617 31.5300991,13.9083617 C31.5300991,13.9083617 31.4098048,14.2669677 31.1959482,14.9056968 C30.1084387,17.5680745 33.4390123,19.9744776 32.2275633,22.6827376 C31.3186727,25.3909976 27.3829821,26.5935954 26.260235,29.665291 C26.1095633,30.0673644 25.9746878,30.4694378 25.8410274,30.8678889 C23.6988161,37.2527657 21.7716765,43.0001207 21.7716765,43.0001207 L14.6050501,43.0001207 C14.6050501,43.0001207 12.8808312,37.8528572 10.6256161,31.1202412 C10.5004614,30.7459387 10.3740916,30.3680139 10.2452916,29.9840519 C12.5466803,23.584686 9.82243874,19.9744776 5.3666878,15.3995347 C5.22695195,15.0010836 5.09450667,14.6062548 4.96327648,14.2150483 C2.34353308,6.3933327 0.214687799,0.0374341486 0.214687799,0.0374341486 L9.48099723,0.0374341486 C9.48099723,0.0374341486 11.6584463,7.18782002 13.8346803,14.3382059 C13.9549746,14.7354495 14.0776991,15.1326932 14.2283708,15.5287294 C17.3912614,19.6738282 22.8421746,23.2840365 18.3001519,28.7005564 C23.1447331,25.0891407 24.9612991,21.1782829 22.6720614,15.5287294 C22.7972161,15.1326932 22.9320916,14.7354495 23.0681821,14.3382059 C25.5080916,7.18782002 27.948001,0.0374341486 27.948001,0.0374341486 L35.1109821,0.0374341486 C35.1109821,0.0374341486 37.5508916,7.18782002 39.990801,14.3382059 C40.1256765,14.7354495 40.261767,15.1326932 40.4197293,15.5287294 C42.824401,19.6738282 48.5778727,22.3820881 45.1124236,27.657339 C45.0297972,28.2852014 45.0383029,28.6377702 45.0383029,28.6377702" id="Fill-7" fill="#FFFFFF" mask="url(#mask-6)"></path>
                </g>
                <g id="Group-12" transform="translate(153.000000, 0.000000)">
                    <mask id="mask-8" fill="white">
                        <use xlink:href="#path-7"></use>
                    </mask>
                    <g id="Clip-11"></g>
                    <path d="M0.0352435345,0.0380378623 L26.3201703,0.0380378623 L26.3201703,7.52650344 L8.83697198,7.52650344 L8.83697198,14.3726176 C8.84539009,14.7276013 8.85140302,15.0765478 8.86583405,15.4146275 C8.57721336,16.9661719 9.47674784,18.4706266 10.0756358,18.7712761 C15.1697909,20.8770297 25.0586573,15.7623667 25.9581918,22.6821339 C26.2576358,23.8859391 25.3581013,25.9916928 24.4597694,26.2935496 C19.6650582,27.4961475 14.570903,25.9916928 9.77619181,26.8948486 C9.17730388,26.8948486 9.17730388,28.0986538 8.96685129,28.8750297 C8.89349353,29.2058649 8.86583405,29.5584337 8.83697198,29.9218694 L8.83697198,35.5110514 L26.8721573,35.5110514 L26.8721573,43.0007245 L0.0352435345,43.0007245 L0.0352435345,30.6511556 C0.0352435345,30.2406303 0.0364461207,29.8264826 0.0701185345,29.4062978 C4.9814806,24.1865886 3.18361422,20.2757308 0.0352435345,14.9038857 L0.0352435345,13.6312571 L0.0352435345,0.0380378623 Z" id="Fill-10" fill="#FFFFFF" mask="url(#mask-8)"></path>
                </g>
                <g id="Group-15" transform="translate(187.000000, 0.000000)">
                    <mask id="mask-10" fill="white">
                        <use xlink:href="#path-9"></use>
                    </mask>
                    <g id="Clip-14"></g>
                    <path d="M30.995752,36.6160891 L12.0541207,36.6160891 L9.54576111,42.9997585 L0.137870391,42.9997585 C0.137870391,42.9997585 2.26497906,37.8524949 5.04724707,31.119879 C5.20147479,30.7467839 5.35817015,30.3676516 5.51856697,29.9848971 C6.85232827,26.89509 9.61979042,25.6912848 11.7715755,23.2836743 C13.616139,20.5766217 10.5414553,18.1702187 11.5507214,15.3991725 C11.706183,15.0007214 11.8702813,14.6058926 12.0294443,14.2158935 C15.2608234,6.39297047 17.886396,0.0382793478 17.886396,0.0382793478 L25.1634766,0.0382793478 C25.1634766,0.0382793478 27.7890493,6.39297047 31.0204284,14.2158935 C31.1795914,14.6058926 31.3461573,15.0007214 31.5151909,15.3991725 C33.6003496,19.6746734 39.7484833,21.780427 37.2894766,27.4963889 C36.982255,28.0988953 37.2894766,29.0008437 37.5350071,29.9848971 C37.6917025,30.3676516 37.8483979,30.7467839 38.0026256,31.119879 C40.7848936,37.8524949 42.9120023,42.9997585 42.9120023,42.9997585 L33.5016439,42.9997585 L30.995752,36.6160891 Z M14.986915,29.2519886 C19.1498295,29.3014931 24.68352,30.8059478 27.4509821,28.7001942 C32.9846726,23.8861806 26.2208618,19.6746734 22.5625804,15.1673464 C22.3466616,14.6457377 22.1665236,14.1820855 22.0122959,13.7957087 C21.7075419,13.0229551 21.5237025,12.5593029 21.5237025,12.5593029 C21.5237025,12.5593029 21.3423307,13.0229551 21.0375767,13.7957087 C20.883349,14.1820855 20.7019772,14.6457377 20.5057996,15.1673464 C21.3016146,20.5766217 20.3799498,24.7893364 15.7901329,28.0155828 C15.2361469,28.7883364 14.986915,29.2519886 14.986915,29.2519886 L14.986915,29.2519886 Z" id="Fill-13" fill="#FFFFFF" mask="url(#mask-10)"></path>
                </g>
                <g id="Group-18" transform="translate(230.000000, 0.000000)">
                    <mask id="mask-12" fill="white">
                        <use xlink:href="#path-11"></use>
                    </mask>
                    <g id="Clip-17"></g>
                    <path d="M21.4044678,30.4792179 C21.4044678,30.4792179 21.5228476,30.1749462 21.7730318,29.6267741 C23.0581242,26.2930667 27.6200191,25.3899109 27.6200191,21.7797025 C27.6200191,19.6739489 26.7083724,17.2675458 27.3429859,15.2583864 C27.4772311,14.8780467 27.6236804,14.4977071 27.7725705,14.1185748 C30.5795149,6.90661014 33.2522142,0.0375548913 33.2522142,0.0375548913 L42.5578452,0.0375548913 C42.5578452,0.0375548913 39.9608114,6.39345344 36.764556,14.215169 C36.6034618,14.6063755 36.4423676,15.0012043 36.2995795,15.398448 C35.2231774,18.1694942 37.959338,20.8777542 36.1348241,23.2841572 C34.3103102,25.6917678 31.2690469,26.8943656 30.3207879,29.9841726 C30.1657957,30.3669272 30.0108036,30.7460594 29.8558114,31.120362 C27.1062263,37.8517705 25.0022383,43.0002415 25.0022383,43.0002415 L17.8042565,43.0002415 C17.8042565,43.0002415 15.7027094,37.8517705 12.9506834,31.120362 C12.7981321,30.7460594 12.6431399,30.3669272 12.4857069,29.9841726 C11.1993941,27.4968719 13.6316725,25.0892614 13.023908,22.6828583 C12.1110409,19.6739489 7.85424861,18.7707931 6.5435276,15.398448 C6.36412723,15.0012043 6.20303303,14.6063755 6.04437965,14.215169 C2.84568339,6.39345344 0.251090399,0.0375548913 0.251090399,0.0375548913 L9.55672144,0.0375548913 C9.55672144,0.0375548913 12.2294207,6.90661014 15.0363652,14.1185748 C15.1828144,14.4977071 15.3317045,14.8780467 15.4830354,15.2583864 C16.6729358,18.7707931 21.8425952,19.3732995 22.4503597,22.9835078 C22.754242,25.0892614 20.3219636,27.1962225 21.0944835,29.6267741 C21.286088,30.1749462 21.4044678,30.4792179 21.4044678,30.4792179" id="Fill-16" fill="#FFFFFF" mask="url(#mask-12)"></path>
                </g>
                <g id="Group-21" transform="translate(282.000000, 0.000000)">
                    <mask id="mask-14" fill="white">
                        <use xlink:href="#path-13"></use>
                    </mask>
                    <g id="Clip-20"></g>
                    <path d="M0.209529379,0.0380378623 L27.0071904,0.0380378623 L27.0071904,7.52650344 L9.18499266,7.52650344 L9.18499266,14.3726176 C9.19357458,14.7276013 9.20338249,15.0765478 9.22177232,15.4146275 C8.92876102,16.9661719 10.1498458,18.4706266 10.7616141,18.7712761 C16.2601734,20.8770297 26.3414785,15.4617172 27.8690605,22.6821339 C28.1743316,24.1865886 26.6467497,25.9916928 25.424439,26.2935496 C20.2311508,27.195498 15.3431339,25.9916928 10.4551169,26.8948486 C9.2340322,26.8948486 9.2340322,28.6999527 9.21809435,29.9218694 C9.19970452,30.2853051 9.1911226,30.6584002 9.18499266,31.0314953 L9.18499266,35.5110514 L27.5662412,35.5110514 L27.5662412,43.0007245 L0.209529379,43.0007245 L0.209529379,30.6511556 C0.209529379,30.2406303 0.213207345,29.8264826 0.261020904,29.4062978 C4.65128644,24.1865886 3.42897571,20.2757308 0.209529379,14.9038857 L0.209529379,13.6312571 L0.209529379,0.0380378623 Z" id="Fill-19" fill="#FFFFFF" mask="url(#mask-14)"></path>
                </g>
            </g>
        </g>
    </g>
</svg>