<?xml version="1.0" encoding="UTF-8"?>
<svg width="876px" height="124px" viewBox="0 0 876 124" version="1.1" xmlns="http://www.w3.org/2000/svg" xmlns:xlink="http://www.w3.org/1999/xlink">
    <!-- Generator: Sketch 47.1 (45422) - http://www.bohemiancoding.com/sketch -->
    <title>Page 1</title>
    <desc>Created with Sketch.</desc>
    <defs>
        <polygon id="path-1" points="0.00138571429 0.454861111 95.2207436 0.454861111 95.2207436 124 0.00138571429 124"></polygon>
        <polygon id="path-3" points="0.929684353 124 78.2067549 124 78.2067549 0.454861111 0.929684353 0.454861111 0.929684353 124"></polygon>
        <polygon id="path-5" points="0.262233962 0.454861111 178.23146 0.454861111 178.23146 124 0.262233962 124 0.262233962 0.454861111"></polygon>
        <polygon id="path-7" points="0.778770833 124 77.9549375 124 77.9549375 0.454861111 0.778770833 0.454861111 0.778770833 124"></polygon>
        <polygon id="path-9" points="119.435189 0.454861111 0.0231888889 0.454861111 0.0231888889 123.999306 119.435189 123.999306 119.435189 0.454861111"></polygon>
        <polygon id="path-11" points="0.346966667 0.454861111 119.752078 0.454861111 119.752078 124 0.346966667 124"></polygon>
        <polygon id="path-13" points="0.268470833 124 78.40225 124 78.40225 0.454861111 0.268470833 0.454861111"></polygon>
    </defs>
    <g id="Page-1" stroke="none" stroke-width="1" fill="none" fill-rule="evenodd">
        <g id="Our-dream" transform="translate(-1005.000000, -1066.000000)">
            <g id="Page-1" transform="translate(1005.000000, 1066.000000)">
                <g id="Group-3">
                    <mask id="mask-2" fill="white">
                        <use xlink:href="#path-1"></use>
                    </mask>
                    <g id="Clip-2"></g>
                    <path d="M54.6123857,85.521875 C54.6123857,85.521875 55.6724571,86.5913194 57.4808143,88.3725694 C58.3849929,89.2614583 59.4693143,90.3309028 60.6922071,91.5322917 C71.68785,102.355208 93.6756714,124.001042 93.6756714,124.001042 L61.45435,124.001042 C61.45435,124.001042 36.3867786,98.0184028 28.0309214,89.3552083 C26.3576714,87.6225694 25.3564929,86.584375 25.3564929,86.584375 C25.3564929,86.584375 25.3564929,87.1711806 25.3564929,88.1920139 L25.3564929,124.001042 L0.00138571429,124.001042 L0.00138571429,88.4871528 C0.0152428571,87.3100694 0.0464214286,86.115625 0.188457143,84.9072917 C13.2661357,69.896875 8.08702857,58.6503472 0.0325642857,43.2024306 C0.0117785714,41.9697917 0.00831428571,40.7510417 0.00138571429,39.5427083 L0.00138571429,0.452430556 L42.4388857,0.452430556 C70.8287071,0.452430556 88.7044214,17.209375 90.8280286,39.2267361 C90.9666,40.6920139 91.03935,42.1850694 91.03935,43.6954861 C105.630921,68.1677083 78.8693143,78.5496528 59.3584571,84.3065972 C57.7960643,84.7649306 56.21635,85.1677083 54.6123857,85.521875 M34.68235,66.8170139 C45.20685,65.5739583 59.0154929,69.896875 65.9232786,60.3829861 C70.2397786,56.0565972 65.9232786,50.0010417 65.3378143,44.2267361 C65.3308857,42.3725694 65.1819214,40.6329861 64.8943857,39.0010417 C62.8851,27.584375 54.0788857,21.6364583 41.90885,21.6364583 L25.3564929,21.6364583 L25.3564929,40.8517361 C25.3946,41.9697917 25.4361714,43.0982639 25.5123857,44.2267361 C25.3495643,51.7302083 31.3947429,56.0565972 33.8994214,62.1190972 C34.8867429,65.0114583 34.68235,66.8170139 34.68235,66.8170139" id="Fill-1" fill="#0000FF" mask="url(#mask-2)"></path>
                </g>
                <g id="Group-6" transform="translate(123.000000, 0.000000)">
                    <mask id="mask-4" fill="white">
                        <use xlink:href="#path-3"></use>
                    </mask>
                    <g id="Clip-5"></g>
                    <path d="M0.953416667,0.453472222 L76.5422083,0.453472222 L76.5422083,21.9881944 L26.2649583,21.9881944 L26.2649583,41.6756944 C26.2649583,42.6965278 26.2684167,43.7 26.32375,44.6722222 C29.8028333,64.7069444 58.2407083,49.9986111 72.8902083,56.0541667 C80.64725,59.5159722 79.7826667,73.3597222 71.1679583,75.9569444 C57.3795833,79.4152778 43.5912083,75.0888889 28.9417083,77.6861111 C27.2194583,78.5506944 26.354875,82.8770833 26.2857083,86.3909722 C26.2649583,87.4361111 26.2649583,88.5090278 26.2649583,89.5819444 L26.2649583,102.463889 L78.1226667,102.463889 L78.1226667,124.002083 L0.953416667,124.002083 L0.953416667,88.4881944 C0.953416667,87.3076389 0.956875,86.1166667 1.0295,84.9083333 C2.22608333,75.0888889 16.8755833,70.7659722 10.84425,60.3805556 C6.538625,55.1895833 0.503833333,50.8631944 0.953416667,43.2034722 L0.953416667,39.54375 L0.953416667,0.453472222 Z" id="Fill-4" fill="#0000FF" mask="url(#mask-4)"></path>
                </g>
                <g id="Group-9" transform="translate(224.000000, 0.000000)">
                    <mask id="mask-6" fill="white">
                        <use xlink:href="#path-5"></use>
                    </mask>
                    <g id="Clip-8"></g>
                    <path d="M127.633687,82.6982639 C140.271045,72.4934028 143.713517,60.3822917 138.575706,45.0003472 C138.841574,43.8614583 139.183404,42.7190972 139.528687,41.5767361 C145.712706,21.0142361 151.900177,0.451736111 151.900177,0.451736111 L178.23146,0.451736111 C178.23146,0.451736111 172.182102,18.7295139 164.734347,41.2225694 C164.361442,42.3475694 163.988536,43.4829861 163.625989,44.6288194 C170.38663,62.9760417 160.059215,72.4934028 149.724894,86.5697917 C149.362347,87.6739583 148.9998,88.7607639 148.644158,89.8371528 C142.235706,109.198264 137.33614,124.000347 137.33614,124.000347 L116.9748,124.000347 C116.9748,124.000347 111.498611,107.472569 105.411272,89.1114583 C105.03146,87.965625 104.651649,86.809375 104.327083,85.653125 C108.439404,69.8996528 104.137177,56.9204861 91.5481585,46.5350694 C90.9024792,45.246875 90.5054038,44.1288194 90.2015547,43.2086806 C89.5904038,41.371875 89.2485736,40.340625 89.2485736,40.340625 C89.2485736,40.340625 88.9067434,41.371875 88.2990453,43.2086806 C85.2087623,50.8649306 94.6729698,57.7850694 91.2304981,65.5732639 C88.6477811,73.3614583 77.4640642,76.8197917 74.2736491,85.653125 C73.8454981,86.809375 73.462234,87.965625 73.0824226,89.1114583 C66.995083,107.472569 61.5188943,124.000347 61.5188943,124.000347 L41.1541019,124.000347 C41.1541019,124.000347 36.2545358,109.198264 29.846083,89.8371528 C29.4904415,88.7607639 29.1313472,87.6739583 28.7653472,86.5697917 C35.3050075,68.1670139 27.5637623,57.7850694 14.902234,44.6288194 C14.5051585,43.4829861 14.1288,42.3475694 13.7558943,41.2225694 C6.31159245,18.7295139 0.262233962,0.451736111 0.262233962,0.451736111 L26.593517,0.451736111 C26.593517,0.451736111 32.7809887,21.0142361 38.9650075,41.5767361 C39.3068377,42.7190972 39.6555736,43.8614583 40.0837245,45.0003472 C49.0714415,56.9204861 64.5608377,67.3024306 51.6541585,82.8788194 C65.4205925,72.4934028 70.5825736,61.246875 64.0774415,45.0003472 C64.433083,43.8614583 64.8163472,42.7190972 65.2030642,41.5767361 C72.1363472,21.0142361 79.0696302,0.451736111 79.0696302,0.451736111 L99.4240642,0.451736111 C99.4240642,0.451736111 106.357347,21.0142361 113.29063,41.5767361 C113.673894,42.7190972 114.060611,43.8614583 114.509479,45.0003472 C121.34263,56.9204861 137.691781,64.7086806 127.844309,79.8788194 C127.609517,81.684375 127.633687,82.6982639 127.633687,82.6982639" id="Fill-7" fill="#0000FF" mask="url(#mask-6)"></path>
                </g>
                <g id="Group-12" transform="translate(430.000000, 0.000000)">
                    <mask id="mask-8" fill="white">
                        <use xlink:href="#path-7"></use>
                    </mask>
                    <g id="Clip-11"></g>
                    <path d="M0.778770833,0.453472222 L76.3675625,0.453472222 L76.3675625,21.9881944 L26.0903125,21.9881944 L26.0903125,41.6756944 C26.1145208,42.6965278 26.1318125,43.7 26.1733125,44.6722222 C25.3433125,49.1340278 27.9301458,53.4604167 29.6523958,54.325 C44.3018958,60.3805556 72.7397708,45.6722222 75.3266042,65.5715278 C76.1877292,69.0333333 73.6008958,75.0888889 71.0175208,75.9569444 C57.2291458,79.4152778 42.5796458,75.0888889 28.7912708,77.6861111 C27.0690208,77.6861111 27.0690208,81.1479167 26.4638125,83.3805556 C26.2528542,84.3319444 26.1733125,85.3458333 26.0903125,86.3909722 L26.0903125,102.463889 L77.9549375,102.463889 L77.9549375,124.002083 L0.778770833,124.002083 L0.778770833,88.4881944 C0.778770833,87.3076389 0.782229167,86.1166667 0.8790625,84.9083333 C15.0028958,69.8979167 9.8326875,58.6513889 0.778770833,43.2034722 L0.778770833,39.54375 L0.778770833,0.453472222 Z" id="Fill-10" fill="#0000FF" mask="url(#mask-8)"></path>
                </g>
                <g id="Group-15" transform="translate(528.000000, 0.000000)">
                    <mask id="mask-10" fill="white">
                        <use xlink:href="#path-9"></use>
                    </mask>
                    <g id="Clip-14"></g>
                    <path d="M86.1687444,105.641667 L33.2896333,105.641667 L26.2870778,123.999306 L0.0231888889,123.999306 C0.0231888889,123.999306 5.96141111,109.197222 13.7286333,89.8361111 C14.1591889,88.7631944 14.5966333,87.6729167 15.0444111,86.5722222 C18.7678556,77.6868056 26.4937444,74.225 32.5008556,67.3013889 C37.6503,59.5166667 29.0667444,52.5965278 31.8843,44.6277778 C32.3183,43.4819444 32.7764111,42.3465278 33.2207444,41.225 C42.2417444,18.7284722 49.5715222,0.454166667 49.5715222,0.454166667 L69.8868556,0.454166667 C69.8868556,0.454166667 77.2166333,18.7284722 86.2376333,41.225 C86.6819667,42.3465278 87.1469667,43.4819444 87.6188556,44.6277778 C93.4399667,56.9229167 110.603633,62.9784722 103.738856,79.4159722 C102.881189,81.1486111 103.738856,83.7423611 104.4243,86.5722222 C104.861744,87.6729167 105.299189,88.7631944 105.729744,89.8361111 C113.496967,109.197222 119.435189,123.999306 119.435189,123.999306 L93.1644111,123.999306 L86.1687444,105.641667 Z M41.4770778,84.4645833 C53.0986333,84.6069444 68.5469667,88.9333333 76.2728556,82.8777778 C91.7211889,69.0340278 72.8387444,56.9229167 62.6259667,43.9611111 C62.0231889,42.4611111 61.5203,41.1277778 61.0897444,40.0166667 C60.2389667,37.7944444 59.7257444,36.4611111 59.7257444,36.4611111 C59.7257444,36.4611111 59.2194111,37.7944444 58.3686333,40.0166667 C57.9380778,41.1277778 57.4317444,42.4611111 56.8840778,43.9611111 C59.1057444,59.5166667 56.5327444,71.63125 43.7194111,80.9090278 C42.1728556,83.13125 41.4770778,84.4645833 41.4770778,84.4645833 L41.4770778,84.4645833 Z" id="Fill-13" fill="#0000FF" mask="url(#mask-10)"></path>
                </g>
                <g id="Group-18" transform="translate(649.000000, 0.000000)">
                    <mask id="mask-12" fill="white">
                        <use xlink:href="#path-11"></use>
                    </mask>
                    <g id="Clip-17"></g>
                    <path d="M60.0495222,87.99375 C60.0495222,87.99375 60.3836333,87.11875 61.0897444,85.5423611 C64.7167444,75.9555556 77.5920778,73.3583333 77.5920778,62.9763889 C77.5920778,56.9208333 75.0190778,50.0006944 76.8101889,44.2229167 C77.1890778,43.1291667 77.6024111,42.0354167 78.0226333,40.9451389 C85.9448556,20.2055556 93.4881889,0.452083333 93.4881889,0.452083333 L119.752078,0.452083333 C119.752078,0.452083333 112.4223,18.7298611 103.4013,41.2229167 C102.946633,42.3479167 102.491967,43.4833333 102.088967,44.6256944 C99.0509667,52.5944444 106.773411,60.3826389 101.623967,67.3027778 C96.4745222,74.2263889 87.8909667,77.6847222 85.2146333,86.5701389 C84.7771889,87.6708333 84.3397444,88.7611111 83.9023,89.8375 C76.1419667,109.195139 70.2037444,124.000694 70.2037444,124.000694 L49.8884111,124.000694 C49.8884111,124.000694 43.9570778,109.195139 36.1898556,89.8375 C35.7593,88.7611111 35.3218556,87.6708333 34.8775222,86.5701389 C31.2470778,79.4173611 38.1118556,72.49375 36.3965222,65.5736111 C33.8200778,56.9208333 21.8058556,54.3236111 18.1065222,44.6256944 C17.6001889,43.4833333 17.1455222,42.3479167 16.6977444,41.2229167 C7.66985556,18.7298611 0.346966667,0.452083333 0.346966667,0.452083333 L26.6108556,0.452083333 C26.6108556,0.452083333 34.1541889,20.2055556 42.0764111,40.9451389 C42.4897444,42.0354167 42.9099667,43.1291667 43.3370778,44.2229167 C46.6954111,54.3236111 61.2860778,56.05625 63.0014111,66.4381944 C63.8590778,72.49375 56.9943,78.5527778 59.1746333,85.5423611 C59.7154111,87.11875 60.0495222,87.99375 60.0495222,87.99375" id="Fill-16" fill="#0000FF" mask="url(#mask-12)"></path>
                </g>
                <g id="Group-21" transform="translate(797.000000, 0.000000)">
                    <mask id="mask-14" fill="white">
                        <use xlink:href="#path-13"></use>
                    </mask>
                    <g id="Clip-20"></g>
                    <path d="M0.268470833,0.453472222 L75.8607208,0.453472222 L75.8607208,21.9881944 L25.5869292,21.9881944 L25.5869292,41.6756944 C25.6111375,42.6965278 25.6388042,43.7 25.6906792,44.6722222 C24.8641375,49.1340278 28.3086375,53.4604167 30.0343458,54.325 C45.5449708,60.3805556 73.9828458,44.8076389 78.2919292,65.5715278 C79.1530542,69.8979167 74.8439708,75.0888889 71.3960125,75.9569444 C56.7465125,78.5506944 42.9581375,75.0888889 29.1697625,77.6861111 C25.7252625,77.6861111 25.7252625,82.8770833 25.6803042,86.3909722 C25.6284292,87.4361111 25.6042208,88.5090278 25.5869292,89.5819444 L25.5869292,102.463889 L77.4377208,102.463889 L77.4377208,124.002083 L0.268470833,124.002083 L0.268470833,88.4881944 C0.268470833,87.3076389 0.278845833,86.1166667 0.413720833,84.9083333 C12.7980125,69.8979167 9.35005417,58.6513889 0.268470833,43.2034722 L0.268470833,39.54375 L0.268470833,0.453472222 Z" id="Fill-19" fill="#0000FF" mask="url(#mask-14)"></path>
                </g>
            </g>
        </g>
    </g>
</svg>