<svg xmlns="http://www.w3.org/2000/svg" viewBox="0 0 1589.9 843.35"><defs><style>.cls-1{fill:none;stroke:#00ffa3;stroke-miterlimit:10;}</style></defs><title>main page</title><g id="Layer_2" data-name="Layer 2"><g id="Layer_1-2" data-name="Layer 1"><path class="cls-1" d="M.5,7.38l1.62,340,0,8.59c-2,18.39,12.94,33.57,10.89,51.69S-.63,442.06,2.65,460.16l0,8.67,1,214.06c.27,2.31.38,4.6.52,6.87.65,15.37,13.48,25.79,21,39.1,1.08,2.85,3.22,5.7,2.17,8.57C20,752.72,3,765.19,4.35,783.12c-.07,3.14-.09,6.18-.12,9.1l.24,51.13"/><path class="cls-1" d="M14.48,7.31l.14,29.77,0,7.5c.11,16.55-.08,37.81-.08,62.88,0,1.9,0,3.83,0,5.78.2,17.46.53,36.48.63,57q0,3.3,0,6.64l.81,170.34c0,2.86.19,5.73,0,8.59a44.68,44.68,0,0,0,.11,8A49.88,49.88,0,0,0,18,371.71c3.56,11.9,10.47,23.09,9.15,35.71a89.28,89.28,0,0,1-4.4,18.3c-3.68,11.3-8,22.31-6,34.12q0,4.34,0,8.66,0,2.24,0,4.48,0,4.4,0,8.79c.34,72.19-2.61,142.2,1,200.87.14,2.32.39,4.6.51,6.88C19,704.88,31.56,715.36,39,728.68c1.07,2.86,3.33,5.76,2.15,8.58C34.59,752.93,17.86,765.07,18.33,783c.08,3.14-.11,6.18-.12,9.11-.07,32.2.24,51.15.24,51.15"/><path class="cls-1" d="M28.45,7.24,28.59,37l0,7.5c.14,16.62-.34,37.74-.45,62.75,0,1.91,0,3.83,0,5.78.31,17.44.88,36.34,1,56.82q0,3.3,0,6.64l.81,170.43c0,2.86.19,5.73,0,8.6a45.14,45.14,0,0,0,.11,8,50.37,50.37,0,0,0,1.72,7.91c3.53,11.92,10.49,23.08,9.27,35.66A88.06,88.06,0,0,1,37,425.43c-3.61,11.31-8.1,22.29-6.17,34.08q0,4.33-.06,8.64,0,2.23,0,4.47c0,2.93,0,5.86,0,8.79.34,72.21-2.58,142.25,1,201,.14,2.32.39,4.6.51,6.88.79,15.38,13.24,25.91,20.62,39.24,1.06,2.86,3.3,5.77,2.13,8.59C48.41,752.79,31.84,765,32.3,782.94c.08,3.14-.11,6.18-.12,9.11-.07,32.21.24,51.17.24,51.17"/><path class="cls-1" d="M42.43,7.18,42.57,37c0,2.37,0,4.88,0,7.51.12,16.68-.6,37.68-.82,62.62,0,1.91,0,3.83.06,5.78.43,17.43,1.24,36.19,1.36,56.69q0,3.3,0,6.64L44,346.72c0,2.86.19,5.73,0,8.6a45.61,45.61,0,0,0,.11,8.05,50.87,50.87,0,0,0,1.71,7.92c3.51,11.94,10.51,23.07,9.39,35.61a86.86,86.86,0,0,1-4.09,18.24c-3.54,11.32-8.17,22.27-6.34,34,0,2.88-.09,5.75-.11,8.63q0,2.23,0,4.47,0,4.4,0,8.79c.34,72.23-2.55,142.29,1,201,.14,2.32.39,4.6.5,6.88.78,15.39,13.12,26,20.43,39.32,1,2.86,3.27,5.77,2.11,8.59-6.45,15.74-22.87,28-22.41,45.93.08,3.14-.11,6.18-.12,9.11-.07,32.22.24,51.19.24,51.19"/><path class="cls-1" d="M56.4,7.11l.14,29.82c0,2.38,0,4.88,0,7.51.14,16.74-.86,37.61-1.2,62.48,0,1.91,0,3.83.07,5.78.54,17.42,1.59,36.05,1.73,56.55q0,3.3,0,6.65L58,346.5c0,2.86.19,5.73,0,8.6a46.08,46.08,0,0,0,.11,8.06,51.38,51.38,0,0,0,1.69,7.93c3.48,12,10.53,23.06,9.52,35.57a85.68,85.68,0,0,1-3.94,18.21c-3.46,11.33-8.23,22.25-6.5,34-.06,2.88-.12,5.74-.17,8.62,0,1.49,0,3,0,4.47q0,4.4-.06,8.79c.34,72.25-2.52,142.34,1,201.13.14,2.32.38,4.61.5,6.89.77,15.4,13,26,20.25,39.39,1,2.87,3.24,5.78,2.09,8.6-6.39,15.78-22.66,28.12-22.2,46,.08,3.15-.11,6.19-.12,9.12-.06,32.24.24,51.21.24,51.21"/><path class="cls-1" d="M70.38,7l.14,29.83c0,2.38,0,4.88,0,7.51.15,16.8-1.12,37.54-1.57,62.35,0,1.91,0,3.83.08,5.78.66,17.41,1.95,35.91,2.09,56.41q0,3.3,0,6.65L72,346.27c0,2.86.19,5.74,0,8.61a46.57,46.57,0,0,0,.11,8.06,51.9,51.9,0,0,0,1.68,7.93c3.46,12,10.55,23,9.64,35.52a84.51,84.51,0,0,1-3.78,18.18c-3.39,11.34-8.29,22.23-6.67,34-.08,2.88-.16,5.73-.22,8.6,0,1.48,0,3-.07,4.47q-.05,4.4-.09,8.79c.34,72.27-2.49,142.39,1,201.22.14,2.32.38,4.61.49,6.89C74.85,703.91,87,714.58,94.14,728c1,2.87,3.21,5.78,2.07,8.61-6.33,15.82-22.44,28.22-22,46.09.08,3.15-.11,6.19-.11,9.12C74,824,74.35,843,74.35,843"/><path class="cls-1" d="M84.35,7l.14,29.85c0,2.38,0,4.89,0,7.52.17,16.87-1.38,37.47-1.95,62.22,0,1.91,0,3.83.09,5.78.77,17.4,2.3,35.77,2.45,56.28q0,3.3,0,6.65L86,346c0,2.87.18,5.74,0,8.61a47.06,47.06,0,0,0,.11,8.07,52.43,52.43,0,0,0,1.66,7.94c3.43,12,10.57,23,9.76,35.48a83.37,83.37,0,0,1-3.63,18.15c-3.32,11.35-8.35,22.21-6.84,33.91-.1,2.87-.2,5.72-.27,8.59,0,1.48-.06,3-.08,4.46q-.07,4.4-.12,8.78c.34,72.29-2.46,142.44,1,201.3.13,2.33.38,4.61.49,6.89.76,15.42,12.76,26.14,19.87,39.53,1,2.87,3.18,5.79,2.06,8.62-6.28,15.86-22.23,28.32-21.78,46.18.08,3.15-.11,6.19-.11,9.13-.06,32.26.24,51.26.24,51.26"/><path class="cls-1" d="M98.33,6.91l.14,29.86c0,2.38,0,4.89,0,7.52.18,16.93-1.64,37.4-2.32,62.09-.06,1.91,0,3.83.09,5.77.89,17.38,2.65,35.62,2.82,56.14q0,3.31,0,6.66l.81,170.86c0,2.87.18,5.74,0,8.62a47.56,47.56,0,0,0,.11,8.07,53,53,0,0,0,1.65,7.94c3.4,12,10.58,23,9.88,35.43A82.24,82.24,0,0,1,108.15,424c-3.25,11.36-8.41,22.19-7,33.87-.12,2.87-.24,5.71-.32,8.57,0,1.48-.07,3-.1,4.46q-.08,4.4-.14,8.78c.34,72.31-2.43,142.49,1,201.39.13,2.33.37,4.61.49,6.9.76,15.43,12.64,26.2,19.69,39.61,1,2.88,3.15,5.79,2,8.63-6.22,15.9-22,28.42-21.57,46.26.08,3.15-.11,6.19-.11,9.13-.06,32.27.24,51.28.24,51.28"/><path class="cls-1" d="M112.3,6.84l.14,29.88c0,2.38,0,4.89,0,7.53.2,17-1.89,37.33-2.7,62-.07,1.91,0,3.83.1,5.77,1,17.37,3,35.48,3.18,56q0,3.31,0,6.66l.81,171c0,2.87.18,5.75,0,8.62a48.08,48.08,0,0,0,.1,8.07,53.52,53.52,0,0,0,1.63,8c3.38,12,10.6,23,10,35.39a81.13,81.13,0,0,1-3.31,18.1c-3.17,11.37-8.47,22.17-7.17,33.83-.14,2.87-.27,5.7-.37,8.56-.05,1.48-.09,3-.12,4.46q-.1,4.4-.17,8.78c.34,72.33-2.4,142.54,1,201.47.13,2.33.37,4.62.48,6.9.75,15.45,12.52,26.26,19.5,39.68,1,2.88,3.11,5.8,2,8.63-6.16,15.94-21.8,28.52-21.36,46.34.08,3.15-.1,6.2-.11,9.13-.06,32.29.24,51.3.24,51.3"/><path class="cls-1" d="M126.28,6.78l.14,29.9c0,2.38,0,4.89,0,7.53.21,17.06-2.15,37.27-3.07,61.83-.08,1.91,0,3.83.11,5.77,1.12,17.36,3.36,35.34,3.54,55.87q0,3.31,0,6.66l.81,171c0,2.87.18,5.75,0,8.62a48.6,48.6,0,0,0,.1,8.08,54.09,54.09,0,0,0,1.62,8c3.35,12,10.62,23,10.13,35.34a80,80,0,0,1-3.16,18.07c-3.1,11.38-8.53,22.15-7.34,33.79-.16,2.86-.31,5.69-.43,8.54-.06,1.48-.1,3-.14,4.46-.08,2.93-.14,5.86-.2,8.78.34,72.35-2.37,142.58,1,201.56.13,2.33.37,4.62.48,6.9.74,15.46,12.4,26.32,19.31,39.75,1,2.88,3.08,5.8,2,8.64-6.1,16-21.59,28.62-21.15,46.42.08,3.15-.1,6.2-.11,9.14-.05,32.3.24,51.32.24,51.32"/><path class="cls-1" d="M140.25,6.71l.14,29.91c0,2.38,0,4.9,0,7.53.23,17.12-2.41,37.2-3.45,61.7-.09,1.91,0,3.83.12,5.77,1.23,17.35,3.72,35.19,3.91,55.73q0,3.31,0,6.67l.81,171.12c0,2.87.18,5.75,0,8.63a49.13,49.13,0,0,0,.1,8.08,54.66,54.66,0,0,0,1.6,8c3.33,12.06,10.61,23,10.25,35.29a79.66,79.66,0,0,1-3,18c-3,11.39-8.6,22.13-7.5,33.75-.18,2.86-.35,5.68-.48,8.53-.07,1.47-.11,3-.15,4.46-.09,2.93-.15,5.86-.22,8.78.34,72.37-2.34,142.63,1,201.65.13,2.33.36,4.62.47,6.91.74,15.47,12.28,26.38,19.12,39.82,1,2.89,3.05,5.81,2,8.65-6,16-21.38,28.72-20.94,46.5.08,3.15-.1,6.2-.11,9.14-.05,32.31.24,51.34.24,51.34"/><path class="cls-1" d="M154.23,6.64l.14,29.93c0,2.38,0,4.9,0,7.54.24,17.18-2.67,37.13-3.82,61.57a52.88,52.88,0,0,0,.13,5.77c1.35,17.34,4.07,35.05,4.27,55.59q0,3.31,0,6.67l.81,171.21c0,2.87.18,5.75,0,8.63a49.68,49.68,0,0,0,.1,8.09,55.25,55.25,0,0,0,1.59,8c3.3,12.08,10.63,23,10.37,35.25a78.66,78.66,0,0,1-2.85,18c-3,11.4-8.66,22.11-7.67,33.71-.19,2.86-.39,5.67-.53,8.51-.07,1.47-.12,3-.17,4.45-.1,2.93-.17,5.86-.25,8.78.34,72.39-2.31,142.68,1,201.73.13,2.33.36,4.62.47,6.91.73,15.48,12.16,26.44,18.94,39.9,1,2.89,3,5.81,2,8.66-6,16.05-21.16,28.82-20.73,46.58.08,3.16-.1,6.21-.1,9.15,0,32.33.24,51.36.24,51.36"/><path class="cls-1" d="M168.2,6.58l.14,29.94c0,2.39,0,4.9,0,7.54.25,17.25-2.93,37.06-4.2,61.44a48.47,48.47,0,0,0,.14,5.77c1.46,17.32,4.47,34.91,4.63,55.46,0,2.21,0,4.43,0,6.67l.81,171.3c0,2.87.18,5.76,0,8.64a50.23,50.23,0,0,0,.1,8.09,55.09,55.09,0,0,0,1.57,8c3.25,12.11,10.65,23,10.5,35.2a77.66,77.66,0,0,1-2.69,18c-2.88,11.41-8.72,22.09-7.84,33.67-.21,2.85-.43,5.66-.58,8.5-.08,1.47-.14,3-.19,4.45-.11,2.93-.19,5.86-.28,8.78.34,72.41-2.28,142.73,1,201.82.13,2.33.36,4.63.46,6.91.72,15.49,12,26.5,18.75,40,1,2.89,3,5.81,1.94,8.67C186.63,751.45,171.61,764.28,172,782c.08,3.16-.1,6.21-.1,9.15,0,32.34.24,51.39.24,51.39"/><path class="cls-1" d="M182.18,6.51l.14,30c0,2.39,0,4.9,0,7.55.27,17.31-3.19,37-4.57,61.31a44.75,44.75,0,0,0,.15,5.77c1.58,17.31,4.82,34.77,5,55.32,0,2.21,0,4.44,0,6.68l.81,171.38c0,2.88.17,5.76,0,8.64a50.8,50.8,0,0,0,.1,8.1,55.62,55.62,0,0,0,1.55,8c3.23,12.13,10.66,23,10.62,35.16a76.69,76.69,0,0,1-2.54,18c-2.81,11.42-8.78,22.07-8,33.63-.23,2.85-.46,5.65-.63,8.48-.09,1.47-.15,2.95-.21,4.45-.12,2.93-.21,5.86-.3,8.78.34,72.43-2.25,142.78,1,201.9.13,2.33.35,4.63.46,6.92.72,15.5,11.92,26.56,18.56,40,1,2.9,3,5.82,1.92,8.67-5.87,16.13-20.74,29-20.31,46.74.08,3.16-.1,6.21-.1,9.15,0,32.35.24,51.41.24,51.41"/><path class="cls-1" d="M196.15,6.45l.14,30c0,2.39,0,4.91,0,7.55.28,17.37-3.45,36.92-4.95,61.17a41.55,41.55,0,0,0,.16,5.77c1.69,17.3,5.18,34.62,5.36,55.18,0,2.21,0,4.44,0,6.68l.82,171.47c0,2.88.17,5.76,0,8.65a51.37,51.37,0,0,0,.1,8.1,56.15,56.15,0,0,0,1.54,8c3.2,12.15,10.68,23,10.74,35.11A75.73,75.73,0,0,1,207.8,422c-2.74,11.43-8.84,22-8.17,33.59-.25,2.85-.5,5.64-.69,8.47-.1,1.47-.16,2.94-.22,4.45-.13,2.93-.23,5.86-.33,8.78.34,72.45-2.22,142.83,1,202,.13,2.33.35,4.63.46,6.92.71,15.51,11.8,26.61,18.38,40.11.94,2.9,2.93,5.82,1.9,8.68-5.82,16.17-20.52,29.12-20.1,46.82.08,3.16-.1,6.21-.1,9.16,0,32.37.24,51.43.24,51.43"/><path class="cls-1" d="M210.13,6.38l.14,30c0,2.39,0,4.91,0,7.55.3,17.44-3.66,36.86-5.32,61a39.32,39.32,0,0,0,.17,5.77c1.81,17.29,5.54,34.48,5.73,55,0,2.21,0,4.44,0,6.68L211.73,344c0,2.88.17,5.76,0,8.65a52,52,0,0,0,.1,8.1,56.7,56.7,0,0,0,1.52,8c3.17,12.17,10.69,22.95,10.86,35.06a74.78,74.78,0,0,1-2.22,17.9c-2.66,11.43-8.9,22-8.34,33.55-.27,2.84-.54,5.63-.74,8.45-.1,1.46-.17,2.94-.24,4.44-.14,2.93-.25,5.86-.36,8.78.34,72.47-2.19,142.88,1,202.07.12,2.33.35,4.63.45,6.92.7,15.52,11.68,26.67,18.19,40.19.93,2.9,2.9,5.83,1.88,8.69-5.76,16.21-20.31,29.22-19.89,46.9.07,3.16-.09,6.22-.1,9.16,0,32.38.24,51.45.24,51.45"/><path class="cls-1" d="M224.11,6.31l.14,30c0,2.39,0,4.91,0,7.56.31,17.5-3.92,36.79-5.7,60.91a36.84,36.84,0,0,0,.18,5.77c1.92,17.28,5.9,34.34,6.09,54.91,0,2.21,0,4.44,0,6.69l.82,171.64c0,2.88.17,5.77,0,8.65a52.57,52.57,0,0,0,.1,8.11,57.26,57.26,0,0,0,1.51,8c3.14,12.18,10.71,22.94,11,35a73.85,73.85,0,0,1-2.07,17.87c-2.59,11.44-9,22-8.51,33.51-.29,2.84-.58,5.62-.79,8.44-.11,1.46-.19,2.94-.26,4.44-.15,2.93-.26,5.86-.38,8.78.34,72.49-2.16,142.93,1,202.16.12,2.33.34,4.63.45,6.93.7,15.53,11.56,26.73,18,40.26.93,2.9,2.87,5.83,1.86,8.7-5.7,16.25-20.1,29.32-19.68,47,.07,3.16-.09,6.22-.1,9.17,0,32.39.24,51.47.24,51.47"/><path class="cls-1" d="M238.08,6.25l.14,30c0,2.39,0,4.91,0,7.56.33,17.57-4.18,36.72-6.07,60.78a34.66,34.66,0,0,0,.19,5.77c2,17.26,6.26,34.2,6.45,54.77,0,2.21,0,4.45,0,6.69l.82,171.73c0,2.88.17,5.77,0,8.66a53.18,53.18,0,0,0,.1,8.11,57.83,57.83,0,0,0,1.49,8c3.11,12.2,10.73,22.93,11.11,35a72.94,72.94,0,0,1-1.91,17.84c-2.52,11.45-9,22-8.67,33.47-.31,2.83-.61,5.61-.84,8.42-.12,1.46-.2,2.94-.28,4.44-.16,2.93-.28,5.85-.41,8.78.34,72.51-2.13,143,1,202.25.12,2.34.34,4.64.44,6.93.69,15.54,11.44,26.79,17.82,40.33.92,2.91,2.84,5.84,1.84,8.71-5.64,16.29-19.88,29.42-19.47,47.06.07,3.16-.09,6.22-.1,9.17,0,32.41.24,51.49.24,51.49"/><path class="cls-1" d="M252.06,6.18l.14,30c0,2.39,0,4.92,0,7.57.34,17.63-4.44,36.66-6.45,60.65a32.71,32.71,0,0,0,.2,5.77c2.15,17.25,6.61,34.05,6.82,54.64,0,2.22,0,4.45,0,6.7l.82,171.82c0,2.88.17,5.77,0,8.66a53.81,53.81,0,0,0,.1,8.12,58.41,58.41,0,0,0,1.48,8c3.09,12.22,10.74,22.92,11.23,34.93a71.46,71.46,0,0,1-1.76,17.82c-2.42,11.47-9.09,22-8.84,33.43-.33,2.83-.65,5.59-.89,8.41-.13,1.46-.21,2.93-.29,4.44-.16,2.93-.3,5.85-.44,8.78.34,72.52-2.11,143,1,202.33.12,2.34.34,4.64.44,6.93.68,15.55,11.32,26.85,17.63,40.4.91,2.91,2.81,5.84,1.83,8.71-5.59,16.33-19.67,29.52-19.26,47.14.07,3.16-.09,6.22-.09,9.17,0,32.42.24,51.51.24,51.51"/><path class="cls-1" d="M266,6.11l.14,30.05c0,2.39,0,4.92,0,7.57.36,17.69-4.7,36.59-6.82,60.52a31,31,0,0,0,.21,5.77c2.27,17.24,7,33.91,7.18,54.5,0,2.22,0,4.45,0,6.7l.82,171.91c0,2.88.17,5.78,0,8.67a54.45,54.45,0,0,0,.1,8.12,59,59,0,0,0,1.46,8c3.06,12.24,10.76,22.91,11.35,34.88A70.54,70.54,0,0,1,279,420.6c-2.35,11.48-9.15,21.95-9,33.39-.35,2.83-.69,5.58-.94,8.39-.13,1.46-.22,2.93-.31,4.43-.17,2.93-.32,5.85-.46,8.78.34,72.54-2.08,143.07,1,202.42.12,2.34.33,4.64.43,6.94.68,15.56,11.2,26.91,17.44,40.47.9,2.91,2.78,5.85,1.81,8.72-5.53,16.37-19.46,29.62-19.05,47.23.07,3.17-.09,6.23-.09,9.18,0,32.43.24,51.54.24,51.54"/><path class="cls-1" d="M280,6l.14,30.07c0,2.4,0,4.92,0,7.57.37,17.76-5,36.52-7.19,60.39a29.41,29.41,0,0,0,.22,5.77c2.38,17.23,7.33,33.77,7.54,54.37,0,2.22,0,4.45,0,6.7l.82,172c0,2.89.16,5.78,0,8.67a55.11,55.11,0,0,0,.1,8.13,59.6,59.6,0,0,0,1.45,8c3,12.26,10.78,22.9,11.48,34.84a69.63,69.63,0,0,1-1.44,17.76c-2.27,11.49-9.21,21.93-9.17,33.35-.36,2.82-.73,5.57-1,8.38-.14,1.45-.23,2.93-.33,4.43-.18,2.93-.34,5.85-.49,8.77.34,72.56-2,143.12,1,202.5.12,2.34.33,4.64.43,6.94.67,15.57,11.08,27,17.25,40.55.89,2.92,2.75,5.85,1.79,8.73-5.47,16.41-19.24,29.72-18.84,47.31.07,3.17-.09,6.23-.09,9.18,0,32.45.25,51.56.25,51.56"/><path class="cls-1" d="M294,6l.14,30.08c0,2.4,0,4.93,0,7.58.39,17.82-5.22,36.45-7.57,60.26a28,28,0,0,0,.23,5.77c2.5,17.22,7.69,33.62,7.91,54.23,0,2.22,0,4.45,0,6.71l.82,172.08c0,2.89.16,5.78,0,8.68a55.78,55.78,0,0,0,.1,8.13,60.21,60.21,0,0,0,1.43,8c3,12.28,10.79,22.89,11.6,34.79A68.74,68.74,0,0,1,307.46,420c-2.2,11.5-9.27,21.91-9.34,33.31-.38,2.82-.77,5.56-1,8.36-.15,1.45-.25,2.92-.35,4.43-.19,2.93-.35,5.85-.52,8.77.34,72.58-2,143.17,1,202.59.12,2.34.33,4.65.43,6.94.67,15.59,11,27,17.07,40.62.88,2.92,2.72,5.86,1.77,8.74-5.41,16.45-19,29.82-18.63,47.39.07,3.17-.09,6.23-.09,9.19,0,32.46.25,51.58.25,51.58"/><path class="cls-1" d="M308,5.91,308.1,36c0,2.4,0,4.93,0,7.58.4,17.88-5.48,36.38-7.94,60.13a26.72,26.72,0,0,0,.24,5.77c2.61,17.21,8,33.48,8.27,54.09,0,2.22,0,4.46,0,6.71l.82,172.17c0,2.89.16,5.78,0,8.68a56.47,56.47,0,0,0,.1,8.13,60.84,60.84,0,0,0,1.42,8c3,12.3,10.81,22.88,11.72,34.74a67.87,67.87,0,0,1-1.13,17.7c-2.12,11.51-9.33,21.89-9.51,33.27-.4,2.82-.8,5.55-1.1,8.35-.16,1.45-.26,2.92-.36,4.43-.2,2.93-.37,5.85-.54,8.77.35,72.6-2,143.22,1,202.67.12,2.34.32,4.65.42,6.95.66,15.6,10.84,27.09,16.88,40.69.87,2.92,2.69,5.86,1.75,8.75-5.35,16.49-18.82,29.92-18.42,47.47.07,3.17-.09,6.23-.09,9.19,0,32.47.25,51.6.25,51.6"/><path class="cls-1" d="M321.93,5.85,322.08,36c0,2.4,0,4.93,0,7.59.42,17.95-5.78,36.31-8.32,60a25.33,25.33,0,0,0,.25,5.77c2.73,17.19,8.4,33.34,8.63,54,0,2.22,0,4.46,0,6.71l.82,172.25c0,2.89.16,5.79,0,8.68a57.17,57.17,0,0,0,.1,8.14,61.47,61.47,0,0,0,1.4,8c2.95,12.32,10.83,22.87,11.84,34.7a67,67,0,0,1-1,17.68c-2,11.52-9.4,21.87-9.67,33.23-.42,2.81-.84,5.54-1.15,8.34-.16,1.45-.27,2.92-.38,4.42-.21,2.93-.39,5.85-.57,8.77.35,72.62-2,143.27,1,202.76.11,2.34.32,4.65.42,7,.65,15.61,10.72,27.14,16.69,40.76.86,2.93,2.65,5.87,1.73,8.76-5.3,16.53-18.6,30-18.21,47.55.07,3.17-.08,6.24-.09,9.19,0,32.48.25,51.62.25,51.62"/><path class="cls-1" d="M335.91,5.78l.14,30.13c0,2.4,0,4.93,0,7.59.43,18-6,36.24-8.69,59.87a24.28,24.28,0,0,0,.26,5.76c2.84,17.18,8.76,33.2,9,53.82,0,2.22,0,4.46,0,6.72L337.51,342c0,2.89.16,5.79,0,8.69a57.89,57.89,0,0,0,.09,8.14,62.12,62.12,0,0,0,1.38,8c2.92,12.34,10.84,22.86,12,34.65a66.18,66.18,0,0,1-.82,17.65c-2,11.53-9.46,21.85-9.84,33.19-.44,2.81-.88,5.53-1.2,8.32-.17,1.45-.28,2.91-.4,4.42-.22,2.93-.41,5.85-.6,8.77.35,72.64-1.93,143.32,1,202.85.11,2.34.32,4.65.41,7,.65,15.62,10.6,27.2,16.51,40.84.85,2.93,2.62,5.87,1.71,8.76-5.24,16.57-18.39,30.12-18,47.63.07,3.17-.08,6.24-.09,9.2,0,32.5.25,51.64.25,51.64"/><path class="cls-1" d="M349.88,5.71,350,35.86c0,2.4,0,4.94,0,7.59.45,18.07-6.3,36.17-9.07,59.73a23.32,23.32,0,0,0,.27,5.76c3,17.17,9.12,33.05,9.36,53.68,0,2.22,0,4.46,0,6.72l.82,172.43c0,2.89.16,5.79,0,8.69a58.62,58.62,0,0,0,.09,8.15,62.78,62.78,0,0,0,1.37,8.06c2.89,12.36,10.86,22.85,12.09,34.61a65.35,65.35,0,0,1-.67,17.62c-1.9,11.54-9.52,21.83-10,33.15-.46,2.81-.92,5.52-1.26,8.31-.18,1.44-.3,2.91-.42,4.42-.23,2.93-.43,5.85-.62,8.77.35,72.66-1.9,143.36,1,202.93.11,2.34.31,4.66.41,7,.64,15.63,10.48,27.26,16.32,40.91.84,2.93,2.59,5.88,1.69,8.77-5.18,16.61-18.18,30.22-17.79,47.71.07,3.17-.08,6.24-.08,9.2,0,32.51.25,51.67.25,51.67"/><path class="cls-1" d="M363.86,5.65,364,35.81c0,2.4,0,4.94,0,7.6.46,18.14-6.56,36.11-9.44,59.6a22.43,22.43,0,0,0,.28,5.76c3.07,17.16,9.48,32.91,9.72,53.55,0,2.22,0,4.47,0,6.72l.82,172.51c0,2.89.16,5.79,0,8.7a59.38,59.38,0,0,0,.09,8.15,63.46,63.46,0,0,0,1.35,8.06c2.86,12.38,10.88,22.84,12.21,34.56a64.55,64.55,0,0,1-.51,17.59c-1.82,11.55-9.58,21.81-10.17,33.11-.48,2.8-1,5.51-1.31,8.29-.19,1.44-.31,2.91-.43,4.42-.24,2.93-.45,5.85-.65,8.77.35,72.68-1.87,143.41,1,203,.11,2.34.31,4.66.4,7,.63,15.64,10.36,27.32,16.13,41,.83,2.94,2.56,5.88,1.67,8.78-5.12,16.65-18,30.32-17.58,47.79.07,3.18-.08,6.25-.08,9.2,0,32.52.25,51.69.25,51.69"/><path class="cls-1" d="M377.83,5.58,378,35.76c0,2.41,0,4.94,0,7.6.48,18.2-6.82,36-9.82,59.47a21.6,21.6,0,0,0,.29,5.76c3.19,17.15,9.83,32.77,10.09,53.41,0,2.23,0,4.47,0,6.73l.82,172.6c0,2.89.15,5.8,0,8.7a60.15,60.15,0,0,0,.09,8.16,64.14,64.14,0,0,0,1.34,8.07c2.84,12.39,10.9,22.83,12.33,34.51a63.75,63.75,0,0,1-.35,17.56c-1.75,11.56-9.64,21.78-10.34,33.06-.5,2.8-1,5.5-1.36,8.28-.19,1.44-.32,2.91-.45,4.41-.25,2.93-.46,5.85-.68,8.77.35,72.7-1.84,143.46,1,203.1.11,2.35.31,4.66.4,7,.63,15.65,10.24,27.38,15.94,41.05.82,2.94,2.53,5.89,1.65,8.79-5.06,16.69-17.75,30.42-17.37,47.87.07,3.18-.08,6.25-.08,9.21,0,32.54.25,51.71.25,51.71"/><path class="cls-1" d="M391.81,5.52,392,35.71c0,2.41,0,4.94,0,7.61.49,18.27-7.08,36-10.19,59.34a20.84,20.84,0,0,0,.3,5.76c3.3,17.13,10.19,32.63,10.45,53.27,0,2.23,0,4.47,0,6.73l.82,172.69c0,2.9.15,5.8,0,8.7a60.93,60.93,0,0,0,.09,8.16,64.84,64.84,0,0,0,1.32,8.07c2.81,12.41,10.91,22.82,12.46,34.47a63,63,0,0,1-.2,17.53c-1.67,11.57-9.7,21.76-10.51,33-.51,2.8-1,5.49-1.41,8.26-.2,1.44-.33,2.9-.47,4.41-.26,2.93-.48,5.85-.7,8.77.35,72.72-1.81,143.51,1,203.19.11,2.35.3,4.66.39,7,.62,15.66,10.12,27.44,15.76,41.13.81,2.94,2.5,5.89,1.63,8.8-5,16.73-17.54,30.52-17.16,48,.07,3.18-.08,6.25-.08,9.21,0,32.55.25,51.73.25,51.73"/><path class="cls-1" d="M405.78,5.45l.14,30.21c0,2.41,0,4.95,0,7.61.5,18.33-7.34,35.9-10.57,59.21a20.13,20.13,0,0,0,.31,5.76c3.42,17.12,10.55,32.48,10.82,53.14,0,2.23,0,4.47,0,6.73l.82,172.77c0,2.9.15,5.8,0,8.71a61.74,61.74,0,0,0,.09,8.16,65.56,65.56,0,0,0,1.31,8.08c2.78,12.43,10.93,22.81,12.58,34.42a62.22,62.22,0,0,1,0,17.51c-1.6,11.58-9.77,21.74-10.67,33-.53,2.79-1.07,5.48-1.46,8.25-.21,1.44-.35,2.9-.49,4.41-.27,2.93-.5,5.85-.73,8.77.35,72.74-1.78,143.56,1,203.27.11,2.35.3,4.66.39,7,.61,15.67,10,27.5,15.57,41.2.8,2.95,2.47,5.9,1.61,8.8-4.95,16.78-17.33,30.62-17,48,.07,3.18-.08,6.25-.08,9.22,0,32.56.25,51.75.25,51.75"/><path class="cls-1" d="M419.76,5.38l.14,30.22c0,2.41,0,4.95,0,7.61.52,18.39-7.6,35.83-10.94,59.08a19.46,19.46,0,0,0,.32,5.76c3.53,17.11,10.91,32.34,11.18,53,0,2.23,0,4.47,0,6.74l.82,172.86c0,2.9.15,5.81,0,8.71a62.57,62.57,0,0,0,.09,8.17,66.29,66.29,0,0,0,1.29,8.09c2.75,12.45,10.95,22.8,12.7,34.38a61.48,61.48,0,0,1,.11,17.48c-1.52,11.59-9.83,21.72-10.84,32.94-.55,2.79-1.11,5.47-1.52,8.23-.22,1.44-.36,2.9-.5,4.41-.28,2.93-.52,5.85-.76,8.77.35,72.76-1.75,143.61,1,203.36.11,2.35.3,4.67.39,7,.61,15.68,9.88,27.56,15.38,41.27.79,2.95,2.44,5.9,1.6,8.81-4.89,16.82-17.11,30.72-16.74,48.11.07,3.18-.08,6.26-.08,9.22,0,32.58.25,51.77.25,51.77"/><path class="cls-1" d="M433.74,5.32l.14,30.24c0,2.41,0,5,0,7.62.53,18.46-7.86,35.76-11.32,58.95a18.84,18.84,0,0,0,.32,5.76c3.65,17.1,11.26,32.2,11.54,52.86,0,2.23,0,4.48,0,6.74l.82,172.95c0,2.9.15,5.81,0,8.72a63.42,63.42,0,0,0,.09,8.17,67,67,0,0,0,1.28,8.09c2.72,12.47,11,22.79,12.82,34.33a60.75,60.75,0,0,1,.27,17.45c-1.44,11.6-9.89,21.7-11,32.9-.57,2.79-1.14,5.46-1.57,8.22-.22,1.43-.37,2.89-.52,4.4-.29,2.93-.54,5.85-.78,8.77.35,72.78-1.72,143.66,1,203.45.11,2.35.29,4.67.38,7,.6,15.69,9.76,27.62,15.2,41.34.78,3,2.41,5.91,1.58,8.82-4.83,16.86-16.9,30.82-16.53,48.19.07,3.18-.07,6.26-.07,9.22,0,32.59.25,51.8.25,51.8"/><path class="cls-1" d="M447.71,5.25l.14,30.25c0,2.41,0,5,0,7.62.55,18.52-8.12,35.7-11.69,58.82a18.26,18.26,0,0,0,.33,5.76c3.76,17.09,11.62,32.05,11.91,52.73,0,2.23,0,4.48,0,6.74l.82,173c0,2.9.15,5.81,0,8.72a64.29,64.29,0,0,0,.09,8.18,67.79,67.79,0,0,0,1.26,8.1c2.7,12.49,11,22.78,12.95,34.29a60,60,0,0,1,.42,17.42c-1.37,11.61-9.95,21.68-11.17,32.86-.59,2.78-1.18,5.45-1.62,8.2-.23,1.43-.38,2.89-.54,4.4-.3,2.93-.55,5.85-.81,8.77.35,72.8-1.69,143.71,1,203.53.1,2.35.29,4.67.38,7,.59,15.7,9.64,27.67,15,41.42.77,3,2.38,5.91,1.56,8.83-4.77,16.9-16.69,30.92-16.32,48.27.07,3.18-.07,6.26-.07,9.23,0,32.6.25,51.82.25,51.82"/><path class="cls-1" d="M461.69,5.18l.14,30.27c0,2.41,0,5,0,7.63.56,18.59-8.38,35.63-12.07,58.69a17.72,17.72,0,0,0,.34,5.76c3.88,17.07,12,31.91,12.27,52.59,0,2.23,0,4.48,0,6.75L463.28,340c0,2.9.14,5.81,0,8.73a65.18,65.18,0,0,0,.09,8.18,68.57,68.57,0,0,0,1.25,8.1c2.67,12.51,11,22.77,13.07,34.24a59.35,59.35,0,0,1,.58,17.39c-1.29,11.62-10,21.66-11.34,32.82-.61,2.78-1.22,5.44-1.67,8.19-.24,1.43-.4,2.89-.56,4.4-.31,2.93-.57,5.85-.84,8.77.35,72.82-1.66,143.75,1,203.62.1,2.35.29,4.67.37,7,.59,15.72,9.52,27.73,14.82,41.49.76,3,2.35,5.92,1.54,8.84-4.71,16.94-16.47,31-16.11,48.36.07,3.19-.07,6.26-.07,9.23,0,32.62.25,51.84.25,51.84"/><path class="cls-1" d="M475.66,5.12l.14,30.28c0,2.41,0,5,0,7.63.58,18.65-8.64,35.56-12.44,58.56a17.2,17.2,0,0,0,.35,5.76c4,17.06,12.34,31.77,12.63,52.45,0,2.23,0,4.48,0,6.75l.82,173.21c0,2.9.14,5.82,0,8.73a66.1,66.1,0,0,0,.09,8.19,69.36,69.36,0,0,0,1.23,8.11c2.64,12.53,11,22.76,13.19,34.19a58.67,58.67,0,0,1,.74,17.36C491.32,428,482.47,438,481,449.12c-.63,2.78-1.26,5.43-1.72,8.17-.24,1.43-.41,2.89-.58,4.4-.32,2.93-.59,5.85-.86,8.77.35,72.84-1.63,143.8,1,203.7.1,2.35.28,4.68.37,7,.58,15.73,9.4,27.79,14.63,41.56.75,3,2.32,5.92,1.52,8.84-4.65,17-16.26,31.12-15.9,48.44.07,3.19-.07,6.27-.07,9.24,0,32.63.25,51.86.25,51.86"/><path class="cls-1" d="M489.64,5.05l.14,30.3c0,2.42,0,5,0,7.63.59,18.71-8.9,35.49-12.82,58.42a16.72,16.72,0,0,0,.36,5.76c4.11,17.05,12.7,31.63,13,52.32,0,2.23,0,4.49,0,6.75l.82,173.29c0,2.91.14,5.82,0,8.73a67,67,0,0,0,.09,8.19,70.17,70.17,0,0,0,1.21,8.12c2.61,12.55,11,22.75,13.31,34.15a58,58,0,0,1,.89,17.34c-1.14,11.64-10.13,21.62-11.67,32.74-.65,2.77-1.29,5.41-1.77,8.16-.25,1.43-.42,2.88-.59,4.39-.33,2.93-.61,5.85-.89,8.76.35,72.86-1.6,143.85,1,203.79.1,2.35.28,4.68.36,7,.57,15.74,9.28,27.85,14.45,41.63.74,3,2.29,5.93,1.5,8.85-4.6,17-16,31.22-15.69,48.52.06,3.19-.07,6.27-.07,9.24,0,32.64.25,51.88.25,51.88"/><path class="cls-1" d="M503.61,5l.14,30.32c0,2.42-.05,5,0,7.64.61,18.78-9.16,35.42-13.19,58.29A16.26,16.26,0,0,0,491,107c4.22,17,13.05,31.48,13.36,52.18,0,2.24,0,4.49,0,6.76l.82,173.38c0,2.91.14,5.82,0,8.74a68,68,0,0,0,.09,8.19,71,71,0,0,0,1.2,8.12c2.58,12.56,11.05,22.74,13.44,34.1a57.36,57.36,0,0,1,1,17.31c-1.06,11.65-10.2,21.6-11.84,32.7-.67,2.77-1.33,5.4-1.83,8.14-.26,1.42-.43,2.88-.61,4.39-.34,2.93-.63,5.85-.92,8.76.35,72.88-1.57,143.9,1,203.87.1,2.35.28,4.68.36,7,.57,15.75,9.16,27.91,14.26,41.7.73,3,2.26,5.93,1.48,8.86-4.54,17.07-15.83,31.32-15.48,48.6.06,3.19-.07,6.27-.07,9.24,0,32.66.25,51.9.25,51.9"/><path class="cls-1" d="M517.59,4.92l.14,30.33c0,2.42-.05,5,0,7.64.62,18.84-9.41,35.35-13.56,58.16a15.83,15.83,0,0,0,.38,5.76c4.34,17,13.41,31.34,13.72,52,0,2.24,0,4.49,0,6.76l.82,173.47c0,2.91.14,5.82,0,8.74a69,69,0,0,0,.09,8.2,71.84,71.84,0,0,0,1.18,8.13c2.56,12.58,11.07,22.73,13.56,34.06a56.73,56.73,0,0,1,1.2,17.28c-1,11.66-10.26,21.58-12,32.66-.68,2.77-1.37,5.39-1.88,8.13-.27,1.42-.45,2.88-.63,4.39-.35,2.93-.65,5.84-.94,8.76.35,72.9-1.54,144,1,204,.1,2.35.27,4.68.36,7,.56,15.76,9,28,14.07,41.78.72,3,2.23,5.94,1.46,8.87-4.48,17.11-15.62,31.42-15.27,48.68.06,3.19-.07,6.28-.07,9.25,0,32.67.25,51.93.25,51.93"/><path class="cls-1" d="M531.56,4.85l.14,30.35c0,2.42-.05,5,0,7.65.64,18.91-9.67,35.29-13.94,58a15.43,15.43,0,0,0,.39,5.76c4.45,17,13.77,31.2,14.09,51.91,0,2.24,0,4.49,0,6.76l.82,173.55c0,2.91.14,5.83,0,8.75a70,70,0,0,0,.09,8.2,72.7,72.7,0,0,0,1.17,8.14c2.53,12.6,11.09,22.72,13.68,34a56.11,56.11,0,0,1,1.36,17.25c-.91,11.67-10.32,21.56-12.17,32.62-.7,2.76-1.41,5.38-1.93,8.11-.27,1.42-.46,2.87-.65,4.39-.36,2.93-.66,5.84-1,8.76.35,72.92-1.51,144,1,204,.1,2.36.27,4.68.35,7,.56,15.77,8.92,28,13.89,41.85.71,3,2.2,5.95,1.44,8.88C546,748,535,762.39,535.35,779.62c.06,3.19-.06,6.28-.06,9.25,0,32.68.25,51.95.25,51.95"/><path class="cls-1" d="M545.54,4.79l.14,30.36c0,2.42-.06,5,0,7.65.65,19-9.93,35.22-14.31,57.9a15,15,0,0,0,.4,5.76c4.57,17,14.13,31.05,14.45,51.77,0,2.24,0,4.49,0,6.77l.83,173.64c0,2.91.14,5.83,0,8.75a71.06,71.06,0,0,0,.09,8.21,73.58,73.58,0,0,0,1.15,8.14c2.5,12.62,11.1,22.72,13.8,34a55.51,55.51,0,0,1,1.52,17.22c-.83,11.68-10.38,21.54-12.34,32.58-.72,2.76-1.45,5.37-2,8.1-.28,1.42-.47,2.87-.66,4.39-.37,2.93-.68,5.84-1,8.76.35,72.94-1.48,144,1,204.13.1,2.36.27,4.69.35,7,.55,15.78,8.8,28.09,13.7,41.92.7,3,2.17,6,1.42,8.88-4.36,17.19-15.19,31.62-14.86,48.84.06,3.19-.06,6.28-.06,9.26,0,32.7.25,52,.25,52"/><path class="cls-1" d="M559.51,4.72l.14,30.38c0,2.42-.06,5,0,7.65.67,19-10.19,35.15-14.69,57.77a14.67,14.67,0,0,0,.41,5.76c4.68,17,14.48,30.91,14.82,51.64,0,2.24,0,4.5,0,6.77l.83,173.73c0,2.91.13,5.83,0,8.76a72.14,72.14,0,0,0,.08,8.21,74.48,74.48,0,0,0,1.14,8.15c2.47,12.64,11.12,22.71,13.93,33.92a54.93,54.93,0,0,1,1.67,17.2c-.76,11.68-10.44,21.52-12.51,32.54-.74,2.76-1.48,5.36-2,8.09-.29,1.42-.48,2.87-.68,4.38-.38,2.94-.7,5.84-1,8.76.35,73-1.45,144.1,1,204.22.09,2.36.26,4.69.34,7,.54,15.79,8.68,28.15,13.51,42,.7,3,2.14,6,1.4,8.89-4.3,17.24-15,31.72-14.65,48.92.06,3.19-.06,6.28-.06,9.26,0,32.71.25,52,.25,52"/><path class="cls-1" d="M573.49,4.65,573.63,35c0,2.42-.06,5,0,7.66.68,19.1-10.45,35.08-15.06,57.64a14.32,14.32,0,0,0,.42,5.75c4.8,17,14.84,30.77,15.18,51.5,0,2.24,0,4.5,0,6.77l.83,173.81c0,2.91.13,5.84,0,8.76a73.24,73.24,0,0,0,.08,8.22,75.41,75.41,0,0,0,1.12,8.15c2.44,12.66,11.14,22.7,14,33.87a54.36,54.36,0,0,1,1.83,17.17c-.68,11.69-10.5,21.5-12.67,32.5-.76,2.75-1.52,5.35-2.09,8.07-.3,1.41-.5,2.87-.7,4.38-.39,2.94-.72,5.84-1,8.76.35,73-1.42,144.15,1,204.3.09,2.36.26,4.69.34,7,.54,15.8,8.56,28.2,13.32,42.07.69,3,2.11,6,1.39,8.9-4.24,17.28-14.77,31.82-14.44,49,.06,3.2-.06,6.29-.06,9.26,0,32.72.25,52,.25,52"/><path class="cls-1" d="M587.46,4.59,587.61,35c0,2.42-.06,5,0,7.66.7,19.16-10.71,35-15.44,57.51a14,14,0,0,0,.43,5.75c4.92,17,15.2,30.63,15.54,51.36,0,2.24,0,4.5,0,6.78L589,338c0,2.92.13,5.84,0,8.76a74.38,74.38,0,0,0,.08,8.22,76.35,76.35,0,0,0,1.11,8.16c2.41,12.68,11.16,22.69,14.17,33.83a53.8,53.8,0,0,1,2,17.14c-.61,11.7-10.57,21.48-12.84,32.46-.78,2.75-1.56,5.34-2.14,8.06-.3,1.41-.51,2.86-.72,4.38-.4,2.94-.74,5.84-1.07,8.76.35,73-1.39,144.2,1,204.39.09,2.36.26,4.69.33,7,.53,15.81,8.44,28.26,13.14,42.14.68,3,2.08,6,1.37,8.91-4.18,17.32-14.55,31.92-14.23,49.08.06,3.2-.06,6.29-.06,9.27,0,32.73.25,52,.25,52"/><path class="cls-1" d="M601.44,4.52l.14,30.42c0,2.43-.06,5,0,7.67.71,19.23-11,34.93-15.81,57.38a13.61,13.61,0,0,0,.44,5.75c5,17,15.56,30.48,15.91,51.23,0,2.24,0,4.5,0,6.78l.83,174c0,2.92.13,5.84,0,8.77a75.56,75.56,0,0,0,.08,8.22,77.31,77.31,0,0,0,1.09,8.17c2.39,12.7,11.18,22.68,14.29,33.78a53.26,53.26,0,0,1,2.14,17.11c-.53,11.71-10.63,21.46-13,32.42-.8,2.74-1.6,5.33-2.19,8-.31,1.41-.52,2.86-.73,4.38-.41,2.94-.76,5.84-1.1,8.76.35,73-1.36,144.24,1,204.47.09,2.36.25,4.7.33,7,.52,15.82,8.32,28.32,12.95,42.21.67,3,2,6,1.35,8.92-4.12,17.36-14.34,32-14,49.16.06,3.2-.06,6.29-.06,9.27,0,32.75.25,52.06.25,52.06"/><path class="cls-1" d="M615.41,4.45l.14,30.44c0,2.43-.06,5,0,7.67.73,19.29-11.28,34.86-16.19,57.25a13.3,13.3,0,0,0,.45,5.75c5.15,16.94,15.91,30.34,16.27,51.09,0,2.24,0,4.51,0,6.79L617,337.51c0,2.92.13,5.84,0,8.77a76.77,76.77,0,0,0,.08,8.23,78.3,78.3,0,0,0,1.08,8.17c2.36,12.72,11.19,22.67,14.42,33.74a52.74,52.74,0,0,1,2.29,17.08c-.45,11.72-10.69,21.44-13.17,32.38-.82,2.74-1.63,5.32-2.24,8-.32,1.41-.53,2.86-.75,4.37-.42,2.94-.77,5.84-1.13,8.76.35,73-1.33,144.29,1,204.56.09,2.36.25,4.7.33,7,.52,15.83,8.2,28.38,12.76,42.28.66,3,2,6,1.33,8.93-4.06,17.41-14.13,32.12-13.81,49.24.06,3.2-.06,6.29-.06,9.28,0,32.76.25,52.08.25,52.08"/><path class="cls-1" d="M629.39,4.39l.14,30.46c0,2.43-.07,5,0,7.68C630.31,61.87,618,77.31,613,99.63a13,13,0,0,0,.46,5.75c5.26,16.93,16.27,30.2,16.63,51,0,2.24,0,4.51,0,6.79L631,337.29c0,2.92.13,5.85,0,8.78a78,78,0,0,0,.08,8.23,79.31,79.31,0,0,0,1.06,8.18c2.33,12.73,11.21,22.66,14.54,33.69a52.23,52.23,0,0,1,2.45,17.05c-.37,11.73-10.75,21.42-13.34,32.34-.84,2.74-1.67,5.31-2.29,8-.33,1.41-.54,2.85-.77,4.37-.43,2.94-.79,5.84-1.15,8.76.35,73.06-1.3,144.34,1,204.65.09,2.36.25,4.7.32,7,.51,15.84,8.08,28.44,12.58,42.36.65,3,2,6,1.31,8.93-4,17.45-13.91,32.22-13.6,49.32.06,3.2-.06,6.3-.05,9.28,0,32.77.25,52.1.25,52.1"/><path class="cls-1" d="M643.37,4.32l.14,30.47c0,2.43-.07,5,0,7.68.75,19.42-11.82,34.72-16.94,57a12.72,12.72,0,0,0,.47,5.75c5.38,16.92,16.63,30.05,17,50.82,0,2.25,0,4.51,0,6.79l.83,174.25c0,2.92.13,5.85,0,8.78a79.29,79.29,0,0,0,.08,8.24,80.34,80.34,0,0,0,1,8.18c2.3,12.75,11.23,22.65,14.66,33.64a51.73,51.73,0,0,1,2.61,17c-.3,11.74-10.81,21.4-13.51,32.3-.85,2.73-1.71,5.3-2.35,8-.33,1.4-.56,2.85-.79,4.37-.44,2.94-.81,5.84-1.18,8.76.35,73.08-1.27,144.39,1,204.73.09,2.36.24,4.7.32,7,.5,15.86,8,28.5,12.39,42.43.64,3,2,6,1.29,8.94-3.95,17.49-13.7,32.32-13.39,49.4.06,3.2-.05,6.3-.05,9.28,0,32.79.25,52.12.25,52.12"/><path class="cls-1" d="M657.34,4.25l.14,30.49c0,2.43-.07,5,0,7.68.77,19.49-12.09,34.65-17.31,56.85a12.45,12.45,0,0,0,.48,5.75c5.49,16.91,17,29.91,17.36,50.68,0,2.25,0,4.51,0,6.8l.83,174.33c0,2.92.12,5.85,0,8.78a71.6,71.6,0,0,0,1.11,16.43c2.27,12.77,11.25,22.64,14.78,33.6a51.25,51.25,0,0,1,2.76,17c-.22,11.75-10.87,21.38-13.68,32.26-.87,2.73-1.75,5.29-2.4,8-.34,1.4-.57,2.85-.8,4.37-.45,2.94-.83,5.84-1.21,8.76.35,73.1-1.24,144.44,1,204.82.09,2.36.24,4.71.31,7,.5,15.87,7.84,28.56,12.2,42.5.63,3,1.93,6,1.27,8.95-3.89,17.53-13.49,32.42-13.18,49.49.06,3.2-.05,6.3-.05,9.29,0,32.8.25,52.14.25,52.14"/><path class="cls-1" d="M671.32,4.19l.14,30.5c0,2.43-.07,5,0,7.69.78,19.55-12.36,34.58-17.69,56.72a12.2,12.2,0,0,0,.49,5.75c5.61,16.9,17.35,29.77,17.72,50.54,0,2.25,0,4.51,0,6.8l.83,174.42c0,2.92.12,5.85,0,8.79A72.81,72.81,0,0,0,674,361.84c2.24,12.79,11.27,22.63,14.91,33.55a50.78,50.78,0,0,1,2.92,17c-.14,11.76-10.93,21.36-13.84,32.22-.89,2.73-1.79,5.28-2.45,8-.35,1.4-.58,2.85-.82,4.36-.46,2.94-.85,5.84-1.23,8.76.35,73.12-1.21,144.49,1,204.9.09,2.37.24,4.71.31,7,.49,15.88,7.72,28.62,12,42.57.62,3,1.9,6,1.25,9-3.83,17.58-13.27,32.52-13,49.57.06,3.21-.05,6.3,0,9.29,0,32.81.25,52.16.25,52.16"/><path class="cls-1" d="M685.29,4.12l.15,30.52c0,2.43-.07,5,0,7.69.8,19.61-12.62,34.51-18.06,56.59a12,12,0,0,0,.5,5.75c5.72,16.88,17.7,29.63,18.09,50.41,0,2.25,0,4.52,0,6.8l.83,174.51c0,2.93.12,5.86,0,8.79s-.12,5.53.08,8.25.53,5.49,1,8.2c2.22,12.81,11.29,22.62,15,33.51a50.33,50.33,0,0,1,3.07,16.94c-.07,11.77-11,21.34-14,32.17-.91,2.72-1.82,5.27-2.5,8-.36,1.4-.59,2.84-.84,4.36-.47,2.94-.86,5.84-1.26,8.75.35,73.14-1.18,144.54,1,205,.08,2.37.23,4.71.3,7,.48,15.89,7.6,28.68,11.83,42.65.61,3,1.87,6,1.23,9-3.77,17.62-13.06,32.62-12.76,49.65.06,3.21-.05,6.31,0,9.3,0,32.83.25,52.19.25,52.19"/><path class="cls-1" d="M699.27,4.05l.15,30.53c0,2.43-.07,5,0,7.7C700.26,62,686.56,76.72,681,98.74c-.48,1.91,0,3.82.51,5.75,5.84,16.87,18.06,29.48,18.45,50.27,0,2.25,0,4.52,0,6.81l.83,174.59c0,2.93.12,5.86,0,8.8s-.11,5.53.08,8.25.52,5.5,1,8.21c2.19,12.83,11.3,22.61,15.15,33.46a49.89,49.89,0,0,1,3.23,16.91c0,11.78-11.06,21.32-14.18,32.13-.93,2.72-1.86,5.26-2.55,7.94-.36,1.4-.61,2.84-.86,4.36-.48,2.94-.88,5.84-1.29,8.75.35,73.16-1.15,144.59,1,205.07.08,2.37.23,4.71.3,7,.48,15.9,7.48,28.73,11.64,42.72.6,3,1.84,6,1.21,9-3.71,17.66-12.84,32.72-12.55,49.73.06,3.21,0,6.31,0,9.3,0,32.84.25,52.21.25,52.21"/><path class="cls-1" d="M713.24,4l.15,30.55c0,2.44-.08,5,0,7.7.83,19.74-13.16,34.37-18.81,56.33-.49,1.91,0,3.82.52,5.75,6,16.86,18.42,29.34,18.81,50.13,0,2.25,0,4.52,0,6.81l.83,174.68c0,2.93.12,5.86,0,8.8s-.11,5.53.08,8.26.51,5.5,1,8.22c2.16,12.85,11.32,22.6,15.27,33.41a49.46,49.46,0,0,1,3.38,16.88c.09,11.79-11.12,21.3-14.34,32.09-.95,2.72-1.9,5.25-2.6,7.92-.37,1.39-.62,2.84-.87,4.36-.49,2.94-.9,5.84-1.31,8.75.35,73.18-1.12,144.64,1,205.16.08,2.37.23,4.71.3,7,.47,15.91,7.36,28.79,11.45,42.79.59,3,1.81,6,1.19,9-3.65,17.71-12.63,32.82-12.34,49.81.06,3.21,0,6.31,0,9.3,0,32.85.25,52.23.25,52.23"/><path class="cls-1" d="M727.22,3.92l.15,30.56c0,2.44-.08,5,0,7.7.84,19.81-13.43,34.3-19.19,56.2-.5,1.91,0,3.82.53,5.75,6.07,16.85,18.78,29.2,19.18,50,0,2.25,0,4.52,0,6.81l.83,174.77c0,2.93.12,5.87,0,8.81-.07,2.79-.11,5.54.08,8.26s.5,5.5,1,8.22c2.13,12.87,11.34,22.59,15.4,33.37a49,49,0,0,1,3.54,16.86c.17,11.79-11.18,21.28-14.51,32.05-1,2.71-1.94,5.23-2.66,7.91-.38,1.39-.63,2.84-.89,4.35-.5,2.94-.92,5.84-1.34,8.75.35,73.2-1.09,144.69,1,205.25.08,2.37.22,4.72.29,7.05.46,15.92,7.24,28.85,11.27,42.86.58,3,1.77,6,1.17,9-3.59,17.75-12.42,32.92-12.13,49.89.06,3.21,0,6.32,0,9.31,0,32.87.25,52.25.25,52.25"/><path class="cls-1" d="M741.19,3.86l.15,30.58c0,2.44-.08,5,0,7.71.86,19.87-13.7,34.22-19.56,56.07-.51,1.9,0,3.82.54,5.75,6.18,16.84,19.13,29.05,19.54,49.86,0,2.25,0,4.53,0,6.82l.83,174.85c0,2.93.12,5.87,0,8.81-.07,2.79-.11,5.54.08,8.27s.49,5.51.94,8.23c2.1,12.88,11.36,22.58,15.52,33.32a48.64,48.64,0,0,1,3.7,16.83c.24,11.8-11.24,21.26-14.68,32-1,2.71-2,5.22-2.71,7.89-.39,1.39-.64,2.83-.91,4.35-.51,2.94-.94,5.84-1.37,8.75.35,73.22-1.06,144.74,1,205.33.08,2.37.22,4.72.29,7.05.46,15.93,7.12,28.91,11.08,42.94.57,3,1.74,6,1.16,9-3.53,17.79-12.2,33-11.92,50,.05,3.21,0,6.32,0,9.31,0,32.88.25,52.27.25,52.27"/><path class="cls-1" d="M755.17,3.79l.15,30.59c0,2.44-.08,5,0,7.71.87,19.94-14,34.15-19.94,55.94-.52,1.9,0,3.82.55,5.75,6.3,16.82,19.49,28.91,19.91,49.72,0,2.25,0,4.53,0,6.82l.83,174.94c0,2.93.11,5.87,0,8.81-.07,2.79-.11,5.54.08,8.27s.48,5.51.92,8.23c2.07,12.9,11.38,22.57,15.64,33.28a48.25,48.25,0,0,1,3.85,16.8c.32,11.81-11.3,21.24-14.84,32-1,2.71-2,5.21-2.76,7.88-.39,1.39-.66,2.83-.93,4.35-.52,2.94-1,5.84-1.39,8.75.35,73.24-1,144.79,1,205.42.08,2.37.22,4.72.28,7.06.45,15.94,7,29,10.89,43,.56,3,1.71,6,1.14,9-3.47,17.84-12,33.12-11.71,50.05.05,3.21,0,6.32,0,9.32,0,32.89.25,52.29.25,52.29"/><path class="cls-1" d="M769.14,3.72l.15,30.61c0,2.44-.08,5,0,7.72.89,20-14.24,34.08-20.31,55.81-.53,1.9,0,3.82.55,5.75,6.41,16.81,19.85,28.77,20.27,49.59,0,2.26,0,4.53,0,6.82l.83,175c0,2.93.11,5.87,0,8.82-.07,2.79-.1,5.54.08,8.28s.47,5.52.91,8.24c2,12.92,11.4,22.56,15.76,33.23a47.88,47.88,0,0,1,4,16.77c.4,11.82-11.36,21.22-15,31.93-1,2.7-2.05,5.2-2.81,7.86a43.65,43.65,0,0,0-.94,4.35c-.53,2.94-1,5.84-1.42,8.75.35,73.26-1,144.83,1,205.5.08,2.37.21,4.72.28,7.06.45,16,6.88,29,10.7,43.08.55,3,1.68,6,1.12,9-3.41,17.88-11.78,33.22-11.5,50.13.05,3.22,0,6.32,0,9.32,0,32.91.25,52.32.25,52.32"/><path class="cls-1" d="M783.12,3.66l.15,30.63c0,2.44-.08,5,0,7.72.9,20.07-14.51,34-20.68,55.67-.54,1.9,0,3.82.56,5.75,6.53,16.8,20.21,28.63,20.63,49.45,0,2.26,0,4.53,0,6.83l.83,175.11c0,2.94.11,5.88,0,8.82-.07,2.79-.1,5.55.07,8.28s.47,5.52.89,8.25c2,12.94,11.42,22.55,15.89,33.19a47.52,47.52,0,0,1,4.16,16.74c.48,11.83-11.43,21.2-15.18,31.89-1,2.7-2.09,5.19-2.86,7.85a42.79,42.79,0,0,0-1,4.34c-.54,2.94-1,5.84-1.45,8.75.35,73.28-1,144.88,1,205.59.08,2.37.21,4.73.27,7.06.44,16,6.76,29.09,10.52,43.15.54,3,1.65,6,1.1,9-3.35,17.92-11.56,33.32-11.29,50.21.05,3.22,0,6.33,0,9.32,0,32.92.25,52.34.25,52.34"/><path class="cls-1" d="M797.09,3.59l.15,30.64c0,2.44-.09,5,0,7.72.92,20.13-14.78,33.94-21.06,55.54-.55,1.9,0,3.82.57,5.75,6.64,16.79,20.57,28.48,21,49.32,0,2.26,0,4.54,0,6.83l.83,175.2c0,2.94.11,5.88,0,8.83-.06,2.79-.1,5.55.07,8.28s.46,5.52.88,8.25c2,13,11.44,22.54,16,33.14A47.16,47.16,0,0,1,820,409.81c.55,11.84-11.49,21.18-15.34,31.85-1.06,2.7-2.13,5.18-2.92,7.84a42,42,0,0,0-1,4.34c-.55,2.94-1,5.84-1.47,8.75.35,73.3-.94,144.93,1,205.67.07,2.38.21,4.73.27,7.07.43,16,6.64,29.15,10.33,43.22.53,3,1.62,6,1.08,9-3.29,18-11.35,33.42-11.08,50.29.05,3.22,0,6.33,0,9.33,0,32.93.25,52.36.25,52.36"/><path class="cls-1" d="M811.07,3.52l.15,30.66c0,2.44-.09,5,0,7.73.93,20.19-15,33.86-21.43,55.41-.56,1.9,0,3.82.58,5.74,6.76,16.78,20.92,28.34,21.36,49.18,0,2.26,0,4.54,0,6.83l.83,175.29c0,2.94.11,5.88,0,8.83-.06,2.79-.1,5.55.07,8.29s.45,5.53.86,8.26c2,13,11.45,22.54,16.13,33.09,2.39,5.4,4.16,10.75,4.47,16.69.63,11.85-11.55,21.16-15.51,31.81-1.08,2.69-2.16,5.17-3,7.82a41.17,41.17,0,0,0-1,4.34c-.56,2.94-1,5.83-1.5,8.75.35,73.32-.91,145,1,205.76.07,2.38.2,4.73.26,7.07.43,16,6.52,29.21,10.14,43.3.52,3,1.59,6.05,1.06,9-3.23,18-11.14,33.52-10.87,50.37.05,3.22,0,6.33,0,9.33,0,32.94.25,52.38.25,52.38"/><path class="cls-1" d="M825,3.46l.15,30.67c0,2.45-.09,5,0,7.73.95,20.26-15.32,33.79-21.81,55.28-.57,1.9,0,3.82.59,5.74,6.87,16.76,21.28,28.2,21.72,49,0,2.26,0,4.54,0,6.84l.83,175.37c0,2.94.11,5.89,0,8.84-.06,2.79-.09,5.55.07,8.29s.44,5.53.84,8.27c1.93,13,11.47,22.53,16.25,33,2.45,5.38,4.28,10.72,4.63,16.66.71,11.86-11.61,21.14-15.68,31.77-1.1,2.69-2.2,5.16-3,7.81a40.41,40.41,0,0,0-1,4.34c-.57,2.94-1,5.83-1.53,8.75.35,73.33-.88,145,1,205.85.07,2.38.2,4.73.26,7.07.42,16,6.4,29.26,10,43.37.51,3,1.56,6.06,1,9-3.17,18.06-10.92,33.62-10.66,50.45.05,3.22,0,6.33,0,9.34.05,33,.25,52.4.25,52.4"/><path class="cls-1" d="M839,3.39l.15,30.69c0,2.45-.09,5,0,7.74,1,20.32-15.59,33.72-22.18,55.15-.59,1.9,0,3.82.6,5.74,7,16.75,21.64,28.05,22.09,48.91,0,2.26,0,4.54,0,6.84l.83,175.46c0,2.94.11,5.89,0,8.84-.06,2.79-.09,5.55.07,8.3s.43,5.53.83,8.27c1.9,13,11.49,22.52,16.38,33,2.5,5.37,4.39,10.69,4.79,16.63.79,11.86-11.67,21.12-15.84,31.73-1.12,2.69-2.24,5.15-3.07,7.79a39.68,39.68,0,0,0-1,4.33c-.58,2.95-1.06,5.83-1.55,8.75.35,73.35-.85,145.08,1,205.93.07,2.38.2,4.73.26,7.08.41,16,6.28,29.32,9.77,43.44.5,3,1.53,6.06,1,9.05-3.11,18.1-10.71,33.72-10.45,50.54.05,3.22,0,6.34,0,9.34.05,33,.25,52.42.25,52.42"/><path class="cls-1" d="M853,3.32l.15,30.7c0,2.45-.09,5,0,7.74,1,20.39-15.86,33.64-22.56,55-.6,1.9,0,3.82.61,5.74,7.1,16.74,22,27.91,22.45,48.77,0,2.26,0,4.54,0,6.84l.83,175.55c0,2.94.1,5.89,0,8.84-.06,2.8-.09,5.56.07,8.3s.42,5.54.81,8.28c1.87,13,11.51,22.51,16.5,33,2.55,5.35,4.51,10.66,4.94,16.6.87,11.87-11.73,21.1-16,31.69-1.14,2.68-2.28,5.14-3.12,7.78a39,39,0,0,0-1,4.33c-.59,2.95-1.08,5.83-1.58,8.75.35,73.37-.82,145.13,1,206,.07,2.38.19,4.74.25,7.08.41,16,6.16,29.38,9.58,43.51.49,3,1.5,6.07,1,9.06-3,18.14-10.5,33.82-10.24,50.62,0,3.22,0,6.34,0,9.34.06,33,.25,52.45.25,52.45"/><path class="cls-1" d="M867,3.26,867.12,34c0,2.45-.09,5,0,7.74,1,20.45-16.13,33.57-22.93,54.89-.61,1.9,0,3.82.62,5.74,7.22,16.73,22.35,27.77,22.81,48.63,0,2.26,0,4.55,0,6.85l.83,175.63c0,2.94.1,5.89,0,8.85-.06,2.8-.09,5.56.07,8.31s.41,5.54.8,8.28C871.3,372,881,381.4,886.07,391.81c2.61,5.34,4.63,10.64,5.1,16.57.94,11.88-11.8,21.08-16.18,31.65-1.16,2.68-2.32,5.13-3.18,7.76a38.28,38.28,0,0,0-1.07,4.33c-.6,2.95-1.1,5.83-1.61,8.75.35,73.39-.79,145.18,1,206.1.07,2.38.19,4.74.25,7.08.4,16,6,29.44,9.39,43.59.48,3,1.47,6.08,1,9.07-3,18.19-10.28,33.92-10,50.7,0,3.22,0,6.34,0,9.35.06,33,.25,52.47.25,52.47"/><path class="cls-1" d="M880.95,3.19l.15,30.73c0,2.45-.1,5,0,7.75,1,20.52-16.4,33.5-23.31,54.76-.62,1.9,0,3.82.63,5.74,7.33,16.72,22.71,27.63,23.18,48.5.05,2.26,0,4.55,0,6.85l.84,175.72c0,2.94.1,5.9,0,8.85-.06,2.8-.08,5.56.07,8.31s.4,5.55.78,8.29c1.82,13.07,11.55,22.49,16.74,32.87,2.66,5.32,4.74,10.61,5.25,16.55,1,11.89-11.86,21.06-16.34,31.61-1.18,2.68-2.35,5.12-3.23,7.75a37.62,37.62,0,0,0-1.08,4.33c-.61,2.95-1.12,5.83-1.63,8.74.35,73.41-.76,145.23,1,206.19.07,2.38.19,4.74.24,7.09.39,16,5.92,29.5,9.21,43.66.47,3.05,1.44,6.08,1,9.08-2.92,18.23-10.07,34-9.82,50.78,0,3.23,0,6.35,0,9.35.06,33,.25,52.49.25,52.49"/><path class="cls-1" d="M894.92,3.12l.15,30.75c0,2.45-.1,5,0,7.75,1,20.58-16.68,33.42-23.68,54.63-.63,1.9,0,3.82.64,5.74,7.45,16.7,23.07,27.48,23.54,48.36.05,2.27,0,4.55,0,6.85L896.49,333c0,2.95.1,5.9,0,8.86-.05,2.8-.08,5.56.07,8.31s.39,5.55.77,8.3c1.79,13.09,11.57,22.48,16.87,32.82,2.72,5.31,4.86,10.58,5.41,16.52,1.1,11.9-11.92,21-16.51,31.57-1.19,2.67-2.39,5.11-3.28,7.73a37,37,0,0,0-1.1,4.32c-.62,2.95-1.14,5.83-1.66,8.74.35,73.43-.73,145.28,1,206.27.07,2.38.18,4.74.24,7.09.39,16,5.8,29.56,9,43.73.47,3.05,1.42,6.09.94,9.09-2.86,18.28-9.86,34.12-9.61,50.86,0,3.23,0,6.35,0,9.36.06,33,.25,52.51.25,52.51"/><path class="cls-1" d="M908.9,3.06,909,33.82c0,2.45-.1,5,0,7.76,1,20.65-16.95,33.35-24.06,54.5-.64,1.9,0,3.82.65,5.74,7.56,16.69,23.43,27.34,23.91,48.22.05,2.27,0,4.55,0,6.86l.84,175.89c0,2.95.1,5.9,0,8.86-.05,2.8-.08,5.57.07,8.32s.38,5.55.75,8.3c1.76,13.11,11.59,22.47,17,32.77,2.77,5.29,5,10.55,5.57,16.49,1.18,11.9-12,21-16.68,31.53-1.21,2.67-2.43,5.1-3.33,7.72a36.37,36.37,0,0,0-1.12,4.32c-.63,2.95-1.16,5.83-1.69,8.74.35,73.45-.7,145.33,1,206.36.07,2.38.18,4.75.23,7.09.38,16.06,5.68,29.62,8.83,43.8.46,3.06,1.39,6.09.93,9.1-2.8,18.32-9.64,34.22-9.4,50.94,0,3.23,0,6.35,0,9.36.06,33,.25,52.53.25,52.53"/><path class="cls-1" d="M922.87,3,923,33.77c0,2.46-.1,5,0,7.76,1,20.71-17.22,33.27-24.43,54.36-.65,1.9,0,3.82.66,5.74,7.68,16.68,23.79,27.2,24.27,48.09.05,2.27,0,4.56,0,6.86l.84,176c0,2.95.1,5.9,0,8.86-.05,2.8-.08,5.57.07,8.32s.37,5.56.74,8.31c1.73,13.13,11.61,22.46,17.11,32.73,2.83,5.28,5.09,10.52,5.72,16.46,1.26,11.91-12,21-16.84,31.49-1.23,2.67-2.47,5.09-3.38,7.7a35.77,35.77,0,0,0-1.14,4.32c-.64,2.95-1.17,5.83-1.71,8.74.35,73.47-.67,145.38,1,206.45.06,2.38.18,4.75.23,7.1.37,16.07,5.56,29.68,8.65,43.88.45,3.06,1.36,6.1.91,9.1-2.74,18.37-9.43,34.32-9.19,51,0,3.23,0,6.35,0,9.36.07,33,.25,52.55.25,52.55"/><path class="cls-1" d="M936.85,2.93l.15,30.8c0,2.46-.1,5,0,7.76,1.06,20.78-17.49,33.2-24.81,54.23-.66,1.9,0,3.82.67,5.74,7.79,16.67,24.14,27.05,24.63,48,.05,2.27,0,4.56,0,6.86l.84,176.07c0,3,.09,5.91,0,8.87,0,2.8-.08,5.57.07,8.33s.36,5.56.72,8.31c1.7,13.15,11.63,22.45,17.23,32.68,2.88,5.26,5.21,10.5,5.88,16.43,1.33,11.92-12.1,21-17,31.45-1.25,2.66-2.5,5.08-3.43,7.69a35.19,35.19,0,0,0-1.15,4.32c-.65,3-1.19,5.83-1.74,8.74.35,73.49-.64,145.43,1,206.53.06,2.39.17,4.75.23,7.1.37,16.08,5.44,29.74,8.46,43.95.44,3.06,1.33,6.1.89,9.11-2.68,18.41-9.22,34.42-9,51.1,0,3.23,0,6.36,0,9.37.07,33.06.25,52.58.25,52.58"/><path class="cls-1" d="M950.82,2.86,951,33.67c0,2.46-.1,5.05,0,7.77,1.08,20.84-17.76,33.12-25.18,54.1-.67,1.9,0,3.82.68,5.74,7.91,16.66,24.5,26.91,25,47.81.05,2.27,0,4.56,0,6.87l.84,176.15c0,3,.09,5.91,0,8.87,0,2.8-.07,5.57.07,8.33s.35,5.56.71,8.32c1.67,13.16,11.65,22.44,17.36,32.64,2.94,5.25,5.33,10.47,6,16.41,1.41,11.93-12.16,21-17.18,31.41-1.27,2.66-2.54,5.07-3.49,7.67a34.64,34.64,0,0,0-1.17,4.32c-.66,3-1.21,5.83-1.77,8.74.35,73.51-.61,145.48,1,206.62.06,2.39.17,4.75.22,7.1.36,16.09,5.32,29.79,8.27,44,.43,3.07,1.3,6.11.87,9.12-2.62,18.45-9,34.52-8.77,51.18,0,3.23,0,6.36,0,9.37.07,33.08.25,52.6.25,52.6"/><path class="cls-1" d="M964.8,2.79l.15,30.83c0,2.46-.11,5.06,0,7.77,1.09,20.91-18,33-25.56,54-.68,1.9,0,3.82.69,5.74,8,16.64,24.86,26.77,25.36,47.68.05,2.27,0,4.56,0,6.87l.84,176.24c0,3,.09,5.91,0,8.88,0,2.8-.07,5.58.07,8.34s.35,5.57.69,8.33c1.64,13.18,11.67,22.43,17.48,32.59,3,5.23,5.45,10.44,6.19,16.38,1.49,11.94-12.23,20.94-17.34,31.37-1.29,2.66-2.58,5.05-3.54,7.66a34.1,34.1,0,0,0-1.19,4.31c-.67,3-1.23,5.83-1.79,8.74.35,73.53-.58,145.53,1,206.7.06,2.39.17,4.76.22,7.11.35,16.1,5.2,29.85,8.08,44.09.42,3.07,1.27,6.11.85,9.13-2.56,18.5-8.79,34.62-8.56,51.26,0,3.23,0,6.36,0,9.38.07,33.09.25,52.62.25,52.62"/><path class="cls-1" d="M978.77,2.73l.15,30.84c0,2.46-.11,5.06,0,7.78,1.11,21-18.31,33-25.93,53.84-.69,1.9,0,3.82.7,5.74,8.14,16.63,25.22,26.63,25.72,47.54.06,2.27,0,4.56.05,6.87l.84,176.33c0,3,.09,5.92,0,8.88,0,2.8-.07,5.58.07,8.34s.34,5.57.67,8.33c1.61,13.2,11.69,22.42,17.6,32.54,3,5.21,5.56,10.41,6.34,16.35,1.57,11.94-12.29,20.92-17.51,31.33-1.31,2.65-2.62,5-3.59,7.64a33.58,33.58,0,0,0-1.21,4.31c-.68,3-1.25,5.83-1.82,8.74.35,73.55-.55,145.58,1,206.79.06,2.39.16,4.76.21,7.11.35,16.11,5.08,29.91,7.9,44.17.41,3.07,1.24,6.12.83,9.14-2.5,18.54-8.58,34.72-8.35,51.34,0,3.24,0,6.36,0,9.38.07,33.1.25,52.64.25,52.64"/><path class="cls-1" d="M992.75,2.66l.15,30.86c0,2.46-.11,5.06,0,7.78,1.12,21-18.58,32.9-26.31,53.71-.7,1.9,0,3.82.71,5.74,8.25,16.62,25.57,26.48,26.09,47.4.06,2.27,0,4.57.05,6.88l.84,176.41c0,3,.09,5.92,0,8.89,0,2.8-.07,5.58.07,8.34s.33,5.58.66,8.34c1.59,13.22,11.71,22.41,17.72,32.5,3.1,5.2,5.68,10.38,6.5,16.32,1.65,12-12.35,20.9-17.68,31.28a83.93,83.93,0,0,0-3.64,7.63,33.07,33.07,0,0,0-1.22,4.31c-.69,3-1.27,5.83-1.85,8.74.35,73.57-.52,145.63,1,206.87.06,2.39.16,4.76.21,7.11.34,16.13,5,30,7.71,44.24.4,3.08,1.21,6.13.81,9.14-2.44,18.59-8.36,34.82-8.14,51.42,0,3.24,0,6.37,0,9.38.08,33.12.25,52.66.25,52.66"/><path class="cls-1" d="M1006.72,2.59l.15,30.87c0,2.46-.11,5.06,0,7.78,1.14,21.1-18.85,32.82-26.68,53.58-.72,1.9,0,3.82.72,5.74,8.37,16.61,25.93,26.34,26.45,47.27.06,2.27,0,4.57.05,6.88l.84,176.5c0,3,.09,5.92,0,8.89,0,2.8-.06,5.58.06,8.35s.32,5.58.64,8.35c1.56,13.24,11.73,22.4,17.85,32.45,3.15,5.18,5.8,10.35,6.66,16.29,1.73,12-12.41,20.88-17.84,31.24a83.3,83.3,0,0,0-3.69,7.61,32.58,32.58,0,0,0-1.24,4.31c-.7,3-1.28,5.83-1.87,8.74.35,73.59-.49,145.67,1,207,.06,2.39.16,4.76.2,7.12.33,16.14,4.84,30,7.52,44.31.39,3.08,1.18,6.13.79,9.15-2.37,18.63-8.15,34.92-7.93,51.5,0,3.24,0,6.37,0,9.39.08,33.13.25,52.68.25,52.68"/><path class="cls-1" d="M1020.7,2.53l.15,30.89c0,2.46-.11,5.07,0,7.79C1022,62.37,1001.75,74,993.83,94.65c-.73,1.9,0,3.82.73,5.74,8.48,16.6,26.29,26.2,26.81,47.13.06,2.28,0,4.57.05,6.89l.84,176.59c0,3,.09,5.92,0,8.89,0,2.8-.06,5.58.06,8.35s.31,5.58.63,8.35c1.53,13.26,11.75,22.39,18,32.41,3.21,5.17,5.92,10.32,6.81,16.26,1.81,12-12.47,20.86-18,31.2a82.69,82.69,0,0,0-3.75,7.6,32.11,32.11,0,0,0-1.26,4.3c-.71,3-1.3,5.83-1.9,8.74.35,73.61-.46,145.72,1,207,.06,2.39.15,4.76.2,7.12.33,16.15,4.72,30.09,7.34,44.38.38,3.08,1.15,6.14.77,9.16-2.31,18.68-7.93,35-7.72,51.58,0,3.24,0,6.37,0,9.39.08,33.14.25,52.71.25,52.71"/><path class="cls-1" d="M1034.67,2.46l.15,30.91c0,2.47-.11,5.07,0,7.79,1.17,21.23-19.4,32.67-27.43,53.32-.74,1.9,0,3.82.74,5.74,8.6,16.59,26.65,26.05,27.18,47,.06,2.28,0,4.57.05,6.89l.84,176.67c0,3,.08,5.93,0,8.9,0,2.8-.06,5.59.06,8.36s.3,5.59.61,8.36c1.5,13.28,11.77,22.38,18.09,32.36,3.26,5.15,6,10.3,7,16.24,1.88,12-12.53,20.84-18.18,31.16a82.12,82.12,0,0,0-3.8,7.59,31.65,31.65,0,0,0-1.28,4.3c-.72,3-1.32,5.83-1.93,8.74.35,73.63-.43,145.77,1,207.13.05,2.39.15,4.77.2,7.13.32,16.16,4.6,30.15,7.15,44.45.37,3.09,1.12,6.14.75,9.17-2.25,18.72-7.72,35.12-7.51,51.67,0,3.24,0,6.37,0,9.4.08,33.15.25,52.73.25,52.73"/><path class="cls-1" d="M1048.65,2.39l.15,30.92c0,2.47-.11,5.07,0,7.8,1.18,21.3-19.67,32.59-27.8,53.19-.75,1.89,0,3.82.75,5.74,8.71,16.57,27,25.91,27.54,46.86.06,2.28,0,4.58.05,6.89l.84,176.76c0,3,.08,5.93,0,8.9,0,2.81-.06,5.59.06,8.36s.29,5.59.6,8.36c1.47,13.29,11.79,22.36,18.21,32.32,3.32,5.14,6.15,10.27,7.12,16.21,2,12-12.6,20.82-18.34,31.12a81.57,81.57,0,0,0-3.85,7.57,31.2,31.2,0,0,0-1.29,4.3c-.73,3-1.34,5.83-2,8.74.35,73.65-.4,145.82,1,207.22.05,2.39.14,4.77.19,7.13.31,16.17,4.48,30.21,7,44.53.36,3.09,1.09,6.15.73,9.18-2.19,18.77-7.51,35.22-7.3,51.75,0,3.24,0,6.38,0,9.4.08,33.17.25,52.75.25,52.75"/><path class="cls-1" d="M1062.63,2.33l.15,30.94c0,2.47-.12,5.07,0,7.8,1.2,21.36-19.95,32.52-28.18,53.05-.76,1.89,0,3.82.76,5.73,8.83,16.56,27.36,25.77,27.9,46.72.06,2.28,0,4.58.05,6.9l.84,176.85c0,3,.08,5.93,0,8.91,0,2.81-.05,5.59.06,8.37s.28,5.59.58,8.37c1.44,13.31,11.81,22.35,18.34,32.27,3.37,5.12,6.27,10.24,7.28,16.18,2,12-12.66,20.8-18.51,31.08a81.05,81.05,0,0,0-3.9,7.56,30.77,30.77,0,0,0-1.31,4.3c-.74,3-1.36,5.83-2,8.74.35,73.67-.36,145.87,1,207.3.05,2.39.14,4.77.19,7.13.31,16.18,4.36,30.27,6.77,44.6.35,3.09,1.06,6.15.72,9.18-2.13,18.81-7.29,35.32-7.09,51.83,0,3.24,0,6.38,0,9.4.09,33.18.25,52.77.25,52.77"/><path class="cls-1" d="M1076.6,2.26l.15,31c0,2.47-.12,5.08,0,7.8,1.21,21.43-20.22,32.44-28.55,52.92-.77,1.89,0,3.82.77,5.73,8.94,16.55,27.72,25.63,28.27,46.59.06,2.28,0,4.58.05,6.9l.84,176.93c0,3,.08,5.94,0,8.91,0,2.81-.05,5.59.06,8.37s.27,5.6.57,8.38c1.41,13.33,11.83,22.34,18.46,32.22,3.43,5.11,6.38,10.21,7.43,16.15,2.12,12-12.72,20.78-18.68,31a80.56,80.56,0,0,0-4,7.54,30.35,30.35,0,0,0-1.33,4.29c-.75,3-1.37,5.83-2,8.74.35,73.69-.33,145.92,1,207.39.05,2.4.14,4.77.18,7.14.3,16.19,4.24,30.32,6.59,44.67.34,3.1,1,6.16.7,9.19-2.07,18.86-7.08,35.42-6.88,51.91,0,3.25,0,6.38,0,9.41.09,33.19.25,52.79.25,52.79"/><path class="cls-1" d="M1090.58,2.19l.15,31c0,2.47-.12,5.08,0,7.81,1.23,21.49-20.5,32.36-28.93,52.79-.78,1.89,0,3.82.78,5.73,9.06,16.54,28.08,25.48,28.63,46.45.06,2.28,0,4.58.05,6.9l.84,177c0,3,.08,5.94,0,8.92,0,2.81,0,5.6.06,8.37s.26,5.6.55,8.38c1.38,13.35,11.85,22.33,18.58,32.18,3.48,5.09,6.5,10.18,7.59,16.12,2.2,12-12.78,20.75-18.84,31a80.1,80.1,0,0,0-4,7.53,29.94,29.94,0,0,0-1.35,4.29c-.76,3-1.39,5.83-2,8.73.35,73.71-.3,146,1,207.47.05,2.4.13,4.78.18,7.14.3,16.2,4.12,30.38,6.4,44.74.33,3.1,1,6.17.68,9.2-2,18.9-6.87,35.52-6.67,52,0,3.25,0,6.39,0,9.41.09,33.21.25,52.81.25,52.81"/><path class="cls-1" d="M1104.55,2.13l.15,31c0,2.47-.12,5.08,0,7.81,1.24,21.56-20.77,32.28-29.3,52.66-.79,1.89,0,3.82.79,5.73,9.17,16.53,28.44,25.34,29,46.31.06,2.28,0,4.58.05,6.91l.84,177.11c0,3,.08,5.94,0,8.92,0,2.81,0,5.6.06,8.38s.25,5.6.54,8.39c1.35,13.37,11.87,22.32,18.7,32.13,3.54,5.07,6.62,10.15,7.75,16.09,2.28,12-12.84,20.73-19,31a79.66,79.66,0,0,0-4.06,7.51,29.54,29.54,0,0,0-1.36,4.29c-.77,3-1.41,5.82-2.06,8.73.35,73.73-.27,146,1,207.56,0,2.4.13,4.78.17,7.14.29,16.21,4,30.44,6.21,44.82.32,3.1,1,6.17.66,9.21-1.94,18.95-6.65,35.62-6.46,52.07,0,3.25,0,6.39,0,9.41l.25,52.84"/><path class="cls-1" d="M1118.53,2.06l.15,31c0,2.47-.12,5.08,0,7.82,1.26,21.62-21,32.21-29.68,52.53-.8,1.89,0,3.82.79,5.73,9.29,16.51,28.79,25.2,29.36,46.18.06,2.28,0,4.59.05,6.91l.84,177.19c0,3,.08,5.94,0,8.92,0,2.81,0,5.6.06,8.38s.24,5.61.52,8.4c1.32,13.39,11.89,22.31,18.83,32.09,3.59,5.06,6.74,10.12,7.9,16.07,2.36,12-12.9,20.71-19.18,30.92a79.24,79.24,0,0,0-4.11,7.5,29.16,29.16,0,0,0-1.38,4.29c-.78,3-1.43,5.82-2.08,8.73.35,73.75-.24,146.07,1,207.65,0,2.4.13,4.78.17,7.15.28,16.22,3.88,30.5,6,44.89.31,3.1.94,6.18.64,9.22-1.88,19-6.44,35.72-6.25,52.15,0,3.25,0,6.39,0,9.42l.25,52.86"/><path class="cls-1" d="M1132.5,2l.15,31c0,2.47-.12,5.09,0,7.82,1.27,21.69-21.32,32.13-30.05,52.4-.81,1.89,0,3.82.8,5.73,9.4,16.5,29.15,25.05,29.72,46,.06,2.28,0,4.59.05,6.91l.84,177.28c0,3,.07,5.95,0,8.93,0,2.81,0,5.6.06,8.39s.23,5.61.5,8.4c1.3,13.41,11.91,22.3,18.95,32,3.65,5,6.85,10.09,8.06,16,2.43,12-13,20.69-19.34,30.88a78.85,78.85,0,0,0-4.16,7.48,28.79,28.79,0,0,0-1.4,4.28c-.79,3-1.45,5.82-2.11,8.73.35,73.77-.21,146.12,1,207.73,0,2.4.12,4.78.16,7.15.28,16.23,3.76,30.56,5.84,45,.3,3.11.91,6.18.62,9.22-1.82,19-6.23,35.82-6,52.23,0,3.25,0,6.39,0,9.42l.25,52.88"/><path class="cls-1" d="M1146.48,1.93l.15,31c0,2.48-.12,5.09,0,7.82,1.28,21.75-21.59,32-30.43,52.27-.83,1.89,0,3.82.81,5.73,9.52,16.49,29.51,24.91,30.09,45.9.06,2.28,0,4.59.05,6.92L1148,329c0,3,.07,5.95,0,8.93,0,2.81,0,5.61.06,8.39s.23,5.62.49,8.41c1.27,13.42,11.93,22.29,19.07,32,3.7,5,7,10.07,8.21,16,2.51,12-13,20.67-19.51,30.84a78.48,78.48,0,0,0-4.21,7.47,28.42,28.42,0,0,0-1.42,4.28c-.8,3-1.47,5.82-2.14,8.73.35,73.79-.18,146.17,1,207.82,0,2.4.12,4.78.16,7.15.27,16.24,3.64,30.62,5.65,45,.29,3.11.88,6.19.6,9.23-1.75,19.08-6,35.92-5.83,52.31,0,3.25,0,6.4,0,9.43l.25,52.9"/><path class="cls-1" d="M1160.45,1.86l.15,31c0,2.48-.13,5.09,0,7.83,1.3,21.82-21.87,32-30.8,52.14-.84,1.89,0,3.82.82,5.73,9.63,16.48,29.87,24.77,30.45,45.77.06,2.29,0,4.59.05,6.92l.84,177.45c0,3,.07,6,0,8.94,0,2.81,0,5.61.06,8.4s.22,5.62.47,8.41c1.24,13.44,11.95,22.28,19.19,31.95,3.76,5,7.09,10,8.37,16,2.59,12-13.09,20.65-19.68,30.8a78.14,78.14,0,0,0-4.27,7.45,28.07,28.07,0,0,0-1.43,4.28c-.81,3-1.48,5.82-2.16,8.73.35,73.81-.15,146.22,1,207.9,0,2.4.12,4.79.16,7.16.26,16.25,3.52,30.68,5.46,45.11.28,3.11.85,6.19.58,9.24-1.69,19.13-5.8,36-5.62,52.39,0,3.25,0,6.4,0,9.43l.25,52.92"/><path class="cls-1" d="M1174.43,1.8l.15,31.06c0,2.48-.13,5.1,0,7.83,1.31,21.88-22.14,31.89-31.18,52-.85,1.89,0,3.82.83,5.73,9.75,16.47,30.23,24.63,30.81,45.63.06,2.29,0,4.6.05,6.92l.84,177.54c0,3,.07,6,0,8.94,0,2.81,0,5.61.06,8.4s.21,5.62.46,8.42c1.21,13.46,12,22.27,19.32,31.9,3.81,5,7.21,10,8.53,16,2.67,12-13.15,20.63-19.85,30.76a77.81,77.81,0,0,0-4.32,7.44,27.73,27.73,0,0,0-1.45,4.28c-.82,3-1.5,5.82-2.19,8.73.35,73.83-.12,146.27,1,208,0,2.4.11,4.79.15,7.16.26,16.27,3.4,30.74,5.28,45.18.27,3.12.82,6.2.56,9.25-1.63,19.18-5.59,36.11-5.41,52.47,0,3.25,0,6.4,0,9.43l.25,52.94"/><path class="cls-1" d="M1188.4,1.73l.15,31.08c0,2.48-.13,5.1,0,7.84,1.33,21.95-22.42,31.81-31.55,51.88-.86,1.89,0,3.82.84,5.73,9.86,16.45,30.58,24.48,31.18,45.49.06,2.29,0,4.6.05,6.93L1190,328.3c0,3,.07,6,0,8.95,0,2.81,0,5.61.06,8.4s.2,5.63.44,8.43c1.18,13.48,12,22.26,19.44,31.86,3.87,5,7.32,10,8.68,15.93,2.75,12-13.21,20.61-20,30.72a77.51,77.51,0,0,0-4.37,7.42,27.39,27.39,0,0,0-1.47,4.27c-.83,3-1.52,5.82-2.22,8.73.35,73.85-.09,146.32,1,208.07,0,2.4.11,4.79.15,7.16.25,16.28,3.28,30.8,5.09,45.25.26,3.12.79,6.21.54,9.26-1.57,19.22-5.37,36.21-5.2,52.55,0,3.26,0,6.4,0,9.44l.25,53"/><path class="cls-1" d="M1202.38,1.66l.15,31.09c0,2.48-.13,5.1,0,7.84,1.34,22-22.69,31.73-31.93,51.75-.87,1.89,0,3.82.85,5.73,10,16.44,30.94,24.34,31.54,45.36.07,2.29,0,4.6.05,6.93l.84,177.72c0,3,.07,6,0,8.95,0,2.81,0,5.61.06,8.41s.19,5.63.43,8.43c1.15,13.5,12,22.25,19.56,31.81,3.92,5,7.44,9.95,8.84,15.9,2.83,12.06-13.27,20.59-20.18,30.68a77.22,77.22,0,0,0-4.42,7.41,27.07,27.07,0,0,0-1.49,4.27c-.84,3-1.54,5.82-2.24,8.73.35,73.87-.06,146.37,1,208.16,0,2.41.11,4.79.14,7.17.24,16.29,3.16,30.85,4.9,45.32a58.88,58.88,0,0,1,.52,9.27c-1.5,19.27-5.16,36.31-5,52.63,0,3.26,0,6.41,0,9.44l.25,53"/><path class="cls-1" d="M1216.35,1.6l.15,31.11c0,2.48-.13,5.1,0,7.84,1.36,22.08-23,31.65-32.3,51.61-.88,1.88,0,3.82.86,5.73,10.09,16.43,31.3,24.2,31.9,45.22.07,2.29,0,4.6.05,6.93l.85,177.8c0,3,.06,6,0,9,0,2.81,0,5.62.06,8.41s.18,5.63.41,8.44c1.12,13.52,12,22.24,19.68,31.77,4,4.95,7.56,9.92,9,15.87,2.91,12.06-13.33,20.57-20.35,30.64a77,77,0,0,0-4.47,7.39,26.75,26.75,0,0,0-1.5,4.27c-.85,3-1.56,5.82-2.27,8.73.35,73.89,0,146.42,1,208.25,0,2.41.1,4.8.14,7.17.24,16.3,3,30.91,4.72,45.4a61.44,61.44,0,0,1,.5,9.27c-1.44,19.31-4.94,36.41-4.78,52.71,0,3.26,0,6.41,0,9.45l.25,53"/><path class="cls-1" d="M1230.33,1.53l.15,31.12c0,2.48-.13,5.11,0,7.85,1.37,22.14-23.24,31.57-32.68,51.48-.89,1.88,0,3.82.87,5.73,10.21,16.42,31.66,24.05,32.27,45.08.07,2.29,0,4.6.05,6.94l.85,177.89c0,3,.06,6,0,9,0,2.82,0,5.62.05,8.42s.17,5.64.4,8.44c1.09,13.53,12,22.23,19.81,31.72,4,4.93,7.68,9.89,9.15,15.84,3,12.07-13.4,20.55-20.51,30.6a76.72,76.72,0,0,0-4.52,7.38,26.45,26.45,0,0,0-1.52,4.27c-.86,3-1.57,5.82-2.3,8.73.35,73.91,0,146.47,1,208.33,0,2.41.1,4.8.13,7.17.2,16.31,2.91,31,4.53,45.47a64.23,64.23,0,0,1,.49,9.28c-1.38,19.36-4.73,36.51-4.57,52.8,0,3.26,0,6.41,0,9.45l.25,53"/><path class="cls-1" d="M1244.3,1.46l.15,31.14c0,2.48-.13,5.11,0,7.85,1.39,22.21-23.52,31.49-33,51.35-.9,1.88,0,3.82.88,5.73,10.32,16.41,32,23.91,32.63,44.95.07,2.29,0,4.61.06,6.94l.85,178c0,3,.06,6,0,9,0,2.82,0,5.62.05,8.42s.16,5.64.38,8.45c1.06,13.55,12.07,22.21,19.93,31.67,4.09,4.92,7.79,9.86,9.3,15.81,3.07,12.07-13.46,20.53-20.68,30.56a76.49,76.49,0,0,0-4.58,7.36,26.15,26.15,0,0,0-1.54,4.26c-.87,3-1.59,5.82-2.32,8.73.35,73.93,0,146.52,1,208.42,0,2.41.09,4.8.13,7.18.19,16.32,2.79,31,4.34,45.54a67.27,67.27,0,0,1,.47,9.29c-1.32,19.4-4.52,36.61-4.36,52.88,0,3.26,0,6.41,0,9.45l.25,53.05"/><path class="cls-1" d="M1258.28,1.4l.15,31.15c0,2.49-.14,5.11,0,7.86,1.4,22.27-23.79,31.41-33.42,51.22-.92,1.88,0,3.82.89,5.73,10.44,16.39,32.37,23.77,33,44.81.07,2.29,0,4.61.06,6.94l.85,178.06c0,3,.06,6,0,9,0,2.82,0,5.62.05,8.43s.15,5.65.37,8.46c1,13.57,12.09,22.2,20.05,31.63,4.14,4.9,7.91,9.83,9.46,15.78,3.14,12.08-13.52,20.51-20.85,30.52a76.29,76.29,0,0,0-4.63,7.35,25.86,25.86,0,0,0-1.56,4.26c-.88,3-1.61,5.82-2.35,8.73.35,73.95.06,146.57,1,208.5,0,2.41.09,4.8.13,7.18.19,16.33,2.67,31.09,4.15,45.61a70.6,70.6,0,0,1,.45,9.3c-1.25,19.45-4.3,36.71-4.15,53,0,3.26,0,6.42,0,9.46l.25,53.07"/><path class="cls-1" d="M1272.26,1.33l.15,31.17c0,2.49-.14,5.11,0,7.86,1.42,22.34-24.07,31.33-33.8,51.09-.93,1.88,0,3.82.9,5.73,10.55,16.38,32.73,23.63,33.36,44.67.07,2.29,0,4.61.06,6.95l.85,178.15c0,3,.06,6,0,9,0,2.82,0,5.63.05,8.43s.14,5.65.35,8.46c1,13.59,12.11,22.19,20.17,31.58,4.2,4.88,8,9.8,9.62,15.76,3.22,12.09-13.58,20.49-21,30.48a76.1,76.1,0,0,0-4.68,7.34,25.57,25.57,0,0,0-1.58,4.26c-.89,3-1.63,5.82-2.38,8.73.35,74,.09,146.62,1,208.59,0,2.41.09,4.81.12,7.18.18,16.34,2.55,31.15,4,45.69a74.27,74.27,0,0,1,.43,9.31c-1.19,19.49-4.09,36.81-3.94,53,0,3.26,0,6.42,0,9.46l.25,53.09"/><path class="cls-1" d="M1286.23,1.26l.15,31.19c0,2.49-.14,5.12,0,7.87,1.43,22.4-24.34,31.25-34.17,51-.94,1.88,0,3.82.91,5.73,10.67,16.37,33.09,23.48,33.72,44.54.07,2.3,0,4.61.06,7l.85,178.24c0,3,.06,6,0,9,0,2.82,0,5.63.05,8.43s.13,5.65.33,8.47c1,13.61,12.13,22.18,20.3,31.54,4.25,4.87,8.15,9.77,9.77,15.73,3.3,12.09-13.64,20.47-21.18,30.43a75.93,75.93,0,0,0-4.73,7.32,25.3,25.3,0,0,0-1.59,4.26c-.9,3-1.65,5.82-2.4,8.72.35,74,.12,146.67,1,208.67,0,2.41.08,4.81.12,7.19.18,16.35,2.43,31.21,3.78,45.76a78.33,78.33,0,0,1,.41,9.31c-1.13,19.54-3.88,36.91-3.73,53.12,0,3.27,0,6.42,0,9.47l.25,53.12"/><path class="cls-1" d="M1300.21,1.2l.15,31.2c0,2.49-.14,5.12,0,7.87,1.45,22.47-24.62,31.17-34.55,50.83-.95,1.88,0,3.82.92,5.72,10.78,16.36,33.45,23.34,34.09,44.4.07,2.3,0,4.62.06,7l.85,178.32c0,3,.06,6,0,9,0,2.82,0,5.63.05,8.44s.12,5.66.32,8.48c.95,13.63,12.15,22.17,20.42,31.49,4.31,4.85,8.26,9.74,9.93,15.7,3.38,12.1-13.7,20.45-21.35,30.39a75.78,75.78,0,0,0-4.78,7.31,25,25,0,0,0-1.61,4.25c-.91,3-1.67,5.82-2.43,8.72.35,74,.15,146.72,1,208.76,0,2.41.08,4.81.11,7.19.17,16.36,2.31,31.27,3.59,45.83a82.83,82.83,0,0,1,.39,9.32c-1.06,19.59-3.66,37-3.52,53.2,0,3.27,0,6.43,0,9.47l.25,53.14"/><path class="cls-1" d="M1314.18,1.13l.15,31.22c0,2.49-.14,5.12,0,7.87,1.46,22.53-24.89,31.09-34.92,50.7-1,1.88,0,3.82.93,5.72,10.9,16.35,33.8,23.2,34.45,44.27.07,2.3,0,4.62.06,7l.85,178.41c0,3,.05,6,0,9,0,2.82,0,5.63.05,8.44s.11,5.66.3,8.48c.92,13.64,12.17,22.16,20.54,31.44,4.36,4.84,8.38,9.72,10.08,15.67,3.46,12.1-13.76,20.43-21.51,30.35a75.64,75.64,0,0,0-4.84,7.29,24.77,24.77,0,0,0-1.63,4.25c-.92,3-1.68,5.82-2.46,8.72.35,74,.18,146.77,1,208.85,0,2.41.08,4.81.11,7.19.17,16.37,2.19,31.33,3.41,45.9a87.87,87.87,0,0,1,.37,9.33c-1,19.63-3.45,37.11-3.31,53.28,0,3.27,0,6.43,0,9.47l.25,53.16"/><path class="cls-1" d="M1328.16,1.07l.15,31.23c0,2.49-.14,5.13,0,7.88,1.48,22.6-25.17,31-35.3,50.57-1,1.88,0,3.82.94,5.72,11,16.33,34.16,23.05,34.81,44.13.07,2.3,0,4.62.06,7l.85,178.5c0,3,.05,6,0,9,0,2.82,0,5.63.05,8.45s.1,5.66.29,8.49c.89,13.66,12.19,22.15,20.66,31.4,4.42,4.82,8.5,9.69,10.24,15.64,3.54,12.11-13.83,20.41-21.68,30.31a75.52,75.52,0,0,0-4.89,7.28,24.51,24.51,0,0,0-1.65,4.25c-.93,3-1.7,5.82-2.48,8.72.35,74,.21,146.82,1,208.93,0,2.42.07,4.81.1,7.2.16,16.38,2.07,31.38,3.22,46,.17,3.15.5,6.26.35,9.34-.93,19.68-3.24,37.21-3.1,53.36,0,3.27,0,6.43,0,9.48l.25,53.18"/><path class="cls-1" d="M1342.13,1l.15,31.25c0,2.49-.14,5.13,0,7.88,1.49,22.66-25.44,30.92-35.67,50.44-1,1.87,0,3.82.95,5.72,11.13,16.32,34.52,22.91,35.18,44,.07,2.3,0,4.62.06,7l.85,178.58c0,3,.05,6,0,9,0,2.82,0,5.64,0,8.45s.1,5.67.27,8.49c.86,13.68,12.21,22.14,20.79,31.35,4.47,4.8,8.62,9.66,10.39,15.61,3.62,12.12-13.89,20.39-21.85,30.27a75.42,75.42,0,0,0-4.94,7.26,24.26,24.26,0,0,0-1.66,4.25c-.94,3-1.72,5.82-2.51,8.72.35,74.07.24,146.87,1,209,0,2.42.07,4.82.1,7.2.16,16.39,2,31.44,3,46,.16,3.15.47,6.27.33,9.35-.87,19.72-3,37.31-2.89,53.44,0,3.27,0,6.43,0,9.48l.25,53.2"/><path class="cls-1" d="M1356.11.93l.15,31.26c0,2.49-.15,5.13,0,7.89,1.51,22.73-25.72,30.84-36,50.3-1,1.87,0,3.82,1,5.72,11.24,16.31,34.88,22.77,35.54,43.86.07,2.3,0,4.62.06,7l.85,178.67c0,3,0,6,0,9,0,2.82,0,5.64,0,8.46s.09,5.67.26,8.5c.83,13.7,12.23,22.12,20.91,31.31,4.53,4.79,8.73,9.63,10.55,15.59,3.7,12.12-13.95,20.37-22,30.23a75.33,75.33,0,0,0-5,7.25,24,24,0,0,0-1.68,4.25c-1,3-1.74,5.82-2.54,8.72.35,74.09.27,146.92,1,209.1,0,2.42.07,4.82.1,7.2.15,16.4,1.83,31.5,2.84,46.12.15,3.16.43,6.28.31,9.35-.85,19.77-2.81,37.41-2.68,53.52,0,3.27,0,6.44,0,9.49l.25,53.22"/><path class="cls-1" d="M1370.08.87l.15,31.28c0,2.5-.15,5.13,0,7.89,1.52,22.79-26,30.76-36.42,50.17-1,1.87,0,3.82,1,5.72,11.36,16.3,35.23,22.62,35.9,43.72.07,2.3,0,4.63.06,7l.85,178.76c0,3,0,6,0,9,0,2.82,0,5.64,0,8.46s.08,5.67.24,8.51c.8,13.72,12.25,22.11,21,31.26,4.58,4.77,8.85,9.6,10.71,15.56,3.78,12.13-14,20.35-22.18,30.19a75.26,75.26,0,0,0-5,7.23,23.79,23.79,0,0,0-1.7,4.24c-1,3-1.76,5.82-2.56,8.72.35,74.11.3,147,1,209.19,0,2.42.06,4.82.09,7.21.15,16.42,1.71,31.56,2.66,46.19.14,3.16.4,6.28.29,9.36-.78,19.81-2.59,37.51-2.47,53.6,0,3.27,0,6.44,0,9.49l.25,53.25"/><path class="cls-1" d="M1384.06.8l.15,31.29c0,2.5-.15,5.14,0,7.89,1.54,22.86-26.27,30.68-36.8,50-1,1.87,0,3.81,1,5.72,11.47,16.29,35.59,22.48,36.27,43.58.07,2.3,0,4.63.06,7l.85,178.84c0,3,0,6,0,9,0,2.82,0,5.64,0,8.46s.07,5.68.23,8.51c.77,13.74,12.27,22.1,21.15,31.22,4.64,4.76,9,9.57,10.86,15.53,3.85,12.13-14.07,20.33-22.35,30.15a75.21,75.21,0,0,0-5.1,7.22,23.55,23.55,0,0,0-1.72,4.24c-1,3-1.78,5.82-2.59,8.72.35,74.12.33,147,1,209.27,0,2.42.06,4.82.09,7.21.14,16.43,1.59,31.62,2.47,46.26.13,3.16.38,6.29.27,9.37-.71,19.86-2.38,37.61-2.26,53.68,0,3.28,0,6.44,0,9.49l.25,53.27"/><path class="cls-1" d="M1398,.73l.15,31.31c0,2.5-.15,5.14,0,7.9,1.55,22.92-26.54,30.59-37.17,49.91-1,1.87,0,3.81,1,5.72,11.59,16.28,35.95,22.34,36.63,43.45.07,2.3,0,4.63.06,7l.85,178.93c0,3,0,6,0,9,0,2.82,0,5.65,0,8.47s.06,5.68.21,8.52c.74,13.75,12.29,22.09,21.28,31.17,4.69,4.74,9.08,9.54,11,15.5,3.93,12.14-14.13,20.31-22.51,30.11a75.17,75.17,0,0,0-5.15,7.2,23.33,23.33,0,0,0-1.73,4.24c-1,3-1.79,5.81-2.62,8.72.35,74.14.37,147.07,1,209.36,0,2.42.06,4.83.08,7.21.14,16.44,1.47,31.68,2.28,46.34.12,3.17.35,6.29.26,9.38-.64,19.91-2.17,37.71-2,53.76,0,3.28,0,6.44,0,9.5l.25,53.29"/><path class="cls-1" d="M1412,.67l.15,31.33c0,2.5-.15,5.14,0,7.9,1.57,23-26.82,30.51-37.55,49.78-1,1.87,0,3.81,1,5.72,11.7,16.26,36.31,22.2,37,43.31.08,2.31,0,4.63.06,7l.85,179c0,3,0,6,0,9,0,2.83,0,5.65,0,8.47s0,5.69.2,8.52c.71,13.77,12.32,22.06,21.4,31.12,4.75,4.71,9.2,9.51,11.17,15.47,4,12.14-14.2,20.29-22.68,30.07a75.14,75.14,0,0,0-5.2,7.19,23.11,23.11,0,0,0-1.75,4.24c-1,3-1.81,5.81-2.64,8.72.35,74.16.4,147.12,1,209.45,0,2.42.05,4.83.08,7.22.13,16.45,1.35,31.74,2.1,46.41.11,3.17.32,6.3.24,9.39-.58,20-2,37.81-1.84,53.84,0,3.28,0,6.45,0,9.5l.25,53.31"/><path class="cls-1" d="M1426,.6l.15,31.34c0,2.5-.15,5.14,0,7.91,1.58,23.06-27.09,30.43-37.92,49.65-1.05,1.87,0,3.81,1,5.72,11.82,16.25,36.67,22.05,37.36,43.17.08,2.31,0,4.64.06,7l.85,179.1c0,3,0,6,0,9,0,2.83,0,5.65,0,8.48s0,5.69.18,8.53c.68,13.79,12.34,22.05,21.52,31.08,4.81,4.7,9.32,9.48,11.33,15.45,4.09,12.15-14.26,20.27-22.85,30a75.13,75.13,0,0,0-5.25,7.17,22.9,22.9,0,0,0-1.77,4.23c-1,3-1.83,5.81-2.67,8.72.35,74.18.43,147.17,1,209.53,0,2.42.05,4.83.07,7.22.13,16.46,1.23,31.8,1.91,46.48.1,3.17.29,6.31.22,9.39-.51,20-1.74,37.91-1.63,53.93,0,3.28,0,6.45,0,9.51l.25,53.33"/><path class="cls-1" d="M1440,.53l.15,31.36c0,2.5-.15,5.15,0,7.91,1.59,23.12-27.37,30.34-38.3,49.52-1.06,1.87,0,3.81,1,5.72,11.93,16.24,37,21.91,37.72,43,.08,2.31,0,4.64.06,7l.85,179.19c0,3,0,6,0,9,0,2.83,0,5.65,0,8.48s0,5.69.16,8.54c.65,13.81,12.36,22,21.64,31,4.86,4.68,9.44,9.45,11.49,15.42,4.17,12.15-14.32,20.25-23,30a75.13,75.13,0,0,0-5.3,7.16,22.69,22.69,0,0,0-1.79,4.23c-1,3-1.85,5.81-2.7,8.72.35,74.2.46,147.22,1,209.62,0,2.42,0,4.83.07,7.22.12,16.47,1.11,31.86,1.72,46.55.09,3.18.26,6.31.2,9.4-.44,20-1.53,38-1.42,54,0,3.28,0,6.45,0,9.51l.25,53.35"/><path class="cls-1" d="M1453.93.47l.15,31.37c0,2.5-.15,5.15,0,7.91,1.61,23.19-27.65,30.26-38.67,49.39-1.07,1.86,0,3.81,1,5.72,12,16.23,37.38,21.77,38.09,42.9.08,2.31,0,4.64.06,7l.85,179.28c0,3,0,6,0,9,0,2.83,0,5.66,0,8.49s0,5.7.15,8.54c.62,13.83,12.38,22,21.76,31,4.92,4.67,9.55,9.42,11.64,15.39,4.25,12.16-14.38,20.23-23.18,29.95a75.15,75.15,0,0,0-5.35,7.14,22.48,22.48,0,0,0-1.8,4.23c-1,3-1.87,5.81-2.72,8.72.35,74.22.49,147.27,1,209.7q0,3.64.06,7.23c.11,16.48,1,31.91,1.53,46.63.08,3.18.23,6.32.18,9.41-.37,20.09-1.31,38.11-1.21,54.09,0,3.28,0,6.46,0,9.51l.25,53.38"/><path class="cls-1" d="M1467.91.4l.15,31.39c0,2.51-.16,5.15,0,7.92,1.62,23.25-27.92,30.17-39,49.26-1.09,1.86,0,3.81,1,5.72,12.16,16.22,37.74,21.62,38.45,42.76.08,2.31,0,4.64.06,7l.85,179.36c0,3,0,6,0,9,0,2.83,0,5.66,0,8.49s0,5.7.13,8.55c.59,13.84,12.4,22,21.89,30.94,5,4.65,9.67,9.39,11.8,15.36,4.33,12.16-14.44,20.21-23.35,29.91a75.18,75.18,0,0,0-5.41,7.13,22.29,22.29,0,0,0-1.82,4.23c-1,3-1.88,5.81-2.75,8.72.35,74.24.52,147.32,1,209.79q0,3.64.06,7.23c.11,16.49.87,32,1.35,46.7.07,3.18.2,6.32.16,9.42-.31,20.14-1.1,38.21-1,54.17,0,3.28,0,6.46,0,9.52l.25,53.4"/><path class="cls-1" d="M1481.89.33l.15,31.4c0,2.51-.16,5.16,0,7.92,1.64,23.32-28.2,30.09-39.42,49.13-1.1,1.86,0,3.81,1,5.72,12.28,16.2,38.1,21.48,38.81,42.63.08,2.31,0,4.64.06,7l.85,179.45c0,3,0,6,0,9,0,2.83,0,5.66,0,8.49s0,5.7.12,8.56c.56,13.86,12.42,22,22,30.89,5,4.64,9.79,9.36,12,15.33,4.41,12.17-14.5,20.19-23.51,29.87a75.23,75.23,0,0,0-5.46,7.11,22.09,22.09,0,0,0-1.84,4.22c-1,3-1.9,5.81-2.78,8.71.35,74.26.55,147.37,1,209.88q0,3.64.06,7.23c.1,16.5.75,32,1.16,46.77.06,3.19.17,6.33.14,9.43-.24,20.18-.88,38.31-.79,54.25,0,3.29,0,6.46,0,9.52l.25,53.42"/><path class="cls-1" d="M1495.86.27l.15,31.42c0,2.51-.16,5.16,0,7.93,1.65,23.38-28.47,30-39.79,49-1.11,1.86,0,3.81,1.05,5.72,12.39,16.19,38.45,21.34,39.18,42.49.08,2.31,0,4.65.06,7l.85,179.54c0,3,0,6,0,9q0,4.24,0,8.5c0,2.85,0,5.71.1,8.56.53,13.88,12.44,22,22.13,30.85,5.08,4.62,9.91,9.33,12.11,15.3,4.49,12.17-14.56,20.17-23.68,29.83a75.28,75.28,0,0,0-5.51,7.1,21.9,21.9,0,0,0-1.86,4.22c-1.05,3-1.92,5.81-2.8,8.71l1,210q0,3.64.05,7.24c.1,16.51.63,32.09,1,46.84.05,3.19.15,6.33.12,9.44-.17,20.23-.7,38.41-.58,54.33q0,4.93,0,9.53l.25,53.44"/><path class="cls-1" d="M1509.84.2l.15,31.43c0,2.51-.16,5.16,0,7.93,1.67,23.45-28.75,29.92-40.17,48.86-1.12,1.86,0,3.81,1.06,5.72,12.51,16.18,38.81,21.2,39.54,42.35.08,2.31,0,4.65.06,7l.85,179.62,0,9q0,4.25,0,8.5c0,2.85,0,5.71.09,8.57.5,13.9,12.45,22,22.25,30.8,5.13,4.61,10,9.3,12.26,15.28,4.56,12.18-14.63,20.15-23.85,29.79a75.36,75.36,0,0,0-5.56,7.08,21.72,21.72,0,0,0-1.87,4.22c-1.06,3-1.94,5.81-2.83,8.71l1,210q0,3.64,0,7.24c.09,16.52.51,32.15.79,46.92,0,3.19.12,6.34.1,9.44-.11,20.28-.48,38.51-.37,54.41q0,4.93,0,9.53l.25,53.46"/><path class="cls-1" d="M1523.81.14l.15,31.45c0,2.51-.16,5.16,0,7.93,1.68,23.51-29,29.83-40.54,48.73-1.13,1.86,0,3.81,1.07,5.72,12.62,16.17,39.17,21.05,39.9,42.22.08,2.31,0,4.65.06,7l.85,179.71,0,9q0,4.25,0,8.51c0,2.85,0,5.71.07,8.57.47,13.92,12.47,22,22.38,30.76,5.19,4.59,10.14,9.27,12.42,15.25,4.64,12.18-14.69,20.13-24,29.75a75.44,75.44,0,0,0-5.61,7.07,21.54,21.54,0,0,0-1.89,4.22c-1.07,3-2,5.81-2.86,8.71l1,210.13q0,3.65,0,7.24c.09,16.53.39,32.21.6,47,0,3.2.09,6.35.08,9.45,0,20.32-.26,38.61-.16,54.49q0,4.93,0,9.53l.25,53.48"/><path class="cls-1" d="M1537.79.07l.15,31.47c0,2.51-.16,5.17,0,7.94,1.7,23.58-29.3,29.74-40.92,48.6-1.14,1.86,0,3.81,1.08,5.71,12.74,16.16,39.53,20.91,40.27,42.08.08,2.31,0,4.65.06,7l.85,179.8,0,9.05q0,4.25,0,8.51c0,2.86,0,5.72.06,8.58.45,13.93,12.49,22,22.5,30.71,5.24,4.57,10.26,9.24,12.58,15.22,4.72,12.19-14.75,20.11-24.18,29.71a75.54,75.54,0,0,0-5.67,7.06,21.36,21.36,0,0,0-1.91,4.21c-1.08,3-2,5.81-2.88,8.71l1,210.22q0,3.65,0,7.25c.08,16.54.27,32.27.41,47.06,0,3.2.06,6.35.06,9.46,0,20.37,0,38.71,0,54.57q0,4.94,0,9.54l.25,53.51"/><path class="cls-1" d="M1551.76,0l.15,31.48,0,7.94c3.31,23.47-28.6,30.3-41.29,48.47-1.06,1.91,0,3.81,1.09,5.71,12.85,16.14,39.49,20.78,40.63,41.95,0,2.32,0,4.66.06,7l.94,197.45,0,8.59c1.17,21.24,27.82,28.73,35.35,45.86,4.32,12.37-14.81,20.09-24.35,29.67-3.18,3.83-6.36,6.7-7.64,11.25a74.78,74.78,0,0,0-2.91,8.71L1555.74,836"/></g></g></svg>