<svg xmlns="http://www.w3.org/2000/svg" viewBox="0 0 304.66 375.84"><defs><style>.cls-1{fill:blue;}</style></defs><title>saw machine</title><g id="Layer_2" data-name="Layer 2"><g id="Layer_1-2" data-name="Layer 1"><path class="cls-1" d="M113.84,150.13H64.55a14,14,0,0,1-14-14V84.65a50.94,50.94,0,0,1,50.88-50.88H283.53A21.15,21.15,0,0,1,304.66,54.9V79.56a31.7,31.7,0,0,1-28.89,31.69c-20.36,1.9-51.05,4-62.53,4l-.5,0-80.27-8ZM101.41,43.9A40.8,40.8,0,0,0,60.66,84.65V136.1a3.9,3.9,0,0,0,3.9,3.89h42.64l18.93-43.62,87.37,8.75c10.18,0,39.23-1.91,61.34-4a21.61,21.61,0,0,0,19.7-21.6V54.9a11,11,0,0,0-11-11Z"/><rect class="cls-1" x="262.42" y="107.03" width="10.13" height="82.64" transform="translate(-7.72 14.87) rotate(-3.14)"/><rect class="cls-1" x="166.48" y="144.83" width="80.47" height="10.13" transform="translate(25.29 329.58) rotate(-80.67)"/><path class="cls-1" d="M290.63,257.29H131.81V247.16H290.63a3.9,3.9,0,0,0,3.89-3.89v-29a21.16,21.16,0,0,0-21.13-21.14H144.49V183H273.39a31.3,31.3,0,0,1,31.27,31.27v29A14,14,0,0,1,290.63,257.29Z"/><rect class="cls-1" x="39" y="89.37" width="16.6" height="10.13"/><rect class="cls-1" x="79.28" y="145.06" width="10.13" height="29.42"/><rect class="cls-1" x="186.53" y="3.74" width="10.13" height="35.09"/><rect class="cls-1" x="235.03" y="14.78" width="10.13" height="24.05"/><path class="cls-1" d="M15.91,352.19,9.43,336.9C4.07,324.22-7,290.66,6.25,252.74c4.18-12,14.59-34.7,37.33-52.12C87.52,167,140.73,180.19,151,183.18l8.16,2.39-6,6C143,201.83,136.83,213,134.79,224.74a28.47,28.47,0,0,0,.44,13.13c1,4.58,2.24,10.29,1.31,21.49a153.14,153.14,0,0,1-3,18.9,234.22,234.22,0,0,0-4.5,30.57c-.21,2.5-.34,4.55-.42,5.85l-.38,6.14-6-1.55a418.45,418.45,0,0,0-42.88-8.81c-36.89-5.57-43.39-1.35-45.83.24-9.1,5.92-12.92,17-14.51,25.2Zm97.57-164c-19,0-42.59,4.25-63.74,20.46-20.65,15.82-30.12,36.5-33.93,47.41-8.65,24.8-5.9,47.6-1.84,62.78a40,40,0,0,1,14.09-16.67c6.32-4.11,17.1-7.17,52.87-1.76,12.68,1.91,25.44,4.44,38,7.53a243,243,0,0,1,4.67-31.73,142.92,142.92,0,0,0,2.81-17.72c.8-9.69-.17-14.17-1.12-18.5a38,38,0,0,1-.52-17c2-11.35,7.1-22.11,15.28-32.08A132.73,132.73,0,0,0,113.48,188.21Z"/><path class="cls-1" d="M119.81,311.72c.83,4.16-4.12,5.88-6.25,8.54a9.11,9.11,0,0,0-2,6.61c.41,5.89,5.16,9.69,9.5,13,1.54,1.17,3-1.43,1.51-2.59-3-2.29-6.52-4.91-7.68-8.69-1.33-4.36,1.26-6.72,4.16-9.23,2.68-2.31,4.38-4.84,3.66-8.44-.38-1.89-3.27-1.09-2.89.8Z"/><path class="cls-1" d="M106,311.35c-2.51,1.89-5.23,4.08-5.41,7.49s4.66,5.55,3.66,8c-.32.81-2.15,1.64-2.7,2.61a7.19,7.19,0,0,0-.89,3.72c.1,3.88,2.95,6.77,5.6,9.26,1.41,1.32,3.53-.8,2.12-2.12a18.72,18.72,0,0,1-3.74-4.13c-1.65-3-.47-4.42,1.61-7.1.7-.91,1.65-1.28,1.87-2.6a3.61,3.61,0,0,0-.85-2.89c-.6-.82-2.19-1.43-2.64-2.28-1.74-3.29.44-5.56,2.87-7.4,1.52-1.15,0-3.76-1.51-2.59Z"/><path class="cls-1" d="M83.41,309.4c.8.2-3.45,4.48-3.77,5.12a5.72,5.72,0,0,0-.14,4.45,25.52,25.52,0,0,0,6.83,10.7c1.38,1.35,3.5-.77,2.12-2.12a24.14,24.14,0,0,1-5.23-7.24c-1.24-2.73-.29-4.52,1.51-6.58a16.06,16.06,0,0,0,1.39-1.38c1.55-2.26.8-5.13-1.92-5.83-1.87-.48-2.67,2.41-.8,2.89Z"/><path class="cls-1" d="M64.15,304.11c-2.89,1-8.29,3.61-7.8,7.48.54,4.24,9.83,5.76,4.24,11-1.42,1.32.71,3.44,2.12,2.12a7.34,7.34,0,0,0,1.83-8.3,7.82,7.82,0,0,0-2.82-3.19c-1.09-.83-2.54-1.25-1.91-2.93S63.54,307.5,65,307c1.81-.63,1-3.53-.8-2.89Z"/><path class="cls-1" d="M38.75,304c-3,1-8.57,3.65-8.76,7.49-.22,4.26,8.2,7.86,10.79,10.15,3.78,3.34,6,7.22,5.5,12.33-.18,1.85-.69,3.56.23,5.35,1.06,2.06,3.37,3,5.29,4.07,3.63,2,7.3,3.9,10.94,5.85,1.7.91,3.22-1.68,1.51-2.59-4.06-2.17-9.61-4.07-13.13-7-2.92-2.47-1.22-9.66-2.95-13.37a22.64,22.64,0,0,0-6.81-8c-1.67-1.32-3.44-2.5-5.16-3.76-2.43-1.77-3-3-1.07-5.24,1-1.18,3-1.92,4.4-2.38,1.82-.61,1-3.51-.8-2.89Z"/><path class="cls-1" d="M18.83,319.93c1.67,3.49,3.61,7,5.05,10.56.73,1.82,1.34,3.31.93,5.21-.25,1.19-.92,1.31-1.15,2.61-.9,5.16,4.08,8.45,6.69,12,1.12,1.55,3.73.05,2.59-1.51-1.52-2.08-6-5.4-6.12-8-.11-2.36,1.84-4.15,1.9-6.32.05-1.85-1.51-4-2.25-5.59l-5.05-10.56c-.83-1.74-3.42-.22-2.59,1.51Z"/><path class="cls-1" d="M13.23,342.63a36.43,36.43,0,0,0,3.61,7.11c1.58,2.6.53,3.89.84,6.83.68,6.43,3.09,12.76,5.94,18.51.86,1.73,3.45.21,2.59-1.51-3.37-6.8-5.21-13.27-5.14-20.7,0-4.21-3.53-7-5-11-.63-1.81-3.53-1-2.89.8Z"/><path class="cls-1" d="M121.72,195.16c-5.92,8.3-12.16,18.19-9.22,28.82,1.43,5.17,4.86,9.49,6.62,14.52,2.63,7.56-.33,15-3.24,21.94-.74,1.78,2.16,2.55,2.89.8,2.18-5.21,4.45-10.68,4.46-16.43,0-4.82-1.87-9.07-4-13.26-3.07-5.95-5.42-11.23-3.85-18.05,1.44-6.21,5.33-11.71,9-16.82,1.12-1.57-1.48-3.07-2.59-1.51Z"/><path class="cls-1" d="M74.62,204.32c-4.65,1.13-7.65,4.27-11.45,6.95-4.12,2.9-8.93,3.39-13.47,5.28-4.07,1.69-6.4,4.42-8.35,8.3-2.86,5.68-5.5,11.48-8.25,17.22-.83,1.73,1.76,3.26,2.59,1.51l6.71-14c2.68-5.59,5-9.27,11.19-11.19,3.39-1.06,6.83-1.79,9.88-3.69,4.07-2.53,7.13-6.31,12-7.48,1.88-.46,1.08-3.35-.8-2.89Z"/><path class="cls-1" d="M21.43,262.15c-6.41,11.23-3.1,23.7.56,35.26.58,1.83,3.48,1.05,2.89-.8-3.4-10.72-6.85-22.46-.87-32.95a1.5,1.5,0,0,0-2.59-1.51Z"/><path class="cls-1" d="M85.71,295.25c6,2.55,10.54,1.23,16.6-.38,4.66-1.24,11.1.56,14.26-4.07,4.83-7.09-1.36-19.44-9-11.2-2.43,2.62-4.08,5.06-7.72,6.24a13.46,13.46,0,0,1-10.23-.72c-4.15-2.13-7.57-7.4-12.91-5.66a6.8,6.8,0,0,0-4.18,8.93c2.42,6,8.63,2.81,12.68,5.94,1.53,1.18,3-1.43,1.51-2.59-2-1.55-4.08-1.58-6.5-1.83q-6.32.2,1.21-7a14,14,0,0,1,2.09,1.47c1.16.86,2.24,1.88,3.46,2.65a16.37,16.37,0,0,0,14.27,1.47,15.54,15.54,0,0,0,5.6-3.44c.74-.72,2.3-3.59,3.24-3.82l5.25,3.28a7.05,7.05,0,0,1-3.69,6.3c-3,1.11-7,.28-10.15,1.15-5,1.37-9.09,2.88-14.29.69-1.76-.74-3.29,1.84-1.51,2.59Z"/><path class="cls-1" d="M259.68,243c8.25-4.61,32.77,1.85,30.9-14.78-.21-1.9-3.22-1.92-3,0,1,9.31-10.37,9.5-16.74,9.54-4.51,0-8.69.41-12.68,2.65-1.69.94-.17,3.53,1.51,2.59Z"/><path class="cls-1" d="M221.76,122.44c-4.46,5.13-1.42,10.53-.48,16.38,1.24,7.69-2.27,15.17-.77,22.92.37,1.89,3.26,1.09,2.89-.8-1.2-6.2,1-12.13,1.15-18.3.15-5.48-4.68-13.47-.67-18.08,1.26-1.45-.85-3.58-2.12-2.12Z"/><path class="cls-1" d="M230.4,122.88,226.15,131c-.9,1.71,1.69,3.23,2.59,1.51l4.25-8.09c.9-1.71-1.69-3.23-2.59-1.51Z"/><path class="cls-1" d="M257.19,93.7c7.36,2.24,16.78,2.09,22.76-3.38,4.94-4.51,6.54-12.16,2.64-17.79C281.5,71,278.9,72.45,280,74c3.65,5.27,1.28,12.38-4.07,15.53s-12.15,3-17.94,1.24c-1.85-.56-2.64,2.33-.8,2.89Z"/><path class="cls-1" d="M262.16,53.35c5.17,1,12.66,2.58,13.17,9,.15,1.91,3.15,1.93,3,0-.63-8.05-8.6-10.64-15.37-11.93-1.89-.36-2.69,2.53-.8,2.89Z"/><path class="cls-1" d="M87.73,133.16a37.59,37.59,0,0,0,13.79.39c1.9-.29,1.09-3.18-.8-2.89a33.43,33.43,0,0,1-12.19-.39c-1.88-.41-2.69,2.49-.8,2.89Z"/><path class="cls-1" d="M116.68,95.31a64,64,0,0,1-12,24.51c-1.19,1.5.92,3.63,2.12,2.12A67.57,67.57,0,0,0,119.57,96.1c.47-1.87-2.42-2.67-2.89-.8Z"/><path class="cls-1" d="M44,106.12l.62-.62a1.5,1.5,0,0,0-2.12-2.12l-.62.62A1.5,1.5,0,0,0,44,106.12Z"/><path class="cls-1" d="M72.67,154.94a15.44,15.44,0,0,1-.07,12.32c-.74,1.78,2.16,2.55,2.89.8a18.33,18.33,0,0,0-.23-14.63c-.77-1.77-3.35-.24-2.59,1.51Z"/><path class="cls-1" d="M128.89,1.07C127.81,5.25,131,8.36,131,12.48c0,3.79-1.1,7,.72,10.55.88,1.72,3.47.2,2.59-1.51-1.71-3.32,0-6.84-.34-10.31-.28-3.12-3-6.2-2.15-9.35.48-1.87-2.41-2.67-2.89-.8Z"/><path class="cls-1" d="M159.73,204.45a66.59,66.59,0,0,1,16.65-3c4.9-.22,10.18,1,15,0a39.88,39.88,0,0,1,13.81-.76c4,.41,7.56.34,11.27-1.31,1.76-.78.24-3.37-1.51-2.59-4.7,2.09-9.63.7-14.52.39-4.57-.29-8.47,1.59-12.94,1.63-5,0-9.75-.57-14.73-.06a71.21,71.21,0,0,0-13.8,2.87c-1.84.57-1.05,3.47.8,2.89Z"/><path class="cls-1" d="M70.17,94.38c1.25-12.14,10.34-24.74,19.25-32.74A21.74,21.74,0,0,1,107,55.77c5.47.49,10.62,1.57,15.89-.53,1.77-.71,1-3.61-.8-2.89-7,2.8-14.21-.54-21.45.39-5.65.72-10.44,3.92-14.43,7.83-9,8.84-17.71,21-19,33.82-.2,1.92,2.8,1.9,3,0Z"/></g></g></svg>