<svg xmlns="http://www.w3.org/2000/svg" viewBox="0 0 234.91 349.25"><defs><style>.cls-1{fill:blue;}</style></defs><title>bulb</title><g id="Layer_2" data-name="Layer 2"><g id="Layer_1-2" data-name="Layer 1"><path class="cls-1" d="M117.46,0A117.45,117.45,0,0,0,41.26,206.84C59.39,223.37,63.08,282.36,63,303.7h0v0c0,3.75,2.94,6.13,6.72,7.69C65.91,313,63,315.35,63,319.11c0,4.72,4.66,7.26,9.78,8.76-4.73,1.53-8.82,4-8.82,8.46,0,7.66,12.26,9.58,18.85,10.61a243.21,243.21,0,0,0,35.64,2.32A243.18,243.18,0,0,0,154,346.94c6.59-1,18.85-2.94,18.85-10.61,0-4.72-4.66-7.26-9.78-8.76,4.73-1.53,8.82-4,8.82-8.46,0-3.75-2.94-6.12-6.72-7.69,3.78-1.57,6.72-3.94,6.72-7.69l0-.45.95-.1c-2.13-20.26-3.49-75.74,15.08-92l.13.17A117.46,117.46,0,0,0,117.46,0ZM81.82,303.72c7.63-1.31,19.64-2.46,35.64-2.46s28,1.15,35.64,2.46c-7.64,1.31-19.64,2.46-35.64,2.46S89.45,305,81.82,303.72Zm71.27,15.39c-7.64,1.31-19.64,2.46-35.64,2.46s-28-1.16-35.64-2.46c7.63-1.31,19.64-2.46,35.64-2.46S145.46,317.8,153.09,319.11Zm-34.69,19.68c-16,0-28-1.15-35.64-2.46,7.64-1.31,19.65-2.46,35.64-2.46s28,1.15,35.64,2.46C146.41,337.64,134.4,338.79,118.41,338.79Zm63.85-136.2-.16-.2c-22.25,17.85-21.64,70.69-20.37,92.45a75.17,75.17,0,0,0-8.64-1.73,236.22,236.22,0,0,0-32.79-2.3c-.78-5.58-3.37-28.36,4.21-42.43,5.36-9.95,5.27-23.21,3.95-37,.69,0,1.38,0,2.06,0,15.78,0,28-4.91,36.51-14.71,14.36-16.55,17.21-46.14,8.45-87.95A374.32,374.32,0,0,0,158.57,52L155.9,45.4,150.39,50C92,98.1,66.23,139.15,73.71,172c5.55,24.37,28.43,35.28,31.69,36.08a126.2,126.2,0,0,0,12.44,2.43c1.29,12.56,1.69,25.07-2.54,32.93-8.57,15.93-6.59,39.27-5.55,47.47a222.74,222.74,0,0,0-27.93,2.22,76.41,76.41,0,0,0-8.54,1.7c-.64-20.51-4-70.42-21.42-91.91l.44-.57a107,107,0,1,1,172.15-84.88A106.19,106.19,0,0,1,182.26,202.59ZM127,198.68c-1.12-9.14-2.18-17.77-1.88-24.75.85-19.46,21.91-55.23,22.12-55.59l-9-5.33c-.92,1.56-22.61,38.39-23.57,60.47-.34,7.78.75,16.74,1.92,26.23q-4.05-.69-8.4-1.74c-1.75-.76-21.22-9.65-24.71-30.47C77.84,133.86,116,92.81,151.41,62.74a373.53,373.53,0,0,1,13.86,48.34c7.9,37.83,5.77,65.08-6.15,78.81-6.94,8-17.62,11.65-31.85,11Q127.14,199.78,127,198.68Z"/><path class="cls-1" d="M31.52,133.46c-3.12-17.21-5.9-35.09,3.92-50.73,1.93-3.08-2.94-5.91-4.86-2.84C20,96.81,22.7,116.26,26.09,135,26.74,138.51,32.17,137,31.52,133.46Z"/><path class="cls-1" d="M60.55,50.34a76.13,76.13,0,0,1,9-6.75c2.27-1.43,6-4.45,8.62-4.69,3.39-.31.82,1.28-.85,1.83a21.14,21.14,0,0,1-5.76.66,12.9,12.9,0,0,0-5.64,1.16c-3.63,2-4.86,6-5.65,9.78q-.28,1.58-.63,3.14l-4.23,2.17c-.27-.78,1.73-3,2.19-3.67,1.42-2.17,2.61-3.87,3-6.44.61-3.54-4.82-5.07-5.43-1.5-.8,4.65-5.57,7.47-5.61,12.47a6.55,6.55,0,0,0,5.8,6.71c3.46.4,6.58-1.79,8.23-4.66,1.43-2.49,1.32-5.19,2.26-7.78S69,47.66,71.57,47c1.38-.33,3.18-.06,4.6-.28,5-.77,17.91-8,9.82-13.76-4.1-2.91-9.85.57-13.59,2.49A81.47,81.47,0,0,0,56.56,46.36C53.81,48.73,57.81,52.69,60.55,50.34Z"/><path class="cls-1" d="M76.18,259.75c.64,6.25-1.62,13.18,1.94,18.88a12,12,0,0,0,14.17,4.64c3.39-1.2,1.93-6.64-1.5-5.43-11.58,4.1-8.37-12.08-9-18.09C81.45,256.18,75.81,256.14,76.18,259.75Z"/><path class="cls-1" d="M119,176.53c-6.1-6.79-11.4-13.39-11.84-22.86-.24-5.25-.25-9.75-4.13-13.69-2.55-2.59-6.53,1.4-4,4,4.29,4.36,2.17,14.68,4.54,20.45,2.52,6.14,7,11.22,11.42,16.09C117.41,183.22,121.38,179.22,119,176.53Z"/><path class="cls-1" d="M107.56,155.25c1.13-5.41,4.59-9.48,7.11-14.26a43.46,43.46,0,0,0,4.55-14.51c.48-3.54-4.94-5.08-5.43-1.5a41.09,41.09,0,0,1-5.8,16.3c-2.46,4-4.89,7.81-5.87,12.47C101.39,157.29,106.82,158.8,107.56,155.25Z"/><path class="cls-1" d="M184.16,51.07A110.52,110.52,0,0,1,195.1,68.69c1.69,3.46,5.26,9.07,5.27,13.07q3.22,5.5-5,3.57a20.52,20.52,0,0,1-.52-6.42c.15-13.35.62-22.74-8.22-33.73-2.27-2.82-6.23,1.18-4,4a31.76,31.76,0,0,1,7.14,22.43c-.23,5.06-1.32,10.24.16,15.22,1.64,5.54,7.17,11,13.29,8,6.93-3.31,3.58-12,1.67-17.41A110.66,110.66,0,0,0,189,48.23C186.88,45.36,182,48.16,184.16,51.07Z"/><path class="cls-1" d="M31.33,125.45a25,25,0,0,0,6.75,22.76c2.55,2.58,6.53-1.4,4-4A19.05,19.05,0,0,1,36.76,127C37.46,123.41,32,121.9,31.33,125.45Z"/><path class="cls-1" d="M40.85,87.34,50.18,78c2.57-2.56-1.41-6.55-4-4l-9.34,9.33C34.3,85.93,38.28,89.91,40.85,87.34Z"/></g></g></svg>