<svg xmlns="http://www.w3.org/2000/svg" viewBox="0 0 352.01 371.35"><defs><style>.cls-1{fill:blue;}</style></defs><title>clothes</title><g id="Layer_2" data-name="Layer 2"><g id="Layer_1-2" data-name="Layer 1"><path class="cls-1" d="M348.85,71.88a21.87,21.87,0,0,0-9.24-8.42L213.52,2.21h0a22,22,0,0,0-23.67,2.86L8,156a21.79,21.79,0,0,0-8,16.88A22.23,22.23,0,0,0,3.78,185.3a21.84,21.84,0,0,0,10.91,8.39l19.11,6.75-21,15.77A21.77,21.77,0,0,0,4,233.75a22.24,22.24,0,0,0,3.82,12.49,21.83,21.83,0,0,0,11.08,8.39l20.67,7.06L18.59,273A21.75,21.75,0,0,0,7,292.33a22.23,22.23,0,0,0,3.67,12.26A21.81,21.81,0,0,0,21.47,313l156.7,57a22,22,0,0,0,20.58-3L335.56,266.25a21.73,21.73,0,0,0,9-17.64,22.31,22.31,0,0,0-4.35-13.26,21.55,21.55,0,0,0-5.32-5.08,22.23,22.23,0,0,0-7.13-3.12l-26.66-6.5,32-23a21.81,21.81,0,0,0,9.17-17.84A22.19,22.19,0,0,0,338.79,168a21.84,21.84,0,0,0-10-8.45l-37.43-15.79L344,100.22a22,22,0,0,0,4.84-28.35ZM219.4,20.71a12,12,0,0,1,1-.89l40.44,19.64c-13.85,7.75-32.1,9.89-47.7,13.16,1.15-5.76,4.63-10.9,4.45-17C217.48,30.15,213.64,26.31,219.4,20.71Zm46.4,48.73c.74-3,1.68-5.88,2.3-8.88,1.27-6.14,1.47-11.94-.44-17.81L306,61.39c-3.06.85-8.23.88-8.78.95A38,38,0,0,0,288,64.9c-6.64,2.66-12.55,6.74-19,9.86C261.47,78.46,264.43,75,265.8,69.44Zm58.89,170.15a9.41,9.41,0,0,1,3,1.32,8.84,8.84,0,0,1,2.95,3.33,9.62,9.62,0,0,1,1.05,4.37,9,9,0,0,1-.9,4,9.16,9.16,0,0,1-2.85,3.36L191.15,356.75a9.19,9.19,0,0,1-8.6,1.24L25.85,301a9,9,0,0,1-4.52-3.49,9.43,9.43,0,0,1-1.54-5.19A9.23,9.23,0,0,1,21,287.75a9,9,0,0,1,3.66-3.5l31.53-16.92,111.16,38a22,22,0,0,0,19.94-2.95l100.09-71.86ZM328,174.84a9.4,9.4,0,0,1,1.44,5,9,9,0,0,1-3.84,7.44l-40.9,29.37-.27-.07-.08.32-104.52,75a9.2,9.2,0,0,1-8.34,1.23L23.08,242.51A9,9,0,0,1,18.46,239a9.46,9.46,0,0,1-1.61-5.29,9,9,0,0,1,3.68-7.3L48.3,205.55,60.84,210a22,22,0,0,0,11.94.77L244,174.05a2.72,2.72,0,0,0,.47,1.31c2.16,3.23,4.8,9.94,8.91,11.33s11.84-3.11,15.41-4.37c6-2.1,12.24-4,17.61-7.48,5.73-3.68,9.68-9.69,15.87-12.58l21.52,9.07A9,9,0,0,1,328,174.84Zm-242.15,20L130,147.27l98.55,17Zm210-35.3c-5.13,3.69-9.25,8.67-15,11.84-4.69,2.59-10,4.12-15.07,5.89-8.08,2.84-11,2.93-16.08-4.45l3.4-.73a22,22,0,0,0,9.41-4.55l17.68-14.6Zm42.54-72.46a9.13,9.13,0,0,1-2.52,3.26l-79.54,65.71-131-22.58L65.43,198c-.11,0-.23,0-.33-.09L19,181.61a9,9,0,0,1-4.55-3.48,9.43,9.43,0,0,1-1.59-5.25,9,9,0,0,1,3.33-7L198,14.93a9.19,9.19,0,0,1,9.89-1.2L210.72,8l-2.8,5.76,7,3.39a18,18,0,0,0-1.31,1.49c-3.11,4-3,7.92-2.6,12.69a31.72,31.72,0,0,1-2.08,15.17,26,26,0,0,0-1.86,9.81,2.92,2.92,0,0,0,3.65,2.78c16.49-3.85,36.29-5.73,51.68-13.87,1.83,6.69.45,12.87-1.34,19.76-1,4-4,10.3-2.51,14.34,2.29,6.3,9.06,2.6,13.45.45,5.5-2.69,10.61-6.17,16.21-8.67,6.37-2.84,12.41-2,18.85-3.42a9.8,9.8,0,0,0,5.46-3.11L334,75a9,9,0,0,1,3.86,3.49,9.38,9.38,0,0,1,1.32,4.81A9.15,9.15,0,0,1,338.38,87.09Z"/><path class="cls-1" d="M277.23,191.35c-13.92,16.83-33.42,26.88-51.11,39.08a269.2,269.2,0,0,0-48.86,43.47c-1.48,1.68,1,4.16,2.47,2.47a266.35,266.35,0,0,1,51.42-45.14c17-11.4,35.3-21.39,48.55-37.41C281.13,192.1,278.67,189.62,277.23,191.35Z"/><path class="cls-1" d="M198.91,244.13c14.35-13,31-22.61,47.87-32,2-1.1.2-4.12-1.76-3C228.54,218.3,212.14,227.7,198,240.3c-14,12.43-26.11,26.81-40.73,38.55-1.75,1.41.73,3.87,2.47,2.47C173.79,270,185.56,256.25,198.91,244.13Z"/><path class="cls-1" d="M200.9,230c1.74-1.42-.74-3.88-2.47-2.47L155,263.15c-1.74,1.42.74,3.88,2.47,2.47Z"/><path class="cls-1" d="M136.89,238.72a40.44,40.44,0,0,1-24.56,6.39,2.61,2.61,0,0,0-2.23-1.11c-3,0-3.57,3.73-1.74,5.19q-13.7-4.28-27.75-7.42c-2.19-.49-3.13,2.88-.93,3.37a339.17,339.17,0,0,1,50.26,15.32c1.61.63,3-1.83,1.7-2.92a77.9,77.9,0,0,0-13.25-9,43.76,43.76,0,0,0,20.27-6.83C140.54,240.54,138.79,237.51,136.89,238.72ZM111.83,249.2q3.33,1.48,6.47,3.26c-2.7-.94-5.42-1.83-8.15-2.7A2.71,2.71,0,0,0,111.83,249.2Z"/><path class="cls-1" d="M153.55,336.64a99.28,99.28,0,0,0,71.39-29.36,1.75,1.75,0,0,0-2.47-2.47,95.72,95.72,0,0,1-68.92,28.34C151.31,333.12,151.3,336.61,153.55,336.64Z"/><path class="cls-1" d="M42,294.72c-5,.91-7.1-5.2-3.45-8.2,1.74-1.43-.74-3.89-2.47-2.47a8.21,8.21,0,0,0-2.25,9.78,8.32,8.32,0,0,0,9.1,4.26C45.15,297.69,44.22,294.32,42,294.72Z"/><path class="cls-1" d="M111,182.11c-1.66,1.52.81,4,2.47,2.47a104.56,104.56,0,0,0,17.09-20.22l-1.11,2.52c-.89,2,2.11,3.82,3,1.76l4.7-10.71a1.93,1.93,0,0,0-1.36-2.62c.27-.52.56-1,.82-1.57,1-2-2-3.78-3-1.76A101.94,101.94,0,0,1,111,182.11Z"/><path class="cls-1" d="M135.71,161.52a1.79,1.79,0,0,0,.63,2.39,1.77,1.77,0,0,0,2.39-.63l1.33-2.61a1.79,1.79,0,0,0-.63-2.39,1.76,1.76,0,0,0-2.39.63Z"/><path class="cls-1" d="M152.82,162.82l17.07-2.23c2.2-.29,2.23-3.78,0-3.49l-17.07,2.23C150.62,159.61,150.59,163.11,152.82,162.82Z"/><path class="cls-1" d="M249,53.57c-3.71,0-3.72,5.77,0,5.77S252.75,53.57,249,53.57Z"/><path class="cls-1" d="M236,65.83c-3.71,0-3.72,5.77,0,5.77S239.67,65.83,236,65.83Z"/><path class="cls-1" d="M220.43,79.72c-3.71,0-3.72,5.77,0,5.77S224.15,79.72,220.43,79.72Z"/><path class="cls-1" d="M199.18,94.43c-3.71,0-3.72,5.77,0,5.77S202.89,94.43,199.18,94.43Z"/><path class="cls-1" d="M175.48,113.23c-3.71,0-3.72,5.77,0,5.77S179.19,113.23,175.48,113.23Z"/><path class="cls-1" d="M152.59,128.76c-3.71,0-3.72,5.77,0,5.77S156.31,128.76,152.59,128.76Z"/><path class="cls-1" d="M188.55,194.19c3.71,0,3.72-5.77,0-5.77S184.84,194.19,188.55,194.19Z"/><path class="cls-1" d="M168.94,207.27c3.71,0,3.72-5.77,0-5.77S165.22,207.27,168.94,207.27Z"/><path class="cls-1" d="M151,212.95c-3.71,0-3.72,5.77,0,5.77S154.67,212.95,151,212.95Z"/><path class="cls-1" d="M132.16,234.24c3.71,0,3.72-5.77,0-5.77S128.44,234.24,132.16,234.24Z"/><path class="cls-1" d="M123.17,294.68c-3.71,0-3.72,5.77,0,5.77S126.88,294.68,123.17,294.68Z"/><path class="cls-1" d="M111.72,303.67c-3.71,0-3.72,5.77,0,5.77S115.44,303.67,111.72,303.67Z"/><path class="cls-1" d="M103.55,312.66c-3.71,0-3.72,5.77,0,5.77S107.27,312.66,103.55,312.66Z"/><path class="cls-1" d="M58.26,183c-4.79-2.16-9.5-4.49-14.1-7A34.14,34.14,0,0,1,38,172.09c-2.61-2.31-5.11-8.42.28-9.41,1.82-.34,1.05-3.12-.77-2.78-5.83,1.07-6.6,8.13-3.44,12.27,2.17,2.85,5.59,4.59,8.66,6.29,4.6,2.55,9.31,4.87,14.1,7C58.48,186.24,60,183.76,58.26,183Z"/><path class="cls-1" d="M52,155.82l4.87-8.69c.91-1.62-1.58-3.08-2.49-1.46l-4.87,8.69C48.63,156,51.12,157.44,52,155.82Z"/></g></g></svg>