<svg xmlns="http://www.w3.org/2000/svg" viewBox="0 0 302.82 437.38"><defs><style>.cls-1{fill:blue;}.cls-2{fill:none;stroke:blue;stroke-miterlimit:10;stroke-width:7px;}</style></defs><title>factory</title><g id="Layer_2" data-name="Layer 2"><g id="Layer_1-2" data-name="Layer 1"><path class="cls-1" d="M224.74,437.38H3.39V339.83H224.74Zm-211.07-10h200.8V349.78H13.66Z"/><path class="cls-2" d="M98.62,316.18"/><polygon class="cls-1" points="302.82 437.38 98.62 437.38 98.62 427.43 292.55 427.43 292.55 327.65 98.62 327.65 98.62 317.7 302.82 317.7 302.82 437.38"/><path class="cls-1" d="M41.58,349H3.39V195.37H41.58ZM13.66,339H31.31V205.32H13.66Z"/><path class="cls-1" d="M104.18,349H56.69V223.17h47.5ZM67,339h27V233.12H67Z"/><path class="cls-1" d="M150.71,327.34H115.06V143.63h35.65Zm-25.38-10h15.11V153.58H125.33Z"/><path class="cls-1" d="M27.79,143.63C12.46,143.63,0,131.56,0,116.72S12.46,89.8,27.79,89.8s27.79,12.07,27.79,26.92S43.11,143.63,27.79,143.63Zm0-43.88c-9.66,0-17.51,7.61-17.51,17s7.86,17,17.51,17,17.51-7.61,17.51-17S37.44,99.75,27.79,99.75Z"/><path class="cls-1" d="M99.13,110.72C79.46,110.72,64,100.14,64,86.62c-12.9-4.15-21-12.28-21-21.46a16.81,16.81,0,0,1,3-9.39A28.92,28.92,0,0,1,43.6,44.31C43.6,28,57.34,14.65,74.22,14.65A31.41,31.41,0,0,1,86.07,17a46.09,46.09,0,0,1,70.64-1,31,31,0,0,1,10.94-2c14,0,25.92,9.33,29.22,22.05h.5c11.87,0,21.54,9.36,21.54,20.86s-9.66,20.86-21.54,20.86a21.7,21.7,0,0,1-17-8.09,30.76,30.76,0,0,1-12.69,2.71,31.12,31.12,0,0,1-10.25-1.74,45.31,45.31,0,0,1-23.13,15.15q0,.36,0,.73C134.28,100.1,118.84,110.72,99.13,110.72ZM74.22,24.6C63,24.6,53.87,33.44,53.87,44.31a19.23,19.23,0,0,0,2.58,9.61L58.25,57l-2.46,2.65a8.15,8.15,0,0,0-2.53,5.48c0,5.26,7.23,10.61,17.57,13L76,79.38l-1.45,5a7.83,7.83,0,0,0-.32,2.19c0,7.71,11.39,14.22,24.87,14.22S124,94.26,124,86.55a8,8,0,0,0-.53-2.81l-2.13-5.65,6.12-1A35,35,0,0,0,151.3,61.8l2.58-4,4.23,2.25a20.39,20.39,0,0,0,9.54,2.36,20.16,20.16,0,0,0,11.55-3.59l5.29-3.67L186.94,61a11.23,11.23,0,0,0,10.43,6.8,10.92,10.92,0,1,0,0-21.82,11.61,11.61,0,0,0-3.28.47l-6.23,1.83L187.47,42C186.84,31.9,178.13,24,167.65,24a20.34,20.34,0,0,0-10,2.6l-4.17,2.35L150.84,25a35.52,35.52,0,0,0-58.75,1l-2.72,4.25L85,27.6A20.76,20.76,0,0,0,74.22,24.6Z"/><path class="cls-1" d="M212.95,26.25a12.88,12.88,0,0,1-13.07-12.66,13.07,13.07,0,0,1,26.13,0A12.88,12.88,0,0,1,212.95,26.25Zm0-15.36a2.71,2.71,0,1,0,2.79,2.71A2.76,2.76,0,0,0,212.95,10.89Z"/><path class="cls-1" d="M19.73,63.57A15.19,15.19,0,0,1,4.32,48.65,15.19,15.19,0,0,1,19.73,33.72,15.19,15.19,0,0,1,35.14,48.65,15.19,15.19,0,0,1,19.73,63.57Zm0-19.9a5,5,0,1,0,5.14,5A5.06,5.06,0,0,0,19.73,43.67Z"/><path class="cls-1" d="M82.77,174.84c-10.81,0-19.61-8.52-19.61-19s8.8-19,19.61-19,19.61,8.52,19.61,19S93.58,174.84,82.77,174.84Zm0-28a9.05,9.05,0,1,0,9.34,9A9.21,9.21,0,0,0,82.77,146.8Z"/><path class="cls-1" d="M26.5,221.2l-1.19,42.86c0,1.75,2.75,1.75,2.8,0L29.3,221.2c0-1.75-2.75-1.75-2.8,0Z"/><path class="cls-1" d="M85.16,280.31l-4.32,45.13c-.17,1.74,2.64,1.73,2.8,0L88,280.31c.17-1.74-2.64-1.73-2.8,0Z"/><path class="cls-1" d="M24.78,105.76c5.79,1,10.57,5.48,11.25,11.26a7.6,7.6,0,0,1,.09,1.65q-2.52,1.88-3.9,0c-1.38-1.11-2.52-3.19-3.6-4.59l-6.41-8.28c-1.07-1.38-3.5,0-2.42,1.37,1.73,2.23,14.78,23,18.75,13.63,1.5-3.55-.57-8.53-2.72-11.37a16.31,16.31,0,0,0-10.3-6.26c-1.76-.3-2.52,2.31-.74,2.62Z"/><path class="cls-1" d="M71.48,30.43a12.06,12.06,0,0,0-11.16,7.15,10.43,10.43,0,0,0-.84,6.14c.52,2.87,2.72,5,3.43,7.71,1.57,6-8.46,8.29-4.27,14.78a7.71,7.71,0,0,0,10.3,2.29c4.36-2.4,5.73-7.4,5.21-11.94C74,54.69,73,52.89,72.8,51.07c-.47-4.84,1.27-4.91,4.5-5.92,2.29-.72,4.64-1.14,6.38-2.92,2.82-2.87,1.67-6.13-1.57-8-5.06-3-11.67-4.69-17.18-2.15-1.63.75-.21,3.09,1.41,2.34,3-1.4,6.19-1,9.24,0A14.8,14.8,0,0,1,79.67,36c1,.76,2.6,2.81,2,4.27-.85,2.22-7.19,2.47-9.23,3.76-6.41,4.05.56,12.24-1.57,17.85-1.14,3-4.8,6.4-8.22,4.2C61,65,60.9,61.59,62,60a15.31,15.31,0,0,1,1.76-1.72A7,7,0,0,0,66,52.14c-.54-3.61-3.82-6.36-3.86-10.08-.05-4.89,4.45-8.95,9.35-8.92a1.36,1.36,0,0,0,0-2.71Z"/><path class="cls-1" d="M142.78,47.65c4.44.3,4.06,8.7,8.43,10.47s8-1.7,12.16-1.69c4.29,0,6.4,4.87,10.11.18a13.9,13.9,0,0,0,2.31-11.48c-1.77-7.11-11.49-11-17.08-5-1,1.05-1.13,3.27-2,4.06-2.55,2.39-7.83-3.93-9.29-5.63-2.22-2.59-5.21-6.16-9.18-4.65-3.32,1.27-4.08,5.56-2.83,8.47,2,4.71,8.07,5.38,12.65,5.75,1.8.14,1.79-2.57,0-2.71-3-.24-7.21-.45-9.3-2.87a3.5,3.5,0,0,1-1-3.09q-.5-2,2.11-1.82c2.63-.9,2.78-.31,4.41,1.47,2.83,3.08,5.79,7,10.09,8.36,2,.61,3.74.26,4.73-1.64,1.27-2.43,1.24-4.37,4.3-5.42a7.77,7.77,0,0,1,7.36,1.36c2.45,2.15,3,6,2.33,9a8.69,8.69,0,0,1-1.18,3.22c-3.68,4.6-2.31,1.32-4.23.79-2.87-.79-4.44-1.2-7.51-.38-1.84.49-3.74,1.45-5.68,1.5-4.34.1-4.49-3.36-5.77-6.19-1.19-2.62-2.93-4.46-6-4.66-1.8-.12-1.79,2.59,0,2.71Z"/><path class="cls-1" d="M93.63,92.86c4.57,1.83,14.3,5.83,18.43,1.39,2-2.19,2.93-5.75,3.84-8.46,1-3,2.61-6.84,2.09-10.11-.73-4.58-5.69-6.1-9.53-3.66-5.2,3.3-3.18,9.89-.19,13.91l.84-2A12.12,12.12,0,0,1,98.33,83c-1.65-.92-3.18-2.24-5.08-2.69a5.65,5.65,0,0,0-6.8,3.13c-3.2,7.24,5.64,10.5,11.42,9.6,1.78-.27,1-2.89-.74-2.62-3.08.48-8.9-.42-8.41-4.62.75-6.44,7.9-.45,10,.52a14.22,14.22,0,0,0,11.15.25c.76-.28,1.42-1.22.84-2-2-2.63-5-10.23.82-10.9,6.57-.75,2.19,10,1.43,12.19-.54,1.55-1.05,4.11-2.1,5.29-2.19,2.49-4.38,2.36-7.39,1.82a46.33,46.33,0,0,1-9.09-2.7c-1.66-.67-2.39,2-.74,2.62Z"/><path class="cls-1" d="M100.91,132.2c-4,3.46-1.85,10.07,3.12,11.43,5.94,1.62,11.58-3.53,12.41-9,.79-5.16-2.27-11.53-8.21-12-5.7-.45-11,4.93-9.36,10.4.52,1.67,3.22,1,2.7-.72-1.14-3.7,2.66-7.28,6.47-6.93s5.73,4.18,5.75,7.47a8.34,8.34,0,0,1-5.54,7.94c-2.09.67-4.4.36-5.72-1.46a3.81,3.81,0,0,1,.37-5.27c1.34-1.17-.65-3.09-2-1.92Z"/><path class="cls-1" d="M51.56,407.39H21.33v-48H51.56Zm-23.69-6.33H45V365.68H27.87Z"/><path class="cls-1" d="M94.7,407.39H64.48v-48H94.7ZM71,401.05H88.16V365.68H71Z"/><path class="cls-1" d="M137.85,406.61H107.62v-48h30.22Zm-23.69-6.33h17.15V364.91H114.16Z"/><path class="cls-1" d="M181,406.61H150.77v-48H181Zm-23.69-6.33h17.15V364.91H157.3Z"/><path class="cls-1" d="M299,335.66a2.86,2.86,0,0,0-3.48-2.12c-2.27.48-2.67,2.74-2.83,4.64-.85,10.28,0,21,.5,31.28.09,1.74,2.89,1.75,2.8,0-.28-5.5-.48-11-.56-16.51q-.05-3.91,0-7.82,0-1.74,0-3.48,0-1.3,0-2.61a3.61,3.61,0,0,1,.82-2.67c.48,1.68,3.18,1,2.7-.72Z"/><path class="cls-1" d="M242.11,350h39.34a1.36,1.36,0,0,0,0-2.71H242.11a1.36,1.36,0,0,0,0,2.71Z"/><path class="cls-1" d="M129.53,420.49a255.42,255.42,0,0,1,39-4,1.36,1.36,0,0,0,0-2.71,260.36,260.36,0,0,0-39.74,4.05c-1.77.32-1,2.93.74,2.62Z"/><path class="cls-1" d="M99.14,423.17l16.48-2.41c1.78-.26,1-2.87-.74-2.62L98.4,420.55c-1.78.26-1,2.87.74,2.62Z"/><path class="cls-1" d="M134.38,289.53v-4.33a1.4,1.4,0,0,0-2.8,0V300a1.4,1.4,0,0,0,2.8,0V285.21a1.4,1.4,0,0,0-2.8,0v4.33a1.4,1.4,0,0,0,2.8,0Z"/></g></g></svg>