<svg xmlns="http://www.w3.org/2000/svg" viewBox="0 0 256.44 400.85"><defs><style>.cls-1{fill:blue;}</style></defs><title>gender_1</title><g id="Layer_2" data-name="Layer 2"><g id="Layer_1-2" data-name="Layer 1"><path class="cls-1" d="M197.54,107.82l-.54-2.19-1.89-1.22-.66-.41A128.28,128.28,0,0,0,62,323.75l.22.13c.26.15.53.3.8.42l14.72,6.77c-.47-2.38.16-6.84.34-9.18l-9.07-7.18c-.11-.1-10.7-10.54,4.63-56.28,9.83-29.33,26.48-33.12,49.52-38.37,14.35-3.27,30.61-7,46.83-18h0c17.95-12.23,28.38-32.52,30.15-58.67A126.73,126.73,0,0,0,197.54,107.82ZM188.8,142.9c-1.61,22.71-10.08,39.44-25.18,49.72h0c-14.43,9.83-28.93,13.13-42.94,16.32-23.62,5.38-45.93,10.47-57.8,45.86-7.81,23.29-9.55,39-8.73,49.45a116.88,116.88,0,0,1,132.8-191.45A119.85,119.85,0,0,1,188.8,142.9Z"/><path class="cls-1" d="M195,104.33l-1.18-.72a2.16,2.16,0,0,0-.23,0,2.8,2.8,0,0,1-1.13.12,3.55,3.55,0,0,1-1.09,1,15.29,15.29,0,0,1-.06-1.56q0-.38,0-.77a15.51,15.51,0,0,1-2.45.11s-.06-.21-.08-.56a22.31,22.31,0,0,1-4.38.07l2.1,8.52a117.33,117.33,0,0,1,2.33,32.34c-1.61,22.71-10.08,39.44-25.18,49.72-14.43,9.83-28.93,13.13-42.94,16.32-23.62,5.38-45.93,10.47-57.8,45.86-17,50.79-5.17,65.41-1,68.73l.73.51a128.44,128.44,0,0,0,175.53-44C274.44,219.78,255.09,140.94,195,104.33Zm33.38,169.86C195.4,328.88,124.14,346.94,69.15,314.7l-.31-.23c-1.44-1.78-9.24-14,4.85-56,9.83-29.33,26.48-33.12,49.52-38.37,14.35-3.27,30.61-7,46.83-18,17.95-12.23,28.38-32.52,30.15-58.67a129,129,0,0,0-.45-21.95C246,157.16,259.18,223,228.35,274.19Z"/><rect class="cls-1" x="30.74" y="4.43" width="11.4" height="112.26" transform="translate(-25.2 25.98) rotate(-29.67)"/><rect class="cls-1" x="201.41" y="316.54" width="11.4" height="87.2" transform="matrix(0.87, -0.49, 0.49, 0.87, -151.11, 149.73)"/><rect class="cls-1" x="179.47" y="361.23" width="62.57" height="11.4" transform="translate(-168.97 180.2) rotate(-33.94)"/><polygon class="cls-1" points="9.6 63.41 0.54 0 53.23 37.64 46.6 46.92 15.59 24.77 20.88 61.8 9.6 63.41"/><path class="cls-1" d="M127,178.32a23,23,0,1,1,23-23A23.07,23.07,0,0,1,127,178.32Zm0-34.68a11.64,11.64,0,1,0,11.64,11.64A11.65,11.65,0,0,0,127,143.64Z"/><path class="cls-1" d="M127,294.31a23,23,0,1,1,23-23A23.07,23.07,0,0,1,127,294.31Zm0-34.68a11.64,11.64,0,1,0,11.64,11.64A11.65,11.65,0,0,0,127,259.63Z"/><path class="cls-1" d="M91.16,161.35c1.95,18.12,18,32.53,36.28,32.23,1.93,0,1.93-3,0-3-16.54.27-31.51-12.7-33.28-29.23-.2-1.9-3.21-1.92-3,0Z"/><path class="cls-1" d="M83.42,257.29a31.53,31.53,0,0,1,28.23-21.65c1.92-.1,1.93-3.1,0-3A34.64,34.64,0,0,0,80.53,256.5c-.6,1.84,2.3,2.63,2.89.8Z"/><path class="cls-1" d="M176.13,306.25c33.06-6.77,42.63-43.18,48.39-71.56.38-1.88-2.51-2.69-2.89-.8-5.54,27.34-14.32,62.92-46.29,69.47-1.89.39-1.09,3.28.8,2.89Z"/><path class="cls-1" d="M32.67,163.82C25.89,174,19,184.55,15.61,196.48c-3.75,13.32-.87,27.39-4.55,40.7A1.5,1.5,0,0,0,14,238c3.54-12.8.91-26.24,4.11-39.07,3.08-12.34,10.25-23.11,17.19-33.58,1.07-1.61-1.53-3.12-2.59-1.51Z"/><path class="cls-1" d="M30.73,7.46q11,7.15,21.45,15c1.55,1.16,3-1.45,1.51-2.59Q43.21,12,32.25,4.87c-1.62-1.06-3.13,1.54-1.51,2.59Z"/><path class="cls-1" d="M52,61.11,66.82,81.16c1.14,1.53,3.74,0,2.59-1.51L54.57,59.6c-1.14-1.53-3.74,0-2.59,1.51Z"/><path class="cls-1" d="M217.9,347.44l25.2-20.37c1.5-1.21-.63-3.32-2.12-2.12l-25.2,20.37c-1.5,1.21.63,3.32,2.12,2.12Z"/><path class="cls-1" d="M174.43,345.56l12.74,22.2a1.5,1.5,0,0,0,2.59-1.51L177,344a1.5,1.5,0,0,0-2.59,1.51Z"/><path class="cls-1" d="M184.64,396.32a28.39,28.39,0,0,0,12.49-1c1.84-.57,1.05-3.47-.8-2.89a24.91,24.91,0,0,1-10.89,1c-1.89-.26-2.7,2.63-.8,2.89Z"/><path class="cls-1" d="M209.06,143l15.52,20.71c1.14,1.53,3.75,0,2.59-1.51l-15.52-20.71c-1.14-1.53-3.75,0-2.59,1.51Z"/><path class="cls-1" d="M126.74,274a1.5,1.5,0,0,0,0-3,1.5,1.5,0,0,0,0,3Z"/></g></g></svg>