<svg xmlns="http://www.w3.org/2000/svg" viewBox="0 0 495.25 405.94"><defs><style>.cls-1{fill:#fff;}.cls-2{fill:#eaeaea;}</style></defs><title>hands_grey</title><g id="Layer_2" data-name="Layer 2"><g id="Layer_1-2" data-name="Layer 1"><path class="cls-1" d="M486.23,132.69,436.17,42.95l-8.76-15.67-6.3-1.35-7-1.49C383.14,17.86,293.28-.75,274.67.57c-3.31.24-8.74.64-25.66,11.53-6.79,4.36-15.46,10.44-26.58,18.87-7.76,5.89-16.74,12.93-27.1,21.35-26,21.16-59.44,50.19-65.71,58-8.83,11-11,35.18,0,52.34,14.51,22.65,41,18.89,51.63,16.22,29.85-7.48,56.91-28.79,76.65-44.36,7.84-6.18,17.56-13.82,21.23-15.17,3.72-.26,11.53,0,21.23.62,12.95.78,29.24,2.13,43.68,3.43,5.87.52,11.43,1.07,16.33,1.54l2.82-28.26c-11.86-1.18-71.87-7-87.26-5.56-10,.95-20.19,9-35.6,21.12-17.75,14-42,33.12-66,39.11-10,2.51-16.86,1.42-20.31-3.27-4.69-6.3-3.79-17.16-2.15-20.07,11.46-13.66,107.85-94,125.32-99.09h.62c13.21,0,74.85,11.5,131.08,23.46l55.77,100c-8.24,27.1-19.25,52.84-27.22,64.58-2.23,3.27-4.21,5.44-5.85,6.27l10.27,26.49c4.12-1.61,9-4.5,14.8-11.46,6.46-7.76,14-20.64,22.75-42.47,5.52-13.75,9.82-26.92,12.19-34.54,1.25-3.93,2-6.39,2-6.68l1.63-5.68Z"/><path class="cls-1" d="M253.91,15.28l-8.43,11.43L237.1,38.17l-.07,0A61.1,61.1,0,0,0,222.43,31a44.16,44.16,0,0,0-19.93-2.2c-19.67,2.77-78.19,13.85-97,17.42L30.11,160.72c4,18.06,12.12,42.63,20.69,52.55a17.08,17.08,0,0,0,3,2.89L37.24,239.22a44.89,44.89,0,0,1-7.58-7.05C14.16,214.24,5.61,181.6,2.32,166.61c-.57-2.68-1-4.78-1.25-6.15L0,154.82l10.82-16.45L80.42,32.6l7.93-12,5.89-1.14c.66-.14,4.47-.88,10.27-2,22.42-4.26,74.83-14.11,94-16.83C220.7-2.5,240.23,6.9,249,12.1A56.93,56.93,0,0,1,253.91,15.28Z"/><path class="cls-1" d="M456.64,238.2a18.91,18.91,0,0,0-3.05-4.76c-1.49-1.66-7.48-7.76-16.17-16.55C414.27,193.55,372,151.32,344,123.39c-13.16-13.14-23.15-23.1-26.51-26.44l-20.05,20.12c.95.95,1.92,1.89,2.89,2.89,48.79,48.62,119.38,119.19,130.81,131.1.31,4.1-1.73,14.39-7.17,20.67-3.29,3.74-6,4-8.14,3.72-18.16-2.2-43.65-21-51.91-28L345.48,269c3.05,2.6,26.37,22.09,51.25,30.8a74.5,74.5,0,0,0,15.67,3.81,39.59,39.59,0,0,0,4.69.28,35.91,35.91,0,0,0,10.84-1.66c10-3.2,18.54-10.87,24.5-22.35C461,263.51,461,247.57,456.64,238.2Z"/><path class="cls-2" d="M464.64,152.32c-8.24,27.1-19.25,52.84-27.22,64.58C414.27,193.55,372,151.32,344,123.39c5.87.52,11.43,1.07,16.33,1.54l2.82-28.26c-11.86-1.18-71.87-7-87.26-5.56-10,.95-20.19,9-35.6,21.12-17.75,14-42,33.12-66,39.11-10,2.51-16.86,1.42-20.31-3.27-4.69-6.3-3.79-17.16-2.15-20.07,11.46-13.66,107.85-94,125.32-99.09h.62c13.21,0,74.85,11.5,131.08,23.46Z"/><path class="cls-1" d="M431.29,295c-.14.35-1.28,3.1-3.36,7.24-4.88,9.68-14.94,27-29.66,39.18a26,26,0,0,1-13.3,5.71,31.91,31.91,0,0,1-4.54.31c-8,0-16.83-2.6-25.61-6.6-19.51-8.92-38.92-24.71-49.69-34.25L324,285.31c23.63,20.9,49.5,35.13,56.62,33.88,6.58-5.54,12-12.85,16.14-19.36A119.17,119.17,0,0,0,405,284.29Z"/><path class="cls-1" d="M389.15,339.38c-1.35,2.72-2.75,5.3-4.19,7.76-11.62,19.7-26.82,31-45.26,33.66a56,56,0,0,1-8.24.59c-.73,0-1.47,0-2.23,0-10.18-.38-20.81-3.31-31.82-8.81a121.33,121.33,0,0,1-15.08-8.92A157.8,157.8,0,0,1,258.08,343L279,323.75c8.45,9.11,35.11,32.08,56.74,28.93,7-1,13.4-5,19.1-11.84a69.6,69.6,0,0,0,8.85-14Z"/><path class="cls-1" d="M334.56,373.75a74.79,74.79,0,0,1-5.33,7.6c-10.44,13.28-24.24,21.47-40.29,23.86a70.2,70.2,0,0,1-10.2.73c-41.24,0-84.63-33.87-95.57-43-1.4-1.18-2.27-1.94-2.53-2.18l18.84-21.26v0c.95.83,2,1.73,3.2,2.72,16.07,13.23,54.21,39,82.12,34.89a33.1,33.1,0,0,0,12.62-4.57c4.95-3.08,9.23-7.62,12.95-13.68Z"/><path class="cls-2" d="M104.82,220.63a42,42,0,0,0-54-7.36,42.6,42.6,0,0,0-5.14,3.91L34.28,227.31a40.46,40.46,0,0,0-4.62,4.85,41.86,41.86,0,0,0,30,68.27c.85,0,1.68.07,2.53.07A41.39,41.39,0,0,0,84.53,294a40.68,40.68,0,0,0,5.42-4.1l11.41-10.13a42,42,0,0,0,3.46-59.18Zm-22.3,37.95L71.09,268.71A13.57,13.57,0,0,1,52,267.6a13.51,13.51,0,0,1,1.14-19.06l11.39-10.13A13.32,13.32,0,0,1,73.5,235c.26,0,.54,0,.8,0A13.39,13.39,0,0,1,87,248.5,13.49,13.49,0,0,1,82.52,258.58Z"/><path class="cls-1" d="M87,248.5a13.49,13.49,0,0,1-4.47,10.08L71.09,268.71A13.57,13.57,0,0,1,52,267.6a13.51,13.51,0,0,1,1.14-19.06l11.39-10.13A13.32,13.32,0,0,1,73.5,235c.26,0,.54,0,.8,0A13.39,13.39,0,0,1,87,248.5Z"/><path class="cls-2" d="M159.74,269.31a34.18,34.18,0,0,0-47-6.18c-.33.24-.66.47-1,.73L96.18,276.29a34.12,34.12,0,0,0,38.63,56.06,32.15,32.15,0,0,0,3.86-2.67l15.6-12.4a33.74,33.74,0,0,0,9.94-12.88,34.28,34.28,0,0,0-4.47-35.08ZM125.42,313a12.81,12.81,0,1,1-16-20.05l15.6-12.43a12.69,12.69,0,0,1,7.91-2.75,10.84,10.84,0,0,1,1.51.09,12.79,12.79,0,0,1,6.53,22.7Z"/><path class="cls-1" d="M145.82,290.54a12.72,12.72,0,0,1-4.81,10L125.42,313a12.81,12.81,0,1,1-16-20.05l15.6-12.43a12.69,12.69,0,0,1,7.91-2.75,10.84,10.84,0,0,1,1.51.09,12.66,12.66,0,0,1,11.34,12.66Z"/><path class="cls-2" d="M198.26,313.38a29.35,29.35,0,0,0-41.36-4.71l-12.5,9.92a29,29,0,0,0-9.59,13.75,28.24,28.24,0,0,0-1.3,6,29.36,29.36,0,0,0,25.9,32.53,32.87,32.87,0,0,0,3.41.19A29.16,29.16,0,0,0,181,364.66l2.13-1.7,10.37-8.24a29.48,29.48,0,0,0,4.71-41.33ZM167.79,348a8.14,8.14,0,0,1-11.41-1.3,8.14,8.14,0,0,1,1.28-11.39l12.52-10a8,8,0,0,1,5-1.73,6.34,6.34,0,0,1,.95,0,8.12,8.12,0,0,1,7.2,8,8,8,0,0,1-3,6.34Z"/><path class="cls-1" d="M183.32,331.68a8,8,0,0,1-3,6.34L167.79,348a8.14,8.14,0,0,1-11.41-1.3,8.14,8.14,0,0,1,1.28-11.39l12.52-10a8,8,0,0,1,5-1.73,6.34,6.34,0,0,1,.95,0,8.12,8.12,0,0,1,7.2,8Z"/><path class="cls-2" d="M424,271.72c-3.29,3.74-6,4-8.14,3.72-18.16-2.2-43.65-21-51.91-28L345.48,269c3.05,2.6,26.37,22.09,51.25,30.8-4.1,6.51-9.56,13.82-16.14,19.36-7.12,1.25-33-13-56.62-33.88l-18.84,21.28c10.77,9.54,30.18,25.33,49.69,34.25-5.7,6.84-12.1,10.82-19.1,11.84-21.64,3.15-48.29-19.81-56.74-28.93L258.08,343a157.8,157.8,0,0,0,24.26,20.59,121.33,121.33,0,0,0,15.08,8.92,33.1,33.1,0,0,1-12.62,4.57c-27.91,4.14-66-21.66-82.12-34.89a29.18,29.18,0,0,0,1.94-10.53,29.48,29.48,0,0,0-6.37-18.3,29.54,29.54,0,0,0-34-9,34.05,34.05,0,0,0-27.32-47.7,33.86,33.86,0,0,0-24.12,6.44,41.93,41.93,0,0,0-62-49.85c-8.57-9.92-16.67-34.49-20.69-52.55L105.48,46.19c18.82-3.58,77.34-14.65,97-17.42A44.16,44.16,0,0,1,222.43,31c-7.76,5.89-16.74,12.93-27.1,21.35-26,21.16-59.44,50.19-65.71,58-8.83,11-11,35.18,0,52.34,14.51,22.65,41,18.89,51.63,16.22,29.85-7.48,56.91-28.79,76.65-44.36,7.84-6.18,17.56-13.82,21.23-15.17,3.72-.26,11.53,0,21.23.62,48.79,48.62,119.38,119.19,130.81,131.1C431.46,255.15,429.42,265.45,424,271.72Z"/></g></g></svg>