<svg xmlns="http://www.w3.org/2000/svg" viewBox="0 0 341.59 368.04"><defs><style>.cls-1{fill:blue;}</style></defs><title>hands</title><g id="Layer_2" data-name="Layer 2"><g id="Layer_1-2" data-name="Layer 1"><polygon class="cls-1" points="11.64 6.17 11.64 6.17 11.64 6.17 11.64 6.17"/><polygon class="cls-1" points="146.64 36.06 146.64 36.07 146.65 36.07 146.64 36.06"/><polygon class="cls-1" points="303.89 180.57 303.88 180.57 303.88 180.57 303.89 180.57"/><polygon class="cls-1" points="335.42 361.72 335.42 361.72 335.42 361.73 335.42 361.72"/><path class="cls-1" d="M341.25,269.74l-14-55.94V166a21,21,0,0,0,6.94-33.72,20.88,20.88,0,0,0,.06-28.77,20.88,20.88,0,0,0,0-28.7,21,21,0,0,0-15.3-35.37h-75.5l-.47.06-.14,0L185.9,53.75H158.25A41.09,41.09,0,0,0,154.9,45a21.73,21.73,0,0,0-8.26-8.92,15.8,15.8,0,0,0-4.14-1.64,13.75,13.75,0,0,0-3.15-.38,10.07,10.07,0,0,0-1.53.11l-2.15.33L137,42.72l.16,1.93,0,.66.09,2.06h2.13a2.16,2.16,0,0,1,.49.17,5.28,5.28,0,0,1,1.63,1.32c1.08,1.21,2.61,3.64,3.86,8.26s2.19,11.36,2.19,20.88h0v0h0c0,.36,0,.73,0,1.11a75.41,75.41,0,0,1-5.16,26.2A112.79,112.79,0,0,1,125,135.12c-2.9,3.63-5.51,6.49-7.37,8.41-.93,1-1.67,1.69-2.17,2.16h0l-.57.53-.12.11,0,0-.07.07-1.39,1.25-.72.64v71.3c-.82-.34-1.65-.68-2.49-1a88.72,88.72,0,0,0-30.84-6h-1.2a100,100,0,0,0-22.29,2.13A43,43,0,0,0,45,218.62a21.72,21.72,0,0,0-8.93,8.26h0A15.87,15.87,0,0,0,34.43,231a13.77,13.77,0,0,0-.38,3.15,10.09,10.09,0,0,0,.11,1.53l.33,2.15,8.23-1.31,1.94-.16.65,0,2.07-.09V234.2a1.84,1.84,0,0,1,.19-.57A5.28,5.28,0,0,1,48.89,232c1.21-1.08,3.64-2.61,8.26-3.86s11.34-2.19,20.83-2.19h1.19a75.42,75.42,0,0,1,26.2,5.16,112.78,112.78,0,0,1,29.75,17.37c3.63,2.9,6.49,5.51,8.41,7.37,1,.93,1.69,1.67,2.17,2.17h0l.54.57.11.12,0,0,0,0h0l1.32,1.47.64.71h42.73a87.38,87.38,0,0,0-4.9,27.71h0c0,.42,0,.82,0,1.21a100,100,0,0,0,2.13,22.29,43.15,43.15,0,0,0,3.87,10.78,21.72,21.72,0,0,0,8.26,8.93,15.83,15.83,0,0,0,4.14,1.64,13.63,13.63,0,0,0,3.15.38,10.06,10.06,0,0,0,1.53-.11l2.15-.33-1.31-8.24-.16-1.94,0-.66-.09-2.06h-2a1.84,1.84,0,0,1-.58-.19,5.28,5.28,0,0,1-1.63-1.32c-1.08-1.21-2.61-3.64-3.86-8.26s-2.19-11.34-2.19-20.83v-.08c0-.37,0-.74,0-1.1h0a75.42,75.42,0,0,1,5.16-26.2A112.85,112.85,0,0,1,222,232.77c2.9-3.63,5.52-6.48,7.37-8.41.93-1,1.67-1.69,2.17-2.17h0l.55-.52.12-.11,0,0h0l2.18-2V190.41a86.81,86.81,0,0,0,26.22,4.42h1.2a100.09,100.09,0,0,0,22.29-2.13A43.14,43.14,0,0,0,295,188.83a21.72,21.72,0,0,0,8.93-8.26,15.78,15.78,0,0,0,1.64-4.14,13.77,13.77,0,0,0,.38-3.15,10,10,0,0,0-.11-1.53l-.33-2.14-2.14.34-6.08,1-1.94.16-.66,0-2.07.09v2.13a2.16,2.16,0,0,1-.17.49,5.27,5.27,0,0,1-1.32,1.63c-1.21,1.08-3.64,2.61-8.26,3.86s-11.36,2.19-20.88,2.19h-1.14a75.42,75.42,0,0,1-26.2-5.16A112.85,112.85,0,0,1,204.83,159c-3.63-2.91-6.49-5.51-8.41-7.37-1-.93-1.69-1.67-2.17-2.17h0l-.52-.55h0l-.13-.14,0,0,0,0-.89-1a3.53,3.53,0,0,0-2.63-1.17H132.91a140.2,140.2,0,0,0,9.25-12.2,119.57,119.57,0,0,0,12.71-24.22,88.71,88.71,0,0,0,6-30.84h0c0-.42,0-.82,0-1.21,0-4-.16-7.66-.44-11H187.2l.47-.06.13,0,57-14.27h74.18a7.69,7.69,0,0,1,0,15.38H294.68a3.54,3.54,0,0,0-3.54,3.54V77.9a3.54,3.54,0,0,0,3.54,3.54h24.26a7.69,7.69,0,0,1,0,15.38H294.68a3.54,3.54,0,0,0-3.54,3.54v6.25a3.54,3.54,0,0,0,3.54,3.54h24.26a7.69,7.69,0,0,1,0,15.38H294.68a3.54,3.54,0,0,0-3.54,3.54v6.39a3.54,3.54,0,0,0,3.54,3.54h24.26a7.69,7.69,0,0,1,0,15.38H294.68a3.54,3.54,0,0,0-3.54,3.54v6.25a3.54,3.54,0,0,0,3.54,3.54h19.23v47.76l14.35,57.28v74.16a7.69,7.69,0,0,1-15.38,0V319.08H299.56v27.8a7.69,7.69,0,0,1-15.38,0V319.08H270.85v27.8a7.69,7.69,0,0,1-15.38,0v-27.8H242v27.8a7.69,7.69,0,0,1-15.38,0V319.08H213.31v21.28H152.45L95.17,354.71H21a7.69,7.69,0,0,1,0-15.38h27.8V326H21a7.69,7.69,0,0,1,0-15.38h27.8V297.31H21a7.69,7.69,0,0,1,0-15.38h27.8V268.46H21a7.69,7.69,0,0,1,0-15.38h27.8V239.76H33.15V152.45L18.8,95.17V21a7.69,7.69,0,0,1,15.38,0V48.81H47.51V21a7.69,7.69,0,0,1,15.38,0V48.81H76.21V21a7.69,7.69,0,0,1,15.38,0V48.81h13.47V21a7.69,7.69,0,0,1,15.38,0V48.81h13.33V21A21,21,0,0,0,98.32,5.78a20.88,20.88,0,0,0-28.77-.06,20.88,20.88,0,0,0-28.7,0A21,21,0,0,0,5.48,21V98.15h.33l14,55.95v85.72a21,21,0,0,0-14,35.38A20.88,20.88,0,0,0,5.72,304a20.87,20.87,0,0,0,0,28.7A21,21,0,0,0,21,368H98.15v-.33l55.95-14h60.37a20.94,20.94,0,0,0,34.28,8.43,20.87,20.87,0,0,0,28.77.06,20.87,20.87,0,0,0,28.7,0,21,21,0,0,0,35.37-15.3V269.74ZM185.81,159.85a136.17,136.17,0,0,0,19.81,16.23A125.66,125.66,0,0,0,221.14,185v28.72a136.12,136.12,0,0,0-16.23,19.81,126.4,126.4,0,0,0-8.22,14H154.14a136.06,136.06,0,0,0-19.81-16.24c-2.6-1.76-5.41-3.52-8.41-5.22V159.85Z"/><polygon class="cls-1" points="192.16 322.9 192.16 322.9 192.16 322.89 192.16 322.9"/><polygon class="cls-1" points="200.42 331.83 200.42 331.83 200.42 331.82 200.42 331.83"/><polygon class="cls-1" points="6.17 361.87 6.17 361.87 6.17 361.87 6.17 361.87"/><polygon class="cls-1" points="6.17 245.93 6.17 245.93 6.17 245.93 6.17 245.93"/><polygon class="cls-1" points="44.99 218.62 45 218.62 45 218.61 44.99 218.62"/><path class="cls-1" d="M42.37,75.68a80.91,80.91,0,0,1-.8-10c0-2.08-3.28-2.09-3.24,0a87.52,87.52,0,0,0,.92,10.88C39.54,78.6,42.66,77.72,42.37,75.68Z"/><path class="cls-1" d="M46.38,151.49a59.41,59.41,0,0,0-11-29.69c-1.2-1.68-4-.07-2.79,1.63a56.24,56.24,0,0,1,10.51,28.05C43.33,153.54,46.57,153.56,46.38,151.49Z"/><path class="cls-1" d="M42,168.06a1.63,1.63,0,0,0,2.21-.58,7.56,7.56,0,0,0,0-6.34,1.63,1.63,0,0,0-2.21-.58,1.65,1.65,0,0,0-.58,2.21,4,4,0,0,1,0,3.07A1.68,1.68,0,0,0,42,168.06Z"/><path class="cls-1" d="M111.89,126.9c1.49-1.46-.8-3.75-2.29-2.29-4.82,4.75-10.71,8.23-12.41,15.2-2,8-.86,16.78,1.16,24.64.52,2,3.64,1.16,3.12-.86-1.83-7.12-3.14-15.65-1.16-22.92C102,134.38,107.51,131.22,111.89,126.9Z"/><path class="cls-1" d="M98.83,80.75a39.09,39.09,0,0,0,.58-15.53c-.33-2.05-3.44-1.18-3.12.86a34.92,34.92,0,0,1-.58,13.81C95.22,81.91,98.34,82.78,98.83,80.75Z"/><path class="cls-1" d="M65.35,67.66,69.93,87c.48,2,3.6,1.17,3.12-.86L68.48,66.8C68,64.77,64.87,65.63,65.35,67.66Z"/><path class="cls-1" d="M288.76,66.75a290.55,290.55,0,0,0-46.55,8.63,1.62,1.62,0,0,0,.86,3.12A285.39,285.39,0,0,1,288.76,70C290.81,69.78,290.83,66.54,288.76,66.75Z"/><path class="cls-1" d="M262.52,106.17c2.05-.28,1.18-3.39-.86-3.12a39.89,39.89,0,0,1-8.49.19c-2.08-.17-2.07,3.07,0,3.24A43.67,43.67,0,0,0,262.52,106.17Z"/><path class="cls-1" d="M240.08,132.66l33.49-1c2.08-.06,2.09-3.3,0-3.24l-33.49,1C238,129.49,238,132.72,240.08,132.66Z"/><path class="cls-1" d="M171.66,138.66c9.08,1.8,18.43-2.18,26.34,4,5.46,4.29,9,10.22,15.19,13.62,1.83,1,3.46-1.79,1.63-2.79-7.06-3.86-10.79-11.45-17.68-15.46-7.65-4.46-16.39-.89-24.63-2.53C170.48,135.14,169.61,138.26,171.66,138.66Z"/><path class="cls-1" d="M178.6,81a45.71,45.71,0,0,0,13.73-5.31,1.62,1.62,0,0,0-1.63-2.79,42.94,42.94,0,0,1-13,5C175.7,78.3,176.57,81.42,178.6,81Z"/><path class="cls-1" d="M240,212.77a50,50,0,0,1-15.62,32.1c-1.51,1.44.78,3.73,2.29,2.29a53.49,53.49,0,0,0,16.57-34.39C243.47,210.69,240.24,210.71,240,212.77Z"/><path class="cls-1" d="M214.37,301.75a22.79,22.79,0,0,1-4.69-13.91,1.62,1.62,0,0,0-3.24,0,25.7,25.7,0,0,0,5.14,15.55C212.82,305,215.63,303.42,214.37,301.75Z"/><path class="cls-1" d="M239.77,275.52l4.06,37c.23,2,3.46,2.07,3.24,0l-4.06-37C242.79,273.47,239.55,273.44,239.77,275.52Z"/><path class="cls-1" d="M270.75,294v-1.77a1.62,1.62,0,0,0-3.24,0V294A1.62,1.62,0,0,0,270.75,294Z"/><path class="cls-1" d="M302,274.16l6,17.71c.67,2,3.79,1.12,3.12-.86l-6-17.71C304.41,271.34,301.29,272.18,302,274.16Z"/><path class="cls-1" d="M321.05,260.91a40.84,40.84,0,0,0-10.11-16.65,1.62,1.62,0,0,0-2.29,2.29,37.23,37.23,0,0,1,9.28,15.22C318.56,263.75,321.69,262.9,321.05,260.91Z"/><path class="cls-1" d="M74.81,348.22l18.57-1.5c2.06-.17,2.08-3.4,0-3.24L74.81,345C72.75,345.15,72.73,348.39,74.81,348.22Z"/><path class="cls-1" d="M121.17,341.37l11.49-2.59c2-.46,1.17-3.58-.86-3.12l-11.49,2.59C118.27,338.71,119.13,341.83,121.17,341.37Z"/><path class="cls-1" d="M78.37,323.38l-8.81-1.08c-2.06-.25-2,3,0,3.24l8.81,1.08C80.43,326.87,80.41,323.63,78.37,323.38Z"/><path class="cls-1" d="M63.36,303.55a153.56,153.56,0,0,0,27.86-3.32c2-.43,1.17-3.55-.86-3.12a148.83,148.83,0,0,1-27,3.2C61.28,300.37,61.28,303.6,63.36,303.55Z"/><path class="cls-1" d="M71.82,276.83c2,.5,2.88-2.62.86-3.12l-3.54-.88c-2-.5-2.88,2.62-.86,3.12Z"/><path class="cls-1" d="M85.36,240.41c-2.06-.27-2,3,0,3.24,13.39,1.78,27.45,4.05,37.07,14.43,1.42,1.53,3.7-.76,2.29-2.29C114.5,244.76,99.63,242.3,85.36,240.41Z"/><path class="cls-1" d="M183.07,273c2.05-.28,1.18-3.4-.86-3.12a106.34,106.34,0,0,1-38-1.55c-2-.45-2.89,2.67-.86,3.12A111,111,0,0,0,183.07,273Z"/></g></g></svg>