<svg xmlns="http://www.w3.org/2000/svg" viewBox="0 0 521.61 309.03"><defs><style>.cls-1{fill:blue;}</style></defs><title>hands2</title><g id="Layer_2" data-name="Layer 2"><g id="Layer_1-2" data-name="Layer 1"><path class="cls-1" d="M333.56,238.5l-4.64-11.95c3.34-1.72,10.25-16.6,14.93-32l-25.17-45.11c-25.37-5.39-53.19-10.59-59.14-10.59h-.28c-7.89,2.29-51.38,38.55-56.55,44.71-.73,1.32-1.14,6.22,1,9.07,1.56,2.11,4.64,2.6,9.17,1.47,10.81-2.7,21.77-11.34,29.77-17.65,7-5.48,11.55-9.1,16.07-9.53,6.93-.65,34,2,39.37,2.52l-1.27,12.76c-11.73-1.17-31.81-2.87-36.66-2.53-1.66.62-6,4.07-9.57,6.85-8.91,7-21.12,16.64-34.59,20-4.82,1.21-16.75,2.91-23.29-7.31-5-7.75-4-18.67,0-23.62,2.83-3.52,17.9-16.62,29.66-26.17,28.05-22.79,33.29-23.17,35.8-23.35,9.17-.65,56.65,9.41,66.08,11.43l2.84.61L357.65,193l-.74,2.56c-.11.37-2.65,9.18-6.42,18.6C343,232.81,337.52,237,333.56,238.5Zm-73.32-58.85"/><path class="cls-1" d="M151,233.79c-10.6-7.63-15.46-30.94-16.32-35.54l-.48-2.55L174,135.12l2.66-.51c1.47-.28,36.15-6.93,47.05-8.47,13.31-1.88,24.53,6.26,25,6.61l-7.59,10.33c-.07-.05-7.56-5.39-15.61-4.25-8.89,1.26-35.29,6.25-43.78,7.87l-34,51.68c2,9.11,6.37,21.9,10.7,25Z"/><path class="cls-1" d="M322.38,263a17.47,17.47,0,0,1-2.11-.13c-13.49-1.63-28.53-14.19-30.2-15.62l8.32-9.75c3.73,3.18,15.23,11.65,23.42,12.64,1,.12,2.19,0,3.67-1.68a15.3,15.3,0,0,0,3.24-9.32c-5.26-5.47-38.28-38.48-60.33-60.46l9.05-9.08c5.94,5.92,58.12,58,61.41,61.6,4.27,4.75,2.92,14.35-.52,21C334.71,259.13,329,263,322.38,263Zm6.28-24.3Z"/><path class="cls-1" d="M305.83,282.63c-11.65,0-26.92-12.19-34-18.44l8.5-9.59-4.25,4.8,4.25-4.8c10.66,9.43,22.35,15.84,25.56,15.29,6.79-5.73,11-15.65,11-15.75L328.79,259c-.22.53-5.43,13.12-14.9,20.95A12.27,12.27,0,0,1,305.83,282.63Z"/><path class="cls-1" d="M283.74,297.95c-6.95,0-14.39-2.69-22.16-8a70.53,70.53,0,0,1-10.95-9.3l9.42-8.69c3.81,4.11,15.84,14.48,25.61,13.05,4.91-.72,9.15-4.64,12.62-11.67l11.5,5.67c-5.45,11.05-13,17.34-22.31,18.69A26,26,0,0,1,283.74,297.95Z"/><path class="cls-1" d="M260,309c-21,0-43.26-19.49-44.26-20.38l8.5-9.59-4.25,4.8,4.25-4.8c6.12,5.4,25,19,38.5,17,4.8-.72,8.57-3.41,11.53-8.23l10.92,6.71c-4.93,8-12,12.93-20.59,14.2A31.43,31.43,0,0,1,260,309Z"/><path class="cls-1" d="M162.24,261.45c-.38,0-.76,0-1.14,0a18.91,18.91,0,0,1-11.46-33l5.14-4.58a18.91,18.91,0,0,1,25.13,28.26l-5.14,4.58A18.75,18.75,0,0,1,162.24,261.45Zm5.1-29.55a6,6,0,0,0-4,1.53L158.16,238a6.13,6.13,0,0,0-.5,8.6h0a6.13,6.13,0,0,0,8.6.5l5.14-4.58a6.08,6.08,0,0,0-3.69-10.62Z"/><path class="cls-1" d="M187.21,277.95a15.73,15.73,0,0,1-1.78-.1,15.28,15.28,0,0,1-10.31-5.7h0a15.43,15.43,0,0,1,2.46-21.63l7-5.6A15.39,15.39,0,0,1,203.79,269l-7,5.6A15.25,15.25,0,0,1,187.21,277.95Zm7-26.77a5.75,5.75,0,0,0-3.59,1.25l-7,5.6a5.81,5.81,0,0,0-.92,8.12h0a5.81,5.81,0,0,0,8.12.92l7-5.6a5.78,5.78,0,0,0-3.61-10.3Z"/><path class="cls-1" d="M207.64,293.27a13.57,13.57,0,0,1-1.54-.09,13.19,13.19,0,0,1-8.89-4.91h0a13.3,13.3,0,0,1,2.12-18.66l5.64-4.48a13.28,13.28,0,1,1,16.54,20.78l-5.64,4.48A13.16,13.16,0,0,1,207.64,293.27Zm5.6-21.42a3.64,3.64,0,0,0-2.28.8l-5.64,4.48a3.69,3.69,0,0,0-.59,5.15h0a3.69,3.69,0,0,0,5.15.59l5.64-4.48a3.66,3.66,0,0,0-2.29-6.53Z"/><rect class="cls-1" x="296.82" y="67.91" width="211.52" height="12.82" transform="translate(50.26 282.8) rotate(-41.07)"/><rect class="cls-1" x="343.94" y="152.83" width="182.06" height="12.82" transform="translate(-27.89 177.09) rotate(-22.32)"/><rect class="cls-1" x="135.95" y="-1" width="12.82" height="150.82" transform="translate(-18.26 75.91) rotate(-28.13)"/><rect class="cls-1" x="65.78" y="72.09" width="12.82" height="162.81" transform="translate(-96.11 132.31) rotate(-57.64)"/><path class="cls-1" d="M231.61,253l9.51,11.74c1.22,1.5,3.33-.63,2.12-2.12l-9.51-11.74c-1.22-1.5-3.33.63-2.12,2.12Z"/><path class="cls-1" d="M248.4,242.37l18.22,15.38c1.47,1.24,3.6-.87,2.12-2.12l-18.22-15.38c-1.47-1.24-3.6.87-2.12,2.12Z"/><path class="cls-1" d="M272.28,235.64c5.62,4,11.74-1.61,17.53.73,1.79.72,2.57-2.18.8-2.89-5.49-2.22-11.94,3-16.81-.43-1.58-1.12-3.08,1.48-1.51,2.59Z"/><path class="cls-1" d="M206.28,187.85c1.7,2.47,4.33,2.42,6.8,1,4.41-2.5,8.54-5.81,12.72-8.67,1.58-1.08.09-3.68-1.51-2.59s-14,10.8-15.42,8.73c-1.09-1.58-3.69-.08-2.59,1.51Z"/><path class="cls-1" d="M288.81,166.74A19.91,19.91,0,0,1,302,163.5c1.92.18,1.91-2.82,0-3a22.58,22.58,0,0,0-14.66,3.65c-1.61,1.05-.11,3.65,1.51,2.59Z"/><path class="cls-1" d="M161.47,212.62a14.2,14.2,0,0,1,3.11-13.55c1.29-1.43-.83-3.56-2.12-2.12a17.33,17.33,0,0,0-3.88,16.47,1.5,1.5,0,0,0,2.89-.8Z"/><path class="cls-1" d="M32.55,113.5c6.27-2,10.62,2.83,14.58,6.9a80.27,80.27,0,0,0,8.94,8c6.52,5,13.71,9,20.91,12.85q25.56,13.83,51.17,27.57c1.7.92,3.22-1.67,1.51-2.59-18.58-10-37.27-19.82-55.73-30.05-8.43-4.68-16.69-9.78-23.5-16.68-5.13-5.19-10.65-11.47-18.68-8.91-1.83.58-1,3.48.8,2.89Z"/><path class="cls-1" d="M138.12,170.5A78.93,78.93,0,0,1,156.51,144c1.4-1.33-.72-3.45-2.12-2.12A80.93,80.93,0,0,0,135.53,169c-.75,1.76,1.83,3.29,2.59,1.51Z"/><path class="cls-1" d="M140.28,150.74a13.08,13.08,0,0,0,3.19-6.25c.37-1.89-2.52-2.69-2.89-.8a10.11,10.11,0,0,1-2.42,4.93c-1.29,1.43.82,3.56,2.12,2.12Z"/><path class="cls-1" d="M345.61,148.45Q353,159,360.7,169.31c1.14,1.53,3.75,0,2.59-1.51q-7.71-10.31-15.09-20.85c-1.1-1.57-3.7-.07-2.59,1.51Z"/><path class="cls-1" d="M372.16,167.11a158.63,158.63,0,0,1,33.11-9.72c1.9-.34,1.09-3.23-.8-2.89a158.63,158.63,0,0,0-33.11,9.72c-1.76.73-1,3.63.8,2.89Z"/><path class="cls-1" d="M394,154.75a63.16,63.16,0,0,1,17-3.5c1.92-.12,1.93-3.12,0-3a66.09,66.09,0,0,0-17.84,3.61c-1.81.64-1,3.54.8,2.89Z"/><path class="cls-1" d="M264.74,193.17l5.22,4.24a1.55,1.55,0,0,0,2.12,0,1.51,1.51,0,0,0,0-2.12l-5.22-4.24a1.55,1.55,0,0,0-2.12,0,1.51,1.51,0,0,0,0,2.12Z"/></g></g></svg>