<?xml version="1.0" encoding="UTF-8"?>
<svg width="856px" height="185px" viewBox="0 0 856 185" version="1.1" xmlns="http://www.w3.org/2000/svg" xmlns:xlink="http://www.w3.org/1999/xlink">
    <!-- Generator: Sketch 47.1 (45422) - http://www.bohemiancoding.com/sketch -->
    <title>Page 1</title>
    <desc>Created with Sketch.</desc>
    <defs>
        <polygon id="path-1" points="25.4419 0.978 0.763641817 0.978 0.763641817 182.8691 25.4419 182.8691 25.4419 0.978"></polygon>
    </defs>
    <g id="Page-1" stroke="none" stroke-width="1" fill="none" fill-rule="evenodd">
        <g id="Why-is-this-needed" transform="translate(-1064.000000, -262.000000)">
            <g id="Page-1" transform="translate(1064.000000, 261.000000)">
                <polygon id="Fill-1" fill="#00FFA3" points="0 5.0607 0.855 185.0217 1.855 185.0187 1 5.0567"></polygon>
                <g id="Group-131" transform="translate(13.000000, 0.022000)">
                    <path d="M1.1926,184.9678 L0.8176,106.2208 C0.7636,96.0548 0.6086,86.5468 0.4586,77.3518 C0.3926,73.3278 0.3296,69.4268 0.2776,65.6548 C0.2636,64.6898 0.2506,63.7508 0.2556,62.8208 C0.2656,54.6268 0.3116,47.1138 0.3526,40.4058 C0.4036,32.1608 0.4476,25.0408 0.4056,19.4398 L0.3376,4.9758 L1.3376,4.9718 L1.4056,19.4338 C1.4476,25.0408 1.4036,32.1638 1.3526,40.4108 C1.3116,47.1178 1.2656,54.6298 1.2546,62.8238 C1.2506,63.7498 1.2636,64.6818 1.2776,65.6218 C1.3296,69.4118 1.3926,73.3128 1.4586,77.3348 C1.6086,86.5328 1.7636,96.0438 1.8176,106.2158 L2.1926,184.9618 L1.1926,184.9678 Z" id="Fill-2" fill="#00FFA3"></path>
                    <path d="M14.5298,184.9336 L14.1538,105.9616 C14.0938,95.8146 13.8288,86.3456 13.5728,77.1886 C13.4608,73.1776 13.3528,69.2876 13.2668,65.5236 C13.2438,64.5666 13.2248,63.6196 13.2348,62.6796 C13.3118,55.7396 13.4148,49.2936 13.5078,43.4126 C13.6598,33.9126 13.7898,25.7096 13.7428,19.4186 L13.6748,4.9126 L14.6748,4.9086 L14.7428,19.4116 C14.7898,25.7136 14.6598,33.9226 14.5078,43.4286 C14.4148,49.3086 14.3118,55.7526 14.2348,62.6916 C14.2248,63.6196 14.2438,64.5546 14.2668,65.4996 C14.3518,69.2636 14.4608,73.1526 14.5728,77.1606 C14.8288,86.3236 15.0928,95.7976 15.1538,105.9556 L15.5298,184.9296 L14.5298,184.9336 Z" id="Fill-4" fill="#00FFA3"></path>
                    <path d="M27.8672,184.9014 L27.4902,105.7014 C27.4232,95.5794 27.0492,86.1534 26.6882,77.0394 C26.5292,73.0374 26.3752,69.1534 26.2552,65.3904 C26.2252,64.4704 26.1962,63.4924 26.2142,62.5384 C26.3462,55.6074 26.5192,49.0734 26.6712,43.3074 C26.9202,33.8544 27.1362,25.6894 27.0802,19.3994 C27.0742,18.7134 27.0722,18.0494 27.0702,17.4084 L27.0112,4.8484 L28.0112,4.8444 L28.0702,17.4054 C28.0722,18.0444 28.0742,18.7064 28.0802,19.3894 C28.1362,25.6984 27.9202,33.8714 27.6702,43.3344 C27.5182,49.0974 27.3462,55.6304 27.2142,62.5574 C27.1972,63.4874 27.2252,64.4514 27.2552,65.3584 C27.3742,69.1194 27.5282,73.0004 27.6872,76.9994 C28.0492,86.1224 28.4232,95.5554 28.4902,105.6954 L28.8672,184.8964 L27.8672,184.9014 Z" id="Fill-6" fill="#00FFA3"></path>
                    <path d="M41.2043,184.8672 L40.8263,105.4412 C40.7533,95.3472 40.2703,85.9682 39.8033,76.8972 C39.5983,72.9002 39.3983,69.0212 39.2453,65.2592 C39.2053,64.3402 39.1683,63.3602 39.1943,62.3962 C39.3813,55.4762 39.6213,48.9572 39.8343,43.2042 C40.1813,33.7962 40.4813,25.6712 40.4183,19.3792 C40.4113,18.6912 40.4093,18.0252 40.4073,17.3822 L40.3483,4.7852 L41.3483,4.7812 L41.4073,17.3792 C41.4093,18.0192 41.4113,18.6832 41.4183,19.3692 C41.4823,25.6832 41.1813,33.8202 40.8333,43.2412 C40.6213,48.9912 40.3803,55.5092 40.1943,62.4242 C40.1693,63.3542 40.2053,64.3142 40.2443,65.2172 C40.3973,68.9762 40.5973,72.8532 40.8023,76.8462 C41.2693,85.9282 41.7533,95.3182 41.8263,105.4342 L42.2043,184.8632 L41.2043,184.8672 Z" id="Fill-8" fill="#00FFA3"></path>
                    <path d="M54.5417,184.834 L54.1617,105.182 C54.0837,95.114 53.4917,85.779 52.9197,76.753 C52.6637,72.709 52.4217,68.89 52.2337,65.127 C52.1857,64.207 52.1407,63.226 52.1747,62.254 C52.4157,55.347 52.7247,48.843 52.9977,43.105 C53.4427,33.739 53.8277,25.651 53.7547,19.358 C53.7477,18.668 53.7457,18 53.7437,17.355 L53.6857,4.722 L54.6857,4.718 L54.7437,17.353 C54.7457,17.995 54.7477,18.66 54.7547,19.347 C54.8277,25.67 54.4427,33.772 53.9967,43.152 C53.7237,48.888 53.4147,55.388 53.1737,62.289 C53.1417,63.22 53.1847,64.176 53.2327,65.075 C53.4207,68.833 53.6617,72.649 53.9177,76.689 C54.4907,85.73 55.0837,95.079 55.1617,105.175 L55.5417,184.83 L54.5417,184.834 Z" id="Fill-10" fill="#00FFA3"></path>
                    <path d="M67.8792,184.8008 L67.4982,104.9208 C67.4132,94.8818 66.7142,85.5938 66.0372,76.6108 C65.7332,72.5718 65.4452,68.7578 65.2232,64.9938 C65.1652,64.0718 65.1122,63.0868 65.1542,62.1128 C65.4502,55.2168 65.8282,48.7278 66.1612,43.0028 C66.7042,33.6818 67.1732,25.6318 67.0922,19.3388 C67.0842,18.6468 67.0822,17.9758 67.0812,17.3278 L67.0232,4.6578 L68.0232,4.6548 L68.0812,17.3258 C68.0822,17.9708 68.0842,18.6368 68.0922,19.3248 C68.1732,25.6548 67.7042,33.7208 67.1602,43.0618 C66.8262,48.7818 66.4492,55.2678 66.1532,62.1548 C66.1142,63.0818 66.1652,64.0358 66.2212,64.9338 C66.4432,68.6908 66.7302,72.5008 67.0342,76.5348 C67.7122,85.5338 68.4132,94.8398 68.4982,104.9138 L68.8792,184.7338 L68.3792,184.7988 L67.8792,184.8008 Z" id="Fill-12" fill="#00FFA3"></path>
                    <path d="M81.2163,184.7676 L80.8343,104.6616 C80.7433,94.6466 79.9353,85.3996 79.1533,76.4566 C78.8013,72.4276 78.4693,68.6216 78.2123,64.8626 C78.1453,63.9376 78.0843,62.9506 78.1343,61.9706 C78.4843,55.0866 78.9313,48.6136 79.3253,42.9026 C79.9663,33.6246 80.5193,25.6126 80.4303,19.3186 C80.4203,18.6236 80.4193,17.9516 80.4183,17.3006 L80.3603,4.5946 L81.3603,4.5906 L81.4183,17.2996 C81.4193,17.9456 81.4203,18.6146 81.4303,19.3046 C81.5193,25.6396 80.9653,33.6706 80.3233,42.9706 C79.9293,48.6776 79.4823,55.1466 79.1333,62.0216 C79.0863,62.9446 79.1453,63.8966 79.2103,64.7916 C79.4663,68.5436 79.7983,72.3456 80.1503,76.3696 C80.9333,85.3306 81.7433,94.5976 81.8343,104.6536 L82.2163,184.7636 L81.2163,184.7676 Z" id="Fill-14" fill="#00FFA3"></path>
                    <path d="M94.5537,184.7344 L94.1697,104.4024 C94.0737,94.4134 93.1577,85.2114 92.2717,76.3124 C91.8717,72.2894 91.4927,68.4894 91.2017,64.7304 C91.1257,63.8004 91.0567,62.8094 91.1147,61.8294 C91.5187,54.9574 92.0347,48.4994 92.4897,42.8014 C93.2277,33.5674 93.8647,25.5924 93.7677,19.2984 C93.7567,18.5984 93.7557,17.9224 93.7547,17.2674 L93.6967,4.5314 L94.6967,4.5274 L94.7547,17.2664 C94.7557,17.9164 94.7567,18.5884 94.7677,19.2834 C94.8657,25.6254 94.2267,33.6224 93.4867,42.8804 C93.0317,48.5744 92.5167,55.0264 92.1127,61.8874 C92.0587,62.8034 92.1257,63.7554 92.1987,64.6504 C92.4897,68.4014 92.8667,72.1964 93.2667,76.2134 C94.1547,85.1334 95.0727,94.3584 95.1697,104.3934 L95.1847,107.0274 L95.5537,184.7304 L94.5537,184.7344 Z" id="Fill-16" fill="#00FFA3"></path>
                    <path d="M107.8909,184.7012 L107.5059,104.1412 C107.4029,94.1802 106.3799,85.0222 105.3899,76.1662 C104.9409,72.1502 104.5169,68.3562 104.1909,64.5972 C104.1059,63.6672 104.0279,62.6732 104.0949,61.6862 C104.5529,54.8282 105.1379,48.3872 105.6539,42.7042 C106.4899,33.5132 107.2109,25.5742 107.1049,19.2792 C107.0929,18.5772 107.0929,17.8972 107.0919,17.2422 L107.0339,4.4682 L108.0339,4.4642 L108.0919,17.2412 C108.0929,17.8912 108.0929,18.5652 108.1049,19.2622 C108.2119,25.6112 107.4879,33.5742 106.6499,42.7942 C106.1349,48.4722 105.5499,54.9072 105.0919,61.7532 C105.0309,62.6672 105.1059,63.6152 105.1869,64.5092 C105.5129,68.2582 105.9359,72.0452 106.3839,76.0552 C107.3769,84.9352 108.4029,94.1192 108.5059,104.1332 L108.8909,184.6972 L107.8909,184.7012 Z" id="Fill-18" fill="#00FFA3"></path>
                    <path d="M121.2283,184.668 L120.8423,103.882 C120.7333,93.946 119.6033,84.834 118.5093,76.022 C118.0113,72.012 117.5413,68.224 117.1803,64.466 C117.0863,63.532 117.0003,62.535 117.0743,61.545 C117.5873,54.701 118.2413,48.276 118.8193,42.608 C119.7513,33.458 120.5563,25.556 120.4423,19.258 C120.4293,18.557 120.4293,17.877 120.4293,17.221 L120.3713,4.404 L121.3713,4.4 L121.4293,17.221 C121.4293,17.871 121.4293,18.545 121.4423,19.24 C121.5573,25.598 120.7493,33.527 119.8133,42.71 C119.2373,48.371 118.5833,54.789 118.0713,61.619 C118.0033,62.529 118.0853,63.476 118.1763,64.368 C118.5353,68.114 119.0053,71.896 119.5013,75.898 C120.5983,84.738 121.7323,93.879 121.8423,103.872 L121.8563,106.522 L122.2283,184.664 L121.2283,184.668 Z" id="Fill-20" fill="#00FFA3"></path>
                    <path d="M134.5654,184.6338 L134.1774,103.6218 C134.0634,93.7118 132.8254,84.6428 131.6274,75.8718 C131.0814,71.8698 130.5654,68.0898 130.1694,64.3348 C130.0664,63.3978 129.9724,62.3968 130.0544,61.4038 C130.6204,54.5718 131.3454,48.1618 131.9844,42.5068 C133.0134,33.4008 133.9014,25.5358 133.7794,19.2378 C133.7654,18.5378 133.7664,17.8598 133.7664,17.2048 L133.7084,4.3408 L134.7084,4.3368 L134.7664,17.2048 C134.7664,17.8538 134.7654,18.5258 134.7794,19.2188 C134.9024,25.5828 134.0104,33.4778 132.9774,42.6188 C132.3394,48.2668 131.6164,54.6678 131.0514,61.4858 C130.9764,62.3918 131.0614,63.2998 131.1644,64.2278 C131.5584,67.9698 132.0734,71.7418 132.6184,75.7368 C133.8204,84.5378 135.0624,93.6388 135.1774,103.6128 L135.3304,135.1878 L135.5654,184.6298 L134.5654,184.6338 Z" id="Fill-22" fill="#00FFA3"></path>
                    <path d="M147.9028,184.6006 L147.5268,105.4766 C147.5238,104.7696 147.5208,104.0646 147.5138,103.3626 C147.4138,93.4816 146.0628,84.4596 144.7558,75.7366 C144.1568,71.7376 143.5908,67.9606 143.1588,64.2026 C143.0468,63.2616 142.9438,62.2576 143.0348,61.2616 C143.6548,54.4446 144.4488,48.0516 145.1488,42.4136 C146.2748,33.3466 147.2478,25.5176 147.1168,19.2186 C147.1018,18.5096 147.1028,17.8256 147.1028,17.1626 L147.0458,4.2786 L148.0458,4.2746 L148.1028,17.1636 C148.1028,17.8186 148.1018,18.4966 148.1168,19.1976 C148.2488,25.5696 147.2718,33.4316 146.1418,42.5366 C145.4418,48.1676 144.6488,54.5506 144.0308,61.3516 C143.9488,62.2526 144.0418,63.1596 144.1528,64.0856 C144.5818,67.8296 145.1468,71.5976 145.7448,75.5876 C147.0568,84.3456 148.4138,93.4026 148.5138,103.3526 C148.5208,104.0566 148.5238,104.7636 148.5268,105.4716 L148.9028,184.5966 L147.9028,184.6006 Z" id="Fill-24" fill="#00FFA3"></path>
                    <path d="M161.24,184.5674 L160.863,105.1964 C160.86,104.4954 160.857,103.7974 160.85,103.1024 C160.746,93.2474 159.287,84.2694 157.876,75.5874 C157.228,71.5954 156.615,67.8264 156.149,64.0704 C156.027,63.1284 155.916,62.1214 156.015,61.1194 C156.688,54.3164 157.552,47.9414 158.314,42.3174 C159.537,33.2934 160.593,25.4994 160.454,19.1984 C160.438,18.4914 160.439,17.8064 160.44,17.1444 L160.383,4.2144 L161.383,4.2114 L161.44,17.1464 C161.439,17.8004 161.438,18.4774 161.454,19.1764 C161.594,25.5554 160.534,33.3854 159.305,42.4514 C158.544,48.0674 157.682,54.4324 157.01,61.2164 C156.921,62.1164 157.021,63.0204 157.141,63.9444 C157.606,67.6844 158.217,71.4454 158.864,75.4254 C160.28,84.1454 161.745,93.1614 161.85,103.0924 C161.857,103.7904 161.86,104.4894 161.863,105.1914 L162.24,184.5634 L161.24,184.5674 Z" id="Fill-26" fill="#00FFA3"></path>
                    <path d="M174.5774,184.5342 L174.1994,104.8822 C174.1964,104.2002 174.1934,103.5202 174.1854,102.8442 C174.0774,93.0132 172.5124,84.0802 170.9984,75.4402 C170.3004,71.4572 169.6404,67.6932 169.1384,63.9382 C169.0074,62.9932 168.8874,61.9842 168.9954,60.9772 C169.7224,54.1892 170.6554,47.8312 171.4794,42.2222 C172.7994,33.2392 173.9384,25.4802 173.7914,19.1792 C173.7754,18.4692 173.7764,17.7812 173.7774,17.1182 L173.7774,16.1682 L173.7204,4.1512 L174.7204,4.1472 L174.7774,17.1192 C174.7764,17.7752 174.7754,18.4542 174.7914,19.1552 C174.9404,25.5422 173.7954,33.3392 172.4694,42.3672 C171.6464,47.9682 170.7144,54.3152 169.9894,61.0842 C169.8934,61.9782 170.0014,62.8812 170.1294,63.8032 C170.6294,67.5412 171.2864,71.2942 171.9834,75.2672 C173.5044,83.9472 175.0774,92.9212 175.1854,102.8322 C175.1934,103.5122 175.1964,104.1932 175.1994,104.8782 L175.5774,184.5302 L174.5774,184.5342 Z" id="Fill-28" fill="#00FFA3"></path>
                    <path d="M187.9146,184.501 L187.5356,104.624 C187.5326,103.941 187.5296,103.262 187.5216,102.584 C187.4096,92.779 185.7376,83.889 184.1196,75.291 C183.3716,71.315 182.6656,67.56 182.1276,63.807 C181.9876,62.858 181.8586,61.846 181.9756,60.835 C182.7556,54.064 183.7596,47.723 184.6446,42.129 C186.0616,33.186 187.2846,25.462 187.1286,19.158 C187.1116,18.443 187.1126,17.751 187.1146,17.083 L187.1146,16.138 L187.0576,4.088 L188.0576,4.084 L188.1146,17.085 C188.1126,17.745 188.1116,18.428 188.1286,19.133 C188.2866,25.528 187.0566,33.294 185.6326,42.285 C184.7486,47.869 183.7466,54.198 182.9686,60.95 C182.8666,61.84 182.9806,62.74 183.1176,63.662 C183.6526,67.397 184.3566,71.142 185.1026,75.106 C186.7276,83.746 188.4086,92.681 188.5216,102.572 C188.5296,103.253 188.5326,103.935 188.5356,104.62 L188.9146,184.497 L187.9146,184.501 Z" id="Fill-30" fill="#00FFA3"></path>
                    <path d="M201.252,184.4678 L200.872,104.4408 C200.869,103.7328 200.866,103.0268 200.858,102.3228 C200.742,92.5458 198.963,83.6998 197.243,75.1458 C196.445,71.1758 195.691,67.4268 195.118,63.6738 C194.967,62.7238 194.831,61.7088 194.956,60.6938 C195.789,53.9378 196.863,47.6138 197.811,42.0368 C199.323,33.1338 200.63,25.4448 200.466,19.1378 C200.448,18.4238 200.45,17.7318 200.451,17.0638 L200.452,16.1088 L200.394,4.0248 L201.394,4.0208 L201.452,16.1048 L201.451,17.0668 C201.45,17.7258 201.448,18.4078 201.466,19.1128 C201.632,25.5158 200.318,33.2488 198.796,42.2038 C197.851,47.7718 196.778,54.0818 195.948,60.8168 C195.839,61.7028 195.96,62.6018 196.106,63.5208 C196.676,67.2528 197.428,70.9898 198.223,74.9478 C199.952,83.5478 201.741,92.4408 201.858,102.3118 C201.866,103.0178 201.869,103.7258 201.872,104.4368 L202.252,184.4638 L201.252,184.4678 Z" id="Fill-32" fill="#00FFA3"></path>
                    <path d="M214.5894,184.4355 L214.2084,104.1985 C214.2054,103.4845 214.2024,102.7725 214.1934,102.0635 C214.0734,92.3115 212.1884,83.5085 210.3654,74.9975 C209.5174,71.0355 208.7164,67.2925 208.1074,63.5415 C207.9474,62.5885 207.8024,61.5705 207.9354,60.5515 C208.8214,53.8115 209.9664,47.5065 210.9764,41.9445 C212.5854,33.0815 213.9754,25.4255 213.8034,19.1185 C213.7844,18.4015 213.7864,17.7065 213.7884,17.0365 L213.7894,16.0785 L213.7314,3.9605 L214.7314,3.9565 L214.7894,16.0745 L214.7884,17.0395 C214.7864,17.7005 214.7844,18.3835 214.8034,19.0905 C214.9784,25.5025 213.5794,33.2055 211.9604,42.1235 C210.9524,47.6735 209.8094,53.9655 208.9274,60.6825 C208.8114,61.5645 208.9404,62.4605 209.0944,63.3785 C209.6994,67.1085 210.4984,70.8375 211.3434,74.7875 C213.1764,83.3475 215.0724,92.1995 215.1934,102.0515 C215.2024,102.7625 215.2054,103.4775 215.2084,104.1935 L215.5894,184.4295 L214.5894,184.4355 Z" id="Fill-34" fill="#00FFA3"></path>
                    <path d="M227.9265,184.4014 L227.5445,103.8954 C227.5415,103.1954 227.5385,102.4984 227.5295,101.8044 C227.4055,92.0774 225.4145,83.3184 223.4895,74.8474 C222.5905,70.8934 221.7415,67.1594 221.0965,63.4104 C220.9205,62.4134 220.7735,61.4314 220.9165,60.4094 C221.8545,53.6854 223.0695,47.3994 224.1415,41.8534 C225.8475,33.0284 227.3215,25.4084 227.1415,19.0984 C227.1205,18.3754 227.1235,17.6754 227.1255,16.9994 L227.1265,16.0484 L227.0685,3.8974 L228.0685,3.8934 L228.1265,16.0454 L228.1255,17.0034 C228.1235,17.6694 228.1205,18.3574 228.1405,19.0694 C228.3235,25.4894 226.8405,33.1604 225.1235,42.0434 C224.0535,47.5774 222.8415,53.8494 221.9065,60.5474 C221.7845,61.4254 221.9195,62.3214 222.0825,63.2384 C222.7225,66.9634 223.5685,70.6854 224.4645,74.6264 C226.4015,83.1474 228.4045,91.9594 228.5295,101.7914 C228.5385,102.4884 228.5415,103.1884 228.5445,103.8914 L228.9265,184.3974 L227.9265,184.4014 Z" id="Fill-36" fill="#00FFA3"></path>
                    <path d="M241.2639,184.3691 L240.8799,103.6251 C240.8779,102.9291 240.8749,102.2341 240.8659,101.5441 C240.7379,91.8431 238.6409,83.1281 236.6139,74.6991 C235.6639,70.7531 234.7669,67.0261 234.0869,63.2771 C233.8999,62.2791 233.7449,61.2951 233.8969,60.2671 C234.8869,53.5601 236.1729,47.2931 237.3069,41.7641 C239.1099,32.9771 240.6659,25.3901 240.4779,19.0781 C240.4569,18.3561 240.4599,17.6571 240.4619,16.9811 L240.4639,16.0191 L240.4059,3.8341 L241.4059,3.8301 L241.4639,16.0151 L241.4619,16.9861 C241.4599,17.6501 241.4569,18.3391 241.4779,19.0491 C241.6699,25.4771 240.1019,33.1171 238.2869,41.9641 C237.1549,47.4811 235.8719,53.7341 234.8859,60.4141 C234.7569,61.2881 234.8989,62.1811 235.0699,63.0971 C235.7459,66.8191 236.6399,70.5331 237.5859,74.4661 C239.6259,82.9471 241.7359,91.7181 241.8659,101.5301 C241.8749,102.2241 241.8779,102.9221 241.8799,103.6211 L242.2639,184.3641 L241.2639,184.3691 Z" id="Fill-38" fill="#00FFA3"></path>
                    <path d="M254.6011,184.335 L254.2171,103.43 C254.2141,102.712 254.2111,101.997 254.2021,101.284 C254.0701,91.609 251.8681,82.939 249.7381,74.552 C248.7381,70.613 247.7931,66.894 247.0761,63.147 C246.8801,62.145 246.7161,61.157 246.8771,60.126 C247.9201,53.436 249.2761,47.187 250.4731,41.673 C252.3721,32.927 254.0121,25.372 253.8161,19.058 C253.7931,18.333 253.7961,17.632 253.7991,16.955 L253.8011,15.99 L253.7431,3.771 L254.7431,3.767 L254.8011,15.986 L254.7991,16.96 C254.7961,17.625 254.7931,18.314 254.8151,19.026 C255.0151,25.464 253.3631,33.074 251.4501,41.886 C250.2571,47.385 248.9031,53.619 247.8651,60.28 C247.7291,61.15 247.8791,62.043 248.0581,62.956 C248.7701,66.677 249.7111,70.382 250.7071,74.306 C252.8511,82.748 255.0681,91.478 255.2021,101.271 C255.2111,101.986 255.2141,102.705 255.2171,103.426 L255.6011,184.331 L254.6011,184.335 Z" id="Fill-40" fill="#00FFA3"></path>
                    <path d="M267.9385,184.3008 L267.5535,103.1338 C267.5505,102.4278 267.5475,101.7248 267.5375,101.0248 C267.4015,91.3748 265.0945,82.7468 262.8635,74.4028 C261.8125,70.4728 260.8195,66.7598 260.0665,63.0148 C259.8595,62.0088 259.6875,61.0188 259.8575,59.9848 C260.9515,53.3108 262.3795,47.0798 263.6395,41.5828 C265.6345,32.8748 267.3575,25.3548 267.1535,19.0378 C267.1295,18.3108 267.1335,17.6068 267.1365,16.9258 L267.1385,15.9608 L267.0805,3.7068 L268.0805,3.7028 L268.1385,15.9568 L268.1365,16.9308 C268.1335,17.5988 268.1295,18.2908 268.1525,19.0048 C268.3615,25.4518 266.6245,33.0308 264.6135,41.8068 C263.3575,47.2888 261.9335,53.5038 260.8445,60.1468 C260.7025,61.0118 260.8585,61.9038 261.0465,62.8158 C261.7935,66.5318 262.7825,70.2298 263.8295,74.1448 C266.0765,82.5478 268.3995,91.2378 268.5375,101.0108 C268.5475,101.7138 268.5505,102.4208 268.5535,103.1298 L268.9385,184.2968 L267.9385,184.3008 Z" id="Fill-42" fill="#00FFA3"></path>
                    <path d="M281.2756,184.2676 L280.8896,102.8756 C280.8866,102.1686 280.8836,101.4646 280.8736,100.7636 C280.7336,91.1416 278.3216,82.5566 275.9886,74.2546 C274.8866,70.3316 273.8456,66.6256 273.0566,62.8826 C272.8396,61.8726 272.6596,60.8796 272.8376,59.8416 C273.9836,53.1866 275.4826,46.9756 276.8046,41.4966 C278.8966,32.8256 280.7026,25.3366 280.4906,19.0176 C280.4656,18.2886 280.4696,17.5806 280.4736,16.8986 L280.4756,15.9306 L280.4176,3.6436 L281.4176,3.6396 L281.4756,15.9266 C281.4766,16.2466 281.4756,16.5726 281.4736,16.9036 C281.4696,17.5746 281.4656,18.2676 281.4896,18.9846 C281.7066,25.4396 279.8856,32.9896 277.7766,41.7306 C276.4586,47.1956 274.9636,53.3896 273.8236,60.0116 C273.6746,60.8726 273.8386,61.7626 274.0346,62.6736 C274.8176,66.3876 275.8536,70.0786 276.9516,73.9846 C279.3016,82.3486 281.7316,90.9966 281.8736,100.7496 C281.8836,101.4546 281.8866,102.1616 281.8896,102.8716 L282.2756,184.2636 L281.2756,184.2676 Z" id="Fill-44" fill="#00FFA3"></path>
                    <path d="M294.613,184.2344 L294.225,102.6174 C294.223,101.9104 294.22,101.2064 294.209,100.5054 C294.066,90.9074 291.549,82.3664 289.115,74.1054 C287.962,70.1904 286.872,66.4924 286.046,62.7504 C285.819,61.7384 285.63,60.7424 285.818,59.7004 C287.016,53.0624 288.585,46.8714 289.97,41.4084 C292.158,32.7754 294.048,25.3204 293.828,18.9984 C293.802,18.2654 293.807,17.5564 293.811,16.8714 C293.812,16.5434 293.814,16.2194 293.813,15.9014 L293.754,3.5814 L294.754,3.5774 L294.813,15.8974 C294.814,16.2174 294.812,16.5454 294.811,16.8774 C294.807,17.5494 294.802,18.2454 294.827,18.9634 C295.053,25.4274 293.147,32.9474 290.94,41.6544 C289.559,47.1004 287.994,53.2744 286.802,59.8784 C286.648,60.7364 286.818,61.6244 287.022,62.5334 C287.841,66.2434 288.926,69.9244 290.074,73.8234 C292.527,82.1474 295.063,90.7554 295.209,100.4894 C295.22,101.1944 295.223,101.9024 295.225,102.6134 L295.613,184.2304 L294.613,184.2344 Z" id="Fill-46" fill="#00FFA3"></path>
                    <path d="M307.9502,184.2012 L307.5612,102.3592 C307.5592,101.6512 307.5562,100.9462 307.5452,100.2452 C307.3982,90.6742 304.7762,82.1752 302.2422,73.9572 C301.0372,70.0502 299.8982,66.3592 299.0362,62.6182 C298.7982,61.6032 298.6012,60.6052 298.7982,59.5582 C300.0472,52.9392 301.6882,46.7672 303.1362,41.3212 C305.4202,32.7252 307.3942,25.3032 307.1652,18.9772 C307.1382,18.2432 307.1432,17.5322 307.1472,16.8452 C307.1492,16.5142 307.1512,16.1912 307.1502,15.8722 L307.0912,3.5172 L308.0912,3.5142 L308.1502,15.8682 C308.1512,16.1892 308.1492,16.5172 308.1472,16.8502 C308.1432,17.5242 308.1382,18.2222 308.1642,18.9422 C308.3982,25.4162 306.4072,32.9052 304.1022,41.5782 C302.6592,47.0082 301.0232,53.1612 299.7812,59.7442 C299.6202,60.5982 299.7972,61.4842 300.0102,62.3912 C300.8652,66.0982 301.9982,69.7722 303.1972,73.6622 C305.7532,81.9472 308.3952,90.5152 308.5452,100.2292 C308.5562,100.9342 308.5592,101.6432 308.5612,102.3552 L308.9502,184.1972 L307.9502,184.2012 Z" id="Fill-48" fill="#00FFA3"></path>
                    <path d="M321.2876,184.168 L320.8986,102.113 C320.8956,101.401 320.8926,100.691 320.8816,99.984 C320.7296,90.439 318.0046,81.984 315.3696,73.808 C314.1126,69.908 312.9256,66.226 312.0266,62.486 C311.7786,61.469 311.5726,60.467 311.7796,59.417 C313.0796,52.817 314.7906,46.665 316.3016,41.236 C318.6826,32.678 320.7396,25.286 320.5026,18.957 C320.4756,18.221 320.4796,17.507 320.4846,16.817 C320.4866,16.487 320.4886,16.162 320.4876,15.843 L320.4286,3.454 L321.4286,3.45 L321.4876,15.839 C321.4886,16.161 321.4866,16.49 321.4846,16.824 C321.4796,17.5 321.4746,18.198 321.5016,18.92 C321.7446,25.404 319.6686,32.865 317.2646,41.505 C315.7586,46.915 314.0526,53.048 312.7606,59.61 C312.5926,60.461 312.7776,61.345 312.9986,62.251 C313.8886,65.955 315.0706,69.62 316.3206,73.501 C318.9786,81.747 321.7276,90.274 321.8816,99.969 C321.8926,100.68 321.8956,101.394 321.8986,102.11 L322.2876,184.098 L321.7876,184.166 L321.2876,184.168 Z" id="Fill-50" fill="#00FFA3"></path>
                    <path d="M334.625,184.1348 L334.234,101.8558 C334.232,101.1428 334.229,100.4328 334.218,99.7248 C334.062,90.2048 331.233,81.7928 328.497,73.6568 C327.188,69.7668 325.952,66.0908 325.016,62.3538 C324.758,61.3328 324.544,60.3278 324.76,59.2748 C326.11,52.6938 327.893,46.5618 329.467,41.1518 C331.945,32.6288 334.085,25.2688 333.84,18.9378 C333.812,18.1978 333.816,17.4828 333.822,16.7908 C333.824,16.4588 333.826,16.1338 333.825,15.8138 L333.766,3.3908 L334.766,3.3868 L334.825,15.8098 C334.826,16.1328 334.824,16.4628 334.822,16.7978 C334.817,17.4748 334.811,18.1758 334.839,18.8988 C335.09,25.3928 332.929,32.8238 330.427,41.4308 C328.859,46.8228 327.082,52.9348 325.74,59.4758 C325.566,60.3228 325.748,61.1698 325.986,62.1108 C326.913,65.8098 328.142,69.4668 329.445,73.3378 C332.205,81.5458 335.059,90.0328 335.218,99.7088 C335.229,100.4198 335.232,101.1348 335.234,101.8518 L335.237,102.4828 L335.625,184.1308 L334.625,184.1348 Z" id="Fill-52" fill="#00FFA3"></path>
                    <path d="M347.9622,184.1016 L347.5702,101.5986 C347.5682,100.8846 347.5652,100.1736 347.5532,99.4656 C347.3942,89.9706 344.4612,81.6026 341.6252,73.5086 C340.2642,69.6256 338.9792,65.9576 338.0062,62.2216 C337.7372,61.1976 337.5152,60.1906 337.7402,59.1326 C339.1412,52.5716 340.9952,46.4586 342.6322,41.0666 C345.2062,32.5806 347.4302,25.2516 347.1772,18.9166 C347.1482,18.1746 347.1532,17.4556 347.1582,16.7616 C347.1612,16.4296 347.1632,16.1046 347.1622,15.7846 L347.1032,3.3276 L348.1032,3.3236 L348.1622,15.7806 C348.1632,16.1036 348.1612,16.4336 348.1582,16.7686 C348.1532,17.4486 348.1482,18.1516 348.1762,18.8776 C348.4362,25.3806 346.1902,32.7856 343.5892,41.3576 C341.9582,46.7306 340.1102,52.8216 338.7182,59.3416 C338.5382,60.1856 338.7272,61.0306 338.9742,61.9686 C339.9372,65.6656 341.2152,69.3146 342.5692,73.1776 C345.4312,81.3466 348.3912,89.7926 348.5532,99.4486 C348.5652,100.1616 348.5682,100.8756 348.5702,101.5946 L348.6392,116.2116 L348.9622,184.0976 L347.9622,184.1016 Z" id="Fill-54" fill="#00FFA3"></path>
                    <path d="M361.2996,184.0684 L360.9066,101.3164 C360.9036,100.6104 360.9016,99.9064 360.8896,99.2054 C360.7266,89.7374 357.6906,81.4114 354.7546,73.3584 C353.3416,69.4834 352.0066,65.8244 350.9966,62.0894 C350.7176,61.0624 350.4856,60.0524 350.7216,58.9914 C352.1716,52.4494 354.0976,46.3574 355.7976,40.9824 C358.4686,32.5334 360.7756,25.2354 360.5146,18.8974 C360.4846,18.1534 360.4896,17.4314 360.4956,16.7344 C360.4986,16.4024 360.5006,16.0754 360.4996,15.7544 L360.4406,3.2634 L361.4406,3.2594 L361.4996,15.7504 C361.5006,16.0754 361.4986,16.4064 361.4956,16.7434 C361.4896,17.4234 361.4836,18.1294 361.5136,18.8564 C361.7816,25.3704 359.4506,32.7454 356.7506,41.2844 C355.0576,46.6384 353.1386,52.7084 351.6976,59.2084 C351.5116,60.0474 351.7066,60.8914 351.9616,61.8284 C352.9606,65.5214 354.2886,69.1624 355.6936,73.0164 C358.6576,81.1454 361.7236,89.5514 361.8896,99.1874 C361.9016,99.8934 361.9036,100.6014 361.9066,101.3134 L361.9096,101.9764 L362.2996,184.0644 L361.2996,184.0684 Z" id="Fill-56" fill="#00FFA3"></path>
                    <path d="M374.6367,184.0352 L374.2427,101.1012 C374.2407,100.3802 374.2377,99.6612 374.2257,98.9452 C374.0587,89.5022 370.9187,81.2192 367.8827,73.2082 C366.4177,69.3422 365.0337,65.6902 363.9867,61.9582 C363.6967,60.9282 363.4567,59.9142 363.7017,58.8492 C365.2027,52.3272 367.1997,46.2552 368.9627,40.8982 C371.7307,32.4852 374.1207,25.2192 373.8517,18.8782 C373.8207,18.1332 373.8267,17.4112 373.8327,16.7142 C373.8357,16.3792 373.8387,16.0492 373.8367,15.7252 L373.7777,3.2002 L374.7777,3.1962 L374.8367,15.7212 C374.8387,16.0492 374.8357,16.3832 374.8327,16.7232 C374.8267,17.4032 374.8207,18.1082 374.8507,18.8352 C375.1277,25.3582 372.7107,32.7052 369.9127,41.2112 C368.1567,46.5472 366.1667,52.5962 364.6767,59.0742 C364.4837,59.9092 364.6857,60.7522 364.9487,61.6872 C365.9847,65.3772 367.3607,69.0092 368.8177,72.8532 C371.8847,80.9442 375.0547,89.3102 375.2257,98.9282 C375.2377,99.6472 375.2407,100.3712 375.2427,101.0972 L375.6367,184.0312 L374.6367,184.0352 Z" id="Fill-58" fill="#00FFA3"></path>
                    <path d="M387.9741,184.002 L387.5791,100.844 C387.5771,100.122 387.5741,99.402 387.5611,98.686 C387.3901,89.269 384.1481,81.027 381.0131,73.058 C379.4951,69.2 378.0611,65.556 376.9771,61.826 C376.6761,60.792 376.4281,59.774 376.6821,58.708 C378.2331,52.206 380.3021,46.155 382.1271,40.816 C384.9921,32.439 387.4661,25.202 387.1891,18.856 C387.1571,18.108 387.1631,17.382 387.1691,16.681 C387.1721,16.347 387.1751,16.019 387.1741,15.695 L387.1141,3.137 L388.1141,3.133 L388.1741,15.691 C388.1751,16.018 388.1721,16.351 388.1691,16.69 C388.1631,17.374 388.1571,18.083 388.1881,18.814 C388.4741,25.348 385.9711,32.666 383.0731,41.141 C381.2551,46.458 379.1941,52.484 377.6551,58.94 C377.4571,59.771 377.6661,60.612 377.9371,61.547 C379.0091,65.232 380.4341,68.856 381.9431,72.691 C385.1111,80.744 388.3871,89.07 388.5611,98.668 C388.5741,99.389 388.5771,100.113 388.5791,100.841 L388.5821,101.473 L388.9741,183.998 L387.9741,184.002 Z" id="Fill-60" fill="#00FFA3"></path>
                    <path d="M401.3113,183.9687 L400.9153,100.5797 C400.9133,99.8597 400.9103,99.1407 400.8973,98.4257 C400.7223,89.0337 397.3783,80.8367 394.1433,72.9087 C392.5723,69.0587 391.0893,65.4227 389.9673,61.6947 C389.6563,60.6567 389.3993,59.6377 389.6633,58.5657 C391.2623,52.0837 393.4033,46.0537 395.2923,40.7347 C398.2543,32.3917 400.8113,25.1867 400.5273,18.8367 C400.4933,18.0857 400.4993,17.3577 400.5063,16.6547 C400.5093,16.3197 400.5133,15.9897 400.5113,15.6657 L400.4513,3.0727 L401.4513,3.0697 L401.5113,15.6617 C401.5133,15.9897 401.5093,16.3237 401.5063,16.6637 C401.5003,17.3497 401.4933,18.0597 401.5263,18.7917 C401.8193,25.3367 399.2313,32.6267 396.2343,41.0697 C394.3533,46.3667 392.2213,52.3707 390.6343,58.8057 C390.4303,59.6337 390.6453,60.4727 390.9253,61.4057 C392.0333,65.0887 393.5083,68.7037 395.0693,72.5307 C398.3383,80.5437 401.7193,88.8287 401.8973,98.4067 C401.9103,99.1277 401.9133,99.8507 401.9153,100.5757 L401.9723,112.7167 L402.3113,183.9647 L401.3113,183.9687 Z" id="Fill-62" fill="#00FFA3"></path>
                    <path d="M414.6487,183.9346 L414.2517,100.3016 C414.2497,99.5866 414.2467,98.8746 414.2337,98.1656 C414.0547,88.7996 410.6077,80.6446 407.2747,72.7576 C405.6507,68.9166 404.1167,65.2886 402.9577,61.5616 C402.6357,60.5216 402.3697,59.4996 402.6437,58.4236 C404.2927,51.9616 406.5047,45.9536 408.4567,40.6516 C411.5157,32.3436 414.1577,25.1696 413.8647,18.8176 C413.8297,18.0646 413.8367,17.3356 413.8437,16.6316 C413.8467,16.2936 413.8507,15.9626 413.8487,15.6366 L413.7887,3.0096 L414.7887,3.0056 L414.8487,15.6326 C414.8507,15.9626 414.8467,16.2986 414.8437,16.6416 C414.8367,17.3276 414.8297,18.0386 414.8637,18.7706 C415.1657,25.3266 412.4917,32.5876 409.3957,40.9976 C407.4517,46.2756 405.2487,52.2586 403.6127,58.6716 C403.4027,59.4966 403.6247,60.3336 403.9127,61.2656 C405.0567,64.9446 406.5817,68.5506 408.1957,72.3696 C411.5657,80.3426 415.0507,88.5876 415.2337,98.1466 C415.2467,98.8616 415.2497,99.5786 415.2517,100.2986 L415.2547,100.9666 L415.6487,183.9306 L414.6487,183.9346 Z" id="Fill-64" fill="#00FFA3"></path>
                    <path d="M427.9858,183.9014 L427.5878,100.0734 C427.5858,99.3474 427.5838,98.6254 427.5688,97.9064 C427.3868,88.5664 423.8378,80.4534 420.4058,72.6084 C418.7288,68.7754 417.1448,65.1544 415.9478,61.4294 C415.6148,60.3864 415.3398,59.3624 415.6248,58.2834 C417.3218,51.8404 419.6068,45.8524 421.6218,40.5704 C424.7778,32.2974 427.5028,25.1534 427.2018,18.7974 C427.1658,18.0414 427.1738,17.3064 427.1808,16.5984 C427.1838,16.2614 427.1878,15.9314 427.1858,15.6064 L427.1258,2.9464 L428.1258,2.9424 L428.1858,15.6024 C428.1878,15.9314 428.1838,16.2674 428.1808,16.6084 C428.1728,17.2984 428.1658,18.0124 428.2008,18.7504 C428.5108,25.3154 425.7518,32.5494 422.5558,40.9264 C420.5498,46.1854 418.2758,52.1474 416.5918,58.5374 C416.3758,59.3584 416.6038,60.1944 416.8998,61.1244 C418.0808,64.8004 419.6558,68.3984 421.3218,72.2074 C424.7938,80.1424 428.3828,88.3474 428.5688,97.8864 C428.5838,98.6114 428.5858,99.3384 428.5878,100.0694 L428.9858,183.8974 L427.9858,183.9014 Z" id="Fill-66" fill="#00FFA3"></path>
                    <path d="M441.3232,183.8682 L440.9242,99.8162 C440.9222,99.0902 440.9202,98.3672 440.9052,97.6462 C440.7192,88.3312 437.0682,80.2612 433.5372,72.4562 C431.8072,68.6322 430.1732,65.0192 428.9382,61.2972 C428.5942,60.2502 428.3112,59.2222 428.6052,58.1412 C430.3512,51.7212 432.7072,45.7542 434.7852,40.4902 C438.0382,32.2522 440.8472,25.1382 440.5392,18.7762 C440.5022,18.0182 440.5102,17.2832 440.5172,16.5732 C440.5212,16.2352 440.5252,15.9032 440.5232,15.5772 L440.4632,2.8832 L441.4632,2.8792 L441.5232,15.5732 C441.5252,15.9042 441.5212,16.2412 441.5172,16.5842 C441.5102,17.2752 441.5022,17.9902 441.5382,18.7272 C441.8572,25.3052 439.0112,32.5122 435.7152,40.8572 C433.6462,46.0972 431.3022,52.0362 429.5702,58.4032 C429.3482,59.2192 429.5832,60.0552 429.8882,60.9832 C431.1052,64.6552 432.7292,68.2442 434.4482,72.0442 C438.0212,79.9402 441.7152,88.1052 441.9052,97.6272 C441.9192,98.3522 441.9222,99.0812 441.9242,99.8132 L441.9272,100.4632 L442.3232,183.8642 L441.3232,183.8682 Z" id="Fill-68" fill="#00FFA3"></path>
                    <path d="M454.6606,183.835 L454.2606,99.541 C454.2586,98.819 454.2556,98.102 454.2416,97.386 C454.0516,88.098 450.2996,80.07 446.6706,72.307 C444.8866,68.49 443.2016,64.887 441.9286,61.165 C441.5746,60.115 441.2816,59.085 441.5866,57.999 C443.3806,51.6 445.8076,45.655 447.9496,40.41 C451.2996,32.207 454.1926,25.122 453.8766,18.756 C453.8386,17.992 453.8466,17.26 453.8546,16.551 C453.8586,16.211 453.8626,15.876 453.8606,15.548 L453.7996,2.82 L454.7996,2.816 L454.8606,15.544 C454.8626,15.877 454.8586,16.217 454.8546,16.562 C454.8466,17.253 454.8386,17.969 454.8756,18.707 C455.2026,25.294 452.2706,32.475 448.8756,40.788 C446.7436,46.008 444.3276,51.924 442.5496,58.269 C442.3216,59.082 442.5626,59.915 442.8756,60.843 C444.1306,64.512 445.8036,68.093 447.5766,71.883 C451.2496,79.74 455.0476,87.865 455.2416,97.366 C455.2556,98.087 455.2586,98.811 455.2606,99.538 L455.6606,183.831 L454.6606,183.835 Z" id="Fill-70" fill="#00FFA3"></path>
                    <path d="M467.9978,183.8018 L467.5968,99.2848 C467.5948,98.5628 467.5918,97.8428 467.5768,97.1268 C467.3838,87.8628 463.5298,79.8768 459.8028,72.1558 C457.9658,68.3478 456.2298,64.7518 454.9188,61.0318 C454.5538,59.9808 454.2518,58.9478 454.5668,57.8578 C456.4098,51.4788 458.9088,45.5558 461.1138,40.3298 C464.5608,32.1608 467.5388,25.1058 467.2138,18.7368 C467.1748,17.9688 467.1838,17.2318 467.1918,16.5178 C467.1958,16.1788 467.1998,15.8458 467.1978,15.5188 L467.1368,2.7568 L468.1368,2.7528 L468.1978,15.5148 C468.1998,15.8468 468.1958,16.1858 468.1918,16.5298 C468.1838,17.2278 468.1748,17.9488 468.2128,18.6858 C468.5488,25.2828 465.5298,32.4368 462.0358,40.7188 C459.8408,45.9188 457.3538,51.8128 455.5278,58.1348 C455.2938,58.9448 455.5418,59.7768 455.8628,60.7018 C457.1548,64.3668 458.8788,67.9388 460.7038,71.7208 C464.4768,79.5388 468.3788,87.6238 468.5768,97.1058 C468.5918,97.8278 468.5948,98.5538 468.5968,99.2818 L468.5998,99.9578 L468.9978,183.7978 L467.9978,183.8018 Z" id="Fill-72" fill="#00FFA3"></path>
                    <path d="M481.3352,183.7686 L480.9332,99.0296 C480.9312,98.3056 480.9292,97.5846 480.9132,96.8676 C480.7162,87.6286 476.7612,79.6856 472.9362,72.0046 C471.0452,68.2056 469.2582,64.6186 467.9092,60.9006 C467.5332,59.8446 467.2232,58.8096 467.5482,57.7156 C469.4382,51.3586 472.0092,45.4576 474.2772,40.2516 C477.8222,32.1166 480.8842,25.0906 480.5512,18.7166 C480.5112,17.9476 480.5202,17.2086 480.5282,16.4956 C480.5332,16.1546 480.5362,15.8186 480.5352,15.4896 L480.4742,2.6936 L481.4742,2.6896 L481.5352,15.4856 C481.5372,15.8196 481.5332,16.1606 481.5282,16.5066 C481.5202,17.2056 481.5112,17.9276 481.5502,18.6646 C481.8952,25.2736 478.7902,32.3996 475.1942,40.6516 C472.8272,46.0836 470.3792,51.7026 468.5062,58.0006 C468.2672,58.8066 468.5212,59.6366 468.8502,60.5616 C470.1792,64.2226 471.9532,67.7866 473.8312,71.5586 C477.7052,79.3386 481.7112,87.3836 481.9132,96.8456 C481.9282,97.5696 481.9312,98.2956 481.9332,99.0266 L481.9352,99.7056 L482.3352,183.7646 L481.3352,183.7686 Z" id="Fill-74" fill="#00FFA3"></path>
                    <path d="M494.6724,183.7354 L494.2694,98.7974 C494.2674,98.0644 494.2654,97.3344 494.2494,96.6064 C494.0484,87.3944 489.9934,79.4934 486.0704,71.8524 C484.1254,68.0624 482.2874,64.4834 480.9004,60.7674 C480.5124,59.7094 480.1934,58.6714 480.5284,57.5744 C482.4664,51.2384 485.1094,45.3594 487.4414,40.1734 C491.0834,32.0714 494.2294,25.0754 493.8884,18.6964 C493.8474,17.9244 493.8564,17.1834 493.8654,16.4674 C493.8704,16.1264 493.8744,15.7904 493.8724,15.4594 L493.8114,2.6304 L494.8114,2.6264 L494.8724,15.4554 C494.8744,15.7914 494.8704,16.1324 494.8654,16.4804 C494.8564,17.1804 494.8474,17.9044 494.8874,18.6434 C495.2404,25.2634 492.0494,32.3624 488.3534,40.5834 C485.9204,45.9954 483.4044,51.5904 481.4854,57.8674 C481.2394,58.6704 481.4884,59.4644 481.8384,60.4214 C483.2034,64.0794 485.0284,67.6324 486.9604,71.3964 C490.9344,79.1374 495.0434,87.1424 495.2494,96.5854 C495.2654,97.3184 495.2674,98.0554 495.2694,98.7954 L495.2714,99.4524 L495.6724,183.7314 L494.6724,183.7354 Z" id="Fill-76" fill="#00FFA3"></path>
                    <path d="M508.0098,183.7021 L507.6058,98.5251 C507.6038,97.7961 507.6018,97.0701 507.5858,96.3471 C507.3808,87.1591 503.2248,79.3011 499.2048,71.7011 C497.2048,67.9211 495.3168,64.3491 493.8908,60.6361 C493.4928,59.5741 493.1648,58.5321 493.5098,57.4321 C495.4948,51.1181 498.2088,45.2621 500.6048,40.0961 C504.3448,32.0271 507.5748,25.0591 507.2258,18.6761 C507.1838,17.9021 507.1938,17.1601 507.2028,16.4421 C507.2068,16.0981 507.2118,15.7621 507.2098,15.4301 L507.1488,2.5661 L508.1488,2.5621 L508.2098,15.4261 C508.2118,15.7631 508.2068,16.1051 508.2028,16.4551 C508.1938,17.1561 508.1838,17.8821 508.2248,18.6211 C508.5868,25.2541 505.3078,32.3261 501.5118,40.5151 C499.0128,45.9061 496.4288,51.4801 494.4638,57.7321 C494.2128,58.5311 494.4678,59.3261 494.8258,60.2811 C496.2288,63.9351 498.1038,67.4801 500.0888,71.2341 C504.1628,78.9361 508.3758,86.9011 508.5848,96.3251 C508.6018,97.0551 508.6038,97.7861 508.6058,98.5221 L508.6078,99.2001 L509.0098,183.6981 L508.0098,183.7021 Z" id="Fill-78" fill="#00FFA3"></path>
                    <path d="M521.3469,183.6689 L520.9419,98.2699 C520.9399,97.5389 520.9379,96.8119 520.9209,96.0879 C520.7129,86.9249 516.4559,79.1079 512.3389,71.5479 C510.2849,67.7759 508.3449,64.2149 506.8809,60.5039 C506.5529,59.6489 506.1049,58.4849 506.4909,57.2909 C508.5219,50.9989 511.3089,45.1649 513.7679,40.0179 C517.6059,31.9829 520.9199,25.0439 520.5629,18.6559 C520.5199,17.8799 520.5299,17.1349 520.5399,16.4139 C520.5439,16.0699 520.5489,15.7319 520.5469,15.3999 L520.4859,2.5029 L521.4859,2.4989 L521.5469,15.3969 C521.5489,15.7329 521.5439,16.0769 521.5399,16.4279 C521.5299,17.1309 521.5199,17.8579 521.5619,18.5999 C521.9329,25.2439 518.5669,32.2899 514.6699,40.4479 C512.1049,45.8169 509.4529,51.3689 507.4429,57.5979 C507.1859,58.3939 507.4459,59.1869 507.8129,60.1409 C509.2529,63.7899 511.1789,67.3259 513.2169,71.0699 C517.3909,78.7339 521.7079,86.6599 521.9209,96.0649 C521.9379,96.7959 521.9399,97.5289 521.9419,98.2669 L521.9439,98.9469 L522.3469,183.6649 L521.3469,183.6689 Z" id="Fill-80" fill="#00FFA3"></path>
                    <path d="M534.6843,183.6357 L534.2783,98.0077 C534.2763,97.2787 534.2743,96.5507 534.2573,95.8267 C534.0453,86.6907 529.6883,78.9157 525.4753,71.3977 C523.3663,67.6347 521.3743,64.0797 519.8723,60.3707 C519.5343,59.5147 519.0743,58.3487 519.4723,57.1497 C521.5503,50.8777 524.4083,45.0667 526.9313,39.9387 C530.8663,31.9387 534.2653,25.0287 533.9003,18.6357 C533.8563,17.8577 533.8663,17.1107 533.8763,16.3877 C533.8813,16.0427 533.8863,15.7037 533.8843,15.3707 L533.8233,2.4397 L534.8233,2.4357 L534.8843,15.3667 C534.8863,15.7047 534.8813,16.0507 534.8763,16.4017 C534.8663,17.1067 534.8563,17.8357 534.8993,18.5787 C535.2783,25.2347 531.8263,32.2527 527.8283,40.3797 C525.1973,45.7277 522.4773,51.2577 520.4213,57.4637 C520.1583,58.2557 520.4253,59.0477 520.8003,59.9997 C522.2783,63.6467 524.2543,67.1737 526.3473,70.9077 C530.6213,78.5337 535.0393,86.4187 535.2573,95.8037 C535.2743,96.5337 535.2763,97.2687 535.2783,98.0047 L535.2803,98.6957 L535.6843,183.6317 L534.6843,183.6357 Z" id="Fill-82" fill="#00FFA3"></path>
                    <path d="M548.0215,183.6016 L547.6145,97.7626 C547.6125,97.0276 547.6105,96.2956 547.5935,95.5676 C547.3785,86.4556 542.9215,78.7236 538.6105,71.2456 C536.4475,67.4916 534.4045,63.9456 532.8625,60.2396 C532.4145,59.1256 532.0745,58.1196 532.4525,57.0076 C534.5775,50.7586 537.5085,44.9696 540.0935,39.8616 C544.1275,31.8946 547.6105,25.0136 547.2385,18.6166 C547.1925,17.8336 547.2035,17.0846 547.2135,16.3606 C547.2185,16.0146 547.2235,15.6756 547.2215,15.3416 L547.1605,2.3756 L548.1605,2.3726 L548.2215,15.3376 C548.2235,15.6766 548.2185,16.0226 548.2135,16.3736 C548.2035,17.0806 548.1935,17.8126 548.2365,18.5576 C548.6245,25.2246 545.0845,32.2166 540.9865,40.3136 C538.2895,45.6396 535.5015,51.1476 533.3995,57.3306 C533.1315,58.1176 533.4045,58.9086 533.7885,59.8596 C535.3025,63.5016 537.3305,67.0206 539.4775,70.7456 C543.8505,78.3316 548.3715,86.1776 548.5925,95.5436 C548.6105,96.2796 548.6125,97.0176 548.6145,97.7606 L548.6165,98.4426 L549.0215,183.5976 L548.0215,183.6016 Z" id="Fill-84" fill="#00FFA3"></path>
                    <path d="M561.3589,183.5684 L560.9509,97.5074 C560.9489,96.7704 560.9469,96.0374 560.9289,95.3074 C560.7109,86.2214 556.1539,78.5314 551.7479,71.0924 C549.5289,67.3484 547.4339,63.8114 545.8539,60.1064 C545.3929,58.9914 545.0459,57.9814 545.4339,56.8674 C547.6039,50.6394 550.6069,44.8734 553.2559,39.7864 C557.3879,31.8514 560.9559,24.9994 560.5759,18.5954 C560.5289,17.8114 560.5399,17.0594 560.5509,16.3324 C560.5559,15.9864 560.5609,15.6454 560.5589,15.3114 L560.4969,2.3124 L561.4969,2.3084 L561.5589,15.3074 C561.5609,15.6474 561.5559,15.9944 561.5509,16.3464 C561.5399,17.0554 561.5299,17.7894 561.5739,18.5374 C561.9699,25.2154 558.3429,32.1814 554.1429,40.2484 C551.3809,45.5524 548.5249,51.0374 546.3779,57.1964 C546.1049,57.9794 546.3829,58.7684 546.7759,59.7194 C548.3279,63.3584 550.4069,66.8684 552.6079,70.5834 C557.0799,78.1314 561.7039,85.9364 561.9289,95.2844 C561.9469,96.0204 561.9489,96.7604 561.9509,97.5054 L562.1129,131.8814 L562.3589,183.5644 L561.3589,183.5684 Z" id="Fill-86" fill="#00FFA3"></path>
                    <path d="M574.696,183.5352 L574.287,97.2472 C574.285,96.5112 574.283,95.7772 574.265,95.0472 C574.043,85.9862 569.387,78.3382 564.884,70.9402 C562.611,67.2042 560.463,63.6762 558.844,59.9732 C558.372,58.8552 558.016,57.8432 558.415,56.7242 C560.631,50.5202 563.573,45.0242 566.418,39.7102 C570.648,31.8072 574.301,24.9832 573.913,18.5752 C573.865,17.7892 573.876,17.0362 573.888,16.3062 C573.893,15.9592 573.898,15.6182 573.896,15.2822 L573.834,2.2492 L574.834,2.2452 L574.896,15.2782 C574.898,15.6202 574.893,15.9682 574.887,16.3222 C574.877,17.0322 574.866,17.7662 574.911,18.5142 C575.316,25.2062 571.601,32.1462 567.3,40.1812 C564.472,45.4642 561.548,50.9272 559.357,57.0602 C559.078,57.8422 559.362,58.6302 559.763,59.5792 C561.352,63.2142 563.483,66.7142 565.738,70.4202 C570.31,77.9302 575.036,85.6952 575.265,95.0222 C575.283,95.7612 575.285,96.5012 575.287,97.2452 L575.289,97.9372 L575.696,183.5312 L574.696,183.5352 Z" id="Fill-88" fill="#00FFA3"></path>
                    <path d="M588.0334,183.502 L587.6234,96.992 C587.6214,96.254 587.6194,95.52 587.6014,94.788 C587.3754,85.753 582.6204,78.145 578.0224,70.788 C575.6934,67.062 573.4934,63.542 571.8354,59.841 C571.3504,58.72 570.9854,57.705 571.3964,56.583 C573.6584,50.401 576.6684,44.927 579.5804,39.634 C583.9084,31.765 587.6464,24.969 587.2504,18.556 C587.2014,17.768 587.2134,17.013 587.2244,16.282 C587.2304,15.934 587.2354,15.59 587.2334,15.254 L587.1714,2.186 L588.1714,2.182 L588.2334,15.249 C588.2354,15.592 588.2304,15.941 588.2244,16.298 C588.2134,17.009 588.2024,17.745 588.2484,18.493 C588.6624,25.197 584.8594,32.11 580.4564,40.115 C577.5634,45.376 574.5704,50.816 572.3354,56.927 C572.0504,57.704 572.3414,58.491 572.7504,59.439 C574.3774,63.07 576.5594,66.562 578.8704,70.258 C583.5394,77.729 588.3684,85.454 588.6004,94.763 C588.6194,95.502 588.6214,96.244 588.6234,96.989 L588.6254,97.685 L589.0334,183.498 L588.0334,183.502 Z" id="Fill-90" fill="#00FFA3"></path>
                    <path d="M601.3708,183.4697 L600.9598,96.7407 C600.9578,95.9997 600.9558,95.2627 600.9368,94.5287 C600.7078,85.5177 595.8538,77.9507 591.1598,70.6337 C588.7748,66.9167 586.5228,63.4067 584.8258,59.7087 C584.4218,58.7907 583.9218,57.6577 584.3768,56.4417 C586.6838,50.2817 589.7638,44.8297 592.7418,39.5577 C597.1688,31.7217 600.9918,24.9537 600.5878,18.5347 C600.5378,17.7437 600.5498,16.9857 600.5618,16.2507 C600.5668,15.9037 600.5728,15.5607 600.5708,15.2237 L600.5088,2.1227 L601.5088,2.1187 L601.5708,15.2197 C601.5728,15.5627 601.5668,15.9117 601.5618,16.2677 C601.5498,16.9817 601.5378,17.7197 601.5858,18.4727 C602.0078,25.1887 598.1178,32.0747 593.6128,40.0497 C590.6538,45.2877 587.5928,50.7047 585.3138,56.7927 C585.0238,57.5657 585.3198,58.3517 585.7378,59.2977 C587.4028,62.9257 589.6368,66.4067 592.0008,70.0937 C596.7698,77.5277 601.7008,85.2127 601.9368,94.5027 C601.9558,95.2437 601.9578,95.9907 601.9598,96.7397 L602.0838,123.1817 L602.3708,183.4637 L601.3708,183.4697 Z" id="Fill-92" fill="#00FFA3"></path>
                    <path d="M614.708,183.4355 L614.296,96.4855 C614.294,95.7435 614.292,95.0035 614.273,94.2685 C614.04,85.2845 609.088,77.7585 604.298,70.4815 C601.858,66.7745 599.553,63.2715 597.817,59.5765 C597.402,58.6555 596.891,57.5195 597.358,56.3005 C599.71,50.1635 602.859,44.7335 605.904,39.4825 C610.429,31.6785 614.337,24.9395 613.925,18.5155 C613.874,17.7215 613.887,16.9605 613.899,16.2245 C613.904,15.8745 613.91,15.5325 613.908,15.1945 L613.846,2.0595 L614.846,2.0555 L614.908,15.1905 C614.91,15.5345 614.904,15.8845 614.898,16.2415 C614.887,16.9565 614.875,17.6975 614.923,18.4515 C615.354,25.1785 611.376,32.0395 606.769,39.9845 C603.744,45.2015 600.615,50.5955 598.292,56.6585 C597.997,57.4275 598.299,58.2115 598.725,59.1585 C600.428,62.7825 602.714,66.2545 605.134,69.9315 C610,77.3265 615.032,84.9725 615.273,94.2435 C615.292,94.9855 615.294,95.7325 615.296,96.4835 L615.298,97.1795 L615.708,183.4315 L614.708,183.4355 Z" id="Fill-94" fill="#00FFA3"></path>
                    <path d="M628.0454,183.4033 L627.6324,96.2303 C627.6304,95.4863 627.6284,94.7453 627.6094,94.0083 C627.3724,85.0483 622.3214,77.5643 617.4364,70.3273 C614.9404,66.6303 612.5834,63.1363 610.8074,59.4443 C610.3834,58.5203 609.8604,57.3823 610.3394,56.1583 C612.7364,50.0443 615.9534,44.6373 619.0644,39.4093 C623.6884,31.6373 627.6824,24.9253 627.2624,18.4953 C627.2104,17.7003 627.2234,16.9373 627.2354,16.2003 C627.2414,15.8493 627.2474,15.5043 627.2454,15.1663 L627.1834,1.9963 L628.1834,1.9923 L628.2454,15.1613 C628.2474,15.5063 628.2414,15.8583 628.2354,16.2163 C628.2234,16.9343 628.2114,17.6753 628.2604,18.4303 C628.7004,25.1703 624.6334,32.0063 619.9234,39.9203 C616.8334,45.1143 613.6374,50.4853 611.2704,56.5233 C610.9694,57.2913 611.2644,58.0423 611.7124,59.0183 C613.4524,62.6373 615.7904,66.1013 618.2654,69.7673 C623.2304,77.1243 628.3644,84.7303 628.6084,93.9813 C628.6284,94.7263 628.6304,95.4753 628.6324,96.2283 L628.6344,96.9273 L629.0454,183.3973 L628.0454,183.4033 Z" id="Fill-96" fill="#00FFA3"></path>
                    <path d="M641.3826,183.3691 L640.9686,95.9751 C640.9666,95.2291 640.9646,94.4871 640.9456,93.7491 C640.7056,84.8131 635.5566,77.3711 630.5766,70.1751 C628.0246,66.4861 625.6136,63.0021 623.7986,59.3111 C623.3646,58.3861 622.8296,57.2441 623.3206,56.0171 C625.7616,49.9251 629.0476,44.5411 632.2256,39.3341 C636.9486,31.5951 641.0276,24.9111 640.5996,18.4741 C640.5466,17.6761 640.5596,16.9111 640.5726,16.1711 C640.5786,15.8191 640.5846,15.4741 640.5826,15.1351 L640.5206,1.9321 L641.5206,1.9291 L641.5826,15.1311 C641.5846,15.4761 641.5786,15.8291 641.5726,16.1871 C641.5596,16.9071 641.5476,17.6511 641.5976,18.4081 C642.0466,25.1611 637.8906,31.9711 633.0796,39.8541 C629.9226,45.0261 626.6596,50.3751 624.2486,56.3891 C623.9426,57.1531 624.2426,57.9031 624.6996,58.8791 C626.4786,62.4941 628.8686,65.9481 631.3986,69.6051 C636.4616,76.9231 641.6966,84.4891 641.9446,93.7221 C641.9646,94.4691 641.9666,95.2201 641.9686,95.9731 L641.9706,96.6751 L642.3826,183.3651 L641.3826,183.3691 Z" id="Fill-98" fill="#00FFA3"></path>
                    <path d="M654.72,183.3359 L654.305,95.7209 C654.303,94.9729 654.301,94.2299 654.281,93.4889 C654.038,84.5789 648.791,77.1779 643.716,70.0209 C641.108,66.3419 638.644,62.8669 636.789,59.1789 C636.345,58.2499 635.799,57.1059 636.302,55.8759 C638.787,49.8059 642.142,44.4439 645.387,39.2589 C650.208,31.5529 654.373,24.8969 653.937,18.4549 C653.883,17.6529 653.897,16.8869 653.91,16.1449 C653.916,15.7919 653.922,15.4459 653.92,15.1059 L653.857,1.8689 L654.857,1.8649 L654.92,15.1019 C654.922,15.4479 654.916,15.8019 654.909,16.1619 C654.897,16.8829 654.884,17.6289 654.935,18.3869 C655.392,25.1519 651.148,31.9359 646.234,39.7889 C643.012,44.9399 639.68,50.2639 637.227,56.2549 C636.916,57.0159 637.221,57.7639 637.687,58.7379 C639.504,62.3499 641.946,65.7949 644.532,69.4409 C649.693,76.7219 655.029,84.2479 655.281,93.4619 C655.301,94.2099 655.303,94.9629 655.305,95.7179 L655.36,107.6579 L655.72,183.3309 L654.72,183.3359 Z" id="Fill-100" fill="#00FFA3"></path>
                    <path d="M668.0571,183.3027 L667.6411,95.4647 C667.6391,94.7157 667.6381,93.9707 667.6171,93.2287 C667.3701,84.3437 662.0261,76.9847 656.8571,69.8667 C654.3091,66.3597 651.6751,62.7317 649.7801,59.0457 C649.3261,58.1147 648.7671,56.9677 649.2831,55.7347 C651.8131,49.6877 655.2361,44.3487 658.5471,39.1857 C663.4681,31.5107 667.7181,24.8827 667.2751,18.4347 C667.2191,17.6317 667.2331,16.8637 667.2461,16.1187 C667.2531,15.7657 667.2591,15.4177 667.2571,15.0767 L667.1941,1.8057 L668.1941,1.8017 L668.2571,15.0727 C668.2591,15.4207 668.2531,15.7757 668.2461,16.1377 C668.2331,16.8597 668.2201,17.6067 668.2721,18.3657 C668.7381,25.1437 664.4051,31.9017 659.3891,39.7247 C656.1011,44.8527 652.7021,50.1547 650.2051,56.1207 C649.8891,56.8777 650.2001,57.6247 650.6741,58.5987 C652.5291,62.2057 655.0241,65.6417 657.6661,69.2797 C662.9241,76.5197 668.3611,84.0067 668.6171,93.2007 C668.6371,93.9507 668.6391,94.7047 668.6411,95.4627 L668.7651,121.8837 L669.0571,183.2987 L668.0571,183.3027 Z" id="Fill-102" fill="#00FFA3"></path>
                    <path d="M681.3945,183.2695 L680.9775,95.2095 C680.9755,94.4585 680.9735,93.7115 680.9535,92.9685 C680.7025,84.1085 675.2605,76.7905 669.9975,69.7115 C667.3955,66.2135 664.7055,62.5955 662.7715,58.9135 C662.3075,57.9785 661.7365,56.8295 662.2645,55.5925 C664.8375,49.5685 668.3295,44.2525 671.7065,39.1125 C676.7275,31.4685 681.0625,24.8695 680.6125,18.4155 C680.5555,17.6085 680.5695,16.8355 680.5835,16.0885 C680.5905,15.7355 680.5965,15.3885 680.5945,15.0465 L680.5315,1.7425 L681.5315,1.7385 L681.5945,15.0425 C681.5965,15.3915 681.5905,15.7465 681.5835,16.1075 C681.5705,16.8325 681.5565,17.5825 681.6095,18.3445 C682.0845,25.1355 677.6625,31.8675 672.5425,39.6615 C669.1895,44.7655 665.7225,50.0425 663.1835,55.9855 C662.8625,56.7395 663.1785,57.4855 663.6615,58.4575 C665.5545,62.0615 668.1025,65.4885 670.7995,69.1155 C676.1555,76.3175 681.6935,83.7655 681.9525,92.9415 C681.9735,93.6925 681.9755,94.4485 681.9775,95.2075 L682.0235,105.1465 L682.3945,183.2655 L681.3945,183.2695 Z" id="Fill-104" fill="#00FFA3"></path>
                    <path d="M694.7319,183.2354 L694.3139,94.9714 C694.3119,94.2144 694.3109,93.4594 694.2889,92.7094 C694.0359,83.8754 688.4959,76.5964 683.1389,69.5584 C680.4829,66.0694 677.7369,62.4614 675.7619,58.7804 C675.2879,57.8434 674.7049,56.6914 675.2459,55.4514 C677.8619,49.4504 681.4229,44.1564 684.8669,39.0384 C689.9869,31.4274 694.4089,24.8544 693.9499,18.3944 C693.8919,17.5894 693.9069,16.8154 693.9199,16.0684 C693.9269,15.7124 693.9339,15.3624 693.9319,15.0184 L693.8689,1.6784 L694.8689,1.6744 L694.9319,15.0134 C694.9339,15.3644 694.9269,15.7224 694.9199,16.0874 C694.9069,16.8124 694.8929,17.5624 694.9469,18.3244 C695.4309,25.1274 690.9199,31.8324 685.6969,39.5954 C682.2779,44.6774 678.7429,49.9324 676.1619,55.8514 C675.8349,56.6014 676.1579,57.3464 676.6489,58.3184 C678.5809,61.9194 681.1809,65.3354 683.9349,68.9534 C689.3879,76.1174 695.0259,83.5244 695.2889,92.6804 C695.3109,93.4394 695.3119,94.2034 695.3139,94.9694 L695.3149,95.6654 L695.7319,183.2314 L694.7319,183.2354 Z" id="Fill-106" fill="#00FFA3"></path>
                    <path d="M708.0688,183.2021 L707.6498,94.6761 C707.6478,93.9301 707.6468,93.1871 707.6248,92.4491 C707.3678,83.6391 701.7318,76.4021 696.2798,69.4031 C693.5698,65.9231 690.7678,62.3251 688.7538,58.6471 C688.2688,57.7081 687.6738,56.5531 688.2268,55.3101 C690.8868,49.3311 694.5168,44.0601 698.0268,38.9641 C703.2458,31.3861 707.7538,24.8411 707.2868,18.3741 C707.2288,17.5621 707.2428,16.7851 707.2578,16.0341 C707.2638,15.6791 707.2708,15.3301 707.2698,14.9871 L707.2058,1.6151 L708.2058,1.6111 L708.2698,14.9831 C708.2708,15.3331 708.2638,15.6901 708.2568,16.0531 C708.2438,16.7821 708.2288,17.5361 708.2838,18.3021 C708.7768,25.1181 704.1768,31.7981 698.8508,39.5311 C695.3658,44.5911 691.7628,49.8221 689.1408,55.7171 C688.8088,56.4641 689.1368,57.2081 689.6368,58.1791 C691.6068,61.7741 694.2598,65.1811 697.0688,68.7881 C702.6188,75.9141 708.3588,83.2831 708.6248,92.4201 C708.6468,93.1681 708.6478,93.9191 708.6498,94.6741 L708.7938,125.3251 L709.0688,183.1981 L708.0688,183.2021 Z" id="Fill-108" fill="#00FFA3"></path>
                    <path d="M721.4062,183.1689 L720.9862,94.4289 C720.9842,93.6789 720.9832,92.9329 720.9612,92.1899 C720.7002,83.4039 714.9672,76.2079 709.4232,69.2489 C706.6572,65.7779 703.7992,62.1899 701.7442,58.5149 C701.2502,57.5719 700.6432,56.4139 701.2082,55.1689 C703.9112,49.2129 707.6102,43.9659 711.1862,38.8919 C716.5052,31.3449 721.0982,24.8269 720.6242,18.3539 C720.5642,17.5399 720.5792,16.7609 720.5942,16.0079 C720.6012,15.6509 720.6082,15.3019 720.6072,14.9579 L720.5432,1.5519 L721.5432,1.5479 L721.6072,14.9539 C721.6082,15.3049 721.6012,15.6629 721.5942,16.0269 C721.5802,16.7579 721.5652,17.5139 721.6212,18.2799 C722.1222,25.1099 717.4332,31.7639 712.0032,39.4679 C708.4532,44.5039 704.7832,49.7119 702.1182,55.5829 C701.7812,56.3249 702.1152,57.0689 702.6232,58.0379 C704.6322,61.6309 707.3392,65.0279 710.2042,68.6249 C715.8512,75.7129 721.6902,83.0419 721.9612,92.1599 C721.9832,92.9119 721.9842,93.6679 721.9862,94.4269 L721.9882,95.1599 L722.4062,183.1649 L721.4062,183.1689 Z" id="Fill-110" fill="#00FFA3"></path>
                    <path d="M734.7437,183.1357 L734.3227,94.1657 C734.3207,93.4167 734.3197,92.6717 734.2967,91.9297 C734.0337,83.1697 728.2037,76.0137 722.5657,69.0927 C719.7457,65.6327 716.8307,62.0537 714.7357,58.3817 C714.2307,57.4377 713.6117,56.2787 714.1897,55.0277 C716.9357,49.0937 720.7027,43.8697 724.3457,38.8187 C729.7647,31.3037 734.4447,24.8137 733.9617,18.3337 C733.9007,17.5187 733.9167,16.7387 733.9317,15.9837 C733.9387,15.6257 733.9457,15.2747 733.9447,14.9287 L733.8807,1.4887 L734.8807,1.4847 L734.9447,14.9247 C734.9457,15.2777 734.9387,15.6377 734.9317,16.0027 C734.9167,16.7357 734.9017,17.4917 734.9587,18.2597 C735.4687,25.1027 730.6897,31.7297 725.1567,39.4037 C721.5407,44.4167 717.8027,49.6007 715.0977,55.4477 C714.7547,56.1887 715.0937,56.9307 715.6107,57.8987 C717.6587,61.4867 720.4187,64.8747 723.3407,68.4617 C729.0837,75.5107 735.0227,82.8007 735.2967,91.9007 C735.3197,92.6507 735.3207,93.4067 735.3227,94.1637 L735.3247,94.9067 L735.7437,183.1317 L734.7437,183.1357 Z" id="Fill-112" fill="#00FFA3"></path>
                    <path d="M748.0811,183.1025 L747.6591,93.9185 C747.6571,93.1645 747.6561,92.4155 747.6331,91.6695 C747.3661,82.9345 741.4401,75.8195 735.7091,68.9385 C732.8341,65.4875 729.8621,61.9185 727.7271,58.2485 C727.2121,57.3015 726.5801,56.1385 727.1711,54.8865 C729.9591,48.9755 733.7941,43.7755 737.5031,38.7475 C743.0231,31.2625 747.7891,24.7995 747.2991,18.3145 C747.2371,17.4985 747.2531,16.7165 747.2691,15.9595 C747.2761,15.6005 747.2831,15.2475 747.2811,14.9005 L747.2171,1.4245 L748.2171,1.4205 L748.2811,14.8955 C748.2831,15.2495 748.2761,15.6125 748.2681,15.9805 C748.2531,16.7125 748.2381,17.4705 748.2961,18.2395 C748.8141,25.0945 743.9461,31.6965 738.3091,39.3395 C734.6281,44.3315 730.8221,49.4915 728.0751,55.3125 C727.7271,56.0495 728.0731,56.7905 728.5981,57.7585 C730.6841,61.3425 733.4981,64.7215 736.4771,68.2985 C742.3171,75.3095 748.3551,82.5595 748.6331,91.6385 C748.6561,92.3945 748.6571,93.1545 748.6591,93.9165 L748.6611,94.6555 L749.0811,183.0985 L748.0811,183.1025 Z" id="Fill-114" fill="#00FFA3"></path>
                    <path d="M761.4185,183.0693 L760.9955,93.6723 C760.9935,92.9143 760.9925,92.1603 760.9685,91.4103 C760.6985,82.6983 754.6755,75.6243 748.8515,68.7823 C745.9215,65.3403 742.8935,61.7833 740.7175,58.1163 C740.1925,57.1653 739.5495,55.9993 740.1525,54.7453 C742.9835,48.8573 746.8875,43.6803 750.6625,38.6733 C756.2815,31.2213 761.1345,24.7863 760.6365,18.2943 C760.5735,17.4753 760.5895,16.6913 760.6055,15.9333 C760.6125,15.5733 760.6205,15.2183 760.6185,14.8713 L760.5545,1.3623 L761.5545,1.3583 L761.6185,14.8663 C761.6205,15.2213 761.6125,15.5853 761.6055,15.9543 C761.5895,16.6883 761.5745,17.4473 761.6335,18.2173 C762.1605,25.0873 757.2025,31.6623 751.4605,39.2753 C747.7145,44.2433 743.8415,49.3803 741.0535,55.1783 C740.7005,55.9133 741.0355,56.6223 741.5855,57.6203 C743.7095,61.1993 746.5775,64.5673 749.6125,68.1333 C755.5485,75.1063 761.6875,82.3173 761.9685,91.3793 C761.9925,92.1383 761.9935,92.9023 761.9955,93.6703 L761.9975,94.4023 L762.4185,183.0653 L761.4185,183.0693 Z" id="Fill-116" fill="#00FFA3"></path>
                    <path d="M774.7554,183.0361 L774.3314,93.4101 C774.3294,92.6531 774.3284,91.8991 774.3044,91.1501 C774.0314,82.4641 767.9124,75.4291 761.9954,68.6261 C759.0104,65.1941 755.9244,61.6461 753.7094,57.9831 C753.1734,57.0301 752.5174,55.8621 753.1334,54.6041 C756.0064,48.7381 759.9794,43.5851 763.8214,38.6001 C769.5404,31.1811 774.4804,24.7721 773.9734,18.2731 C773.9094,17.4521 773.9264,16.6661 773.9424,15.9061 C773.9504,15.5451 773.9584,15.1891 773.9564,14.8411 L773.8914,1.2991 L774.8914,1.2951 L774.9564,14.8361 C774.9584,15.1921 774.9504,15.5571 774.9424,15.9281 C774.9264,16.6631 774.9104,17.4241 774.9704,18.1951 C775.5064,25.0781 770.4584,31.6281 764.6134,39.2111 C760.8014,44.1561 756.8604,49.2691 754.0314,55.0441 C753.6734,55.7751 754.0134,56.4831 754.5724,57.4791 C756.7354,61.0561 759.6574,64.4141 762.7504,67.9701 C768.7824,74.9051 775.0194,82.0761 775.3044,91.1191 C775.3284,91.8781 775.3294,92.6411 775.3314,93.4081 L775.3334,94.1501 L775.7554,182.9621 L775.2554,183.0341 L774.7554,183.0361 Z" id="Fill-118" fill="#00FFA3"></path>
                    <path d="M788.0928,183.0029 L787.6678,93.1539 C787.6658,92.3969 787.6648,91.6419 787.6408,90.8899 C787.3638,82.2289 781.1498,75.2339 775.1398,68.4709 C772.0998,65.0489 768.9568,61.5109 766.6998,57.8509 C766.1548,56.8949 765.4858,55.7229 766.1148,54.4629 C769.0308,48.6209 773.0708,43.4909 776.9788,38.5289 C782.7988,31.1409 787.8248,24.7599 787.3108,18.2529 C787.2458,17.4279 787.2628,16.6379 787.2798,15.8729 C787.2868,15.5129 787.2948,15.1579 787.2938,14.8109 L787.2288,1.2349 L788.2288,1.2319 L788.2938,14.8069 C788.2948,15.1619 788.2868,15.5249 788.2798,15.8949 C788.2628,16.6349 788.2468,17.3989 788.3078,18.1749 C788.8528,25.0709 783.7148,31.5949 777.7638,39.1489 C773.8878,44.0699 769.8788,49.1589 767.0098,54.9099 C766.6468,55.6369 766.9918,56.3449 767.5598,57.3399 C769.7618,60.9119 772.7378,64.2609 775.8878,67.8069 C782.0158,74.7029 788.3518,81.8349 788.6398,90.8579 C788.6648,91.6189 788.6658,92.3849 788.6678,93.1529 L788.6698,93.8979 L789.0928,182.9989 L788.0928,183.0029 Z" id="Fill-120" fill="#00FFA3"></path>
                    <path d="M801.4302,182.9697 L801.0042,92.9277 C801.0022,92.1577 801.0012,91.3927 800.9772,90.6307 C800.6962,81.9927 794.3872,75.0387 788.2842,68.3137 C785.1892,64.9027 781.9882,61.3747 779.6912,57.7167 C779.1352,56.7587 778.4542,55.5857 779.0972,54.3217 C782.0532,48.5007 786.1632,43.3947 790.1372,38.4557 C796.0572,31.0997 801.1702,24.7457 800.6482,18.2337 C800.5822,17.4067 800.5992,16.6137 800.6172,15.8467 C800.6242,15.4857 800.6322,15.1297 800.6312,14.7817 L800.5662,1.1717 L801.5662,1.1677 L801.6312,14.7777 C801.6322,15.1347 801.6242,15.4977 801.6162,15.8687 C801.6002,16.6107 801.5832,17.3767 801.6452,18.1537 C802.1992,25.0627 796.9712,31.5597 790.9162,39.0827 C786.9742,43.9817 782.8982,49.0467 779.9882,54.7747 C779.6192,55.4997 779.9702,56.2057 780.5472,57.1997 C782.7882,60.7687 785.8182,64.1077 789.0252,67.6417 C795.2482,74.5007 801.6842,81.5937 801.9762,90.5977 C802.0012,91.3697 802.0022,92.1467 802.0042,92.9257 L802.0052,93.6447 L802.4302,182.9657 L801.4302,182.9697 Z" id="Fill-122" fill="#00FFA3"></path>
                    <path d="M814.7676,182.9365 L814.3396,92.6455 C814.3386,91.8825 814.3376,91.1245 814.3126,90.3715 C814.0296,81.7585 807.6246,74.8445 801.4306,68.1585 C798.2796,64.7565 795.0206,61.2395 792.6826,57.5835 C792.1156,56.6235 791.4226,55.4465 792.0776,54.1805 C795.0766,48.3825 799.2536,43.2995 803.2946,38.3845 C809.3156,31.0595 814.5156,24.7335 813.9856,18.2125 C813.9186,17.3825 813.9366,16.5875 813.9536,15.8195 C813.9616,15.4575 813.9696,15.1015 813.9686,14.7515 L813.9036,1.1085 L814.9036,1.1045 L814.9686,14.7485 C814.9696,15.1055 814.9616,15.4705 814.9536,15.8415 C814.9366,16.5845 814.9196,17.3535 814.9826,18.1325 C815.5446,25.0555 810.2256,31.5265 804.0666,39.0195 C800.0596,43.8945 795.9156,48.9365 792.9666,54.6395 C792.5936,55.3615 792.9486,56.0665 793.5346,57.0605 C795.8146,60.6245 798.8996,63.9545 802.1646,67.4795 C808.4826,74.2995 815.0166,81.3525 815.3116,90.3375 C815.3376,91.1025 815.3386,91.8715 815.3396,92.6435 L815.4516,116.4495 L815.7676,182.9325 L814.7676,182.9365 Z" id="Fill-124" fill="#00FFA3"></path>
                    <path d="M828.1045,182.9023 L827.6765,92.3973 C827.6755,91.6313 827.6735,90.8693 827.6485,90.1113 C827.3625,81.5233 820.8625,74.6493 814.5765,68.0013 C811.3695,64.6093 808.0525,61.1023 805.6735,57.4503 C805.0965,56.4873 804.3915,55.3073 805.0595,54.0393 C808.0995,48.2643 812.3455,43.2053 816.4525,38.3123 C822.5745,31.0183 827.8605,24.7193 827.3235,18.1933 C827.2545,17.3623 827.2725,16.5663 827.2905,15.7973 C827.2985,15.4323 827.3075,15.0743 827.3055,14.7233 L827.2405,1.0453 L828.2405,1.0413 L828.3055,14.7183 C828.3075,15.0783 828.2985,15.4463 828.2905,15.8193 C828.2735,16.5633 828.2555,17.3323 828.3205,18.1113 C828.8915,25.0483 823.4815,31.4923 817.2185,38.9553 C813.1455,43.8073 808.9345,48.8253 805.9445,54.5053 C805.5665,55.2233 805.9275,55.9273 806.5215,56.9213 C808.8415,60.4813 811.9795,63.7993 815.3025,67.3143 C821.7165,74.0973 828.3495,81.1113 828.6475,90.0783 C828.6735,90.8453 828.6755,91.6193 828.6765,92.3953 L828.6785,93.1393 L829.1045,182.8983 L828.1045,182.9023 Z" id="Fill-126" fill="#00FFA3"></path>
                    <g id="Group-130" transform="translate(817.000000, 0.000000)">
                        <mask id="mask-2" fill="white">
                            <use xlink:href="#path-1"></use>
                        </mask>
                        <g id="Clip-129"></g>
                        <path d="M24.4419,182.8691 L24.0119,92.1291 C24.0109,91.3661 24.0109,90.6061 23.9849,89.8511 C23.6949,81.2881 17.1009,74.4541 10.7239,67.8461 C7.4599,64.4641 4.0859,60.9671 1.6649,57.3171 C1.0779,56.3511 0.3589,55.1711 1.0409,53.8981 C4.1219,48.1451 8.4369,43.1101 12.6089,38.2411 C18.8319,30.9781 24.2059,24.7071 23.6609,18.1731 C23.5909,17.3401 23.6089,16.5421 23.6279,15.7701 C23.6359,15.4051 23.6449,15.0461 23.6429,14.6941 L23.5779,0.9811 L24.5779,0.9771 L24.6429,14.6891 C24.6449,15.0511 24.6359,15.4191 24.6279,15.7931 C24.6099,16.5391 24.5919,17.3091 24.6569,18.0891 C25.2369,25.0401 19.7369,31.4591 13.3689,38.8911 C9.2309,43.7211 4.9519,48.7141 1.9219,54.3711 C1.5389,55.0861 1.9059,55.7901 2.5089,56.7811 C4.8679,60.3381 8.2109,63.8021 11.4429,67.1511 C17.9519,73.8951 24.6809,80.8701 24.9839,89.8171 C25.0099,90.5831 25.0109,91.3531 25.0119,92.1281 L25.0139,92.8881 L25.4419,182.8651 L24.4419,182.8691 Z" id="Fill-128" fill="#00FFA3" mask="url(#mask-2)"></path>
                    </g>
                </g>
            </g>
        </g>
    </g>
</svg>