<svg xmlns="http://www.w3.org/2000/svg" viewBox="0 0 253.54 35.58"><defs><style>.cls-1{fill:blue;}</style></defs><title>logo</title><g id="Layer_2" data-name="Layer 2"><g id="Layer_1-2" data-name="Layer 1"><path class="cls-1" d="M10,19.11c3-.36,7,.89,9-1.85,1.25-1.25,0-3-.17-4.65a8.79,8.79,0,0,0-.13-1.51c-.58-3.29-3.12-5-6.63-5H7.32v5.53c0,.32,0,.65,0,1,0,2.16,1.7,3.41,2.42,5.15A3.42,3.42,0,0,1,10,19.11Zm5.75,5.39.83.82.93.91L27,35.58h-9.3l-9.65-10-.77-.8s0,.17,0,.46V35.58H0V25.35a9.89,9.89,0,0,1,.05-1c3.77-4.32,2.28-7.56,0-12,0-.35,0-.71,0-1.05V0H12.25c8.19,0,13.35,4.83,14,11.17q.06.63.06,1.29c4.21,7-3.51,10-9.15,11.7q-.68.2-1.37.35Z"/><path class="cls-1" d="M35.85,0H57.71V6.2H43.17v5.67c0,.29,0,.58,0,.86,1,5.77,9.23,1.53,13.46,3.28,2.24,1,2,5-.5,5.73-4,1-8-.25-12.21.5-.5.25-.75,1.5-.77,2.51,0,.3,0,.61,0,.92v3.71h15v6.2H35.85V25.35c0-.34,0-.68,0-1,.35-2.83,4.58-4.07,2.84-7.06-1.25-1.5-3-2.74-2.86-4.95V0Z"/><path class="cls-1" d="M101.83,23.69c3.66-2.94,4.66-6.43,3.17-10.86.08-.33.18-.66.28-1L108.86,0h7.63l-3.91,11.74c-.11.32-.22.65-.32,1,2,5.28-1,8-4,12.08l-.31.94-3.27,9.84h-5.9l-3.35-10c-.11-.33-.22-.66-.31-1a10.18,10.18,0,0,0-3.7-11.27,6.86,6.86,0,0,1-.39-1l-.28-.83-.28.83c-.9,2.2,1.85,4.2.85,6.44-.75,2.24-4,3.24-4.91,5.78-.12.33-.23.67-.34,1l-3.35,10h-5.9l-3.27-9.84-.31-.94c1.89-5.3-.35-8.29-4-12.08-.12-.33-.22-.66-.33-1L64.94,0h7.63l3.58,11.84c.1.33.2.66.32,1,2.6,3.43,7.09,6.42,3.35,10.91,4-3,5.48-6.23,3.6-10.91.1-.33.21-.66.33-1L87.77,0h5.9l4,11.84c.11.33.22.66.35,1,2,3.43,6.71,5.68,3.86,10a6,6,0,0,0-.06.81Z"/><path class="cls-1" d="M124.8,0h21.86V6.2H132.12v5.67c0,.29,0,.58,0,.86a2.9,2.9,0,0,0,1,2.78c4.24,1.74,12.46-2.49,13.21,3.24.25,1-.5,2.74-1.25,3-4,1-8.22-.25-12.21.5-.5,0-.5,1-.67,1.64a6.3,6.3,0,0,0-.11.87v4.63h15v6.2H124.8V25.35c0-.34,0-.68,0-1,4.08-4.32,2.59-7.56,0-12V0Z"/><path class="cls-1" d="M164.91,24.2c3.37,0,7.86,1.29,10.1-.46,4.49-4-1-7.48-4-11.21-.17-.43-.32-.82-.45-1.14l-.4-1-.39,1c-.12.32-.27.7-.43,1.14.65,4.48-.1,8-3.82,10.64a10.62,10.62,0,0,0-.65,1Zm13,6.1H162.54l-2,5.29h-7.62l4-9.84.38-.94c1.08-2.56,3.32-3.56,5.07-5.55,1.5-2.24-1-4.24-.18-6.53l.39-1L167.26,0h5.9l4.75,11.74.4,1C180,16.26,185,18,183,22.74a3.46,3.46,0,0,0,.2,2.06l.38.94,4,9.84h-7.63l-2-5.29Z"/><path class="cls-1" d="M205.3,25.21s.1-.25.3-.71c1.05-2.76,4.79-3.51,4.79-6.5,0-1.74-.75-3.74-.23-5.4.11-.32.23-.63.35-.94L215,0h7.62l-4.75,11.74c-.13.32-.26.65-.38,1-.88,2.29,1.36,4.54-.13,6.53s-4,3-4.76,5.55l-.38.94-4,9.84h-5.9l-4-9.84L198,24.8c-1.05-2.06.94-4.05.44-6-.75-2.49-4.24-3.24-5.31-6-.15-.33-.28-.66-.41-1L188,0h7.62l4.49,11.66.37.94c1,2.91,5.21,3.41,5.71,6.4.25,1.74-1.74,3.49-1.11,5.5.16.45.25.71.25.71Z"/><path class="cls-1" d="M230.95,0H252.8V6.2H238.27v5.67c0,.29,0,.58,0,.86a3,3,0,0,0,1.26,2.78c4.49,1.74,12.71-2.74,14,3.24a3,3,0,0,1-2,3c-4.24.75-8.22-.25-12.21.5-1,0-1,1.5-1,2.51,0,.3,0,.61,0,.92v3.71h15v6.2H230.95V25.35a9,9,0,0,1,0-1c3.58-4.32,2.58-7.56,0-12V0Z"/></g></g></svg>