<svg xmlns="http://www.w3.org/2000/svg" viewBox="0 0 447.35 312.6"><defs><style>.cls-1{fill:blue;}</style></defs><title>system change</title><g id="Layer_2" data-name="Layer 2"><g id="Layer_1-2" data-name="Layer 1"><path class="cls-1" d="M440.17,99.11a15.36,15.36,0,0,0-2.26-4.85A21.61,21.61,0,0,0,430.8,88a53.32,53.32,0,0,0-16-5.48,143.83,143.83,0,0,0-21.91-2.4c-21-.89-48.19,1-79.31,5.57a943,943,0,0,0-102.93,21.43C154.34,122,104.32,140.13,68,157.77c-18.16,8.84-32.89,17.53-43.42,25.84A69.62,69.62,0,0,0,12,196a30.85,30.85,0,0,0-3.72,6.3,19,19,0,0,0-1.6,6.68,15.13,15.13,0,0,0,2.74,9.4,21.61,21.61,0,0,0,7.11,6.25,53.33,53.33,0,0,0,16,5.48,144.11,144.11,0,0,0,21.91,2.4c21,.89,48.19-1,79.32-5.57a942.58,942.58,0,0,0,102.93-21.44c56.35-14.89,106.37-33,142.68-50.63C397.51,146,412.24,137.3,422.76,129a69.6,69.6,0,0,0,12.57-12.36,30.88,30.88,0,0,0,3.72-6.3,19,19,0,0,0,1.6-6.68A14.28,14.28,0,0,0,440.17,99.11Zm-9.77,4.11a8.84,8.84,0,0,1-.78,3.08,29.31,29.31,0,0,1-6.28,8.5c-5.63,5.7-14.63,12.25-26.32,19.06C379.48,144.1,355.88,155,328.11,165.6A943.55,943.55,0,0,1,234,195.54a932,932,0,0,1-101.79,21.2c-30.67,4.49-57.33,6.33-77.4,5.47a149.65,149.65,0,0,1-16.11-1.47c-7.07-1.07-12.61-2.7-16.21-4.58a14.75,14.75,0,0,1-3.95-2.81,5.71,5.71,0,0,1-1.48-2.48,5,5,0,0,1-.15-1.49,8.83,8.83,0,0,1,.78-3.08A29.32,29.32,0,0,1,24,197.8c5.63-5.7,14.63-12.25,26.32-19.06C67.87,168.5,91.47,157.59,119.24,147a943.44,943.44,0,0,1,94.07-29.94A932.55,932.55,0,0,1,315.1,95.86c30.67-4.49,57.34-6.33,77.4-5.47a149.79,149.79,0,0,1,16.11,1.47c7.07,1.07,12.61,2.7,16.21,4.58a14.76,14.76,0,0,1,3.95,2.81,6.05,6.05,0,0,1,1.33,2l.15.47A4.93,4.93,0,0,1,430.4,103.22Z"/><path class="cls-1" d="M442.21,145.74l-5.13.24v.43a6.15,6.15,0,0,1-.74,2.55,14.21,14.21,0,0,1-2.31,3.17,41.49,41.49,0,0,1-9.43,7.05c-7.39,4.29-17.89,8.61-30.84,12.63-19.43,6.05-44.37,11.5-73,15.82a950.06,950.06,0,0,1-95.15,9.2c-30.84,1.49-60.23,1.56-86.88.43-19.29-.82-37.15-2.27-53.05-4.27-11.93-1.5-22.77-3.31-32.29-5.38a193.76,193.76,0,0,1-19.07-5.08c-8.31-2.72-14.7-5.75-18.7-8.7a17.58,17.58,0,0,1-4.21-4.11,7.46,7.46,0,0,1-.87-1.68,4.91,4.91,0,0,1-.3-1.44v-.42a6.14,6.14,0,0,1,.74-2.55,14.18,14.18,0,0,1,2.31-3.17,41.49,41.49,0,0,1,9.43-7.05c7.39-4.29,17.89-8.61,30.84-12.63C73,134.73,98,129.29,126.57,125a950,950,0,0,1,95.15-9.2c30.84-1.49,60.23-1.56,86.88-.43,19.29.82,37.14,2.27,53.05,4.27,11.93,1.5,22.77,3.31,32.29,5.38A193.3,193.3,0,0,1,413,130.07c8.31,2.72,14.7,5.75,18.7,8.7a17.62,17.62,0,0,1,4.22,4.11,7.6,7.6,0,0,1,.88,1.68,4.91,4.91,0,0,1,.3,1.44h0l5.13-.24,5.13-.25a15.28,15.28,0,0,0-1.18-5.18,22,22,0,0,0-6.11-8,45.41,45.41,0,0,0-8.37-5.59,110.2,110.2,0,0,0-20.7-8c-12.21-3.56-27.16-6.5-44.34-8.8S330.07,106,309,105.07c-27-1.15-56.68-1.07-87.81.44-59.93,2.9-114,10.52-153.53,20.64-9.88,2.53-18.86,5.22-26.81,8-11.94,4.25-21.55,8.76-28.57,13.72a37.26,37.26,0,0,0-8.56,8,20.51,20.51,0,0,0-2.62,4.65A15.86,15.86,0,0,0,0,165.75c0,.45,0,.9,0,1.35a15.33,15.33,0,0,0,1.18,5.17,22,22,0,0,0,6.11,8,45.44,45.44,0,0,0,8.37,5.59,110.15,110.15,0,0,0,20.7,8c12.21,3.56,27.16,6.5,44.34,8.8s36.57,3.93,57.6,4.82c27,1.15,56.68,1.07,87.81-.44,59.93-2.9,114-10.52,153.52-20.64,9.88-2.53,18.86-5.22,26.81-8,11.94-4.25,21.55-8.76,28.57-13.72a37.31,37.31,0,0,0,8.56-8,20.55,20.55,0,0,0,2.62-4.65,15.86,15.86,0,0,0,1.12-5.17c0-.45,0-.9,0-1.35h0Z"/><path class="cls-1" d="M385.45,303.61l-3.8-3.45a5,5,0,0,1-1.1.9,8.46,8.46,0,0,1-2.76,1,19,19,0,0,1-4.44.27,51.25,51.25,0,0,1-12.26-2.37c-8.47-2.55-19-7.17-30.89-13.61-17.9-9.66-39-23.41-61.81-40.36s-47.3-37.13-72-59.66c-39.7-36.15-73.3-72.25-96.71-102.62C87.94,68.51,78.79,54.75,72.73,43.27A98.67,98.67,0,0,1,66,28a31.79,31.79,0,0,1-1.9-10.69,10.28,10.28,0,0,1,.53-3,5.22,5.22,0,0,1,1-1.8,4.93,4.93,0,0,1,1.1-.9,8.47,8.47,0,0,1,2.76-1A19,19,0,0,1,74,10.29a51.18,51.18,0,0,1,12.26,2.38c8.47,2.55,19,7.17,30.89,13.61,17.9,9.66,39,23.41,61.81,40.36s47.3,37.13,72,59.66c39.7,36.15,73.3,72.25,96.71,102.62,11.7,15.18,20.85,28.93,26.91,40.41a98.6,98.6,0,0,1,6.72,15.32,31.79,31.79,0,0,1,1.9,10.69,10.24,10.24,0,0,1-.53,3,5.23,5.23,0,0,1-1,1.8l3.8,3.45,3.79,3.45a15.52,15.52,0,0,0,3.12-5.24,20.38,20.38,0,0,0,1.12-6.05,41.55,41.55,0,0,0-2.38-14.28c-2.94-9.05-8.36-19.59-15.91-31.49-11.33-17.83-27.48-38.64-47.4-61a955.18,955.18,0,0,0-69.88-70.27C219.84,84,182.35,54.89,150.32,34.14c-16-10.37-30.66-18.65-43.41-24.46A142.3,142.3,0,0,0,89.23,2.84,61.12,61.12,0,0,0,74.44,0a26.82,26.82,0,0,0-9,1,17.54,17.54,0,0,0-4,1.76,15.16,15.16,0,0,0-3.37,2.76A15.52,15.52,0,0,0,55,10.78a20.44,20.44,0,0,0-1.12,6.05,41.53,41.53,0,0,0,2.38,14.28c2.94,9.05,8.36,19.59,15.91,31.49,11.33,17.83,27.49,38.64,47.4,61a954.67,954.67,0,0,0,69.88,70.27C227.51,228.56,265,257.71,297,278.46c16,10.37,30.66,18.65,43.41,24.46a142.5,142.5,0,0,0,17.69,6.84,61.13,61.13,0,0,0,14.79,2.8,26.82,26.82,0,0,0,9-1,17.38,17.38,0,0,0,4-1.76,15.19,15.19,0,0,0,3.37-2.76Z"/><path class="cls-1" d="M77,76.14,75.3,50.33l-6.09,4.24,22,9.86c5.48,2.45,8.28-6.46,2.86-8.88l-22-9.86c-2.6-1.16-6.28,1.41-6.09,4.24l1.74,25.81C68.12,81.67,77.45,82.13,77,76.14Z"/><path class="cls-1" d="M356.16,264.79l27.14,21c2.87,2.23,7-.43,7.19-3.73q.61-14.59,1.21-29.17c.25-6-9.07-6.4-9.32-.4q-.61,14.59-1.22,29.17l7.18-3.73-27.14-21C356.46,253.26,351.45,261.14,356.16,264.79Z"/><path class="cls-1" d="M14.21,139.64l25.41,4.87-2.5-7L22,156.35c-3.77,4.68,4.12,9.68,7.85,5L45,142.59c1.75-2.18.3-6.43-2.5-7l-25.4-4.87C11.24,129.64,8.33,138.51,14.21,139.64Z"/><path class="cls-1" d="M421.54,145.86,397.07,170c-3.14,3.09-.91,7.41,3,8.1l28.75,5.09c5.89,1,6.23-8.29.4-9.32l-28.75-5.09,3,8.1,24.47-24.1C432.12,148.52,425.83,141.63,421.54,145.86Z"/><path class="cls-1" d="M326.13,161.3l25.41,4.87-2.49-7L333.91,178c-3.77,4.68,4.12,9.68,7.85,5l15.13-18.8c1.75-2.17.3-6.43-2.49-7L329,152.41C323.16,151.3,320.24,160.17,326.13,161.3Z"/><path class="cls-1" d="M52.92,52.35a35.56,35.56,0,0,1-.86,9.4,3.81,3.81,0,0,0,2.4,4.67A3.75,3.75,0,0,0,59.13,64a42.91,42.91,0,0,0,1.21-11.37C60.18,47.91,52.76,47.56,52.92,52.35Z"/><path class="cls-1" d="M86.78,30.91c29,2.3,50,22.48,69.52,42.09,3.37,3.38,8.85-1.63,5.47-5-21-21.13-43.51-42-74.67-44.48C82.32,23.11,82,30.53,86.78,30.91Z"/><path class="cls-1" d="M273.7,233.63c16,20.68,34.22,41.12,62.11,42.6,4.77.25,5.09-7.17.31-7.42-25.86-1.37-42.27-21.26-57-40.2C276.23,224.82,270.78,229.87,273.7,233.63Z"/><path class="cls-1" d="M401,236.26a147.9,147.9,0,0,1-3.14,28.92c-1,4.64,6.08,7,7.07,2.28a157.69,157.69,0,0,0,3.5-30.88C408.49,231.81,401.07,231.47,401,236.26Z"/><path class="cls-1" d="M407.11,195.86l18.86.8c4.78.2,5.1-7.22.32-7.42l-18.86-.8C402.65,188.23,402.33,195.65,407.11,195.86Z"/><path class="cls-1" d="M324.57,148.6A146.07,146.07,0,0,1,339.22,153c4.51,1.62,6.76-5.45,2.28-7.07a147.43,147.43,0,0,0-14.65-4.45C322.23,140.38,319.93,147.45,324.57,148.6Z"/><path class="cls-1" d="M14.52,124.57a32.24,32.24,0,0,1,15.19,6.53c3.81,2.9,7.79-3.37,4-6.25a39.81,39.81,0,0,0-18.89-7.71C10.11,116.48,9.83,123.9,14.52,124.57Z"/><path class="cls-1" d="M25.56,200.83c-7.51,21,40,19.66,50.38,18.14,4.72-.69,3-7.93-1.67-7.24s-45,.7-41.64-8.62C34.25,198.6,27.17,196.34,25.56,200.83Z"/><path class="cls-1" d="M416.68,106c-12.47-15.42-30.05-15.43-48.4-14.31-4.72.29-5.09,7.71-.31,7.42,16.19-1,32-1.94,43.25,11.91C414.23,114.75,419.68,109.7,416.68,106Z"/><path class="cls-1" d="M190.5,172.56c5.5,5.86,10.89,13.06,17.94,17.16,6.55,3.81,13.78,3.31,21,2.51,4.74-.52,3-7.76-1.67-7.24-7.45.83-13.52.62-19.46-4.57-4.45-3.89-8.34-8.57-12.38-12.88C192.7,164,187.23,169.07,190.5,172.56Z"/></g></g></svg>